<?xml version="1.0" encoding="UTF-8"?>
<!-- Created with Inkscape (http://www.inkscape.org/) -->
<svg width="1e3" height="1e3" version="1.1" viewBox="0 0 1e3 1e3" xmlns="http://www.w3.org/2000/svg" xmlns:cc="http://creativecommons.org/ns#" xmlns:dc="http://purl.org/dc/elements/1.1/" xmlns:rdf="http://www.w3.org/1999/02/22-rdf-syntax-ns#">
 <metadata>
  <rdf:RDF>
   <cc:Work rdf:about="">
    <dc:format>image/svg+xml</dc:format>
    <dc:type rdf:resource="http://purl.org/dc/dcmitype/StillImage"/>
    <dc:title/>
   </cc:Work>
  </rdf:RDF>
 </metadata>
 <path d="m413 989.45c-44.113-2.4632-81.851-7.4726-109.68-14.559-42.824-10.905-58.963-27.351-47.877-48.789 7.3646-14.242 40.362-29.24 73.211-33.277 6.7697-1.437 13.777-2.6016 19.911-4.2063 2.7123-0.75834 10.782-2.1373 17.932-3.0643 21.825-2.8296 23.439-3.486 34.845-14.169 3.4571-3.2381 7.3812-6.8506 8.7203-8.0276 27.879-24.506 41.334-51.06 49.332-97.36 10.216-59.139 9.5533-156.66-1.4602-215-3.3144-17.557-8.6861-36.055-13.597-46.823-1.8369-4.0277-3.3398-7.5598-3.3398-7.8491 0-1.152-11.274-19.192-15.516-24.828-2.4838-3.3-5.4529-7.4618-6.598-9.2485-7.2038-9.119-18.966-16.104-25.782-23.219-1.3176-0.91407-13.161-7.2187-14.458-8.033-0.68553-0.43035-1.1112-0.50522-2.1964-0.90203-0.98595-0.49611-11.975-6.5097-25.45-13.364-24.918-12.674-33.255-17.029-43.028-22.478-3.0096-1.6778-6.9933-3.8844-8.8528-4.9036-1.8595-1.0192-4.5127-2.8655-5.896-4.103-2.5138-1.3547-3.8782-2.1211-5.5152-3.2865-0.66428-0.57006-4.1328-2.8916-7.7078-5.1591s-7.6749-5.0635-9.1109-6.2135c-1.436-1.15-3.6361-2.7659-4.8891-3.5909-2.2088-1.4543-7.9862-5.9375-9-6.9839-0.275-0.28385-2.75-2.3069-5.5-4.4956-11.912-9.4809-27.287-26.69-30.841-34.521-0.37446-0.825-1.549-2.85-2.6102-4.5-2.0629-3.2077-6.6546-12.846-7.2729-14.142-2.5177-5.6191-2.2494-5.0394-2.9396-7.0468-1.2421-2.4157-4.3044-9.4974-8.4606-22.811-2.7316-8.7499-3.371-18.971-3.6912-59-0.15778-19.728 0.29567-24.139 4.3176-42 3.8422-17.063 5.3704-35.93 3.719-45.915-1.3332-8.0603-3.0471-7.892 97.779-9.5993 98.629-1.67 298.37-1.67 397 0 100.83 1.7072 99.112 1.539 97.779 9.5993-1.6515 9.9846-0.12325 28.852 3.719 45.915 4.022 17.861 4.4754 22.272 4.3176 42-0.32014 40.029-0.9596 50.25-3.6912 59-4.1562 13.313-7.5211 20.655-8.4606 22.811-1.395 4.8736-0.63858 2.7524-2.9373 6.9886-0.68025 1.7849-5.2124 10.993-7.2753 14.201-1.0611 1.65-2.2357 3.675-2.6102 4.5-3.5544 7.8309-18.929 25.04-30.841 34.521-2.75 2.1887-5.225 4.2117-5.5 4.4956-1.0138 1.0464-6.7912 5.5296-9 6.9839-1.253 0.825-3.4531 2.4409-4.8891 3.5909-1.436 1.15-5.5359 3.9461-9.1109 6.2135s-7.0435 4.589-7.7078 5.1591c-1.9686 1.0896-4.0245 1.9672-5.5152 3.2865-1.3833 1.2375-4.0365 3.0839-5.896 4.103-1.8595 1.0192-5.8433 3.2258-8.8528 4.9036-9.773 5.4483-18.111 9.8038-43.028 22.478-9.3931 4.1392-18.335 10.335-27.646 14.266-1.3868 0.64978-13.609 6.9736-14.369 7.9562-0.64679 0.2571-0.86375 0.53066-1.5506 1.0438-7.0847 5.6526-19.753 15.537-24.32 22.251-1.1451 1.7867-4.1142 5.9485-6.598 9.2485-4.2419 5.6358-15.516 23.676-15.516 24.828 0 0.28935-1.5029 3.8214-3.3398 7.8491-4.9109 10.768-10.283 29.266-13.597 46.823-11.014 58.341-11.676 155.86-1.4602 215 7.998 46.3 21.453 72.854 49.332 97.36 1.3391 1.177 5.2632 4.7894 8.7203 8.0276 11.406 10.683 13.02 11.34 34.845 14.169 7.15 0.927 15.219 2.3059 17.932 3.0643 7.139 1.1506 13.7 3.4259 19.911 4.2063 32.849 4.0369 65.847 19.035 73.211 33.277 11.086 21.437-5.053 37.883-47.877 48.789-22.429 5.7117-27.004 6.4464-72.677 11.671-36.732 4.2019-157.79 5.8587-211 2.8876z"/>
</svg>
