<?xml version="1.0" standalone="no"?>
<!DOCTYPE svg PUBLIC "-//W3C//DTD SVG 20010904//EN"
 "http://www.w3.org/TR/2001/REC-SVG-20010904/DTD/svg10.dtd">
<svg version="1.0" xmlns="http://www.w3.org/2000/svg"
 width="1000.000000pt" height="1000.000000pt" viewBox="0 0 1000.000000 1000.000000"
 preserveAspectRatio="xMidYMid meet">
<metadata>
Created by potrace 1.11, written by Peter Selinger 2001-2013
</metadata>
<g transform="translate(0.000000,1000.000000) scale(0.100000,-0.100000)"
fill="#000000" stroke="none">
<path d="M4177 8854 c-1 -1 -303 -5 -672 -8 -729 -8 -1184 -15 -1243 -21 -20
-1 -70 -3 -110 -4 -62 -1 -76 -4 -96 -24 -17 -18 -22 -31 -19 -53 17 -100 1
-288 -37 -459 -40 -179 -45 -223 -43 -420 3 -400 9 -503 37 -590 41 -133 70
-211 84 -228 8 -9 10 -22 6 -28 -4 -7 1 -18 12 -26 10 -8 19 -17 18 -21 -1
-10 43 -100 66 -137 11 -16 23 -37 27 -45 35 -78 189 -250 308 -345 28 -22 52
-42 55 -45 10 -11 68 -55 90 -70 13 -8 35 -24 49 -36 14 -11 55 -39 91 -62 36
-23 70 -46 77 -52 7 -5 16 -10 21 -10 5 0 20 -10 34 -22 14 -13 41 -31 59 -42
19 -10 59 -32 89 -49 97 -54 181 -98 430 -224 135 -69 249 -129 255 -134 5 -5
15 -9 21 -9 16 0 138 -70 142 -82 2 -4 10 -8 18 -8 23 0 204 -168 204 -190 0
-6 4 -9 9 -6 5 3 18 -9 30 -27 11 -17 41 -59 66 -92 42 -56 155 -237 155 -248
0 -3 15 -38 34 -79 28 -62 69 -187 106 -328 15 -57 48 -240 55 -305 4 -33 8
-67 10 -75 2 -8 7 -42 10 -75 4 -33 8 -75 10 -94 28 -258 39 -907 20 -1186
-19 -281 -27 -354 -65 -575 -49 -291 -146 -554 -262 -710 -39 -52 -174 -196
-227 -244 -14 -11 -53 -47 -88 -80 -114 -107 -130 -113 -348 -142 -71 -9 -152
-23 -179 -30 -27 -8 -62 -14 -78 -14 -15 0 -28 -4 -28 -8 0 -5 -42 -14 -93
-20 -149 -18 -397 -93 -545 -163 -71 -34 -158 -113 -188 -170 -21 -42 -29
-142 -15 -195 36 -133 201 -225 551 -310 86 -20 235 -47 334 -59 66 -9 135
-17 151 -20 348 -48 681 -62 1430 -62 708 0 1066 14 1343 52 18 3 54 7 80 10
171 19 386 55 485 80 33 9 62 16 87 21 63 13 211 69 292 111 137 70 186 148
175 278 -2 34 -12 76 -21 94 -30 57 -117 136 -188 170 -148 70 -396 145 -545
163 -51 6 -93 15 -93 20 0 4 -13 8 -28 8 -16 0 -51 6 -78 14 -27 7 -107 21
-179 30 -218 29 -234 35 -348 142 -35 33 -74 69 -88 80 -53 48 -188 192 -227
244 -83 113 -173 322 -226 525 -33 128 -73 400 -92 625 -34 402 -20 1114 30
1492 3 18 8 56 11 83 8 63 42 248 55 295 37 141 78 266 106 328 19 41 34 76
34 79 0 11 113 192 155 248 25 33 55 75 66 92 12 18 25 30 30 27 5 -3 9 0 9 6
0 22 181 190 204 190 8 0 16 4 18 8 4 12 126 82 142 82 6 0 16 4 22 9 5 5 119
65 254 134 249 126 333 170 430 224 30 17 70 39 89 49 18 11 45 29 59 42 14
12 29 22 34 22 5 0 14 5 21 10 7 6 41 29 77 52 36 23 77 51 91 62 14 12 36 28
49 36 22 15 80 59 90 70 3 3 28 23 55 45 119 95 273 267 308 345 4 8 16 29 27
45 18 28 63 118 70 140 2 6 10 15 18 21 8 6 12 16 8 23 -4 6 -2 19 6 28 14 17
43 95 84 228 28 87 34 190 37 590 2 197 -3 241 -43 420 -38 171 -54 359 -37
459 3 22 -2 35 -19 53 -19 19 -34 23 -91 24 -37 0 -86 2 -108 4 -55 4 -548 13
-1165 21 -426 5 -2398 12 -2403 8z"/>
</g>
</svg>
