<?xml version="1.0" encoding="UTF-8"?>
<!-- Created with Inkscape (http://www.inkscape.org/) -->
<svg width="1e3" height="1e3" version="1.1" viewBox="0 0 1e3 1e3" xmlns="http://www.w3.org/2000/svg" xmlns:cc="http://creativecommons.org/ns#" xmlns:dc="http://purl.org/dc/elements/1.1/" xmlns:rdf="http://www.w3.org/1999/02/22-rdf-syntax-ns#">
 <metadata>
  <rdf:RDF>
   <cc:Work rdf:about="">
    <dc:format>image/svg+xml</dc:format>
    <dc:type rdf:resource="http://purl.org/dc/dcmitype/StillImage"/>
    <dc:title/>
   </cc:Work>
  </rdf:RDF>
 </metadata>
 <path d="m0 500v-500h1e3v1e3h-1e3z" fill="#fdfdfd"/>
 <path d="m465.5 993.41c-38.976-2.8801-61.299-6.4415-81.958-13.075-23.458-7.5326-35.649-16.465-39.503-28.942-1.1212-3.6301-2.0493-8.0152-2.0624-9.7448-0.0131-1.7296-0.52682-4.9447-1.1416-7.1447-0.9188-3.2881-3.0576-64.561-2.5657-73.5 0.54429-9.8899 0.0242-68.561-1.0151-114.5-2.3563-104.16-3.7436-236.4-3.2942-314 0.0988-17.05-0.5556-69.25-1.4541-116-1.861-96.826-3.3885-294.24-2.3173-299.5 1.3456-6.6047 1.4678-6.6313 34.194-7.4383 16.235-0.40036 35.728-0.36738 43.318 0.073272l13.8 0.80119-8.5 0.70139c-4.675 0.38576-20.089 1.2028-34.254 1.8156-30.12 1.3031-36.708 2.6308-22.496 4.5335 2.6125 0.34976 4.75 1.0308 4.75 1.5134s-2.1375 1.2125-4.75 1.6221l-4.75 0.74464 9 1.5666c4.9683 0.86483 8.839 2.0146 8.6407 2.5666-0.19763 0.55-2.4476 1.6019-5 2.3376-6.2259 1.7945-8.3713 4.0195-10.493 10.883-0.98277 3.1788-2.2758 7.3547-2.8735 9.2797-1.4385 4.6336-2.5298 14.842-3.7948 35.5-0.57255 9.35-1.4532 23.75-1.957 32-2.4724 40.487-3.2373 97.786-2.5498 191 0.38941 52.8 0.86817 103.2 1.0639 112 0.51618 23.207 2.4118 57.976 3.5685 65.453 3.2944 21.294 4.8951 41.802 4.8951 62.716 0 36.933 3.3131 74.093 9.5352 106.95 4.5357 23.95 5.0922 28.181 6.9152 52.583 0.8505 11.384 2.4439 27.689 3.5408 36.232 1.0969 8.5433 2.9056 23.754 4.0192 33.801 2.1932 19.788 2.467 21.736 4.5419 32.317 1.6717 8.5251 3.6051 13.378 6.3027 15.819 2.2296 2.0178 2.9464 1.9692 20.145-1.3649 19.63-3.8053 48.673-7.7717 77.019-10.518 13.814-1.3385 17.22-1.3384 31 1e-3 28.736 2.7932 58.433 6.8636 76.481 10.483 16.153 3.2393 18.444 3.3917 20.671 1.3756 4.664-4.2208 7.207-15.531 10.818-48.113 1.1136-10.047 2.9203-25.243 4.015-33.768 1.0946-8.5254 2.6648-24.605 3.4892-35.732 1.7388-23.47 2.4411-28.775 7.092-53.575 6.1558-32.825 9.4078-69.571 9.4238-106.49 9e-3 -21.248 1.0686-35.447 4.4522-59.67 3.3291-23.834 4.0948-51.333 5.0539-181.5 0.6933-94.09-8e-3 -146.55-2.5345-189.5-3.1143-52.954-3.8761-61.951-5.7572-68-0.59868-1.925-1.6671-5.4915-2.3743-7.9257-2.1408-7.3686-4.6921-10.202-11.106-12.333-3.1659-1.0519-5.5309-2.2771-5.2555-2.7227 0.2754-0.44561 4.4407-1.4058 9.2562-2.1338l8.7555-1.3236-4.75-0.889c-2.6125-0.48895-4.75-1.2627-4.75-1.7195 0-0.4568 2.1375-1.1167 4.75-1.4665 14.103-1.8881 7.5414-3.2665-21.546-4.5258-13.587-0.58824-28.979-1.396-34.204-1.7951l-9.5-0.7256 13.425-0.79528c7.3839-0.4374 26.878-0.47017 43.321-0.072819 33.142 0.80091 33.219 0.8174 34.565 7.428 1.069 5.2468-0.46184 202.54-2.3239 299.5-0.89776 46.75-1.5429 98.95-1.4337 116 0.50514 78.851-1.8468 283.64-4.0081 349-0.55361 16.742-0.68868 61.489-0.24299 80.5 0.28474 12.146-1.8023 69.51-2.6377 72.5-0.61474 2.2-1.1284 5.4151-1.1416 7.1447-0.0131 1.7296-0.94565 6.1291-2.0723 9.7767-1.6441 5.323-3.0875 7.6711-7.313 11.897-13.726 13.726-43.62 23.032-90.639 28.215-13.694 1.5096-78.476 2.8364-91.5 1.874zm64.5-6.2386c8.6226-1.6099 1.6104-2.1946-15.455-1.2887-9.3253 0.495-17.425 0.76121-18 0.59158s-8.2448-0.59303-17.045-0.94089c-17.4-0.68782-20.39 0.58129-5.5 2.3346 9.4323 1.1107 48.953 0.61909 56-0.69661zm51.5-37.747c6.9236-1.9005 7.0033-1.9612 7.304-5.5654 0.35471-4.2512 2.7231-6.7282 8.4634-8.8516 4.9741-1.8399 5.7404-3.5882 2.2665-5.171-2.6117-1.19-2.6225-1.2427-2.4624-12.022 0.10292-6.9299-0.254-11.327-0.99164-12.215-1.5211-1.8328-1.5675-13.589-0.0715-18.121 1.7813-5.3974 0.6671-8.2574-3.5231-9.0435-1.9242-0.36099-5.6331-0.36477-8.2419-8e-3 -4.6895 0.6406-6.5001 1.2328-17.243 5.6396-3.8536 1.5807-8.0445 2.3496-14 2.5685-4.675 0.17183-11.425 0.82414-15 1.4496-7.6645 1.3409-11.37 0.99517-11.768-1.098-0.15882-0.83463 1.0993-2.3375 2.7958-3.3396 5.1767-3.0579 3.6057-5.0447-4.537-5.7379-10.924-0.92993-55.488-0.30709-56.586 0.79085-1.3987 1.3987-0.18597 3.8155 2.6858 5.3524 1.3662 0.73115 2.3502 2.0319 2.1868 2.8906-0.40984 2.153-4.0879 2.4902-11.94 1.0947-3.665-0.65133-10.415-1.3005-15-1.4425-8.1799-0.25341-9.016-0.48438-23.304-6.4378-2.4614-1.0256-6.746-1.6532-11.286-1.6532-8.2185 0-9.6754 0.99957-8.7451 6 1.4661 7.8803 1.7182 19.531 0.45563 21.052-0.91694 1.1048-1.227 4.6934-1.0639 12.315 0.22996 10.747 0.22811 10.757-2.4098 11.959-3.4899 1.5901-2.7314 3.3361 2.2498 5.1786 5.7194 2.1156 8.1084 4.6034 8.4634 8.8133 0.28109 3.3335 0.64371 3.7037 4.804 4.9038 9.3632 2.7011 18.382 2.9888 88 2.8075 67.098-0.17474 71.931-0.30449 78.5-2.1077zm-140-6.7401c-2.967-1.3214-2.976-1.349-0.81574-2.5087 2.7062-1.4529 5.6793-1.4771 10.686-0.087 2.3257 0.64576 3.5067 1.4378 2.9596 1.9848-1.6306 1.6306-9.6792 2.0138-12.829 0.61088zm106 0.60554c-3.7822-0.90974-3.7327-2.1287 0.13011-3.2012 4.3393-1.2049 8.4235-1.3861 10.788-0.47869 5.518 2.1175-4.032 5.3363-10.918 3.6799zm-60.689-48.934c-1.2711-0.70532-4.486-1.2984-7.1444-1.3178-3.4114-0.025-4.7104-0.40319-4.4156-1.2854 0.28507-0.85293 2.9322-1.2677 8.3333-1.3057 9.0572-0.0638 12.635 0.81949 11.829 2.9201-0.75408 1.9651-5.7985 2.545-8.6026 0.98893zm20.689 0.86253c-3.0092-0.64852-4.761-2.3548-3.6048-3.511 1.0714-1.0714 16.527-1.9405 19.369-1.0892 3.1164 0.93327 0.7592 2.3844-3.8732 2.3844-2.4698 0-5.7058 0.59554-7.191 1.3234-1.4852 0.72787-3.6003 1.1294-4.7003 0.89239zm-27-38.579c15.286-0.96959 23.007-0.94538 39.5 0.12384 28.465 1.8453 56.003 1.1624 66.464-1.6483 4.3801-1.1768 8.42-2.5959 8.9775-3.1535 1.8068-1.8068-0.88345-4.3764-6.5369-6.2438-15.745-5.2005-83.576-16.475-92.73-15.413-29.566 3.4303-73.757 11.343-86.079 15.413-5.642 1.8636-8.343 4.4377-6.5439 6.2368 1.004 1.004 14.255 4.5472 19.948 5.334 6.3237 0.87392 38.823 0.50383 57-0.6491zm-46.38-1.6392c-5.1977-1.1125-9.1202-3.4769-9.1202-5.4974 0-3.5061 7.5005-5.5453 33-8.9718 19.157-2.5742 40.126-3.4678 57-2.4291 15.304 0.94201 46.069 4.9481 53.142 6.9199 7.0696 1.9708 7.5717 5.8809 1.1223 8.7399-4.1415 1.8359-22.597 2.2192-59.764 1.2411-10.45-0.275-30.7-0.17716-45 0.21742-15.39 0.42466-27.787 0.33489-30.38-0.22zm-80.596-28.747c-0.70686-1.7945-3.7862-21.22-4.9934-31.5-0.37137-3.1625-1.0928-5.75-1.6033-5.75-1.4192 0-1.1057 10.719 0.59952 20.498 1.3692 7.8519 4.9396 18.502 6.2026 18.502 0.26612 0 0.17366-0.7875-0.20547-1.75zm294.82-4.0132c3.4668-8.9706 6.1865-33.237 3.7252-33.237-0.51043 0-1.2319 2.5875-1.6033 5.75-1.2078 10.285-4.2857 29.7-5.0335 31.75-1.4528 3.983 1.2596 0.0115 2.9116-4.2632zm-301.17-83.888-0.89103-11.849-0.02126 17.5c-0.017 13.953 0.16366 16.355 0.89103 11.849 0.54384-3.3687 0.55243-10.436 0.0213-17.5zm305.68 5.4009c-0.14442-17.128-0.15147-17.179-0.99751-7.25-0.76953 9.0314-0.30971 24.5 0.72829 24.5 0.22807 0 0.34922-7.7625 0.26922-17.25z" fill="#d0d0d0"/>
 <path d="m466 992.37c-75.257-4.4219-117.21-19.467-121.9-43.718-3.6307-18.771-4.1037-24.867-4.1037-52.897 0-16.424-0.42098-29.735-0.98753-31.225-0.67843-1.7844-0.61671-3.9838 0.1972-7.0269 0.91388-3.4169 0.9075-16.04-0.0279-55.218-0.66697-27.934-1.6523-84.313-2.1897-125.29s-1.5032-103.1-2.1462-138.05c-0.91266-49.607-0.90282-66.21 0.0448-75.673 0.93257-9.3122 0.96735-22.747 0.15003-57.95-2.5604-110.28-4.0536-220.09-4.0953-301.18-0.0495-96.198-0.3788-91.214 6.1118-92.512 1.756-0.3512 7.974-0.5926 13.818-0.53646 11.028 0.10596 10.873 0.50744-1.125 2.8964-5.9266 1.1801-6.6053 1.7462-4.5538 3.7978 0.92834 0.92834 0.76824 1.5092-0.71483 2.5937-1.7894 1.3085-1.6587 1.4675 2.0537 2.4982 2.1807 0.60541 4.7258 1.1033 5.6558 1.1063 3.1924 0.01053 2.8256 1.845-0.59457 2.9738-10.111 3.3371-11.496 22.193-12.3 167.53-0.35016 63.268-0.12873 118.37 0.60279 150 2.2644 97.921 3.3663 118.59 8.1571 153 1.5924 11.438 2.2954 23.786 2.9602 52 1.1456 48.617 3.0681 69.365 9.8813 106.64 3.9696 21.719 5.2318 31.979 7.1176 57.859 0.5811 7.975 2.1355 23.05 3.4543 33.5s3.1408 25.75 4.0489 34 2.7205 20.802 4.0274 27.894c3.3778 18.329 4.737 19.412 20.254 16.148 20.427-4.2969 53.015-8.9413 84.273-12.01 14.709-1.4442 16.662-1.4181 35.214 0.4717 31.577 3.2164 59.555 7.2563 79.913 11.539 15.609 3.2835 16.884 2.2388 20.326-16.653 1.3417-7.3641 3.5728-23.289 4.9579-35.389 1.3851-12.1 3.3858-29.425 4.4459-38.5 1.0601-9.075 2.2151-21.45 2.5666-27.5 0.91608-15.768 3.0745-32.27 7.0326-53.767 6.3238-34.346 8.3281-56.444 9.4541-104.23 0.66482-28.214 1.3678-40.562 2.9602-52 4.7107-33.835 5.8749-55.241 8.0768-148.5 1.2538-53.101 1.2166-193.53-0.0641-242-1.7438-65.997-3.3811-77.335-11.557-80.033-3.4168-1.1276-3.781-2.9618-0.59031-2.9724 0.93004-0.0031 3.4752-0.50091 5.6558-1.1063 3.7125-1.0307 3.8432-1.1897 2.0537-2.4982-1.4831-1.0845-1.6432-1.6653-0.71483-2.5937 2.0516-2.0516 1.3729-2.6177-4.5538-3.7978-11.998-2.389-12.153-2.7904-1.125-2.8964 13.034-0.12523 16.588 0.53064 18.474 3.4087 2.9372 4.4828 1.5451 210.89-2.6336 390.49-0.81178 34.89-0.77534 48.563 0.15624 58.633 0.94889 10.257 0.95787 26.789 0.041 75.5-0.64563 34.302-1.6183 96.342-2.1615 137.87-0.54321 41.525-1.5295 98.129-2.1918 125.79-0.92866 38.783-0.93306 51.301-0.0192 54.718 0.81405 3.0436 0.87582 5.2431 0.19737 7.0276-0.56652 1.4901-0.9875 14.801-0.9875 31.225 0 28.03-0.47299 34.126-4.1037 52.897-4.1725 21.572-37.261 35.725-97.896 41.875-14.835 1.5046-75.757 2.7382-91 1.8426zm65.5-3.462c13.867-1.128 27.995-3.3481 32.13-5.0493l2.8696-1.1804-4.9989-0.99397c-3.5484-0.70556-7.7558-0.62498-14.5 0.27771-29.623 3.9649-65.999 3.9677-94.18 7e-3 -8.6891-1.2212-20.33-0.60398-19.324 1.0245 0.7702 1.2462 12.553 3.707 24.002 5.0127 25.214 2.8756 46.538 3.1354 74 0.90158zm-90.771-24.514c-0.33229-0.33229-1.1948-0.36781-1.9167-0.0789-0.79773 0.31922-0.56078 0.55618 0.60417 0.60416 1.0542 0.0434 1.6448-0.19293 1.3125-0.52522zm120 0c-0.33229-0.33229-1.1948-0.36781-1.9167-0.0789-0.79773 0.31922-0.56078 0.55618 0.60417 0.60416 1.0542 0.0434 1.6448-0.19293 1.3125-0.52522zm18.771-12.779c18.363-2.7601 24.5-5.2681 24.5-10.012 0-2.5923 1.8686-5.8358 4.774-8.2864 2.2939-1.9348 2.4243-2.374 1.1558-3.8922-0.78638-0.94122-1.8798-5.35-2.4298-9.7974-0.85714-6.9308-1.3306-8.2497-3.3138-9.2318-1.2726-0.63016-3.6793-2.4399-5.3483-4.0217-2.9892-2.833-3.0255-2.9881-2.4268-10.376 0.33426-4.125 0.87658-9.421 1.2052-11.769 0.96374-6.8862-0.25374-7.6004-11.589-6.7985-7.7317 0.54702-10.752 1.2616-16.027 3.7916-5.856 2.8087-7.6497 3.1602-18.104 3.5476-10.537 0.39052-11.669 0.2623-12.304-1.3946-0.97721-2.5466 1.8767-4.3749 6.8498-4.3884 2.2324-6e-3 5.8589-0.34355 8.0589-0.75 3.6114-0.6672 3.1742-0.81159-4.5-1.4863-10.908-0.95897-12.857-1.0544-16.5-0.80731-3.91 0.26517-64.09 0.26517-68 0-3.6428-0.24704-5.5923-0.15166-16.5 0.80731-8.4473 0.74266-8.4697 0.75194-3.6104 1.4973 2.6893 0.4125 6.3158 0.75 8.0589 0.75 4.1639 0 6.8757 1.9916 5.9602 4.3774-0.6358 1.6569-1.7671 1.7851-12.304 1.3946-10.455-0.38745-12.248-0.73893-18.104-3.5476-5.2749-2.53-8.2957-3.2446-16.027-3.7916-11.487-0.81271-12.522-0.16004-11.565 7.2934 0.33725 2.6257 0.8724 7.9239 1.1892 11.774 0.56065 6.813 0.49527 7.0768-2.4468 9.876-1.6626 1.5818-4.064 3.3916-5.3366 4.0217-1.9832 0.98205-2.4566 2.3009-3.3138 9.2318-0.55 4.4473-1.6143 8.8211-2.3652 9.7195-1.1869 1.4202-0.97509 1.9978 1.6227 4.4246 1.6433 1.5351 3.3202 4.3516 3.7264 6.2588 1.4863 6.9786 5.5752 8.8247 25.298 11.422 16.527 2.1762 16.877 2.1843 86.218 1.991 52.387-0.14603 64.28-0.44175 73.5-1.8276zm-114.5-65.617c0-0.55 1.125-1 2.5-1s2.5 0.45 2.5 1-1.125 1-2.5 1-2.5-0.45-2.5-1zm64.5 0c0.33992-0.55 1.4915-1 2.559-1s1.941 0.45 1.941 1-1.1516 1-2.559 1c-1.4514 0-2.2915-0.43284-1.941-1zm-151.77-19.604c-0.33229-0.33229-1.1948-0.36781-1.9167-0.0789-0.79773 0.31922-0.56078 0.55618 0.60417 0.60416 1.0542 0.0434 1.6448-0.19293 1.3125-0.52522zm246 0c-0.33229-0.33229-1.1948-0.36781-1.9167-0.0789-0.79773 0.31922-0.56078 0.55618 0.60417 0.60416 1.0542 0.0434 1.6448-0.19293 1.3125-0.52522zm-258.73-2.3958c-1.9388-1.2529-3-1.2529-3 0 0 0.55 1.0125 0.99311 2.25 0.98469 1.8194-0.0124 1.963-0.20082 0.75-0.98469zm272 0c0-1.2529-1.0612-1.2529-3 0-1.213 0.78387-1.0694 0.9723 0.75 0.98469 1.2375 0.00842 2.25-0.43469 2.25-0.98469zm-224-3c0-0.55-1.1038-1-2.453-1s-3.5659-0.50711-4.9263-1.1269c-2.6052-1.187-7.6208-0.47654-7.6208 1.0796 0 1.0485 3.423 1.6822 10.25 1.8975 2.6125 0.08241 4.75-0.30017 4.75-0.85017zm187.84-0.50612c1.2011-1.201-2.4115-2.5374-5.3394-1.9751-1.65 0.31686-4.4625 0.82899-6.25 1.1381s-3.25 1.028-3.25 1.5976c0 1.0868 13.694 0.38491 14.839-0.76056zm-120.34-2.8649c15.311-0.97733 23.077-0.95499 40 0.11504 20.204 1.2775 55.649 1.1461 64-0.23728 2.2-0.36446 5.418-1.3026 7.1511-2.0847s3.6153-1.422 4.1826-1.422c1.2954 0 2.5087-3.6369 1.6674-4.9982-1.7253-2.7916-12.863-6.1248-38.501-11.522-21.002-4.4215-26.89-5.4268-43.5-7.4272-15.796-1.9024-16.204-1.9024-32-8.3e-4 -17.078 2.0558-22.724 3.0318-45.5 7.8652-31.587 6.7031-39.473 9.8951-36.235 14.666 0.82775 1.2193 8.4633 3.8497 15.235 5.2482 6.4402 1.3301 41.236 1.2197 63.5-0.20146zm-46.342-4.015c-2.938-0.75291-6.0274-2.0546-6.8655-2.8927-3.0603-3.0603 2.8204-4.9161 27.707-8.7439 4.125-0.63445 15.825-1.7199 26-2.4121 25.251-1.7178 49.721-0.14342 79 5.083 4.675 0.83451 9.5947 2.2193 10.933 3.0773l2.4328 1.56-2.1449 1.7368c-4.307 3.4876-13.925 4.3284-38.635 3.3778-27.659-1.0641-35.524-1.0802-68.086-0.13953-19.771 0.57116-26.117 0.43589-30.342-0.64671zm-79.737-29.364c-1.5508-6.8021-4.4118-30.83-4.4354-37.25-0.0276-7.5228-1.5855-8.1852-3.5288-1.5004-1.3043 4.4865-1.5493 7.7484-1.0464 13.929 1.2487 15.348 5.68 30.571 8.8992 30.571 1.2169 0 1.233-0.83061 0.11142-5.75zm293.69 1.2267c2.6129-5.9068 4.6738-15.877 5.4924-26.572 0.52285-6.8309 0.29852-9.6772-1.0929-13.866-2.0205-6.083-3.4721-5.2691-3.4987 1.9616-0.0236 6.42-2.8846 30.448-4.4354 37.25-1.1216 4.9194-1.1055 5.75 0.11142 5.75 0.7823 0 2.3228-2.0355 3.4232-4.5233zm-300.58-66.022c1.3041-8.1041 1.4493-13.282 0.78403-27.951-0.44912-9.9021-0.7416-24.079-0.64995-31.504 0.16417-13.301 0.14638-13.419-1.2076-8-1.0354 4.1436-1.3847 14.481-1.4166 41.917-0.0233 20.029 0.16732 36.207 0.4236 35.951 0.25629-0.25628 1.1862-4.942 2.0666-10.413zm305.22-66.749c-1.3661-6.0151-1.2992-7.6099-2.0687 49.294-0.11778 8.7094 0.34972 16.161 1.3174 21 1.459 7.2948 1.5072 6.5127 1.7623-28.594 0.19227-26.456-0.0777-37.591-1.011-41.7z" fill="#afafaf"/>
 <path d="m448.5 990.33c-31.552-1.9684-63.897-9.0871-82-18.047-14.239-7.0474-20.589-14.569-22.459-26.603-0.6136-3.9476-1.7626-11.002-2.5533-15.677-1.0575-6.2522-1.4343-17.491-1.4251-42.5 0.0191-51.744-0.21235-91.929-0.53262-92.493-0.15823-0.27865-0.5692-20.307-0.91327-44.507s-0.84563-54.35-1.1146-67c-1.1629-54.694-1.4214-92.421-0.67153-98l0.8065-6 0.64603 4.5c0.35532 2.475 1.086 8.1 1.6238 12.5l0.97779 8-0.43697-10c-0.24033-5.5-0.50735-21.475-0.59338-35.5-0.15332-24.994-0.17824-25.282-1.2552-14.5-0.61347 6.1417-1.448 10.461-1.8894 9.7797-1.1685-1.8035-2.4981-74.754-1.5197-83.381 1.1926-10.515 1.1823-22.316-0.0738-84.398-2.6406-130.52-3.1097-164.49-3.6176-262-0.37118-71.262-0.20899-104.15 0.52635-106.74 1.3704-4.8199 3.3386-5.7792 11.66-5.6828l6.8157 0.07895-4.2045 1.4892c-3.9492 1.3988-4.1921 1.7063-4 5.064 0.18198 3.1812 1.0562 4.3299 4.5151 5.9328 0.17083 0.07917-0.79605 1.2506-2.1486 2.6032-5.8424 5.8424-6.6576 25.895-6.6574 163.75 1.8e-4 172.28 2.6516 260.81 9.0749 303 1.5745 10.342 2.2619 21.805 2.9384 49 1.2868 51.724 3.2688 74.01 9.961 112 4.3278 24.568 5.564 34.044 6.5228 50 0.7661 12.748 3.1946 37.275 4.5091 45.541 0.90536 5.6926 1.8511 13.911 4.0229 34.959 1.6172 15.673 6.031 37.312 8.1635 40.024 2.3156 2.9437 6.1547 3.1893 15.481 0.99006 24.786-5.8447 79.549-12.794 100.82-12.794s76.036 6.9492 100.82 12.794c9.3263 2.1992 13.165 1.9537 15.481-0.99006 2.1866-2.7799 6.5544-24.451 8.2681-41.024 2.2061-21.334 2.9875-28.107 3.9161-33.946 1.3164-8.2768 3.7446-32.797 4.5113-45.554 0.95887-15.956 2.195-25.432 6.5228-50 6.6921-37.99 8.6742-60.276 9.961-112 0.67656-27.195 1.364-38.658 2.9384-49 6.4159-42.142 9.0747-130.92 9.0749-303 1.4e-4 -137.86-0.81509-157.91-6.6574-163.75-1.3526-1.3526-2.3194-2.524-2.1486-2.6032 3.4589-1.6029 4.3331-2.7516 4.5151-5.9328 0.19206-3.3577-0.0508-3.6652-4-5.064l-4.2044-1.4892 6.8157-0.07895c8.321-0.09638 10.289 0.86292 11.66 5.6828 0.73534 2.5864 0.89753 35.476 0.52635 106.74-0.5079 97.512-0.97697 131.48-3.6176 262-1.2521 61.886-1.2652 73.897-0.0922 84.226 0.97296 8.567-0.33397 81.751-1.4918 83.539-0.45434 0.70163-1.2748-3.5177-1.8988-9.7645-1.0769-10.782-1.1019-10.494-1.2552 14.5-0.086 14.025-0.35305 30-0.59338 35.5l-0.43697 10 0.97779-8c0.53779-4.4 1.2686-10.025 1.6241-12.5l0.6463-4.5 0.81165 7c0.4464 3.85 0.37204 34.45-0.16525 68-0.5373 33.55-1.2158 76.75-1.5077 96s-0.7398 38.825-0.99519 43.5c-0.47242 8.6475-0.62082 32.578-0.57986 93.5 0.0169 25.05-0.35558 36.238-1.4148 42.5-0.79072 4.675-1.9397 11.73-2.5533 15.677-1.3093 8.4231-4.6275 14.281-11.075 19.554-13.251 10.835-41.969 19.569-77.884 23.688-10.708 1.228-33.666 2.4955-33 1.822 0.275-0.27814 6.35-1.2747 13.5-2.2146 20.321-2.6712 32.5-5.4851 32.5-7.509 0-1.452-17.681-1.701-28-0.39441-5.775 0.73123-19.685 2.0731-30.91 2.9819-18.971 1.5359-21.862 1.5361-41 3e-3 -11.324-0.90714-25.315-2.249-31.09-2.9819-10.182-1.2922-28-1.0681-28 0.35219 0 2.0533 12.187 4.8588 33 7.5972 6.875 0.90453 12.688 1.8201 12.917 2.0346 0.43374 0.406-8.7756 0.25667-17.417-0.28242zm-14.608-22.809c4.8875-0.84799 12.199-1.7866 16.247-2.0859s7.8107-1.0034 8.3607-1.5647c0.67954-0.69358-2.8456-0.86796-11-0.54417-15.154 0.60173-21.057 1.7583-23.825 4.668-1.7656 1.8559-1.845 2.1716-0.42196 1.6774 0.96412-0.33486 5.7518-1.3026 10.639-2.1506zm141.41 0.33416c-2.7671-2.7671-8.9209-3.9383-23.797-4.529-8.1544-0.32379-11.68-0.14941-11 0.54417 0.55 0.56136 4.3123 1.2655 8.3607 1.5647 7.5592 0.55877 25.281 3.3753 26.045 4.1394 0.23529 0.23528 0.90279 0.42779 1.4834 0.42779 0.58055 0 0.0893-0.96621-1.0916-2.1471zm-103.3-2.7459c0-1.2174-2.6096-2.1238-5.8318-2.0258l-2.6682 0.0812 3 1.3737c3.5218 1.6126 5.5 1.8179 5.5 0.57088zm12-0.0237c0-0.50416-0.5625-1.1129-1.25-1.3527-1.7486-0.60996-3.851 0.297-3.1852 1.3741 0.72749 1.1771 4.4352 1.1592 4.4352-0.0214zm10-0.0243c0-0.51754-0.47155-1.2324-1.0479-1.5886-1.4677-0.90709-4.2112 0.30138-3.4565 1.5225 0.78657 1.2727 4.5044 1.3272 4.5044 0.0661zm15.25-0.55899c-0.36905-1.4762-3.5115-1.2155-4.028 0.33415-0.30489 0.91466 0.29775 1.2291 1.9167 1 1.2988-0.18378 2.2489-0.78415 2.1114-1.3342zm10.197 0.58541c0.67738-1.096-1.4397-1.9774-3.1972-1.3311-0.6875 0.25282-1.25 0.86153-1.25 1.3527 0 1.1743 3.7193 1.1563 4.4472-0.0216zm13.053-0.5493 3-1.3737-2.6682-0.0812c-3.2222-0.0981-5.8318 0.80838-5.8318 2.0258 0 1.247 1.9782 1.0417 5.5-0.57088zm32.5-11.171c18.007-1.384 32.65-3.7093 39.149-6.217 3.2589-1.2574 5.8509-4.7953 5.8509-7.986 0-1.4557 1.3663-3.6441 3.489-5.5884 2.7666-2.5341 3.2325-3.4491 2.25-4.4189-0.68147-0.6727-1.689-4.6953-2.239-8.939l-1-7.716-7-3.5c-8.9595-4.4798-10.176-6.6838-8.4628-15.33 1.8236-9.2018 2.1405-13.997 1.0352-15.663-1.1226-1.6919-12.876-1.68-23.572 0.0239-4.8247 0.76855-6.2052 0.68003-7.0475-0.45193-0.76506-1.0282-4.5394-1.5575-14-1.9635-7.1239-0.30569-13.965-0.54522-15.203-0.5323-1.2375 0.0129-4.725 0.0556-7.75 0.0949s-16.975 0.0714-31 0.0714-27.975-0.0321-31-0.0714-6.5125-0.0807-7.75-0.0919c-1.2375-0.0113-8.2125 0.22537-15.5 0.5259-10.996 0.45344-13.25 0.80703-13.25 2.0782 0 1.2238-0.74125 1.3928-3.6865 0.84023-5.6874-1.067-23.484-2.2992-25.519-1.767-2.1197 0.55432-3.2331 4.1043-2.5087 7.9988 0.28004 1.5055 1.047 5.5138 1.7044 8.9074 1.6758 8.6506 0.45324 10.858-8.4903 15.33l-7 3.5-1 7.716c-0.55 4.2438-1.5576 8.2663-2.239 8.939-0.98247 0.96982-0.51657 1.8848 2.25 4.4189 2.2441 2.0555 3.489 4.109 3.489 5.7552 0 8.1241 10.724 11.296 49 14.492 17.829 1.4886 105.81 1.1732 127-0.45532zm-129.75-70.484c-3.7749-1.09-4.2232-2.4659-1-3.0692 2.8116-0.52619 22.824 0.92889 23.612 1.7168 2.3057 2.3057-15.601 3.3767-22.612 1.3524zm106.78 0.15784c-2.4714-1.563-0.72983-2.0587 10.08-2.8691 10.717-0.80344 14.891-0.55128 14.891 0.89959 0 2.4578-21.516 4.1548-24.971 1.9695zm-153.53-14.116c-14.697-4.8233-30.561-7.5841-27.818-4.8409 0.5953 0.5953 3.9478 1.485 7.45 1.9771 3.5022 0.49211 9.7426 1.7719 13.868 2.844 9.8341 2.5559 14.269 2.5694 6.5 0.0198zm230.1-0.3369c5.4438-1.3275 11.865-2.642 14.269-2.9211 2.4041-0.2791 4.8791-1.0509 5.5-1.7152 1.9936-2.1327-9.9329-0.2957-22.371 3.4457-13.334 4.0107-11.814 4.706 2.6021 1.1906zm-152.35-5.8069c-1.6177-0.78018-2.8823-0.78018-4.5 0-1.9755 0.95275-1.701 1.0851 2.25 1.0851s4.2255-0.13238 2.25-1.0851zm15.75 0.22049c0-0.55-1.0984-1-2.441-1s-2.7191 0.45-3.059 1c-0.36058 0.58342 0.65628 1 2.441 1 1.6825 0 3.059-0.45 3.059-1zm40.5 0c-0.33992-0.55-1.7165-1-3.059-1s-2.441 0.45-2.441 1 1.3766 1 3.059 1c1.7847 0 2.8016-0.41658 2.441-1zm14.75-0.22049c-1.6177-0.78018-2.8823-0.78018-4.5 0-1.9755 0.95275-1.701 1.0851 2.25 1.0851s4.2255-0.13238 2.25-1.0851zm-117.75-1.3084c2.7476-0.98985 8.3834-1.4488 18-1.4659 7.7-0.0137 24.793-0.70025 37.985-1.5257 21.358-1.3364 26.651-1.3354 48.328 0.01 13.388 0.83085 30.495 1.5174 38.015 1.5257 9.3534 0.0103 14.936 0.47027 17.672 1.4561 4.9166 1.7712 10.975 1.8072 19.5 0.11583l6.5-1.2897-4.25-1.7572c-4.4758-1.8507-5.5777-3.5402-2.309-3.5402 1.0675 0 2.2191-0.45 2.559-1s-0.0522-1-0.87143-1c-0.81921 0-1.6333-0.98971-1.809-2.1994-0.65134-4.4829-7.4068-6.8764-40.053-14.191-29.01-6.4996-40.499-8.0615-59.266-8.0568-19.149 5e-3 -31.658 1.7352-61 8.4386-32.219 7.3606-38.5 9.6436-38.5 13.994 0 1.1581-0.66288 2.0147-1.559 2.0147-0.85746 0-1.2809 0.45-0.94098 1s1.4915 1 2.559 1c3.2659 0 2.1684 1.6882-2.309 3.5518l-4.25 1.769 6 1.2114c8.2635 1.6684 15.259 1.647 20-0.061zm17-8.247c-11.136-1.974-11.377-5.4614-0.5-7.2483 50.613-8.3152 76.387-8.3152 127 0 5.8013 0.95309 8 1.9242 8 3.5332 0 3.4901-5.2468 3.7868-69.5 3.9296-34.65 0.077-63.9-0.0195-65-0.21451zm-79.873-22.974c-2.8365-9.7739-5.6217-32.716-6.7013-55.2-0.0409-0.85256-1.1947 1.5999-2.564 5.4499-1.8709 5.2605-2.4719 8.9036-2.4184 14.66 0.13372 14.393 4.0898 30.73 8.5124 35.153 2.1914 2.1914 3.8161 2.1593 3.1713-0.0628zm291.55-4.2784c3.196-6.4565 5.7743-19.979 5.8749-30.811 0.0535-5.7566-0.54748-9.3997-2.4184-14.66-1.3692-3.85-2.5241-6.325-2.5664-5.5-1.2519 24.432-3.7809 45.234-6.7281 55.342-0.40243 1.3802-0.0799 1.7539 1.2868 1.4907 1.0391-0.20012 2.9972-2.7218 4.5512-5.8611zm-301.26-59.433c2.6177-15.032 2.9414-21.354 1.9478-38.038-0.55684-9.35-0.70983-24.2-0.33999-33 0.36985-8.8 0.41455-15.75 0.0993-15.444-0.31521 0.30599-1.3236 3.906-2.2409 8-1.3751 6.1372-1.7063 14.245-1.8873 46.194-0.12071 21.312 0.12146 38.75 0.53817 38.75 0.41672 0 1.264-2.9078 1.883-6.4619zm307.58-32.288c-0.18096-31.949-0.5122-40.056-1.8873-46.194-0.91729-4.094-1.9257-7.694-2.2409-8-0.31522-0.30599-0.27052 6.6436 0.0993 15.444 0.36984 8.8 0.21685 23.65-0.33999 33-0.99363 16.684-0.66991 23.006 1.9478 38.038 0.61891 3.554 1.4662 6.4619 1.883 6.4619 0.41671 0 0.65888-17.438 0.53817-38.75z" fill="#8f8f8f"/>
 <path d="m416.35 985.98c-40.656-6.1553-66.338-18.923-70.661-35.128-4.6199-17.317-5.6644-33.646-5.2998-82.855 0.20208-27.273-0.26935-70.916-1.2584-116.5-1.6434-75.745-2.2829-159.41-1.196-156.5 0.51269 1.375 1.6585 8.423 2.5463 15.662 1.7644 14.388 5.2343 33.269 5.4096 29.437 0.0604-1.3207-0.87657-9.6457-2.0822-18.5-1.9138-14.055-2.1994-20.795-2.25-53.099-0.0319-20.35 0.2749-39.925 0.68175-43.5l0.73972-6.5-1.9212 5.8648c-1.0567 3.2256-2.2239 7.6563-2.5938 9.8459-1.6115 9.5385-2.638 0.50375-3.1924-28.098-0.44868-23.149-0.27887-31.416 0.73181-35.629 1.0808-4.5052 1.1027-14.916 0.12231-58.235-3.7353-165.05-5.7584-382.87-3.6545-393.46 0.84976-4.2791 1.8522-5.2822 6.0755-6.0793 3.5014-0.66089 6.6694 0.61293 4.0368 1.6232-1.7937 0.68831-2.2438 7.6106-0.60158 9.2528 0.64302 0.64302 0.30486 2.3526-0.97911 4.95-3.2119 6.4974-3.9748 34.555-3.9827 146.47-0.0116 164.99 2.6348 265.8 8.0726 307.5 4.0097 30.749 4.8856 42.319 4.8962 64.67 0.0176 37.304 2.6256 67.882 8.9835 105.33 4.4999 26.504 5.6621 36.023 7.0202 57.5 1.8325 28.979 2.1549 32.497 3.5991 39.276 1.7922 8.412 4.3804 34.696 4.3962 44.645 8e-3 5.1367 0.46758 7.9249 1.4925 9.0574 0.81439 0.8999 2.3672 6.0429 3.4507 11.429 1.0835 5.386 2.6775 10.873 3.5423 12.193 1.9659 3.0004 4.9997 3.08 17.073 0.44791 26.067-5.6827 82.944-13.186 99.953-13.186s73.886 7.5034 99.953 13.186c12.073 2.6321 15.107 2.5525 17.073-0.44791 0.86481-1.3199 2.4589-6.8065 3.5423-12.193 1.0835-5.386 2.6363-10.529 3.4507-11.429 1.0269-1.1347 1.4817-3.9108 1.484-9.0574 4e-3 -9.5107 2.691-36.487 4.4741-44.921 1.3763-6.5103 1.7043-10.135 3.5296-39 1.3581-21.477 2.5203-30.996 7.0202-57.5 6.3579-37.447 8.9658-68.025 8.9835-105.33 0.0105-22.351 0.88651-33.921 4.8962-64.67 5.4378-41.701 8.0842-142.51 8.0726-307.5-8e-3 -111.91-0.7708-139.97-3.9827-146.47-1.284-2.5974-1.6221-4.307-0.97911-4.95 1.6283-1.6283 1.1774-8.3737-0.62719-9.3836-1.4772-0.82667-1.4763-0.9518 0.0109-1.5225 2.3207-0.89054 7.3336 0.30002 8.8261 2.0962 2.0438 2.4597 2.4284 37.361 1.6058 145.73-0.71991 94.838-1.2944 131.29-3.9516 250.76-0.9797 44.048-0.95905 54.748 0.11426 59.222 1.5655 6.5258 0.86365 65.057-0.80006 66.72-0.65041 0.65041-1.2176-0.37199-1.6604-2.9933-0.36994-2.1896-1.5372-6.6203-2.5938-9.8459l-1.9212-5.8648 0.73972 6.5c0.40685 3.575 0.71826 23.15 0.69202 43.5-0.0418 32.419-0.32037 38.993-2.25 53.099-1.2113 8.8543-2.1529 17.179-2.0924 18.5 0.1753 3.8323 3.6452-15.049 5.4096-29.437 0.88779-7.2392 2.034-14.287 2.5472-15.662 1.0832-2.9024 0.45558 79.038-1.1949 156-0.98954 46.142-1.4618 90.011-1.2595 117 0.37044 49.428-0.65379 65.438-5.3007 82.855-4.373 16.391-30.232 29.105-71.564 35.186-15.585 2.2929-22.488 2.4445-12.747 0.27998 10.248-2.2773 19.323-5.1015 21.488-6.6873 1.7811-1.3045 0.84237-1.4396-9-1.2954-9.6838 0.14184-10.974-0.0363-10.864-1.5003 0.11232-1.5036-0.24824-1.5298-3.7994-0.27693-8.241 2.9076-48.894 7.3392-67.325 7.3392s-59.084-4.4317-67.325-7.3392c-3.5511-1.2529-3.9117-1.2266-3.7994 0.27693 0.10936 1.464-1.1806 1.6421-10.864 1.5003-9.8424-0.14417-10.781-9e-3 -9 1.2954 2.1652 1.5858 11.24 4.41 21.488 6.6873 5.7788 1.2841 6.0562 1.4475 2.5 1.4726-2.2 0.0155-9.4676-0.79956-16.15-1.8113zm9.9447-12.965c-0.65354-2.4992 1.6465-3.4326 13.426-5.4488 10.427-1.7847 24.298-2.383 29.529-1.2737 3.0787 0.65295 3.75 0.51427 3.75-0.77475 0-2.8848-5.0005-3.6781-20.5-3.2521-16.447 0.45207-25.679 1.9404-29.196 4.7072-1.2576 0.98919-3.8654 2.0947-5.7952 2.4568-4.6555 0.87338-4.4272 2.0758 0.7413 3.9053 6.2527 2.2133 8.6816 2.1167 8.0444-0.3199zm154.03 0.38818c5.5794-1.9011 5.9267-3.0811 1.1694-3.9736-1.9298-0.36203-4.5421-1.4711-5.8051-2.4646-3.5832-2.8186-11.826-4.1159-29.186-4.5935-11.827-0.32541-16.623-0.10563-18.388 0.84276-2.9341 1.5765-2.8242 3.3977 0.17874 2.9638 5.8018-0.83819 22.299-0.13995 30.561 1.2935 12.242 2.124 14.51 3.0318 13.854 5.5435-0.64769 2.4768 1.2088 2.5714 7.6163 0.38818zm-94.997-7.064c1.2366-1.2366-1.565-3.342-4.4471-3.342-2.9417 0-4.0856 2.3459-1.6276 3.3377 1.8626 0.75158 5.3249 0.75403 6.0747 4e-3zm9.6753-1.342c0-1.6125-0.66667-2-3.441-2-3.9952 0-5.3804 1.4234-2.83 2.9081 3.0713 1.7881 6.271 1.3247 6.271-0.90813zm7-1.0155c0-1.2497-2.5707-1.8679-4.0264-0.96824-1.1147 0.68895-1.1193 1.1032-0.0266 2.4198 1.0056 1.2116 1.6428 1.3193 2.6857 0.45377 0.75199-0.62413 1.3673-1.4815 1.3673-1.9054zm8.0938 1.9653c2.7535-1.4736 1.426-2.9498-2.6528-2.9498-2.7743 0-3.441 0.38749-3.441 2 0 2.2489 2.8394 2.6915 6.0938 0.94983zm9.3245 0.44318c2.7255-1.0459 1.8292-3.393-1.2958-3.393-2.8821 0-5.6837 2.1054-4.4471 3.342 0.82411 0.8241 3.6625 0.84931 5.7429 0.051zm-24.244-12c0.39223-0.24242 9.1761 0.0808 19.52 0.71835 25.795 1.5898 64.639-0.97833 85.065-5.6241 7.5535-1.718 14.144-5.7698 14.205-8.7339 0.02-0.96091 1.6634-3.548 3.652-5.7491 3.4937-3.8672 3.5611-4.0851 2-6.4677-1.0696-1.6325-1.6156-4.6663-1.6156-8.9778 0-7.2692-0.73793-8.1868-8.5-10.57-12.032-3.6942-13.544-5.6817-11.627-15.286 3.3068-16.572 2.824-17.684-7.6941-17.732-9.1097-0.0415-6.115-1.4183 6.3214-2.9064 5.5-0.65806 15.527-2.5165 22.283-4.1299 6.7554-1.6134 13.423-2.9334 14.816-2.9334 3.2411 0 6.6412-1.8034 5.841-3.0982-0.88594-1.4335-7.9896-0.27775-22.439 3.6508-28.258 7.6826-37.38 8.3314-117 8.3205-80.778-0.011-89.768-0.64502-118-8.3205-14.45-3.9285-21.553-5.0843-22.439-3.6508-0.80018 1.2947 2.5998 3.0982 5.841 3.0982 1.3932 0 8.0603 1.32 14.816 2.9334 6.7554 1.6134 16.783 3.4718 22.283 4.1299 12.436 1.488 15.431 2.8649 6.3214 2.9064-4.7061 0.0214-7.1427 0.49453-8.25 1.6018-1.7734 1.7734-2.0861 7.5984-0.56092 10.448 0.55579 1.0385 1.2908 4.5694 1.6333 7.8464 0.56786 5.433 0.40507 6.176-1.8464 8.4274-1.358 1.358-5.1305 3.2328-8.3833 4.1661-9.7229 2.7898-10.414 3.5264-10.414 11.099 0 4.3639-0.54355 7.3417-1.6477 9.0269-1.5939 2.4326-1.5471 2.6194 1.4308 5.7148 1.6932 1.76 3.3752 4.4044 3.7377 5.8764 1.909 7.7519 15.622 11.221 58.479 14.794 9.899 0.82531 50.633 0.37412 52.174-0.5779zm-52.674-72.393c-0.69776-1.129 1.5631-1.129 6 0 2.8337 0.72105 2.7677 0.76993-1.191 0.88169-2.305 0.06507-4.4691-0.33169-4.809-0.88169zm104.58 0.63916c1.1446-0.99129 8.9167-1.5587 8.9167-0.65098 0 0.5565-2.1 1.0118-4.6667 1.0118-2.5667 0-4.4792-0.16238-4.25-0.36084zm-110.33-1.3014c0.6875-0.27741 1.8125-0.27741 2.5 0s0.125 0.50439-1.25 0.50439-1.9375-0.22698-1.25-0.50439zm123 0c0.6875-0.27741 1.8125-0.27741 2.5 0s0.125 0.50439-1.25 0.50439-1.9375-0.22698-1.25-0.50439zm-76-17.257c1.2375-0.0444 2.25-0.47962 2.25-0.96719 0-1.4529-6.1987-1.9993-10.614-0.93558-2.7325 0.65825-5.3352 0.65395-7.75-0.0128-4.2332-1.1688-12.013 0.36566-9.5553 1.8847 1.1849 0.73231 5.9507 0.73805 25.669 0.0309zm57.147-0.0432c2.6438-1.4796-5.3032-3.0404-9.5333-1.8724-2.4148 0.66675-5.0175 0.67105-7.75 0.0128-4.3246-1.0418-10.614-0.52677-10.614 0.86916 0 1.075 3.2947 1.4136 15.952 1.6395 5.7487 0.10261 11.124-0.18947 11.945-0.64906zm-103.4-2.571c20.38-1.5981 52.312-3.4702 59.642-3.4967 12.883-0.0466 65.83 3.0124 70.623 4.0802 7.2969 1.6257 39.236 0.80233 39.236-1.0115 0-0.36743-1.6307-1.4457-3.6238-2.3961-4.9633-2.3668-3.6618-3.051 3.1238-1.6424 3.1122 0.6461 5.9229 0.91041 6.246 0.58736s-0.17709-0.58736-1.1114-0.58736-3.338-0.68491-5.3415-1.522l-3.6427-1.522 3.371-3.478c3.6524-3.7683 2.8224-4.7161-1.2942-1.478-3.189 2.5084-2.9378 2.5397-6.5276-0.81361-7.7702-7.2585-72.592-21.147-98.7-21.147-10.675 0-30.72 2.6434-50 6.5937-27.714 5.6785-44.601 10.725-48.7 14.553-3.5898 3.3533-3.3386 3.322-6.5276 0.81361-4.1166-3.2381-4.9466-2.2903-1.2942 1.478l3.371 3.478-3.6427 1.522c-2.0035 0.83711-4.4072 1.522-5.3415 1.522s-1.4345 0.26431-1.1114 0.58736 3.1337 0.0587 6.246-0.58736c6.7856-1.4087 8.0871-0.72446 3.1238 1.6424-1.9931 0.95044-3.6238 2.0455-3.6238 2.4335 0 1.2313 22.177 2.4542 30.5 1.6819 4.4-0.40827 11.15-0.98931 15-1.2912zm7-8.5037c-14.707-1.0509-19.577-4.4027-8.7738-6.0377 2.6256-0.39737 10.849-1.6641 18.274-2.8149 11.973-1.8558 22.523-2.3907 45.5-2.307 26.368 0.096 32.979 0.43291 45.254 2.3062 7.5603 1.1538 15.894 2.4219 18.52 2.818 7.3096 1.1028 7.8218 2.5481 1.6319 4.604-4.504 1.496-8.2034 1.6963-25.34 1.3721-23.894-0.45205-64.283-0.33272-77.566 0.22917-5.225 0.22103-13.1 0.14462-17.5-0.16979zm-61.5 6.0372c1.1181-0.72257 0.56026-0.97327-2.191-0.98469-2.03-8e-3 -3.9691 0.43469-4.309 0.98469-0.79713 1.2898 4.5042 1.2898 6.5 0zm240 0c-0.825-0.53316-3.075-0.96937-5-0.96937-2.6245 0-3.1248 0.24247-2 0.96937 0.825 0.53316 3.075 0.96937 5 0.96937 2.6245 0 3.1248-0.24247 2-0.96937zm-265-25.818c0-0.45017-0.63073-3.0377-1.4016-5.75-0.7709-2.7123-1.6769-6.5422-2.0133-8.5108-1.3175-7.7098-3.5466-32.825-3.5653-40.171-0.0109-4.2625-0.39258-7.75-0.84824-7.75-0.45567 0-2.1154 4.5265-3.6883 10.059-2.8496 10.023-2.8552 10.1-1.586 21.672 1.5617 14.237 4.2226 23.197 8.2518 27.786 2.9365 3.3445 4.851 4.3961 4.851 2.6646zm287.79-2.5902c1.6461-1.8748 3.7141-5.5873 4.5955-8.25 1.8218-5.5033 4.604-22.868 4.6129-28.79 0.00671-4.491-4.943-22.551-6.1805-22.551-0.44748 0-0.82248 3.4875-0.83335 7.75-0.0187 7.3458-2.2478 32.461-3.5653 40.171-0.33642 1.9686-1.2424 5.7984-2.0133 8.5108-0.77089 2.7123-1.4016 5.2998-1.4016 5.75 0 1.7208 1.9066 0.68886 4.7857-2.5902zm-298.13-64.154c1.3507-6.5686 1.6504-15.398 1.7377-51.188 0.058-23.787-0.13849-43.25-0.43674-43.25-0.29825-3e-5 -1.4232 5.0624-2.5 11.25-1.6891 9.7066-1.9951 16.871-2.2299 52.222-0.28368 42.702 0.17106 46.809 3.4289 30.966zm305.88-76.438c-0.81755-4.125-1.7815-9.8625-2.1421-12.75-0.36063-2.8875-0.93522-5.25-1.2769-5.25-0.34164 2e-5 -0.57368 19.463-0.51564 43.25 0.0865 35.447 0.39438 44.653 1.7067 51.025 0.88063 4.2765 1.9582 8.3265 2.3945 9 0.43632 0.67354 0.91181-16.55 1.0566-38.275 0.21161-31.743-0.0286-40.973-1.2231-47zm-304.82-28.736c-0.22985-1.5201-0.42406-0.51375-0.43157 2.2362-7e-3 2.75 0.18056 3.9937 0.41792 2.7638s0.24351-3.4799 0.0136-5zm302 0c-0.22985-1.5201-0.42406-0.51375-0.43157 2.2362-8e-3 2.75 0.18056 3.9937 0.41792 2.7638s0.24351-3.4799 0.0136-5z" fill="#6f6f6f"/>
 <path d="m410.5 984.32c-7.0921-0.90795-22.745-4.8334-32-8.0252-21.509-7.4174-30.952-15.842-33.393-29.791-4.029-23.023-4.0416-23.313-4.6043-105.5-0.30312-44.275-0.77038-88.825-1.0384-99-1.2672-48.115-2.3002-137.56-1.5968-138.27 0.4334-0.4334 1.5854 4.962 2.56 11.99s2.5839 17.053 3.5762 22.278c4.2182 22.211 4.4365 36.165 0.82892 53-1.7652 8.2376-1.6637 87.608 0.1115 87.21 0.95987-0.21492 1.115 0.56012 0.60039 3-3.873 18.363 1.2702 46.058 9.6888 52.171 1.5035 1.0918 2.9447 1.7739 3.2027 1.516s-0.3819-3.8278-1.4219-7.933c-2.5958-10.246-3.7811-20.208-5.0497-42.441-0.59557-10.438-1.5289-19.253-2.0741-19.59-0.65235-0.40317-0.61182-4.3424 0.11854-11.522 0.61037-6.0004 0.77677-13.16 0.36979-15.91s-0.79265-22.55-0.85704-44c-0.11079-36.902-0.26071-39.941-2.7876-56.5-1.4688-9.625-3.2159-22.9-3.8826-29.5-1.7244-17.072-1.7213-70.78 5e-3 -81.149 0.92656-5.566 1.0402-8.7136 0.3586-9.9316-0.80891-1.4454-1.2265-0.68191-2.2052 4.0324-1.6889 8.1352-3.6663 13.408-4.3307 11.548-0.69899-1.957-1.5103-49.791-0.91351-53.857 0.27146-1.8496 0.88723-2.8576 1.5103-2.4725 0.73152 0.4521 0.84472-5.8726 0.37159-20.76-0.72761-22.885-1.9591-81.183-3.6106-170.91-1.0865-59.03-1.8377-259.22-0.99377-264.85 0.56734-3.7825 3.1754-6.1527 6.77-6.1527 2.0604 0 2.2392 0.23152 1.1717 1.5178-0.83079 1.001-1.0643 3.1674-0.68575 6.3633 0.31563 2.665 0.1411 5.2783-0.38786 5.8073-2.7662 2.7662-3.1766 21.818-3.2378 150.31-0.0884 185.54 2.4094 269.88 9.3734 316.5 1.6149 10.81 2.2924 22.202 2.9738 50 1.2339 50.336 3.1566 72.647 9.4588 109.76 1.939 11.419 3.9797 27.169 4.535 35s1.7109 24.363 2.5681 36.738 1.9896 24.462 2.5166 26.86c0.52703 2.398 1.6177 12.523 2.4236 22.5 1.7469 21.625 4.3498 42.557 5.5509 44.64 0.61509 1.0665 0.89293 0.48847 0.96134-2 0.0898-3.2662 0.19101-3.1479 1.515 1.7698 0.78032 2.8984 2.1123 6.6109 2.9599 8.25 1.8986 3.6715 4.6778 3.8412 16.661 1.0174 25.512-6.0119 80.249-13.247 100.83-13.328 20.514-0.0805 75.876 7.1585 101.83 13.315 11.967 2.8389 14.76 2.6705 16.661-1.0043 0.84761-1.6391 2.1796-5.3516 2.9599-8.25 1.324-4.9178 1.4252-5.036 1.515-1.7698 0.17495 6.3639 1.7463 1.0408 3.3948-11.5 0.86755-6.6 2.2796-20.55 3.138-31 0.85834-10.45 1.9671-20.762 2.4639-22.917 0.4968-2.1541 1.6076-14.529 2.4684-27.5 2.8137-42.398 3.6085-50.317 7.1342-71.08 6.2614-36.873 8.1981-59.395 9.4163-109.5 0.7208-29.648 1.3148-39.088 3.3665-53.5 6.7003-47.067 9.0383-128.67 8.9681-313-0.049-128.53-0.45713-147.54-3.2264-150.31-0.52896-0.52896-0.70349-3.1422-0.38786-5.8073 0.37851-3.1959 0.14504-5.3623-0.68575-6.3633-1.0675-1.2862-0.88875-1.5178 1.1717-1.5178 3.5947 0 6.2027 2.3702 6.77 6.1527 0.8439 5.6265 0.0927 205.82-0.99377 264.85-1.6515 89.727-2.883 148.03-3.6103 170.91-0.47313 14.888-0.35993 21.212 0.37159 20.76 0.6231-0.3851 1.2389 0.62296 1.5103 2.4725 0.59682 4.0664-0.21452 51.9-0.91351 53.857-0.66441 1.8602-2.6419-3.4126-4.3307-11.548-0.99128-4.775-1.389-5.4907-2.2232-4.0002-0.69773 1.2468-0.64317 4.044 0.17421 8.9316 1.8692 11.177 2.4436 45.074 1.1289 66.616-1.2509 20.497-1.3094 21.042-5.5843 52-2.5245 18.282-2.6568 21.062-2.1182 44.5 0.316 13.75 0.1606 31.975-0.34534 40.5-0.5923 9.98-0.56301 19.029 0.0822 25.408 0.664 6.5649 0.66668 10.115 8e-3 10.522-0.54681 0.33795-1.4815 9.1543-2.077 19.592-1.2686 22.234-2.4539 32.195-5.0497 42.441-1.04 4.1052-1.6799 7.6751-1.4219 7.933 1.0883 1.0883 6.1096-3.8462 8.2468-8.1044 3.7501-7.4716 6.4351-22.768 5.844-33.293-0.27801-4.95-0.8177-10.48-1.1993-12.29-0.51124-2.424-0.35721-3.2135 0.58526-3 2.0906 0.47362 1.8011-78.867-0.32916-90.21-3.3664-17.926-3.0036-25.902 2.6607-58.5 1.338-7.7 2.7608-17.101 3.1619-20.891 0.48029-4.5382 1.0158-6.3786 1.5685-5.391 0.74466 1.3306-0.23917 88.429-1.5733 139.28-0.27416 10.45-0.73941 55-1.0339 99-0.55003 82.182-0.47299 80.437-4.6355 105-1.7468 10.308-7.1327 17.099-18.86 23.779-9.05 5.1554-34.292 12.557-48 14.074-4.4529 0.49288-4.4372 0.47793 1.5-1.4275 14.407-4.6236 17.762-7.6526 7.25-6.5445-13.624 1.4361-22.213 1.8482-21.442 1.0289 0.44429-0.47237 3.1443-1.7981 6-2.946 5.9121-2.3765 6.6926-4.575 1.9672-5.5415-1.7737-0.36277-4.4737-1.4803-6-2.4835-4.2861-2.817-10.303-3.6562-29.275-4.0829-13.044-0.29339-18.136-0.063-20 0.90469-3.5808 1.8596-3.2747 4.3031 0.5 3.9918 15.107-1.2463 38.293 1.1119 41.391 4.2098 1.3123 1.3123 0.95017 1.7205-3.1268 3.524-2.5361 1.1218-8.808 2.6785-13.938 3.4593-5.1296 0.78077-12.476 1.9042-16.326 2.4964-19.339 2.9748-52.731 2.9763-72 3e-3 -3.85-0.59402-11.197-1.7189-16.326-2.4996-5.1296-0.78078-11.401-2.3375-13.938-3.4593-4.077-1.8035-4.4392-2.2116-3.1268-3.524 3.0978-3.0978 26.284-5.456 41.391-4.2098 3.7747 0.31139 4.0808-2.1322 0.5-3.9918-1.8635-0.96774-6.9555-1.1981-20-0.90469-18.972 0.42672-24.989 1.2659-29.275 4.0829-1.5263 1.0031-4.2263 2.1207-6 2.4835-4.7253 0.96642-3.9448 3.1649 1.9672 5.5415 2.8557 1.148 5.5557 2.4737 6 2.946 0.77064 0.81934-7.8187 0.40719-21.442-1.0289-10.525-1.1095-7.0929 1.9767 7.25 6.5191 5.9107 1.8719 5.9107 2.1729 0 1.4162zm109.62-17.383c2.3602-1.2632 2.4308-3.657 0.12504-4.2433-1.5127-0.38464-38.56-0.2405-42 0.16341-0.6875 0.0807-1.25 0.79523-1.25 1.5878 0 2.185 1.918 2.9978 8.5 3.6016 8.8264 0.80982 32.453 0.0527 34.625-1.1095zm45.875-12.512c21.678-1.6221 38.235-4.496 44.909-7.7949 4.973-2.4581 14.214-12.413 14.165-15.258-0.0179-1.0276-0.60439-5.9046-1.3032-10.838l-1.2706-8.9694-10.414-3.2743c-5.7278-1.8009-11.24-4.0219-12.25-4.9356-2.2721-2.0562-2.4256-8.0038-0.33576-13.006 3.0654-7.3366 0.89076-15.346-4.1667-15.346-3.717 0-0.27559-0.95623 8.6859-2.4135 5.2144-0.84792 12.738-2.4518 16.718-3.5641s8.5259-2.0224 10.101-2.0224c4.2825 0 9.1619-1.9897 9.1619-3.7359 0-2.1166-9.7313-1.0918-21.198 2.2324-24.12 6.9927-39.544 8.6501-80.802 8.6828-1.925 2e-3 -5.6375 0.0116-8.25 0.0223-2.6125 0.0108-16.225 0.0195-30.25 0.0195s-27.638-9e-3 -30.25-0.0195c-2.6125-0.0108-6.325-0.0208-8.25-0.0223-41.258-0.0327-56.682-1.6901-80.802-8.6828-11.466-3.3242-21.198-4.3491-21.198-2.2324 0 1.7463 4.8794 3.7359 9.1619 3.7359 1.5749 0 6.1202 0.91009 10.101 2.0224s11.504 2.7162 16.718 3.5641c8.9615 1.4572 12.403 2.4135 8.6859 2.4135-5.0574 0-7.2321 8.0092-4.1667 15.346 2.4312 5.8186 1.9769 11.134-1.1625 13.603-1.4644 1.1519-3.8269 2.3489-5.25 2.66-1.4231 0.31116-5.7375 1.5756-9.5875 2.8099l-7 2.2442-1.2612 8.9183c-0.69365 4.9051-1.2801 9.7591-1.3032 10.787-0.0632 2.8077 9.1212 12.75 14.088 15.251 6.0885 3.0654 23.583 6.2549 42.476 7.7441 23.622 1.8619 110.89 1.8991 135.5 0.0578zm30.886-91.38c2.9626-0.57237 6.9001-1.0407 8.75-1.0407 3.7821 0 4.164-0.6358 1.6135-2.6869-1.5635-1.2574-1.377-1.3433 1.75-0.80656 1.925 0.33045 5.5798 1.0969 8.1218 1.7033 4.6529 1.1099 8.471 0.55834 7.4599-1.0777-0.2998-0.48508-4.1396-1.4411-8.533-2.1246s-8.7683-1.8133-9.7222-2.5108c-1.6018-1.1713-1.4896-1.547 1.4696-4.9173 4.6585-5.3057 4.2334-7.5629-0.68996-3.6635-3.9955 3.1645-6.5136 3.8517-7.6105 2.0769-1.9641-3.1779-24.405-10.106-48.496-14.971-14.738-2.9765-44.407-7.0218-51.5-7.0218s-36.762 4.0453-51.5 7.0218c-24.09 4.8653-46.532 11.793-48.496 14.971-1.0969 1.7748-3.615 1.0876-7.6105-2.0769-5.0712-4.0165-5.3347-1.5165-0.4142 3.9299l3.4797 3.8516-2.3056 1.0505c-1.2681 0.57777-5.7718 1.6097-10.008 2.2931-4.2365 0.68342-7.9434 1.632-8.2375 2.1078-1.0018 1.621 2.837 2.1662 7.4702 1.061 2.542-0.60637 6.1968-1.3729 8.1218-1.7033 3.127-0.53677 3.3135-0.45081 1.75 0.80656-0.9625 0.77405-1.75 1.6328-1.75 1.9082 0 1.0258 13.149 2.063 34.5 2.7212 33.213 1.0239 166.02 0.32909 172.39-0.90185zm-128.4-2.0683c-0.22092-0.35746 6.6676-1.1551 15.308-1.7725 11.624-0.83062 19.806-0.8301 31.463 2e-3 8.6644 0.61849 15.489 1.3886 15.167 1.7114-0.80877 0.80885-61.438 0.86676-61.937 0.0592zm-18.24-9.6899c-1.9814-1.028-3.736-1.126-7.1438-0.39916-3.1218 0.66582-5.1479 0.62241-6.5584-0.14051-1.8148-0.98161-1.376-1.3041 3.959-2.9098 6.6355-1.997 17.129-2.4452 17.692-0.75566 0.25135 0.75403 5.4527 0.56797 17.333-0.62004 17.931-1.793 37.412-1.5764 54.835 0.60989 6.3922 0.80211 9.164 0.80833 9.95 0.0223 1.6717-1.6717 11.499-1.27 18.189 0.74347 5.335 1.6056 5.7738 1.9282 3.959 2.9098-1.4405 0.77914-3.4383 0.80596-6.7898 0.0912-3.5649-0.76031-5.1213-0.70356-6.2434 0.22765-1.0978 0.91108-5.6674 1.134-17.21 0.83946-17.668-0.4508-54.668-0.26935-69.531 0.34098-7.0112 0.2879-10.565 0.0138-12.442-0.95958zm40.757-29.282c0-1.2777-6.0229-1.2777-8 0-1.0849 0.70111-0.18547 0.97361 3.25 0.98469 2.6125 0.00842 4.75-0.43469 4.75-0.98469zm25 0c-1.9771-1.2777-8-1.2777-8 0 0 0.55 2.1375 0.99311 4.75 0.98469 3.4355-0.0111 4.3349-0.28358 3.25-0.98469zm-175.62-337.75c-0.77622-3.2356-1.1588-3.8029-1.9985-2.9632-0.90842 0.90843 0.48611 5.7132 1.6582 5.7132 0.58418 0 0.72567-1.1435 0.34028-2.75zm320.22 0.20343c0.5733-2.2842-0.0402-4.4371-0.96036-3.3701-1.0141 1.176-1.558 5.9167-0.67878 5.9167 0.55 0 1.2876-1.146 1.6391-2.5466z" fill="#4f4f4f"/>
 <path d="m484.5 981.94c-21.983-1.5342-48.344-6.259-50.016-8.9644-2.7298-4.417 35.705-5.6836 58.588-1.9309 4.7135 0.773 8.3895 0.77011 13-0.0102 22.042-3.7306 61.147-2.4318 58.444 1.9411-1.7735 2.8696-27.668 7.3684-52.016 9.0371-7.7 0.52773-14.675 0.89999-15.5 0.82726-0.825-0.0727-6.45-0.47771-12.5-0.89995zm-102.04-4.8367c-13.147-4.0304-22.107-8.7547-28.624-15.091-6.5455-6.3649-7.3064-8.4832-10.78-30.01-2.0672-12.812-2.1531-15.766-1.6873-58 0.26994-24.475 0.0929-60.025-0.39343-79-1.229-47.953-3.2507-185.06-2.7363-185.57 0.23259-0.23259 2.364 11.357 4.7364 25.754 3.9372 23.893 4.2566 27.143 3.6606 37.246-0.35912 6.0882-1.3078 13.994-2.1082 17.569-1.871 8.3571-2.2372 89.596-0.40668 90.206 0.81373 0.27124 0.77111 1.9266-0.15628 6.0706-2.274 10.161 1.71 34.672 6.9837 42.966 2.4493 3.8522 7.401 7.7429 8.4805 6.6634 0.23636-0.23635-0.61226-4.4745-1.8858-9.4182-4.5685-17.734-6.511-50.831-6.9541-118.49l-0.33079-50.5-3.1444-21.332c-1.7294-11.733-3.6289-28.332-4.2211-36.888-1.0019-14.475-0.65269-54.07 0.70702-80.161 0.29755-5.7094 0.14998-10.772-0.32794-11.25-0.49191-0.49191-1.3977 2.7881-2.0876 7.5596-0.67025 4.6357-1.8176 9.8532-2.5498 11.594l-1.3311 3.1658-0.64181-5.3447c-0.353-2.9396-0.61121-14.345-0.57381-25.345l0.068-20 2.8466 9.5c2.6719 8.9168 2.8501 9.2238 2.9033 5 0.0312-2.475-0.59574-8.325-1.3932-13-2.721-15.952-5.9612-154.65-7.499-321-0.95214-103-0.57289-134.22 1.6738-137.82 1.1303-1.8075 1.1873-2.632 0.25949-3.75-1.4597-1.7588 0.35622-4.4331 3.0103-4.4331 1.4633 0 1.6496 0.82912 1.2922 5.75-0.22968 3.1625-0.9195 7.325-1.5329 9.25-1.6201 5.0841-2.2169 246.18-0.76745 310 1.9199 84.537 3.5824 116.84 7.5657 147 3.6458 27.607 4.3496 37.362 4.4011 61 0.0799 36.668 2.6843 68.428 8.4952 103.59 1.9744 11.949 3.9628 28.641 4.5861 38.5 1.848 29.228 4.1107 57.161 5.0199 61.969 0.47461 2.5098 1.5835 13.085 2.4642 23.5 1.8492 21.868 4.1823 41.293 5.6075 46.687 0.71922 2.722 1.5286 3.75 2.9523 3.75 1.0788 0 1.9615 0.43434 1.9615 0.9652 0 0.53087 1.3898 2.5482 3.0886 4.4829 2.6375 3.0039 3.2917 3.3146 4.4792 2.127 1.7761-1.7761 18.582-5.7615 38.432-9.1136 19.063-3.2192 64.111-8.4169 73.171-8.4426 9.6419-0.0273 56.418 5.4394 76.634 8.9562 17.608 3.0631 32.17 6.406 35.374 8.1206 2.3945 1.2815 5.2013-0.57251 7.1945-4.7522 1.0391-2.179 2.0721-3.1098 3.0394-2.7386 1.0459 0.40133 1.7553-0.53501 2.4786-3.2713 1.446-5.4704 3.7706-24.782 5.63-46.77 0.88071-10.415 1.9896-20.99 2.4642-23.5 0.90921-4.808 3.1719-32.74 5.0199-61.969 0.62334-9.8591 2.6117-26.551 4.5861-38.5 5.8208-35.227 8.385-66.241 8.4825-102.59 0.0661-24.654 0.74936-34.252 4.4138-62 3.9833-30.162 5.6457-62.463 7.5657-147 1.4495-63.823 0.85263-304.92-0.76745-310-0.61342-1.925-1.3032-6.0875-1.5329-9.25-0.35739-4.9209-0.17106-5.75 1.2922-5.75 2.654 0 4.47 2.6742 3.0103 4.4331-0.92785 1.118-0.8708 1.9425 0.25949 3.75 1.1025 1.7631 1.5768 7.5759 1.9842 24.317 1.114 45.776-2.4045 309.73-5.272 395.5-0.57661 17.247-1.6452 33.536-2.5726 39.218-0.87246 5.3447-1.4442 11.195-1.2705 13 0.26328 2.7367 0.76036 1.7864 2.9905-5.7177l2.6747-9 0.0753 20.61c0.0414 11.336-0.21689 22.742-0.57401 25.348l-0.64929 4.7371-1.3324-3.1687c-0.7328-1.7428-1.8807-6.9616-2.551-11.597-0.68989-4.7715-1.5957-8.0515-2.0876-7.5596-0.47792 0.47792-0.62549 5.5403-0.32794 11.25 1.3597 26.09 1.7089 65.686 0.70702 80.161-0.59219 8.5555-2.4917 25.155-4.2211 36.888l-3.1444 21.332-0.33079 50.5c-0.44319 67.658-2.3857 100.75-6.9541 118.49-1.2736 4.9436-2.1222 9.1818-1.8858 9.4182 1.0795 1.0795 6.0312-2.8111 8.4805-6.6634 5.2737-8.2944 9.2577-32.805 6.9837-42.966-0.92739-4.144-0.97001-5.7994-0.15628-6.0706 1.8306-0.61019 1.4643-81.849-0.40668-90.206-0.80037-3.575-1.749-11.481-2.1082-17.569-0.59597-10.104-0.27657-13.354 3.6606-37.246 2.3724-14.397 4.5038-25.987 4.7364-25.754 0.51437 0.51437-1.5072 137.62-2.7363 185.57-0.48633 18.975-0.66337 54.525-0.39343 79 0.46582 42.234 0.37988 45.188-1.6873 58-3.4732 21.527-4.2341 23.645-10.78 30.01-7.6396 7.4287-24.638 15.27-38.113 17.582-3.5056 0.60148-3.5232 0.58726-1.3038-1.0482 1.2375-0.91188 2.25-2.0824 2.25-2.6012 0-1.2639-9.4904-1.1956-18.032 0.12967-3.8035 0.59013-7.9397 0.91326-9.1916 0.71805-1.9784-0.3085-1.7117-0.65202 2.0393-2.6267 4.7978-2.5257 4.9856-4.241 0.60286-5.508-1.6051-0.46398-4.6386-1.7338-6.7411-2.8218-5.7588-2.9799-12.618-4.0329-29.494-4.528-11.821-0.34677-16.305-0.11263-19.646 1.0259-2.7261 0.92888-4.6805 1.1244-5.277 0.52788-1.2592-1.2592-44.272-1.2487-45.532 0.0112-0.61137 0.61137-2.4111 0.44603-4.9692-0.45652-5.5712-1.9656-28.971-1.8907-38.627 0.12365-4.0522 0.84539-9.0022 2.3779-11 3.4056-1.9978 1.0277-4.9455 2.2481-6.5506 2.7121-4.3827 1.2669-4.195 2.9822 0.60286 5.508 3.751 1.9746 4.0178 2.3182 2.0393 2.6267-1.2518 0.19521-5.388-0.12792-9.1916-0.71805-8.5419-1.3254-18.032-1.3936-18.032-0.12972 0 0.51881 1.0001 1.6438 2.2225 2.5 2.0817 1.4581 2.0976 1.5527 0.25 1.4936-1.0849-0.0347-6.0418-1.3106-11.015-2.8354zm105.04-21.037c5.5-0.40412 18.149-0.27323 28.108 0.29086 30.622 1.7343 78.71-2.4089 94.392-8.1328 6.7108-2.4494 13.712-7.8752 16.666-12.916 2.4813-4.234 2.587-4.9627 1.9732-13.609-0.36892-5.1973-1.1853-9.6341-1.8938-10.292-0.68496-0.63599-4.5002-2.1231-8.4784-3.3047-3.9782-1.1816-8.0282-2.9892-9-4.0168-0.97181-1.0276-2.6576-2.0339-3.7463-2.2361-1.0886-0.2022-2.4157-1.6084-2.949-3.1249-0.8869-2.5219-0.51533-3.2174 4.3518-8.1457l5.3215-5.3884-2.5031-10.434-5.3108 0.62418c-2.9209 0.3433-5.5633 0.21572-5.8718-0.28353-0.30855-0.49924 1.8019-1.2157 4.69-1.5922s10.362-1.9937 16.609-3.594c6.2469-1.6002 12.413-2.9095 13.703-2.9095 5.3964 0 9.7863-4.1621 5.9447-5.6362-1.6256-0.6238-15.682 2.2031-30.085 6.0504-20.021 5.348-32.644 6.1934-88.42 5.922-1.925-9e-3 -11.375-0.0118-21-5e-3 -9.625 6e-3 -18.4-0.0684-19.5-0.16631-1.1-0.0979-11.225 0.0744-22.5 0.38274-29.866 0.81685-52.651-1.5938-76-8.0408-14.434-3.9853-23.245-4.8886-23.753-2.4348-0.36712 1.7751 3.575 3.9283 7.192 3.9283 1.2897 0 7.4561 1.3093 13.703 2.9095 6.2469 1.6002 13.721 3.2175 16.609 3.594 6.8496 0.89283 5.8427 2.5165-1.1152 1.7984-4.9863-0.51463-5.3791-0.3947-5.9728 1.8236-1.6112 6.02-0.78241 9.0393 3.8372 13.978 2.475 2.646 4.4857 5.3926 4.4682 6.1037-0.0375 1.5253-2.3696 4.7928-3.4207 4.7928-0.40262 0-1.8876 0.90893-3.2998 2.0198-1.4123 1.1109-5.6012 2.9412-9.3086 4.0673-9.8225 2.9835-9.8395 3.0053-10.583 13.58-0.60966 8.6761-0.50381 9.4062 1.9776 13.64 2.9557 5.0435 9.9606 10.471 16.666 12.912 9.1306 3.3242 18.333 4.6573 53 7.6776 12 1.0455 32.528 1.1215 45.5 0.16842zm104.5-92.023c4.675-0.56446 10.582-1.0297 13.128-1.0339 2.88-5e-3 5.0964-0.57252 5.869-1.5035 0.98083-1.1818 2.6569-1.3644 7.9827-0.86938 4.3366 0.40304 6.9752 0.24787 7.3972-0.43499 0.97301-1.5744-0.3357-2.0639-10.043-3.7568-4.8565-0.8469-9.2351-1.9449-9.7302-2.44-0.53363-0.53363 0.37611-2.3539 2.234-4.4699 3.3295-3.7921 4.8095-7.6781 3.643-9.5655-0.45876-0.74229-1.7334 0.0974-3.6175 2.3832-4.1124 4.9891-5.7707 5.2007-13.651 1.7421-18.932-8.3091-71.438-18.375-95.711-18.348-24.029 0.0264-80.659 10.784-95.255 18.095-7.5264 3.77-9.0604 3.6799-13.304-0.7813-6.1516-6.4667-6.8727-0.46721-0.77808 6.4742 1.8579 2.116 2.7676 3.9363 2.234 4.4699-0.49512 0.49512-4.9336 1.6036-9.8632 2.4632s-9.3917 1.9917-9.9157 2.5157c-1.581 1.581 2.0641 2.3309 7.9616 1.6378 3.8599-0.45365 6.1105-0.23667 7.6888 0.74132 2.5201 1.5616 26.919 3.627 46.731 3.9559 34.221 0.56814 149.49-0.3682 157-1.2754zm-102-4.0415c3.1538-1.01 15.531-1.01 19.5 0 1.8575 0.47265-1.7605 0.77047-9.5 0.78201-7.6469 0.0114-11.529-0.29222-10-0.78201zm1.8148-37.75c-0.40218-2.1208-4.3678-2.7506-8.1837-1.2998-4.0162 1.5269-2.2679 3.0498 3.5012 3.0498 4.2353 0 4.9628-0.27188 4.6824-1.75zm25.686 0.74813c0.80808-1.3075-4.165-3.178-7.4339-2.7961-1.4796 0.17288-2.6895 1.0326-2.8821 2.048-0.28032 1.4781 0.44714 1.75 4.6824 1.75 2.7579 0 5.2929-0.45084 5.6335-1.0019zm-16.501-1.4391c0-1.0555-1.9191-1.4989-2.4899-0.57533-0.34546 0.55897 0.0734 1.0163 0.9309 1.0163 0.85746 0 1.559-0.19844 1.559-0.44098zm-158.31-320.31c-0.25153-0.9625-0.45733-0.175-0.45733 1.75s0.2058 2.7125 0.45733 1.75c0.25152-0.9625 0.25152-2.5375 0-3.5zm314 0c-0.25153-0.9625-0.45733-0.175-0.45733 1.75s0.2058 2.7125 0.45733 1.75c0.25152-0.9625 0.25152-2.5375 0-3.5z" fill="#2e2e2e"/>
 <path d="m395.15 973.14c-16.935-2.5257-17.384-2.5425-18.729-0.70349-1.3267 1.8143-1.65 1.7496-8.7192-1.7441-8.7421-4.3206-16.036-10.474-18.771-15.835-1.0929-2.1422-2.6515-8.3389-3.4636-13.77s-1.9242-12.235-2.4712-15.12c-1.13-5.9587-1.3102-47.567-0.33614-77.63 0.50052-15.448 0.94363-20.047 1.8962-19.682 0.68369 0.26235 1.5401-4e-3 1.9032-0.59117 0.38078-0.61612-0.15369-1.0682-1.2629-1.0682-2.4444 0-3.2356-5.0897-3.0919-19.89l0.10304-10.61 1.324 9.5c2.0641 14.811 4.8183 22.401 10.014 27.596 2.4221 2.4221 5.3156 4.4038 6.4301 4.4038 2.4584 0 2.4626 0.55428-0.0497-6.5934-2.9833-8.4877-4.719-20.203-5.8922-39.772-2.2753-37.948-2.9502-59.583-2.7808-89.135 0.20735-36.163-0.0978-42.231-3.2513-64.668-4.3886-31.223-5.2649-46.546-4.5692-79.893 0.33776-16.191 0.87262-34.164 1.1886-39.939 0.33261-6.0791 0.0753-14.079-0.61103-19-4.5616-32.706-5.2438-39.736-3.9343-40.546 0.51281-0.31693 0.93435 1.3511 0.94426 3.7365 0.01 2.37 1.1264 12.409 2.4813 22.309 3.2285 23.59 4.7911 41.632 4.2942 49.581-0.60473 9.6736 0.94701 50.006 2.7285 70.919 0.86678 10.175 3.117 28.4 5.0004 40.5 4.3597 28.008 5.1963 35.573 5.9718 54 0.65301 15.516 2.8033 40.779 4.5112 53 0.53803 3.85 1.901 17.125 3.0289 29.5 3.4287 37.619 5.2502 47 9.1263 47 1.1657 0 1.8395 0.72417 1.8395 1.977 0 1.0873 1.125 2.7141 2.5 3.615 2.0763 1.3604 2.5 2.43 2.5 6.3108 0 3.7311 0.59639 5.3705 2.9594 8.135 1.6276 1.9042 2.9776 3.7824 3 4.1737 0.0568 0.99403-6.2999 2.5537-13.709 3.3636-5.664 0.61916-6.25 0.89963-6.25 2.9912 0 2.0891-0.35561 2.2606-3.75 1.8085-2.0625-0.2747-4.5809-0.66563-5.5964-0.86874-4.9893-0.99786-6.4651 3.5256-1.9036 5.8346 1.5125 0.76562 4.55 1.7046 6.75 2.0867 11.756 2.0416 12.101 2.3518 9.2472 8.3098-1.3896 2.9016 0.38948 9.0834 3.7707 13.102 4.0192 4.7766 3.6758 7.0591-1.5179 10.086-6.8636 4.0006-10 10.868-10 21.895 0 6.7636 0.44973 9.3616 2.2416 12.95 2.6234 5.2528 8.507 10.684 14.523 13.407 13.099 5.9284 70.09 11.059 100.24 9.0239 9.1853-0.62013 19.448-0.63765 28-0.0478 23.136 1.5958 65.768-1.0642 89.244-5.5683 9.4331-1.8098 14.983-4.2289 20.264-8.8322 6.2507-5.4491 8.4916-10.905 8.4916-20.676 0-11.464-2.3856-16.81-9.6555-21.635-5.8125-3.8582-6.1982-5.4123-2.4665-9.9406 2.672-3.2424 5.122-8.1607 5.122-10.282 0-1.0855-0.67391-3.5865-1.4976-5.5578l-1.4976-3.5842 3.7476-0.97684c2.0612-0.53726 5.5476-1.2895 7.7476-1.6715 2.2-0.38209 5.2375-1.3211 6.75-2.0867 4.5616-2.309 3.0858-6.8324-1.9036-5.8346-1.0156 0.20311-3.534 0.59404-5.5964 0.86874-3.3684 0.44862-3.75 0.27092-3.75-1.7464 0-2.0628-0.71511-2.3471-8.7724-3.4875-11.837-1.6754-12.284-2.0363-8.3801-6.7721 2.5379-3.079 3.1525-4.7325 3.1525-8.4817 0-3.8641 0.42569-4.9361 2.5-6.2952 1.375-0.90094 2.5-2.5277 2.5-3.615 0-1.2528 0.67382-1.977 1.8395-1.977 3.9004 0 5.4748-8.31 9.6619-51 1.3756-14.025 3.3618-33.825 4.4137-44s2.2054-25.475 2.5633-34c0.79314-18.894 1.6065-26.282 6.0006-54.5 1.8842-12.1 4.1356-30.55 5.0031-41 1.8027-21.714 3.319-60.907 2.7244-70.419-0.49684-7.949 1.0658-25.991 4.2942-49.581 1.3549-9.9 2.4715-19.939 2.4813-22.309 0.01-2.3854 0.43145-4.0534 0.94426-3.7365 1.3095 0.80931 0.62734 7.8394-3.9343 40.546-0.68704 4.926-0.94338 12.915-0.60964 19 0.31674 5.775 0.853 24 1.1917 40.5 0.69057 33.642-0.1181 47.625-4.5977 79.5-3.1292 22.266-3.4345 28.368-3.2273 64.5 0.16945 29.552-0.50551 51.187-2.7808 89.135-1.1733 19.568-2.909 31.284-5.8922 39.772-2.5144 7.1536-2.5134 6.5934-0.0111 6.5934 1.1521 0 4.1441-2.1346 6.7684-4.8289 4.1822-4.2937 4.9532-5.8175 6.9566-13.75 1.2392-4.9066 2.6365-12.071 3.1051-15.921l0.85199-7 0.12649 10.61c0.17582 14.749-0.61717 19.89-3.0685 19.89-1.1092 0-1.6437 0.45205-1.2629 1.0682 0.3631 0.5875 1.2196 0.85352 1.9032 0.59117 0.95259-0.36554 1.3957 4.2337 1.8962 19.682 0.97407 30.063 0.7939 71.671-0.33614 77.63-0.54701 2.8843-1.659 9.6883-2.4712 15.12s-2.357 11.601-3.433 13.71c-3.3084 6.485-13.803 14.613-22.912 17.744-3.124 1.074-3.7846 1.0229-4.8045-0.37185-1.0842-1.4827-2.5406-1.427-17.534 0.6711-8.9932 1.2585-17.476 2.5146-18.851 2.7913l-2.5 0.50318 2.25-1.98c1.2375-1.089 2.25-2.6231 2.25-3.4092 0-1.5068-3.9954-3.7502-6.679-3.7502-0.8717 0-2.988-0.86295-4.703-1.9177-6.4804-3.9856-15.222-4.4952-77.118-4.4952s-70.638 0.50957-77.118 4.4952c-1.7149 1.0547-3.8312 1.9177-4.703 1.9177-2.6836 0-6.679 2.2434-6.679 3.7502 0 0.78606 1.0125 2.2739 2.25 3.3062 2.7448 2.2898 3.6883 2.3373-18.101-0.91226zm-19.149-80.644c0-2.1353-2.9108-3.9892-4.2153-2.6847-0.84065 0.84065-0.8234 1.8045 0.0673 3.7594 0.98779 2.168 1.4564 2.4142 2.6729 1.4047 0.8113-0.67331 1.4751-1.789 1.4751-2.4793zm251.53 0.39934c0.89812-2.8298-0.94082-4.6348-2.9896-2.9345-0.84831 0.70403-1.5424 2.125-1.5424 3.1576 0 2.6257 3.6853 2.4443 4.532-0.2231zm-188.03-19.533c-21.595-1.2095-43.734-4.5393-57.938-8.7143l-7.9385-2.3333 5.8971-0.60864c3.7033-0.38221 6.39-0.19964 7.2219 0.49079 3.7174 3.0852 32.945 4.1654 112.76 4.1676 79.757 2e-3 109.04-1.0801 112.76-4.1676 0.83191-0.69043 3.5185-0.873 7.2219-0.49079l5.8971 0.60864-7.9385 2.3351c-9.6209 2.83-26.409 5.9053-39.938 7.3164-11.127 1.1605-15.492 1.2127-77.5 0.92782-23.925-0.10993-45.975 0.0261-49 0.30222-3.025 0.27615-8.2 0.35088-11.5 0.16606zm-45.738-31.439c-2.4664-1.437-3.979-4.6684-3.2542-6.952 1.4429-4.5462 36.647-11.52 83.57-16.554l25.578-2.7444 24.922 2.716c48.572 5.2935 82.128 11.794 83.834 16.24 0.99925 2.604-0.45163 6.0648-3.0363 7.2424-3.5604 1.6222-5.3756 1.4162-10.93-1.2406-6.8059-3.2557-46.708-11.391-67.223-13.706-8.5155-0.96079-10.081-1.3945-9.1381-2.531 2.3926-2.883 0.2758-4.397-6.1477-4.397-5.284 0-6.1968 0.27461-6.648 2-0.62036 2.3723-3.5102 2.7309-3.0836 0.38264 0.43503-2.3945-2.6524-4.0871-4.5629-2.5015-0.83841 0.69582-1.278 1.9072-0.97683 2.692 0.3233 0.84251-0.0628 1.4269-0.94281 1.4269-0.8197 0-1.7257-0.9-2.0134-2-0.4512-1.7254-1.364-2-6.648-2-6.4235 0-8.5404 1.514-6.1477 4.397 0.94325 1.1365-0.62243 1.5696-9.1381 2.5273-20.25 2.2774-60.546 10.474-67.291 13.687-5.4176 2.581-8.0064 2.8987-10.723 1.3157zm-51.991-55.927c-0.3061-1.925-0.16956-3.9128 0.30342-4.4172 1.3509-1.4408 2.0137 1.5644 1.0845 4.9172l-0.8314 3zm313.89 0.0625c-0.38376-1.9146-0.25497-3.8715 0.29072-4.4172 1.4724-1.4724 2.1768 1.3375 1.217 4.8547l-0.81869 3zm-314.5-20.562c-0.61877-21.493-2.2062-144.8-1.8685-145.13 0.2285-0.22849 1.8296 8.2669 3.558 18.879 3.7265 22.88 3.9388 33.007 1.0349 49.375-1.8717 10.55-2.0575 14.622-1.66 36.38 0.24616 13.475 0.14625 29.45-0.22201 35.5-0.45206 7.4266-0.72569 9.0509-0.84231 5zm315.6-6.7218c-0.28195-6.753-0.29788-22.628-0.0354-35.278 0.42138-20.308 0.23111-24.39-1.6258-34.88-2.899-16.376-2.6858-26.503 1.0395-49.375 1.7284-10.612 3.3273-19.109 3.553-18.884 0.45484 0.45483-1.6575 149.93-2.1253 150.4-0.16135 0.16134-0.52404-5.2319-0.80599-11.985zm-319.7-252.47c0.0665-19.721 0.80912-21.168 2.9671-5.7794 1.0025 7.1489 1.0074 10.442 0.024 16.217-2.1371 12.55-3.0578 9.3373-2.9911-10.437zm323.53 17.842c-0.28851-0.46682-1.0594-4.0876-1.7132-8.0461-0.93831-5.6817-0.91752-9.0302 0.0987-15.901 2.2006-14.879 2.8916-13.466 2.9576 6.0461 0.0349 10.312-0.13505 18.75-0.37759 18.75s-0.67704-0.38195-0.96555-0.84877zm-321.44-75.151c0-1.375 0.22698-1.9375 0.50439-1.25s0.27741 1.8125 0 2.5-0.50439 0.125-0.50439-1.25zm319.92-0.58333c0.048-1.165 0.28494-1.4019 0.60416-0.60417 0.28887 0.72187 0.25335 1.5844-0.0789 1.9167-0.33229 0.33229-0.56864-0.25834-0.52522-1.3125zm4.7631-329.42c-0.35241-56.168-0.92847-89.111-1.6088-92-1.1915-5.0593-0.86408-6.0593 1.2814-3.9139 2.2233 2.2233 2.7033 34.137 1.7208 114.41l-0.84449 69zm-330.11 7c-0.81147-79.462-0.40068-101.2 1.9495-103.15 2.0362-1.6899 2.2614-0.83519 1.0924 4.1481-0.66997 2.8561-1.2776 35.551-1.6632 89.5l-0.60763 85zm1.9648-108.64c-0.79893-0.79893 0.10419-2.3605 1.3652-2.3605 0.51754 0 0.94098 0.675 0.94098 1.5 0 1.5464-1.18 1.9867-2.3062 0.86052zm325.31-0.86052c0-0.91667 0.48375-1.5054 1.075-1.3083 0.59125 0.19708 1.075 0.78583 1.075 1.3083s-0.48375 1.1112-1.075 1.3083c-0.59125 0.19708-1.075-0.39167-1.075-1.3083z" fill="#050505"/>
</svg>
