<?xml version="1.0" encoding="UTF-8" standalone="no"?>
<!-- Created with Inkscape (http://www.inkscape.org/) -->
<svg id="svg3349" xmlns:rdf="http://www.w3.org/1999/02/22-rdf-syntax-ns#" xmlns="http://www.w3.org/2000/svg" height="937.5" viewBox="0 0 937.5 937.5" width="937.5" version="1.1" xmlns:cc="http://creativecommons.org/ns#" xmlns:dc="http://purl.org/dc/elements/1.1/">
<metadata id="metadata3355">
<rdf:RDF>
<cc:Work rdf:about="">
<dc:format>image/svg+xml</dc:format>
<dc:type rdf:resource="http://purl.org/dc/dcmitype/StillImage"/>
<dc:title/>
</cc:Work>
</rdf:RDF>
</metadata>
<g id="g3359">
<path id="path3369" fill="#fdfdfd" d="m0 468.75v-468.75h468.75 468.75v468.75 468.75h-468.75-468.75v-468.75z"/>
<path id="path3367" fill="#cfd0d0" d="m348.75 921.99c-28.175-1.5095-50.971-5.2355-60.693-9.9199-4.9864-2.4028-11.268-9.4395-12.024-13.469-0.54583-2.9095 1.2193-8.0707 3.1731-9.2783 1.2296-0.75993 18.811-4.1129 24.765-4.7228 2.9576-0.303 7.1763-1.1276 9.375-1.8325 2.1987-0.70486 7.1616-2.2202 11.029-3.3674 14.32-4.2482 24.433-10.738 39.207-25.158 6.5016-6.3465 15.123-18.151 18.274-25.023 6.5911-14.371 9.6664-25.28 10.957-38.867 2.2689-23.892-2.758-42.123-18.403-66.738-2.1778-3.4266-4.4156-6.512-4.9727-6.8563-2.0093-1.2418-4.0328-6.2866-2.9542-7.3652 2.5064-2.5064 29.094 3.9879 41.264 10.08 5.3418 2.6736 14.08 5.5763 14.755 4.9013 0.7109-0.71089-14.78-8.3512-22.658-11.175-8.5251-3.0559-14.718-4.2984-26.542-5.3254-8.9741-0.7795-10.05-1.0971-15.458-4.5621-3.197-2.0483-8.7658-4.6745-12.375-5.8358-20.128-6.4764-31.973-17.477-37.476-34.803-2.83-8.92-5.64-24.83-7.08-40.16-1.34-14.29-6.05-42.79-11.23-67.97-10.62-51.58-21.24-108.42-34.22-183.28-7.8172-45.061-8.0146-46.106-9.579-50.723-1.7199-5.0755-1.0822-8.6942 1.8711-10.618 6.0556-3.9457 58.615-4.9264 256.63-4.7887 150.72 0.10483 166.12 0.4414 171.16 3.7416 2.9062 1.9042 3.8321 5.6921 2.2855 9.3504-1.2204 2.8868-7.0617 30.763-15.828 75.538-2.5744 13.148-6.5817 32.977-8.9051 44.062-2.3234 11.086-5.0734 24.375-6.1111 29.531-1.0378 5.1562-4.0282 17.602-6.6454 27.656-5.1364 19.733-8.4438 34.674-10.791 48.75-1.5834 9.4944-9.7766 48.811-10.373 49.776-0.34655 0.56074-5.8393 29.343-6.7158 35.191-0.24204 1.6149 0.0221 3.2218 0.58708 3.571 1.6872 1.0427 1.1848 6.5292-1.7053 18.622-4.9046 20.522-9.4448 29.798-18.926 38.666-2.7832 2.6032-7.4726 6.1068-10.421 7.7858-2.9482 1.679-6.956 4.7426-8.9062 6.808-1.9503 2.0654-5.7503 5.4605-8.4445 7.5446-5.8655 4.5372-15.754 16.417-20.962 25.185-4.7338 7.9682-9.666 21.655-11.696 32.456-2.0181 10.74-1.4422 38.981 0.9722 47.676 2.3772 8.5609 4.0772 13.368 6.5907 18.638 10.367 21.735 43.168 47.307 58.063 45.265 3.1059-0.42571 4.2397-0.17551 5.4126 1.1944 1.7359 2.0274 14.694 5.2039 25.04 6.1384 12.348 1.1152 17.884 4.7763 17.884 11.827 0 6.1428-6.2876 11.913-15.139 13.893-18.249 4.0825-67.455 7.957-99.236 7.8139-32.812-0.14768-66.488-1.2733-64.219-2.1465 1.0312-0.3969 11.789-1.189 23.906-1.7602 23.438-1.1049 38.917-2.5449 41.222-3.8346 2.7613-1.5453-4.0085-2.2728-20.128-2.1631-81.108 0.55219-122.31 1.1202-124.57 1.7174-4.489 1.184-0.95143 2.1921 11.723 3.3406 6.3789 0.57803 13.286 1.3562 15.348 1.7291 3.3823 0.61166 2.9687 0.75019-4.2188 1.4129-4.3828 0.40412-9.3914 1.3212-11.13 2.0379-3.8577 1.5902-19.187 1.5466-50.745-0.14414zm136.48-20.607c2.8983-0.47344 3.5905-2.2338 1.9329-4.9158-1.7884-2.8938 3.6269-4.2912 6.2939-1.6241 1.5362 1.5362 6.7382 1.9182 7.5796 0.55657 0.28881-0.46731 2.5487-1.128 5.022-1.4682 10.232-1.4072 6.8129-3.0043-11.062-5.1671-23.072-2.7917-83.83-3.4854-92.344-1.0544l-2.8125 0.80311 2.6392 1.0556c1.4515 0.58057 3.7229 1.0556 5.0475 1.0556s4.0151 0.48142 5.979 1.0698c2.9005 0.86902 4.1526 0.80049 6.6713-0.36505 2.5582-1.1839 6.9541-1.3921 25.132-1.1906 21.069 0.2336 29.609 1.0821 33.876 3.3657 5.2966 2.8347-5.0762 3.9662-16.645 1.8156-5.9401-1.1042-7.2181-1.0633-11.604 0.37117-2.7107 0.88663-6.035 1.5412-7.3872 1.4546-4.3772-0.28034-4.4534 0.30685-0.11489 0.88514 7.1777 0.95672 3.767 2.4275-6.0938 2.6277-13.255 0.2692-13.729 0.56895-1.875 1.1842 11.42 0.59269 45.234 0.28033 49.764-0.45969zm-79.296-2.2658c0-1.4203-1.7454-2.0978-3.7584-1.4589-2.8209 0.89532-2.2367 2.3411 0.94589 2.3411 1.5469 0 2.8125-0.39698 2.8125-0.88217zm22.969-1.9303c-0.31867-0.51563-1.4232-0.9375-2.4544-0.9375s-1.6143 0.42187-1.2956 0.9375c0.31867 0.51562 1.4232 0.9375 2.4544 0.9375s1.6143-0.42188 1.2956-0.9375zm97.031-9.7884c0-0.98951-1.7992-1.4052-2.3343-0.53937-0.32387 0.52403 0.0688 0.95279 0.87272 0.95279 0.80387 0 1.4616-0.18604 1.4616-0.41342zm-50.625-14.672c14.129-1.0079 20.8-2.3675 24.569-5.0074 1.7391-1.2181 1.6708-1.3217-1.2884-1.9548-1.7186-0.36772-4.1794-1.2274-5.4685-1.9105-3.3164-1.7573-28.015-3.3856-56.719-3.7394-13.406-0.16524-25.731-0.71716-27.389-1.2265-2.2919-0.70417-4.8207-0.48759-10.553 0.90377-5.5133 1.3382-8.0244 1.57-9.3461 0.86268-2.643-1.4145-10.368-1.2465-10.368 0.22546 0 0.65595 1.257 2.7176 2.7933 4.5814 2.3641 2.8681 3.8224 3.6212 9.49 4.9011 3.6832 0.83177 8.8598 1.5366 11.504 1.5663 2.6438 0.0297 6.4944 0.40308 8.5569 0.82969 5.6452 1.1677 47.695 1.1468 64.219-0.0319zm-45.92-9.28c0-0.51563 1.2905-0.9375 2.8678-0.9375 1.6732 0 2.6265 0.39054 2.2884 0.9375-0.31867 0.51562-1.6092 0.9375-2.8678 0.9375s-2.2884-0.42188-2.2884-0.9375zm98.672 8.2121c3.5961-1.0319 4.4272-2.0373 2.3438-2.8353-1.5113-0.57888-23.083 1.6881-25.547 2.6846-1.7688 0.71555-1.7422 0.79784 0.46875 1.4525 2.9931 0.88626 18.13 0.0195 22.734-1.3018zm-33.05-11.44c0-0.22738-0.42188-0.67416-0.9375-0.99283s-0.9375-0.13264-0.9375 0.41342c0 0.54605 0.42188 0.99283 0.9375 0.99283s0.9375-0.18604 0.9375-0.41342zm-36.094-11.812c-27.012-0.70837-44.872-2.4619-60.225-5.9128-10.511-2.3627-11.868-1.8061-2.8118 1.1539 12.561 4.1058 28.747 5.4728 64.443 5.4428l23.906-0.0201-25.312-0.6638zm35.625-8.3566c2.717-0.42319-8.5148-0.71176-26.719-0.68647-17.273 0.024-28.242 0.3135-24.375 0.64334 10.19 0.86908 45.599 0.89898 51.094 0.0431zm-60.686-1.6505c-1.4087-0.21391-3.94-0.21821-5.625-0.01-1.685 0.20865-0.53242 0.38367 2.5613 0.38893 3.0938 0.006 4.4724-0.16545 3.0637-0.37937zm-10.329-0.91388c-0.90234-0.2358-2.3789-0.2358-3.2812 0-0.90234 0.23581-0.16406 0.42875 1.6406 0.42875s2.543-0.19294 1.6406-0.42875zm64.453-33.313c4.7097-1.7926 14.508-9.2084 15.01-11.36 0.25975-1.1136 1.3064-5.3996 2.326-9.5246 2.9752-12.038 2.6907-14.097-2.6597-19.254-2.4982-2.4079-5.5568-4.6116-6.7969-4.897-12.603-2.9005-17.94-3.7408-27.871-4.3878-12.437-0.81028-30.774 0.0959-38.218 1.8886-6.5048 1.5665-13.135 5.9474-14.372 9.4964-3.0859 8.8523 2.4582 24.423 11.143 31.296 4.3303 3.4266 4.8348 3.5339 26.282 5.5873 8.5078 0.81455 17.789 1.8366 20.625 2.2712 5.6754 0.86977 10.234 0.51971 14.531-1.1157zm21.094-78.567c11.184-3.127 18.187-4.7551 30-6.9745 6.4453-1.211 12.913-2.6651 14.373-3.2314 3.9901-1.5478 2.5674-3.3219-2.9223-3.6438-3.82-0.22403-8.89 0.99602-24.67 5.9364-20.579 6.4429-32.642 11.11-26.156 10.119 1.8047-0.27578 6.0234-1.2681 9.375-2.2052zm-28.125-9.416c6.2341-1.3282 10.312-3.2942 10.312-4.971 0-3.9388-16.905-6.4711-43.594-6.5302-25.492-0.0564-32.5 1.2214-24.609 4.4874 4.9806 2.0614 23.241 7.0342 29.297 7.978 6.7502 1.0522 21.458 0.55623 28.594-0.9642zm-93.066 0.43804c-0.31153-0.31152-1.1201-0.34482-1.7969-0.074-0.74787 0.29927-0.52573 0.52142 0.56641 0.5664 0.98827 0.0407 1.542-0.18087 1.2305-0.49239zm122.1-16.654c-2.5123-2.3482-7.8036-3.4921-22.467-4.8568-22.317-2.0771-47.271-1.4504-62.137 1.5604-8.6218 1.7462-6.9725 2.3366 3.8585 1.3812 5.4984-0.48499 22.02-0.8652 36.716-0.84491 23.346 0.0322 27.725 0.27342 34.688 1.9108 10.427 2.452 11.124 2.5154 9.3415 0.84923zm12.455-24.08c1.418-0.6531 2.5761-1.4362 2.5737-1.7401-0.003-0.30395-9.9268-0.59813-22.054-0.65372-12.127-0.0556-21.902 0.0469-21.721 0.22775 0.18086 0.18086 6.3817 0.96761 13.78 1.7483 7.3979 0.78072 13.694 1.6718 13.991 1.9802 0.85078 0.88306 10.578-0.24859 13.431-1.5625zm-68.889-11.869c-1.4087-0.21391-3.94-0.21821-5.625-0.01-1.685 0.20865-0.53242 0.38367 2.5613 0.38893 3.0938 0.006 4.4724-0.16545 3.0637-0.37937zm23.926-12.559c-1.1151-1.1151-46.209-2.5203-45.176-1.4078 1.2248 1.3201 12.448 2.2262 28.921 2.3351 12.685 0.0838 17.019-0.16345 16.255-0.92737zm-88.214-2.513c2.3666-2.3715-1.3888-3.0079-16.356-2.7719-15.366 0.24228-18.44 1.1986-10.308 3.2066 6.0045 1.4825 25.061 1.1718 26.664-0.43465zm177.94-10.65c9.5293-1.6171 14.58-4.7736 17.775-11.108 2.7257-5.4048 8.8555-25.017 17.288-55.312 7.8262-28.117 9.2098-33.32 12.839-48.281 1.0007-4.125 2.6976-11.086 3.7709-15.469 1.0733-4.3828 2.5744-10.922 3.3358-14.531 0.76134-3.6094 2.3682-9.5156 3.5708-13.125 15.691-47.093 17.377-53.692 20.244-79.219 1.0133-9.0234 2.4419-19.57 3.1747-23.438 2.5835-13.634 7.012-42.718 7.2712-47.753l0.26244-5.097-3.2812-0.83561c-7.1446-1.8194-18.637-2.4611-53.342-2.9783-19.904-0.29663-51.798-0.97738-70.877-1.5128-81.521-2.2878-124.94-2.3973-160.31-0.40404-13.406 0.75548-39.721 1.7912-58.476 2.3015-27.983 0.76145-34.29 1.1732-35.156 2.2954-0.58031 0.75208-2.3208 1.4991-3.8676 1.6601l-2.8125 0.29271 0.11546 6.5625c0.0635 3.6094 1.0338 13.312 2.1562 21.562s3.2699 24.914 4.7723 37.031c3.6003 29.037 5.3266 41.34 7.63 54.375 2.7213 15.4 12.349 53.347 17.721 69.844 2.5186 7.7344 5.427 18.07 6.4632 22.969 4.3955 20.779 5.0215 23.259 14.554 57.656 6.717 24.237 10.286 31.406 17.369 34.884 8.0344 3.946 35.555 5.9838 99.844 7.3933 99.977 2.1919 116.27 2.222 127.97 0.2368zm-28.91-324.2c63.338 0.0283 107.71-0.30114 108.02-0.80199 0.28895-0.46753-2.1006-1.2026-5.3102-1.6335s-69.539-0.8754-147.4-0.98779c-156.82-0.22637-226.92 0.86841-213.8 3.339 1.518 0.28595 36.112 0.41108 76.875 0.27807s122.49-0.22021 181.61-0.19378z"/>
<path id="path3365" fill="#9f9fa0" d="m352.03 921.43c-31.166-1.6162-58.352-6.3495-66.165-11.52-4.6258-3.0612-8.3286-8.0118-8.9759-12.001-0.40709-2.5086-0.0311-3.7728 1.7316-5.822 1.9196-2.2316 3.4198-2.7882 10.174-3.7747 8.8481-1.2923 10.266-1.0882 10.266 1.4772 0 1.5362 0.78756 1.7946 5.8594 1.9228 3.2227 0.0815 7.6524 0.20695 9.8439 0.27885 3.3872 0.11114 4.4412-0.34423 7.0312-3.0376 4.2636-4.4338 5.7743-5.1015 8.6143-3.8075 1.9405 0.88414 2.7048 0.81691 4.038-0.3552 0.90443-0.79518 3.3319-2.2948 5.3944-3.3326 2.0625-1.0377 5.1313-3.4072 6.8196-5.2655s3.4813-3.3787 3.9844-3.3787c0.50312 0 0.91119-1.1602 0.9068-2.5781-0.007-2.0323 1.849-4.3644 8.7632-11.016 12.283-11.816 19.913-22.731 25.294-36.186 5.1606-12.903 6.9302-20.05 8.1626-32.967 1.0296-10.791-0.17267-28.071-2.3311-33.504-0.71703-1.8047-2.3913-6.2472-3.7207-9.8722-1.3293-3.625-4.3741-9.9531-6.7661-14.062-2.392-4.1094-5.1287-8.9238-6.0814-10.699-0.95269-1.775-3.0577-4.5948-4.6778-6.2663-4.341-4.4788-3.2396-6.4098 3.1779-5.5721 2.6982 0.35221 7.2261 1.3304 10.062 2.1737l5.1562 1.5333-4.5448 0.69282c-8.0989 1.2346-7.3615 2.3174 2.8069 4.1213 4.0496 0.71841 9.4722 1.9311 12.05 2.6948 2.5781 0.76372 8.0625 1.8412 12.188 2.3945 4.125 0.55323 11.64 2.3111 16.699 3.9064 5.0596 1.5953 9.3285 2.751 9.4866 2.5684 0.15805-0.18262-7.7785-4.2372-17.637-9.0103-19.478-9.4306-28.608-12.322-45.112-14.289-7.8806-0.9392-10.197-1.6209-14.531-4.2765-2.8359-1.7376-9.5859-4.6891-15-6.559-11.687-4.0364-18.603-8.0464-24.465-14.185-8.6275-9.0348-11.896-16.418-15.47-34.941-2.7072-14.034-2.8225-17.44-0.63173-18.666 1.4435-0.80782 1.4952-1.3783 0.47206-5.2039-1.8769-7.0176-4.7153-20.877-6.7354-32.888-1.0407-6.1875-2.7488-15.047-3.7958-19.688-1.047-4.6406-3.1591-14.344-4.6935-21.562-1.5344-7.2188-3.6429-17.026-4.6855-21.794-1.0426-4.7677-2.2663-11.096-2.7192-14.062-0.45295-2.9667-2.1196-11.933-3.7036-19.925-5.6469-28.492-14.766-78.407-22.608-123.75-2.6308-15.211-5.8374-32.719-7.1259-38.906-3.4509-16.571-3.4652-16.701-2.0474-18.609 3.6982-4.9752 24.337-5.4862 227.58-5.6352 181.29-0.13293 195.36 0.0978 200.52 3.2886 2.6976 1.6677 3.4934 5.1277 2.0007 8.6989-1.2719 3.0432-6.7816 29.355-15.425 73.663-2.8668 14.695-6.5072 32.625-8.0897 39.844-1.5826 7.2188-4.2806 19.875-5.9955 28.125-1.715 8.25-4.1807 19.008-5.4794 23.906-3.8406 14.486-9.7373 40.115-11.432 49.688-0.86719 4.8984-2.4051 13.336-3.4175 18.75-1.9692 10.53-12.728 60.089-15.817 72.857-2.4314 10.05-2.4294 11.824 0.0121 11.05 1.5304-0.48574 1.875-0.16847 1.875 1.7263 0 4.621-6.5663 28.251-9.6614 34.769-4.0761 8.5832-12.124 17.295-21.745 23.538-4.125 2.6768-9.9442 7.2262-12.931 10.11l-5.4315 5.2426-9.0998-0.53569c-8.9311-0.52576-9.3517-0.4545-22.694 3.8441-7.4766 2.4089-18.445 6.0986-24.375 8.1995-5.9297 2.1008-14.156 5.0038-18.281 6.451-8.2163 2.8826-7.8299 3.4598 0.9375 1.4007 3.0938-0.72662 9.2109-1.7844 13.594-2.3507 4.3828-0.56627 9.8672-1.4207 12.188-1.8988 2.3203-0.47807 8.8594-1.1799 14.531-1.5596l10.312-0.69042-5.625-1.0335-5.625-1.0335 5.625-1.5734c6.5255-1.8252 18.761-3.82 20.295-3.3086 0.57927 0.19308-0.81255 2.6492-3.0967 5.4647-10.719 13.212-17.617 28.472-20.993 46.439-2.3962 12.752-1.4922 39.013 1.7402 50.55 3.4036 12.148 5.5278 17.07 10.541 24.423 6.5778 9.6482 7.8282 11.032 22.092 24.453 12.24 11.516 13.554 12.48 20.317 14.891 3.9767 1.418 8.9178 2.7009 10.98 2.8509 2.0625 0.15 7.3359 0.74605 11.719 1.3246 4.3828 0.57851 10.5 1.2467 13.594 1.4849 12.9 0.99305 16.018 1.4981 18.263 2.9583 3.5753 2.3256 4.6436 4.147 4.6763 7.973 0.0374 4.3641-3.9855 9.2631-9.3784 11.421-5.2107 2.0849-24.57 5.0681-40.015 6.1662-51.695 3.6753-54.213 3.7787-71.346 2.9304-9.4462-0.4677-17.395-1.0705-17.664-1.3395-0.26904-0.26903 1.3425-0.70835 3.5812-0.97627 21.672-2.5936 27.071-3.747 25.393-5.4248-2.2464-2.2464-19.931-2.6342-81.323-1.7835-35.062 0.48586-65.403 1.2258-67.423 1.6443-5.0744 1.0512-5.1649 2.6564-0.22014 3.9015 3.941 0.99235 5.933 3.0376 4.7784 4.9059-0.61205 0.99032-17.85 0.89416-39.323-0.21935zm135.28-19.193c5.9698-0.41115 8.1664-0.95083 9.4418-2.3197 1.1224-1.2047 3.5559-1.9819 7.4954-2.3936 4.1436-0.43309 6.086-1.0817 6.7054-2.239 0.4796-0.89615 1.9988-1.9122 3.3761-2.2578 3.9272-0.98568 1.5889-1.9967-8.5484-3.696-17.443-2.924-28.968-3.6128-63.82-3.8143-19.117-0.11051-35.148-0.41898-35.625-0.68549-1.2397-0.69268-10.711-0.96774-10.711-0.31106 0 0.30144 0.66065 1.5564 1.4681 2.7887 1.6371 2.4985 5.758 4.2389 10.156 4.2891 1.5988 0.0183 3.9082 0.58828 5.1319 1.2667l2.2249 1.2335-2.2249 0.58933c-1.2237 0.32413-4.5842 0.10533-7.4677-0.48624-5.8685-1.2039-8.6104-0.65329-7.7615 1.5587 0.30681 0.79952 0.0799 2.0296-0.50431 2.7335-1.3248 1.5962 1.2116 2.4149 7.5399 2.4335 3.5613 0.0105 4.4321-0.32494 4.8341-1.8622 0.39926-1.5268 1.2788-1.875 4.7358-1.875 2.335 0 5.4331 0.45367 6.8846 1.0081l2.6392 1.0081-2.3438 1.3024c-1.2891 0.71631-2.1328 1.3803-1.875 1.4755 3.2617 1.2045 51.82 1.3847 68.249 0.25325zm-66.93-8.0021c-0.86899-1.406 2.3677-3.756 4.6952-3.4088 2.7382 0.40846 2.7693 2.1552 0.0604 3.3895-3.0202 1.3761-3.9148 1.3797-4.7556 0.0193zm19.414 0.27242c-2.3185-1.5465 2.0754-2.9427 9.261-2.9427 6.8105 0 8.1077 1.1475 2.5959 2.2962-5.9969 1.2498-10.578 1.4996-11.857 0.64649zm26.611-0.6252c-4.0255-1.3267-2.2296-1.7279 3.497-0.78128 1.9234 0.31793 3.2696 0.9461 2.9916 1.3959-0.64 1.0356-1.821 0.92368-6.4886-0.61464zm57.188 6.0479c2.0625-0.53065 4.9102-1.0479 6.3281-1.1495 1.418-0.10158 2.5778-0.60657 2.5774-1.1222-0.00093-1.3586-17.439-1.217-18.808 0.15269-2.8557 2.8563 2.5454 4.012 9.9029 2.119zm-145.35-2.6757c0.77218-1.2494-0.32492-1.72-6.591-2.8273-3.0561-0.54005-6.7167-1.2433-8.1346-1.5627-3.0945-0.69713-3.3855 0.70535-0.70312 3.3878 1.5148 1.5148 3.125 1.875 8.3822 1.875 3.5789 0 6.7499-0.39273 7.0465-0.87272zm163.64-1c1.0671-0.68962 0.67146-0.91225-1.6406-0.92315-1.6758-0.008-3.0469 0.40752-3.0469 0.92315 0 1.1908 2.8448 1.1908 4.6875 0zm56.626-3.6436c1.5302-0.60028 1.1942-1.0442-2.3723-3.1343-2.2852-1.3392-5.8296-2.7324-7.8764-3.096-2.0468-0.36357-4.987-1.2097-6.5339-1.8802-5.0801-2.2022-13.09-4.125-13.882-3.3326-0.42738 0.42738-0.64281 2.4147-0.47873 4.4162l0.29833 3.6392 4.4719 0.10605c2.5512 0.0605 5.1685 0.72358 6.0938 1.5438 0.89204 0.79078 2.4656 1.6433 3.4969 1.8946 2.9714 0.72389 14.82 0.61318 16.783-0.1568zm-71.314-4.2566c0.87779-2.2875-1.6041-3.4434-5.5786-2.5981l-3.6404 0.7742 2.8125 1.5433c3.5024 1.9218 5.7391 2.0198 6.4065 0.28063zm-48.15-14.55c11.973-0.49487 21.409-0.45015 25.064 0.11878 10.668 1.6608 32.648-1.7577 30.776-4.7865-0.84895-1.3736-6.3784-1.7275-13.167-0.84267-3.6094 0.47045-8.4609 1.0352-10.781 1.2549-2.3203 0.21977-5.8008 0.6696-7.7344 0.99964-3.5439 0.60488-5.1018-0.93025-2.1094-2.0786 2.3821-0.91409 1.5581-2.9692-1.4559-3.6312-1.5742-0.34575-2.6994-1.1176-2.5004-1.7151 0.40982-1.231 0.37758-1.2246 10.383-2.0578 14.106-1.1748 5.8717-2.4689-24.374-3.8307-16.426-0.73958-30.709-1.3221-31.74-1.2945-1.0312 0.0276-7.043 0.0456-13.359 0.0398-6.3164-0.006-11.484 0.33817-11.484 0.76408s-2.361 1.3408-5.2466 2.033c-4.3365 1.0403-5.7595 1.0459-8.2031 0.0322-5.1446-2.1342-8.5049-2.1485-15.363-0.0652-4.6482 1.4118-7.1916 1.7592-8.3829 1.1447-0.94058-0.48514-3.8676-1.1565-6.5045-1.4918-6.7812-0.86244-7.7383 0.58309-4.1413 6.2549 2.402 3.7875 3.4395 4.5396 8.1869 5.9347 12.393 3.6417 50.054 4.9568 92.139 3.2174zm15.016-24.431c18.794-1.1283 29.4-2.497 33.222-4.2871 2.8611-1.3401 2.8542-1.3436-1.8154-0.90642-2.5781 0.24139-8.2734 0.9629-12.656 1.6034-5.2698 0.77009-20.193 1.1633-44.062 1.161-39.637-0.004-51.975-0.98486-71.303-5.6693-9.5152-2.3062-13.569-2.4189-10.232-0.28443 3.1505 2.0154 12.175 4.9212 19.192 6.1793 16.043 2.8767 58.618 3.947 87.656 2.2036zm17.149-9.7217c5.0492-0.70813 9.3536-1.4607 9.5653-1.6723 0.21165-0.21165-15.37-0.21325-34.625-0.004-35.849 0.39037-57.98-0.5431-76.312-3.2188-11.202-1.635-14.021-1.2868-6.927 0.85573 6.2288 1.8811 22.629 4.2156 37.244 5.3013 15.15 1.1255 59.668 0.33457 71.055-1.2624zm-0.36948-10.427c0.62253-0.62494-11.474-0.96592-36.282-1.0228-31.716-0.0727-39.702-0.38044-54.04-2.0828-9.2529-1.0987-16.98-1.8406-17.172-1.6488-1.3593 1.3593 14.431 3.8975 32.121 5.1632 15.462 1.1064 74.181 0.78786 75.373-0.40883zm-48.878-15.175c-0.89634-0.23464-2.5838-0.24316-3.75-0.0189-1.1662 0.22425-0.43281 0.41624 1.6297 0.42664s3.0166-0.17307 2.1203-0.40772zm-9.8547-0.91425c-0.64453-0.26007-1.6992-0.26007-2.3438 0-0.64453 0.26007-0.11718 0.47287 1.1719 0.47287s1.8164-0.2128 1.1719-0.47287zm41.084-8.7572c2.283-1.1474 5.5674-3.1487 7.2986-4.4474 7.9828-5.9884 13.471-30.867 8.1151-36.785-2.6725-2.9531-9.1363-5.6302-18.491-7.6585-12.345-2.6766-46.395-3.4894-58.239-1.3903-10.891 1.9302-17.816 5.1102-19.899 9.1384-5.0629 9.7905 4.9628 33.765 15.757 37.68 0.90266 0.32742 10.395 1.4751 21.094 2.5503s21.773 2.3258 24.609 2.7789c7.6064 1.2154 15.017 0.51542 19.755-1.8661zm16.26-58.932c1.6647-2.6936-77.363-5.3055-90.39-2.9874-2.3203 0.41287-3.9027 0.80347-3.5165 0.868 0.38625 0.0645 15.363 0.35611 33.281 0.64794 17.918 0.29182 37.641 0.85879 43.829 1.2599 6.1875 0.40114 12.385 0.79519 13.773 0.87566 1.3875 0.0804 2.7482-0.21837 3.0237-0.66409zm-32.153-27.692c10.446-1.4805 14.3-3.0265 14.711-5.9006 0.4034-2.822-3.5286-5.2029-10.043-6.0811-18.49-2.4926-56.128-2.6574-62.202-0.27234-3.2469 1.2748-1.5204 3.1085 5.1562 5.4761 20.979 7.4394 34.952 9.2476 52.377 6.7778zm34.57-16.86c0-1.2277-3.8307-3.4661-7.9688-4.6563-6.0162-1.7304-29.389-4.3566-38.765-4.3557-10.724 0.00094-36.193 2.7558-43.059 4.6574-3.9408 1.0913-6.4796 2.5065-5.7699 3.2162 0.26217 0.26217 8.0546-0.12481 17.317-0.85996 28.86-2.2907 53.68-1.6418 69.34 1.8129 7.6057 1.6779 8.9062 1.705 8.9062 0.1854zm-21.562-21.57c0-0.20321-4.0137-1.1254-8.9194-2.0494-4.9056-0.92396-8.597-1.9637-8.2031-2.3106 0.39392-0.34688 7.8881 0.23011 16.654 1.2822 8.7656 1.0521 19.102 1.9401 22.969 1.9733 6.1315 0.0527 7.6244-0.2877 11.667-2.6603 4.1939-2.4617 4.4445-2.7914 2.6318-3.462-1.102-0.40764-3.396-0.34181-5.0979 0.14628-8.3314 2.3894-86.616-1.7024-100.27-5.2411-5.8119-1.506-21.428-1.8806-21.428-0.51397 0 0.47163 3.2695 1.1068 7.2656 1.4115 3.9961 0.30472 9.7969 0.97315 12.891 1.4854 3.0938 0.51227 9.4219 1.3743 14.062 1.9156 10.421 1.2155 21.88 3.0947 36.562 5.9959 10.224 2.0203 19.219 2.969 19.219 2.0271zm42.891-4.5524c-0.21461-0.64453-1.1856-1.326-2.1577-1.5144-1.5292-0.29632-1.598-0.13831-0.51065 1.1719 1.4871 1.7918 3.2251 2.0149 2.6683 0.3425zm-63.516-9.9609c0-1.4748-5.6074-1.9924-21.445-1.9794-17.193 0.0142-24.531 1.0153-14.18 1.9348 10.059 0.89353 35.625 0.92556 35.625 0.0446zm83.036-9.9954c8.8176-1.4189 16.428-3.8047 21.027-6.5921 1.8093-1.0965 1.9162-1.3167 0.46875-0.9653-3.0744 0.74633-18.96 2.3-30 2.9341-14.759 0.84774-21.85 2.8841-18.167 5.2169 2.0618 1.3059 16.922 0.97517 26.671-0.59364zm-72.254-2.2057c1.849-0.4024 2.4147-0.86287 1.6512-1.3441-3.2981-2.079-52.931-3.5454-54.134-1.5994-0.6662 1.0779 1.4602 1.642 10.296 2.7313 7.6922 0.94831 38.102 1.1013 42.188 0.2123zm-78.916-1.7442c-0.87947-0.64453-1.9507-1.1719-2.3806-1.1719-0.42983 0-1.1825-1.0547-1.6726-2.3438-0.57574-1.5143-1.6458-2.3667-3.0237-2.4087-17.737-0.53986-53.207-2.6485-54.633-3.2479-1.6152-0.67907-1.7108-0.58602-0.68952 0.67157 2.0262 2.4952 11.543 6.1977 20.846 8.1099 7.1323 1.4661 12.317 1.804 26.029 1.6966 13.95-0.10923 16.827-0.35125 15.524-1.306zm176.08-10.886c1.8783-0.0712 4.2952-0.925 5.371-1.8975 2.3088-2.0871 5.168-9.2259 8.1157-20.263 1.1705-4.3828 2.785-9.8672 3.5878-12.188 0.80277-2.3203 2.1075-6.9609 2.8994-10.312 2.0947-8.8656 5.4-21.161 9.7027-36.094 2.08-7.2188 5.4918-20.086 7.5817-28.594 2.0899-8.5078 4.6948-19.055 5.7887-23.438 1.0939-4.3828 2.5667-10.839 3.2729-14.346 0.70619-3.5077 2.8365-11.101 4.7341-16.875 1.8976-5.7736 5.468-16.615 7.9344-24.091 5.4052-16.385 8.6511-31.473 10.69-49.688 0.83673-7.4766 2.7797-21.398 4.3176-30.938 2.5887-16.056 4.2928-26.958 6.3397-40.559 1.199-7.9671 0.70832-8.3393-12.126-9.1984-5.8778-0.39345-27.351-0.95072-47.718-1.2384-20.367-0.28767-52.43-0.97095-71.25-1.5184-78.317-2.2781-66.21-3.503 36.071-3.6491 77.17-0.11028 92.362-0.46573 90.706-2.1222-2.6943-2.6943-23.307-3.0908-161.46-3.1054-184.47-0.0196-223.07 0.82622-219.09 4.8014 0.32863 0.32864 23.497 0.54443 51.484 0.47956 27.988-0.0649 52.363 0.25586 54.168 0.71276 2.0549 0.52025 2.5805 0.89616 1.4062 1.0058-1.0312 0.0963-4.4062 0.54056-7.5 0.98726s-26.508 1.4567-52.031 2.2444c-25.523 0.78771-47.762 1.6685-49.419 1.9573-3.9366 0.68612-4.9676 4.1764-3.873 13.111 0.44203 3.6081 1.4313 11.834 2.1984 18.279 0.76712 6.4453 2.0409 16.781 2.8307 22.969 2.0709 16.225 3.1955 25.231 4.2143 33.75 1.9092 15.963 5.5592 38.843 7.4804 46.891 6.4254 26.916 11.725 46.966 15.419 58.335 2.3054 7.0946 5.3032 17.962 6.6619 24.149 3.028 13.79 5.9615 25.687 9.8245 39.844 1.618 5.9297 3.7261 13.974 4.6846 17.876 2.0154 8.2048 8.0139 28.499 9.32 31.532 2.6816 6.227 16.357 7.8083 83.939 9.7054 85.104 2.389 129.27 2.7895 163.73 1.4846zm-140.3-323.06c-1.7232-0.70614-1.6472-0.85947 0.9375-1.8935 1.884-0.75366 5.2502-0.91783 10.196-0.49728 9.0772 0.77185 11.585 1.579 7.6163 2.4511-4.0341 0.88633-16.538 0.84606-18.75-0.0604z"/>
<path id="path3363" fill="#5e5e5f" d="m344.53 920.11c-32.304-2.0724-51.974-6.0824-60.05-12.242-6.821-5.2026-8.7643-11.795-4.6806-15.879 1.9769-1.9769 3.1703-2.3011 8.4705-2.3011 3.8097 0 6.9635 0.51994 8.2457 1.3594 3.2609 2.1349 18.17 3.5243 39.34 3.6664 17.849 0.11977 19.451 0.26563 19.453 1.7711 0.00094 0.90235 0.5295 1.6796 1.174 1.7273 0.64454 0.0477 7.9833 0.3641 16.308 0.70312 12.641 0.51482 15.441 0.89216 16.984 2.2892 1.5856 1.4353 3.5626 1.6589 13.926 1.5754 6.643-0.0535 26.844 0.17666 44.891 0.51158 23.339 0.43313 35.925 0.27653 43.594-0.54243 5.9297-0.63326 15.917-1.057 22.195-0.9416 6.9273 0.12732 12.172-0.19602 13.343-0.8226 1.061-0.56782 6.0498-1.254 11.086-1.5248 5.0366-0.27085 10.634-0.86874 12.439-1.3286 1.8047-0.45991 12.773-1.3116 24.375-1.8926 23.202-1.162 34.614-2.3526 36.019-3.7576 0.50964-0.50964 6.6184-0.91817 13.729-0.91817 11.655 0 13.04 0.18037 15.351 1.9981 7.2911 5.7352 3.0933 15.247-8.0304 18.196-8.0516 2.1345-30 4.9824-46.757 6.0668-8.5078 0.55058-22.219 1.4369-30.469 1.9695-13.74 0.8871-26.306 0.5807-30.883-0.75302-1.2087-0.35219 0.45784-1.1092 4.9575-2.2519 10.311-2.6185 11.108-3.6958 4.1288-5.5801-5.8491-1.5792-52.715-1.9462-103.83-0.81324-48.372 1.0722-53.316 1.82-46.63 7.0529 1.6697 1.3067 3.0358 2.7672 3.0358 3.2454 0 1.1627-18.538 0.90332-41.719-0.58379zm67.03-21.05c0-0.51563 1.4766-0.9375 3.2812-0.9375 1.8047 0 3.2812 0.42187 3.2812 0.9375 0 0.51562-1.4766 0.9375-3.2812 0.9375-1.8047 0-3.2812-0.42188-3.2812-0.9375zm94.512 0.29708c0.67675-0.27081 1.4854-0.23751 1.7969 0.074 0.31152 0.31152-0.2422 0.5331-1.2305 0.4924-1.0921-0.045-1.3143-0.26713-0.56641-0.5664zm-121.09-4.6856c-0.61252-0.61251-4.0555-1.2383-14.205-2.5819-2.5781-0.34129-7.4904-1.9711-10.916-3.6219l-6.2287-3.0014 0.48094-4.6875c0.26451-2.5781 1.0635-5.6219 1.7756-6.7639 0.71205-1.142 1.2946-3.3111 1.2946-4.8202 0-2.2111 0.50032-2.8694 2.577-3.3906 2.3558-0.59126 2.4363-0.74968 0.9375-1.8456-2.3054-1.6857-2.045-3.0418 0.93863-4.8878 3.1432-1.9447 9.6094-7.9376 9.6094-8.906 0-1.0911 8.4203-12.872 9.7726-13.673 0.66216-0.39216 1.4433-1.7677 1.7358-3.0568 0.29255-1.2891 2.3006-6.9844 4.4623-12.656 5.6274-14.765 7.4698-24.575 7.5276-40.08 0.0264-7.0907-0.17884-13.259-0.45614-13.708-0.27729-0.44868-0.6909-2.6628-0.91912-4.9204-0.22821-2.2575-1.9198-8.0525-3.7592-12.878-2.9193-7.6584-4.8874-11.574-12.962-25.788-1.0862-1.9121-1.3169-3.1807-0.69186-3.8057 1.5759-1.5759 7.9121-0.7754 13.938 1.761 4.4081 1.8553 8.4665 2.6264 17.677 3.3583 9.184 0.72985 14.238 1.6875 21.799 4.1309 16.161 5.2221 19.027 5.6847 34.688 5.5996 12.173-0.0661 16.316-0.48442 25.531-2.5781 7.4141-1.6846 13.689-2.4992 19.249-2.4992 4.537 0 10.556-0.62853 13.375-1.3967 2.8194-0.76821 9.2285-1.675 14.242-2.0151 7.4809-0.50748 9.2093-0.37604 9.6348 0.73271 0.28516 0.74312-1.6015 5.1304-4.1925 9.7495-5.3096 9.4655-9.8704 22.234-11.792 33.013-1.757 9.8545-1.7136 31.693 0.0836 42.059 1.7512 10.101 7.4026 27.075 10.149 30.483 1.1008 1.3659 4.3217 5.7928 7.1577 9.8374 2.8359 4.0447 6.3714 8.4146 7.8566 9.711 9.1342 7.9731 11.725 13.138 6.589 13.138-1.6544 0-3.9679 1.5066-7.2524 4.7228-4.4311 4.339-4.9215 4.5881-6.0351 3.0652-1.1268-1.5409-1.3727-1.461-3.4952 1.1366-2.9002 3.5493-2.925 4.3724-0.0993 3.298 1.7755-0.67503 2.6158-0.45309 3.9762 1.0501 1.683 1.8597 1.6701 1.9505-0.53033 3.7323-1.5402 1.2472-3.0465 1.6524-4.7509 1.2781-1.3726-0.30146-3.6518-0.10852-5.0649 0.42875-2.6339 1.0014-18.922 0.26727-17.853-0.80464 0.30918-0.30995 2.1063-0.99799 3.9936-1.529 3.5314-0.99355 4.9734-3.5075 3.0915-5.3894-0.97384-0.97384-11.311-1.0417-12.272-0.0806-0.26525 0.26526 0.25249 0.89347 1.1505 1.396 2.7167 1.5203 1.8437 2.6956-2.0022 2.6956-4.4771 0-17.012-2.7101-18.692-4.0413-2.0606-1.6329-6.1302-1.9256-24.314-1.7487-2.4492 0.0238-14.578 0.0607-26.953 0.0821-12.375 0.0213-25.044 0.11314-28.153 0.20403-3.1094 0.0908-6.5272-0.30236-7.5951-0.87389-1.2459-0.66678-4.0867-0.80207-7.9282-0.37756-6.9655 0.76973-8.0737 2.4339-4.2004 6.3073 3.0145 3.0145 3.0021 3.2537-0.16986 3.2904-1.418 0.0164-3.397 0.64922-4.3979 1.4062-1.8805 1.4223-6.2892 1.8612-7.4125 0.73787zm-21.747-16.94c0.47545-1.5736 0.25664-2.1094-0.86155-2.1094-1.8023 0-2.8057 2.2193-1.9783 4.3755 0.69364 1.8076 1.8999 0.845 2.8399-2.2662zm133.65-3.35c24.162 0.32663 28.171 0.18824 33.309-1.1499 5.9522-1.5503 9.5037-3.9224 8.0498-5.3764-1.2278-1.2278-28.846 0.15651-33.624 1.6854-2.1743 0.69568-3.0023-0.75623-1.1014-1.9311 0.64778-0.40036 0.28481-1.3928-1.0157-2.7772l-2.0237-2.1542 8.2814-0.62403c10.094-0.76065 11.754-1.188 9.5077-2.449-2.6958-1.5136-14.462-2.599-34.508-3.1834-24.027-0.70042-29.062-1.1853-29.062-2.7984 0-1.979 2.292-2.3766 13.7-2.3766 8.6765 0 10.837 0.26955 11.274 1.4062 0.2968 0.77344 1.6546 1.3998 3.0175 1.3919 1.9554-0.0113 2.1814-0.20898 1.0716-0.9375-2.6071-1.7115 0.67187-2.5037 13.071-3.1583 20.541-1.0844 36.616-4.2166 36.616-7.1345 0-0.64434-1.1368-0.82818-3.0469-0.49276-16.847 2.9585-23.973 3.4862-53.203 3.94-42.221 0.65538-65.533-1.3489-85.526-7.3534-7.3658-2.2121-8.8187-2.0532-6.8554 0.74982 3.5436 5.0591 21.362 9.2998 44.108 10.497 7.4353 0.39143 13.797 0.98983 14.137 1.3298 0.33996 0.33997 0.35379 1.3069 0.0308 2.1488-0.4737 1.2344-1.8117 1.4943-6.9127 1.3427-3.4789-0.1034-9.2014-0.1412-12.717-0.084-5.9433 0.0967-6.3496 0.23541-5.7962 1.979 0.70819 2.2313-0.49571 2.394-4.0633 0.54912-5.2535-2.7167-8.8555-2.732-15.193-0.0646-5.2067 2.1915-6.4037 2.3802-9.4013 1.4821-1.8892-0.56602-4.2415-1.0291-5.2272-1.0291-0.98575 0-2.5247-0.85544-3.4199-1.901-3.6308-4.2405-7.8975 2.5724-4.5964 7.3394 0.96376 1.3917 2.0092 3.244 2.3232 4.1163 0.9085 2.5238 12.954 5.6369 26.922 6.9576 9.2181 0.87168 22.843 1.0346 50.156 0.5998 20.625-0.32834 39.398-0.57131 41.719-0.53994zm28.359-13.443c-0.64453-0.26007-1.6992-0.26007-2.3438 0-0.64453 0.26007-0.11718 0.47287 1.1719 0.47287s1.8164-0.2128 1.1719-0.47287zm-32.578-19.067c17.043-1.0583 28.113-2.5097 31.123-4.0804 1.5746-0.82185-8.9193-1.0752-44.531-1.0752-47.017 0-56.774-0.49319-76.881-3.8859-4.7998-0.80991-8.9783-1.2212-9.2855-0.91407-0.91966 0.91967 7.4477 4.2066 14.363 5.6423 20.345 4.2238 56.875 6.0729 85.212 4.3134zm15.434-11.301c7.6992-0.96539 13.143-2.6423 8.9414-2.7544-1.0312-0.0276-20.227-0.19989-42.656-0.38303-30.606-0.24989-43.588-0.70933-52.031-1.8414-18.671-2.5034-24.547-2.8925-23.28-1.5416 2.6336 2.8088 18.829 5.1963 46.718 6.887 12.521 0.75904 55.341 0.50719 62.309-0.36648zm-25.426-15.532c8.2627-1.0054 4.1963-1.4833-26.97-3.1698-21.114-1.1426-26.345-1.1593-24.444-0.0782 1.6524 0.93961 17.354 3.7028 23.438 4.1245 5.083 0.35236 22.314-0.18749 27.977-0.87651zm13.963-10.312c7.5346-3.6177 10.267-6.5552 13.413-14.418 6.8841-17.206 6.0234-26.482-2.8834-31.077-9.2402-4.7664-28.908-7.6112-52.469-7.5891-25.139 0.0235-42.121 4.0662-45.636 10.864-3.6875 7.1308 0.9261 24.688 8.7838 33.428 5.1794 5.7608 6.4344 6.12 27.946 8.0006 17.9 1.5648 36.085 3.8645 36.885 4.6644 1.028 1.028 7.4823-0.76264 13.961-3.8731zm18.07-58.5c5.9951-0.0755 0.79566-1.764-8.5587-2.7795-33.429-3.6288-91.044-3.6553-97.23-0.0446-1.2172 0.71049-0.84209 0.91322 1.726 0.93268 25.771 0.19529 75.418 1.274 84.844 1.8435 6.7031 0.40499 13.031 0.59075 14.062 0.41279 1.0312-0.17796 3.3516-0.34215 5.1562-0.36487zm0.9375 148.14c0-0.51563 0.42187-0.9375 0.9375-0.9375 0.51562 0 0.9375 0.42187 0.9375 0.9375 0 0.51562-0.42188 0.9375-0.9375 0.9375-0.51563 0-0.9375-0.42188-0.9375-0.9375zm-168.15-2.6043c-0.24791-0.40113 0.35062-1.7722 1.3301-3.0469l1.7808-2.3175 0.0208 3.0469c0.0196 2.861-1.9123 4.2906-3.1318 2.3175zm-6.23-1.04c0-1.0934 2.7382-2.1318 3.8346-1.4543 1.6523 1.0212 0.82589 2.2915-1.4908 2.2915-1.2891 0-2.3438-0.37674-2.3438-0.8372zm123.28-158.65c-1.5469-0.49595-5.4297-0.64386-8.6285-0.32868-7.9884 0.78712-18.271-2.4552-36.091-11.38-19.198-9.6149-27.544-12.12-49.729-14.925-2.6639-0.33688-5.5087-1.4545-7.0908-2.7858-1.4532-1.2228-7.6179-3.939-13.699-6.0359-24.508-8.4506-33.968-16.814-39.839-35.221-2.9626-9.2888-6.4578-28.152-5.4103-29.2 0.36494-0.36495 1.9248 0.54479 3.4663 2.0216s2.8027 2.361 2.8027 1.9648-1.4234-5.4322-3.1632-11.191c-1.7398-5.7589-4.293-16.377-5.6739-23.596-4.2238-22.081-5.9019-30.252-9.9153-48.281-7.0191-31.531-19.789-97.824-29.888-155.16-1.5441-8.7656-5.1619-29.327-8.0396-45.692s-5.6456-30.841-6.1509-32.17c-1.1181-2.9407-1.1602-6.0867-0.10396-7.7526 2.5811-4.0709 26.427-4.9194 149.19-5.3086 59.555-0.18884 120.52-0.61927 135.47-0.95654 28.855-0.65081 122.83 0.94711 134.34 2.2843 10.018 1.1636 12.282 3.9798 9.1892 11.434-0.72132 1.7387-3.9108 16.45-7.0878 32.693-9.8598 50.408-15.994 80.694-18.419 90.938-1.2817 5.4141-3.3394 14.484-4.5726 20.156-1.2333 5.6719-4.2103 18.539-6.6155 28.594-6.266 26.194-9.4968 40.962-10.255 46.875-1.8527 14.452-19.338 92.151-22.722 100.97-0.6606 1.7215 1.6053 1.5103 3.6501-0.34018 0.94611-0.85621 1.9903-1.2866 2.3204-0.9565 1.1712 1.1712-5.4898 25.569-9.0759 33.243-4.3107 9.2246-11.117 16.537-21.611 23.219-3.8256 2.4357-9.3403 6.7437-12.255 9.5732l-5.299 5.1446-9.0895-0.15364c-8.5484-0.14449-9.9909 0.13201-24.232 4.6446-8.3285 2.639-21.471 7.0769-29.205 9.862-20.279 7.3024-31.007 9.595-36.562 7.8138zm13.161-13.398c9.9811-1.1903 18.153-3.7602 19.648-6.179 0.50526-0.81754 0.15995-0.9705-1.2097-0.5358-1.3643 0.433-2.073 0.12415-2.4587-1.0714-0.83483-2.5876-6.0953-5.3203-11.797-6.128-8.6822-1.2301-37.351-2.1461-48.76-1.5579-10.607 0.54683-17.803 2.0489-17.803 3.7161 0 2.646 21.369 9.7643 34.688 11.555 12.527 1.6843 15.098 1.703 27.692 0.2011zm35.12-17.416c0-3.1418-6.6083-5.6266-21.46-8.0688-20.6-3.3875-35.553-3.0486-63.945 1.4495-6.913 1.0952-12.095 3.3199-12.095 5.1927 0 1.2645 0.84823 1.4156 5.3906 0.96034 34.616-3.4695 71.253-2.9079 85.078 1.3042 4.8565 1.4796 7.0312 1.2204 7.0312-0.83791zm-2.5324-21.487c6.5574-0.59865 10.502-1.4899 13.785-3.1143l4.5984-2.2757 1.908 1.908c1.5171 1.5171 2.146 1.6701 3.0693 0.74684 1.8271-1.8271-0.27801-4.1894-4.9836-5.5925-3.3045-0.98529-5.2161-1.0055-9.605-0.10166-6.9835 1.4382-38.784 0.5523-67.933-1.8924-19.595-1.6434-22.805-2.1496-21.555-3.3991 0.27556-0.27556 13.951 0.0301 30.391 0.67926 35.481 1.4011 56.445 1.4329 62.233 0.0944 4.14-0.95728 4.0701-0.98019-3.75-1.2281-4.3828-0.13894-11.977-0.15743-16.875-0.0411-11.933 0.28345-35.851-3.1521-34.105-4.8986 0.36705-0.36705 3.3143-0.66736 6.5495-0.66736 8.6583 0 8.0879-1.5069-0.8332-2.2014-12.675-0.98674-42.792-0.65182-40.049 0.44536 1.2891 0.51567 5.9297 1.21 10.312 1.543l7.9688 0.60541-12.656 1.2014c-6.9609 0.66077-19.118 1.5652-27.016 2.0099-11.167 0.62871-14.696 1.1441-15.87 2.318-1.9966 1.9965-1.6519 2.0821 13.355 3.3152 18.36 1.5087 34.26 3.775 62.812 8.9531 19.877 3.6047 17.356 3.4998 38.249 1.5924zm28.079-13.841c-0.64453-0.26007-1.6992-0.26007-2.3438 0-0.64453 0.26007-0.11718 0.47287 1.1719 0.47287s1.8164-0.2128 1.1719-0.47287zm-161.71-2.8358c-0.89634-0.23464-2.5838-0.24316-3.75-0.0189-1.1662 0.22425-0.43281 0.41624 1.6297 0.42664s3.0166-0.17307 2.1203-0.40772zm-36.339-3.0142c-2.2194-1.2449-9.0669-2.2702-7.9688-1.1932 1.0964 1.0752 3.7347 1.7888 7.0312 1.9017 1.736 0.0594 1.9791-0.1243 0.9375-0.70853zm216.36-4.667c13.321-2.64 19.728-5.7058 25.934-12.409 6.4918-7.0119 10.294-17.34 17.036-46.272 1.1982-5.1425 2.6058-10.416 3.128-11.719 0.52214-1.3028 1.5515-4.9 2.2874-7.9937 0.73592-3.0938 5.4386-21.656 10.45-41.25 5.0118-19.594 10.159-39.844 11.438-45 2.4614-9.9214 4.7718-17.988 10.606-37.031 6.2618-20.438 9.2985-34.579 11.676-54.375 2.1243-17.684 5.8878-40.519 8.4213-51.094 0.74115-3.0938 1.5031-10.143 1.6932-15.666l0.34563-10.041-2.8804-1.0041c-1.7786-0.62004-22.428-1.3406-53.985-1.8839-54.715-0.94196-73.791-1.7126-70.7-2.8562 1.044-0.38622 29.154-0.85068 62.466-1.0321 33.312-0.18146 60.891-0.65335 61.286-1.0487 1.2699-1.2699-1.2846-2.8252-5.9073-3.5967-11.742-1.9597-80.889-2.7971-189.66-2.2969-161.65 0.74346-182.77 1.2347-188.66 4.3891-1.776 0.95049-1.8081 1.1227-0.3601 1.933 1.7713 0.9913 59.281 1.1352 71.489 0.17892 9.1122-0.71381 26.221 0.39226 24.998 1.616-1.1456 1.1456-28.052 2.4676-64.964 3.192-16.758 0.32885-31.913 0.89391-33.679 1.2557-3.0882 0.63283-3.2197 0.83455-3.4691 5.3214-0.14258 2.565 0.17691 7.8277 0.70997 11.695 0.53308 3.8672 1.1115 15.296 1.2855 25.398 0.32939 19.129 0.79966 22.88 7.0411 56.164 0.53179 2.8359 1.9797 10.641 3.2175 17.344 1.2379 6.7031 3.9319 18.727 5.9867 26.719 2.0548 7.9922 5.7027 23.18 8.1064 33.75s5.1244 21.328 6.0459 23.906c0.92153 2.5781 3.2429 11.648 5.1585 20.156 1.9157 8.5078 4.7508 20.32 6.3002 26.25 1.5494 5.9297 3.1612 12.258 3.5817 14.062 0.42052 1.8047 1.6148 6.4453 2.6538 10.312 1.0391 3.8672 3.155 11.883 4.7022 17.812 6.4596 24.758 12.12 32.889 26.451 37.994 7.0462 2.5097 30.362 6.0584 39.617 6.0299 4.7486-0.0146 11.165 0.40703 14.259 0.93702 7.4324 1.2732 26.428 2.3653 25.6 1.4717-0.35766-0.38586-3.3108-1.27-6.5625-1.9648-7.2925-1.5582-17.2-5.3659-17.055-6.555 0.0589-0.48468 1.7301-1.3366 3.7139-1.8932 3.4547-0.96929 3.1931-1.0572-6.2008-2.0825-5.3942-0.58879-14.448-1.297-20.12-1.5737-31.469-1.5354-32.492-1.6521-30.65-3.4942 0.5263-0.5263 7.2764-0.90703 15.785-0.89032 19.276 0.0379 91.674 2.0139 104.4 2.8494l9.8438 0.64643-10.619 0.75278c-17.495 1.2401-12.607 1.9616 19.526 2.882 11.086 0.31757 21.873 0.78895 23.972 1.0475 2.0987 0.25857 4.8151 0.10043 6.0365-0.3514 2.0357-0.75306 1.913-0.86853-1.472-1.3857-2.031-0.31033-8.2391-0.85718-13.796-1.2152-5.5566-0.35806-10.362-1.07-10.678-1.5822-0.55377-0.896 79.303-0.0645 80.25 0.83563 1.8964 1.8017-7.4493 3.474-30.875 5.525-11.637 1.0188-15.745 1.7711-20.625 3.7766-7.3195 3.0082-8.4566 3.9122-6.5547 5.2115 2.3366 1.5963 30.933 0.33009 41.977-1.8588zm-70.286-13.878c0.67675-0.27081 1.4854-0.23751 1.7969 0.074 0.31152 0.31152-0.2422 0.5331-1.2305 0.4924-1.0921-0.045-1.3143-0.26713-0.56641-0.5664zm-45.29-325.59c0.31867-0.51563 2.0062-0.9375 3.75-0.9375s3.4313 0.42187 3.75 0.9375c0.35432 0.57331-1.1024 0.9375-3.75 0.9375s-4.1043-0.36419-3.75-0.9375zm43.174 336.78c1.7128-0.95856 1.6567-1.0864-0.90419-2.06-8.2421-3.1337-59.613-3.8741-59.613-0.85921 0 1.0276 2.9246 1.7333 13.442 3.2432 10.274 1.4749 44.28 1.2409 47.076-0.32392zm57.988 70.687c-1.5951-0.58301-2.9682-1.4819-3.0513-1.9975-0.21808-1.3538 4.9622-2.4855 9.8755-2.1574l4.229 0.28239-2.0352 2.5781c-2.174 2.7539-4.2209 3.0477-9.0181 1.2944zm-171.36-8.2707c-0.83661-0.4682-1.5211-1.674-1.5211-2.6797 0-1.3965 0.60898-1.8022 2.5781-1.7175 4.0917 0.17604 8.0921 1.2212 8.15 2.1294 0.0868 1.3622-7.4902 3.2286-9.207 2.2678z"/>
<path id="path3361" fill="#0b0b0b" d="m341.25 918.67c-33.839-2.5113-51.209-6.384-57.326-12.781-5.8703-6.1399-6.9307-10.071-3.6118-13.39 2.3427-2.3427 5.2829-2.3573 14.12-0.0705 6.4961 1.681 12.149 2.3757 38.848 4.7737 5.6719 0.50943 12.422 1.3251 15 1.8126 2.5781 0.48751 12.214 1.1873 21.412 1.555 13.213 0.52825 17.03 0.97404 18.179 2.1233 1.9888 1.9888 12.624 3.0424 19.225 1.9046 3.812-0.65701 5.9508-0.62115 7.3415 0.12313 1.1756 0.62916 5.7846 0.9552 11.496 0.8132 18.095-0.44988 48.44 0.2012 48.44 1.0393 0 1.2925-5.361 1.9942-13.125 1.7181-10.83-0.38521-57.459 1.0538-67.969 2.0975-5.1562 0.51207-10.492 1.3704-11.858 1.9074-3.2985 1.297-4.0337 4.9807-1.3666 6.8473 1.7966 1.2574 1.1719 1.3751-6.9316 1.3063-4.8984-0.0416-19.242-0.84266-31.875-1.7802zm216.56-0.85837c-1.1314-0.73114-0.98308-0.9116 0.75846-0.92315 1.2071-0.008 1.9084 0.40037 1.5853 0.92315-0.69674 1.1273-0.59931 1.1273-2.3438 0zm7.9688-0.62792c1.5469-0.24962 3.2344-0.89653 3.75-1.4376 0.6527-0.68487-1.3409-0.81038-6.5625-0.41313-4.125 0.31381-11.719 0.85072-16.875 1.1931l-9.375 0.62255 1.806-2.0344c2.2081-2.4874 1.2948-3.66-3.8007-4.8802-4.1673-0.9979-48.555-2.7581-52.162-2.0686-1.317 0.25178-3.1705 0.0235-4.1188-0.50713-1.5824-0.88559-1.5181-1.0433 0.7829-1.9181 2.3005-0.87466 13.93-1.4546 19.524-0.97366 5.3478 0.45971 27.833-1.3607 30-2.4288 1.4067-0.69332 9.0907-1.421 19.219-1.8201 9.2812-0.3657 18.778-1.0238 21.104-1.4624 2.3257-0.43862 10.552-1.2625 18.281-1.8308 13.935-1.0247 25.884-2.1797 40.276-3.8933 9.3834-1.1173 12.35-0.48803 14.519 3.08 2.1097 3.4692 1.5579 5.986-2.1826 9.9541-4.4328 4.7027-17.092 7.5413-42.31 9.4873-14.06 1.085-36.037 2.0028-31.875 1.3312zm-183.01-28.569c-2.7923-1.3546-4.4398-2.9813-5.625-5.5541-1.9513-4.2358-2.4627-4.4198-4.4396-1.5972-1.4061 2.0075-1.5646 2.0283-4.0346 0.52962-1.519-0.92169-2.806-2.7092-3.1454-4.3687-0.31593-1.5448-1.2665-3.5008-2.1123-4.3466-1.4126-1.4126-2.1795-5.154-1.0564-5.154 0.26481 0 1.309 0.51678 2.3204 1.1484 1.4661 0.9156 2.0812 0.89957 3.0342-0.079 0.97455-1.0008 0.54607-1.7939-2.3204-4.2946-1.9336-1.6869-3.5156-3.2877-3.5156-3.5572 0-0.26951 1.3433-1.0464 2.9851-1.7265 2.2813-0.94496 3.0734-0.97178 3.3594-0.11373 0.20584 0.6175 1.1035 1.1227 1.9948 1.1227 1.9828 0 5.7232 4.8531 5.7232 7.4259 0 1.9487-0.11867 1.8998 12.597 5.1866 3.0611 0.79124 11.92 1.8629 19.688 2.3814 17.736 1.1841 115.71 0.46327 121.78-0.89595 4.838-1.0842 14.899-4.8014 21.103-7.7967 3.0384-1.467 4.464-1.7168 5.625-0.98575 2.6156 1.647 2.2664 3.7232-0.97729 5.81-1.7009 1.0943-4.3582 2.8334-5.9051 3.8646-1.5469 1.0313-3.9382 1.8773-5.314 1.88-3.6558 0.007-5.4673 0.92583-5.4673 2.7724 0 2.1021-3.3137 5.1128-4.6908 4.2617-0.58241-0.35995-7.8863-0.78826-16.231-0.9518-8.3446-0.16354-21.5-0.79683-29.235-1.4073-17.38-1.3718-49.963-1.3868-69.844-0.0323-0.77344 0.0527-3.7266-0.14595-6.5625-0.44143-5.9066-0.61542-6.2453-0.6121-12.907 0.12662-3.5705 0.39596-5.2089 1.0539-5.9165 2.3761-0.6681 1.2484-1.5554 1.6454-2.7965 1.2515-2.2099-0.70139-2.6022 2.1198-0.41166 2.9603 0.77344 0.2968 1.4062 0.91637 1.4062 1.3768 0 1.4595-5.01 0.81467-9.1052-1.1719zm126.76-0.80342c-1.5111-0.64935-1.2035-0.8185 1.5853-0.8716 1.9032-0.0363 3.721 0.35597 4.0397 0.8716 0.69915 1.1312-2.9924 1.1312-5.625 0zm-1.0921-20.365c-2.7636-0.34154-4.8301-2.6189-3.5437-3.9053 0.31054-0.31054 6.1212-0.58243 12.913-0.60421 10.192-0.0327 12.348-0.279 12.348-1.4106 0-0.94656-1.5962-1.6014-5.1562-2.1154-2.8359-0.40943-7.3027-1.3586-9.9262-2.1094-2.6234-0.75072-6.0588-1.365-7.6341-1.365s-3.0841-0.57311-3.3529-1.2736c-0.2688-0.70048-2.2687-1.5582-4.4442-1.9061-2.1755-0.34788-3.7541-0.83392-3.5079-1.0801 0.24617-0.24616 5.0486-0.87047 10.672-1.3873 16.416-1.5088 23.51-3.1687 28.65-6.7041 1.3687-0.94122 2.7099-1.7113 2.9805-1.7113 0.27059 0 1.8657 2.0039 3.5447 4.4531s4.4511 6.4994 6.1602 9.0004 3.1074 4.8969 3.1074 5.3242c0 0.42728-1.793 1.9868-3.9844 3.4657-3.8039 2.5671-4.3172 2.6616-11.332 2.0877-6.6696-0.54564-19.606 0.11529-23.121 1.1812-0.77344 0.23459-2.7414 0.26152-4.3733 0.0598zm18.67-12.131c-0.64453-0.26007-1.6992-0.26007-2.3438 0-0.64453 0.26007-0.11718 0.47287 1.1719 0.47287s1.8164-0.2128 1.1719-0.47287zm-138.05 2.5c-0.77344-0.49984-2.3406-0.91525-3.4826-0.92315-1.142-0.008-2.528-0.8581-3.0799-1.8894-0.77345-1.4452-1.963-1.875-5.1892-1.875-3.598 0-4.1858-0.2705-4.1858-1.9264 0-1.0595 1.7064-4.4392 3.792-7.5104l3.792-5.584 3.4736 2.684c7.6037 5.8753 19.082 8.6756 44.14 10.768 7.5398 0.62972 13.287 1.378 12.771 1.6629-0.51563 0.28487-10.43 0.16928-22.031-0.25686-11.602-0.42615-21.631-0.5732-22.289-0.32678-0.74575 0.27963-0.98389 1.2888-0.63351 2.6848 0.44917 1.7896 0.1258 2.3534-1.6176 2.8203-2.9457 0.78881-3.8121 0.73669-5.4602-0.3284zm68.824-4.5551c0.73296-1.1859 13.676-1.3433 13.676-0.16628 0 0.58455-2.8222 0.97142-7.0866 0.97142-3.8976 0-6.8626-0.36232-6.589-0.80514zm-20.543-8.1904c-2.0625-0.20227-8.6016-0.82361-14.531-1.3807-12.238-1.1499-26.217-3.9374-33.607-6.7016-4.5794-1.7129-4.9742-2.0896-4.5603-4.3518 0.44717-2.4444 1.7668-6.3634 3.9906-11.852 6.1203-15.104 8.5627-32.859 6.9639-50.625-0.55681-6.1875-1.3996-12.094-1.8728-13.125-0.47321-1.0312-1.8687-4.6172-3.1011-7.9688-2.5793-7.0148-8.179-18.392-11.587-23.542-1.2875-1.9455-2.0651-3.9835-1.728-4.5289 0.81351-1.3163 6.7787-1.2754 7.5991 0.0521 0.35479 0.57405 2.4795 1.8552 4.7215 2.8469 3.0948 1.369 7.5242 1.9818 18.395 2.5449 7.875 0.40795 15.214 1.2224 16.309 1.81 1.0948 0.58755 6.5792 2.3797 12.188 3.9826 16.878 4.8237 36.227 4.9072 54.259 0.23429 3.7883-0.98168 10.523-1.5048 20.625-1.602 12.384-0.11918 15.417-0.42211 17.39-1.737 2.4206-1.613 14.338-2.552 15.656-1.2336 0.34815 0.34814 0.10782 1.4739-0.53405 2.5017-3.0364 4.862-8.9966 17.615-11.06 23.665-6.7645 19.833-6.9092 50.415-0.34257 72.393 1.0713 3.5856 2.4058 7.44 2.9656 8.5654 2.216 4.4549-0.0164 5.4655-18.45 8.3526-6.8489 1.0727-18.343 1.549-42.656 1.7677-18.305 0.16467-34.969 0.13391-37.031-0.0684zm57.66-2.25c17.48-1.1723 26.667-2.5411 31.641-4.7141 6.9425-3.0336 5.0876-3.901-6.5625-3.0687-5.8008 0.41442-27.422 0.72605-48.047 0.69251-38.476-0.0625-58.033-1.3209-72.48-4.6636-9.7804-2.263-13.181-1.4976-8.3793 1.8857 11.016 7.7617 62.406 12.646 103.83 9.8682zm14.995-11.28c8.6122-1.1174 13.345-2.6042 12.864-4.041-0.2682-0.80039-9.0302-0.9964-33.564-0.75083-33.756 0.33786-54.969-0.59683-74.451-3.2803-18.232-2.5114-17.993-2.4956-18.771-1.2367-2.3059 3.731 14.217 7.5993 39.396 9.2231 17.278 1.1143 66.166 1.1705 74.527 0.0857zm-24.249-14.967c8.2065-1.1872 12.024-2.6116 10.16-3.7908-0.75597-0.47812-3.1675-0.87578-5.3589-0.88368-2.1914-0.008-3.9838-0.33076-3.9831-0.71747 0.00072-0.38672 2.4265-1.4206 5.3906-2.2975 11.748-3.4754 17.901-9.776 22.371-22.906 3.2794-9.6325 3.5771-18.703 0.7395-22.534-4.9262-6.6494-19.703-10.79-45.218-12.671-23.312-1.7188-46.295 0.6375-56.369 5.7792-6.9765 3.5607-8.9903 8.288-7.5013 17.609 1.949 12.201 9.5048 25.842 15.563 28.097 1.4737 0.54863 9.0075 1.4782 16.742 2.0657 28.437 2.16 45.469 4.6898 45.469 6.7537 0 0.68329-3.7508 0.79966-11.953 0.37081-18.974-0.99205-38.639-2.2855-45-2.9598-4.2615-0.45178-5.8594-0.31604-5.8594 0.49771 0 2.2975 12.497 5.8888 26.25 7.5436 8.8398 1.0636 31.331 1.0889 38.559 0.0434zm38.67-70.305c4.0227-3.963-79.126-8.4915-105.69-5.7564-10.612 1.0924-17.471 2.671-17.471 4.0206 0 0.95869-2.0112 0.89426 42.188 1.3515 19.852 0.20537 41.367 0.75825 47.812 1.2286 12.781 0.93269 31.855 0.44709 33.166-0.84435zm-54.73-15.85c-2.2522-1.2548-19.244-2.0402-20.344-0.94039-1.8419 1.8419-12.744-1.9482-29.812-10.364-17.885-8.8186-25.214-11.213-41.996-13.723-6.9348-1.0369-10.121-1.9544-11.594-3.3385-1.1174-1.0497-7.4676-3.7186-14.112-5.9307-15.68-5.2207-22.848-8.9133-29.359-15.124-5.8445-5.5747-9.3871-11.388-12.245-20.095-1.9626-5.9784-5.5969-24.5-4.9457-25.205 0.20557-0.22256 1.7411 0.92061 3.4123 2.5404 1.939 1.8794 3.4731 2.6765 4.2394 2.2029 0.93046-0.57506 0.53082-2.4139-1.7746-8.1654-3.5721-8.9116-7.648-24.887-10.266-40.236-1.9567-11.473-8.5278-42.162-12.647-59.062-1.2566-5.1562-2.9286-13.383-3.7155-18.281-0.78695-4.8984-2.0556-11.648-2.8191-15-0.76355-3.3516-2.218-10.523-3.2322-15.938-6.7225-35.888-9.0218-48.366-13.216-71.719-2.593-14.438-5.743-32.156-6.9999-39.375-7.365-42.299-9.1006-51.617-9.8878-53.088-1.2378-2.3128-1.0827-6.0424 0.29819-7.1736 1.5916-1.3038 16.447-3.0352 25.078-2.9228 6.4208 0.0836 6.7057 0.16472 3.2812 0.93464-6.701 1.5066-11.947 3.8025-10.955 4.7944 1.686 1.686 19.035 2.2646 51.737 1.7257 17.789-0.29319 33.609-0.25699 35.156 0.0804 1.7145 0.37401-0.48153 0.65574-5.625 0.72165-9.6658 0.12386-32.079 0.81677-61.875 1.9129-21.244 0.78153-26.897 1.7904-24.722 4.4118 0.57473 0.69252 1.6261 1.2591 2.3364 1.2591s1.2915 0.89649 1.2915 1.9922c0 1.7135-0.39338 1.9135-2.8125 1.4297-2.6621-0.53242-2.8116-0.40081-2.7961 2.4609 0.0209 3.866 2.2325 17.383 4.0282 24.62 0.76303 3.0752 1.8556 10.232 2.4279 15.904 2.3037 22.831 10.571 68.653 16.154 89.531 1.5855 5.9297 3.2143 12.258 3.6195 14.062 0.40519 1.8047 2.6594 11.93 5.0094 22.5s4.9474 21.117 5.772 23.438c1.8557 5.2216 5.5049 19.638 8.4244 33.281 3.4478 16.112 13.863 56.135 17.932 68.906 5.0051 15.71 13.414 23.471 29.898 27.593 9.7152 2.4296 31.039 5.0407 54.375 6.6583 12.375 0.85783 22.839 1.8781 23.254 2.2673 2.1937 2.0588-14.946 2.6972-51.143 1.9047-7.6044-0.16649-14.115-0.0136-14.469 0.33988-1.8652 1.8652 2.4402 2.8392 14.332 3.2426 10.419 0.35337 13.107 0.73237 14.406 2.0311 1.2155 1.2155 4.0387 1.7447 11.827 2.2169 5.6264 0.34111 14.449 1.2545 19.605 2.0298 5.1562 0.77527 15.07 2.2533 22.031 3.2844 6.9609 1.0312 18.141 2.8968 24.844 4.1458 6.7031 1.249 15.562 2.546 19.688 2.8821 9.7378 0.79345 28.101-1.5784 33.485-4.3251 3.5368-1.8044 3.9854-1.8467 4.9916-0.47064 1.551 2.1211 4.8534 1.8822 6.0968-0.4411 1.4861-2.7768-0.92237-5.1214-6.6796-6.5026-2.5343-0.60798-4.37-1.4903-4.0793-1.9607 0.29072-0.4704 6.3684-0.74496 13.506-0.61014 11.965 0.22603 15.354-0.20576 13.801-1.7585-1.3107-1.3107-18.199-2.1982-39.132-2.0564-14.215 0.0963-22.712-0.20756-23.866-0.85365-1.5911-0.89045-1.3756-1.1106 1.9171-1.958 2.0404-0.52512 4.5186-1.0922 5.5071-1.2603 0.98853-0.16803 1.9729-0.83287 2.1875-1.4774 0.28989-0.87068-1.4974-1.1733-6.9536-1.1775-4.0391-0.003-10.93-0.30031-15.312-0.66053l-7.9688-0.65493 8.7578-1.1129c8.7632-1.1136 11.698-2.3292 9.9182-4.1088-0.99368-0.99368-9.9817-2.4002-23.364-3.6561-8.2489-0.77418-8.3013-0.79416-2.3438-0.89432 3.3516-0.0563 15.85 0.27675 27.774 0.74022 20.701 0.80463 29.414 1.922 29.414 3.7725 0 0.46601-2.9599 1.8006-6.5775 2.9657s-6.4336 2.5606-6.2577 3.1009c1.0281 3.1587 16.175 4.1916 34.533 2.3549 28.902-2.8917 41.263-8.207 48.496-20.853 2.5891-4.5268 9.7297-27.502 14.05-45.207 1.0066-4.125 3.3734-13.406 5.2596-20.625 1.8862-7.2188 6.7745-26.203 10.863-42.188 4.0883-15.984 9.3592-36.234 11.713-45 2.3538-8.7656 4.8461-18.047 5.5386-20.625 0.69242-2.5781 2.7812-9.9023 4.6416-16.276 5.9944-20.535 8.6936-34.141 14.161-71.38 0.79236-5.3967 4.4162-22.107 7.4668-34.432 1.3683-5.5281 2.3202-11.934 2.248-15.129l-0.12526-5.5412-5.2705-1.081c-3.1566-0.64742-24.225-1.4389-52.529-1.9734-25.992-0.49084-47.423-1.0569-47.624-1.258-0.20104-0.20104 21.909-0.56151 49.134-0.80105 45.689-0.402 52.781-0.73681 52.781-2.4919 0-1.2667-6.282-3.2103-14.062-4.3507l-7.9688-1.1681 8.9062-0.0891c11.215-0.11216 25.057 1.3111 26.797 2.7554 1.7152 1.4235 1.6883 4.7019-0.0704 8.5748-0.76892 1.6933-3.9489 16.157-7.0665 32.141-11.412 58.51-17 85.634-20.571 99.844-2.0082 7.9922-4.3001 17.695-5.0932 21.562-0.79308 3.8672-2.952 13.57-4.7976 21.562-6.1962 26.832-8.7481 38.85-10.253 48.281-3.2418 20.323-16.322 77.276-20.705 90.146-4.497 13.208-4.275 14.837 1.3739 10.083 3.739-3.1462 3.7449-2.2969 0.0809 11.637-5.205 19.794-10.894 28.09-26.494 38.636-4.7689 3.2239-10.678 7.7927-13.132 10.153l-4.4616 4.2912-9.1423 0.17658c-9.6541 0.18646-18.208 2.4929-47.091 12.697-19.436 6.8669-21.032 7.3853-27.011 8.7742-6.7049 1.5575-8.4888 1.6483-10.489 0.53409zm19.688-12.02c7.8753-2.9321 10.312-4.5575 10.312-6.8776 0-1.9146-0.41425-2.1838-4.8496-3.1516-1.3782-0.30072-3.7594-1.6016-5.2916-2.8908-2.1104-1.7758-3.8892-2.354-7.3379-2.3854-2.5037-0.0228-6.6615-0.6271-9.2397-1.343l-4.6875-1.3016 3.75-0.13441c12.172-0.43628 28.23 1.1664 36.796 3.6727 2.3751 0.6949 3.3648 0.57198 4.4951-0.55833 1.2459-1.2459 1.2687-1.7304 0.16226-3.4498-3.4658-5.3863-19.837-9.0425-43.518-9.7191-16.421-0.46916-29.965 0.7267-45.84 4.0476-10.742 2.2471-14.101 7.4688-5.2164 8.1087l4.3712 0.31487-4.9429 0.79422c-2.7186 0.43682-5.1639 1.1518-5.434 1.5888-1.4077 2.2777 2.2017 4.6158 14.319 9.2755l12.933 4.9734 17.344 1.0544c20.302 1.2343 23.72 1.0178 31.875-2.0185zm-56.719-17.189c2.7385-0.64828 29.055-1.0557 27.188-0.42088-0.51563 0.17531-7.4766 0.49152-15.469 0.70271-7.9922 0.21118-13.266 0.0844-11.719-0.28183zm-22.54 1.989c0.60515-0.97914-3.0046-3.8141-4.8564-3.8141-1.9804 0-1.3493 2.4529 0.91172 3.5433 2.6973 1.3009 3.2833 1.3411 3.9447 0.27085zm-36.562-1.875c0.68088-1.1017-3.1062-3.8141-5.3252-3.8141-1.9203 0-2.325 3.328-0.49453 4.0666 1.9964 0.80555 5.2532 0.66427 5.8197-0.25247zm11.407-12.857c0.78544-1.8798 2.0519-4.0417 2.8143-4.8041 1.9448-1.9448 1.351-8.0677-0.82245-8.4796-1.3725-0.2601-1.6406 0.40393-1.6406 4.0631 0 2.9544-0.60852 5.1476-1.875 6.7577-2.0067 2.5511-2.5104 5.8808-0.88966 5.8808 0.54193 0 1.628-1.538 2.4134-3.4179zm35.058-1.761c0.65223-0.7859 0.89459-1.7202 0.53857-2.0762-0.78196-0.78195-3.5815 0.85885-4.0953 2.4002-0.53408 1.6022 2.1619 1.3566 3.5568-0.32401zm-4.7063-5.1717c0-3.5201-0.87624-5.5869-2.3686-5.5869-0.8957 0-1.1528 1.3392-0.94483 4.9219 0.35558 6.1265 0.23371 5.842 1.9072 4.4531 0.77344-0.6419 1.4062-2.3465 1.4062-3.7881zm168.81-15.932c2.133-1.1415 2.3989-2.7795 0.45123-2.7795-1.938 0-6.1379 2.0274-6.1379 2.963 0 1.097 3.5053 0.98395 5.6866-0.18347zm-228.86-3.667c1.6219-1.0261 0.91528-1.2193-12.607-3.4483-16.615-2.7387-16.097-2.7068-14.595-0.89776 0.72388 0.87222 2.1842 2.0504 3.2451 2.6182 3.8498 2.0603 21.428 3.3281 23.958 1.7278zm188.64 60.089c-1.0005-0.65249-0.93832-0.9353 0.31105-1.4147 2.7089-1.0395 6.282-0.69077 5.8671 0.57267-0.46777 1.4246-4.4523 1.9676-6.1782 0.84207zm-173.08-8.5117c-0.7983-1.2917 0.74762-1.926 3.1578-1.2957 1.5882 0.41533 1.8045 0.75167 0.86582 1.3467-1.6555 1.0494-3.3568 1.0279-4.0236-0.0509zm105.9-43.286c-7.7344-0.41066-16.594-1.1384-19.688-1.6173l-5.625-0.87065 6.5625-0.054c10.487-0.0863 49.054 2.1606 49.794 2.9011 0.8084 0.80841-11.804 0.66252-31.044-0.35909zm-51.562-15.992c-7.1105-1.3328-17.344-4.517-17.344-5.3967 0-1.1138 4.9896-1.9623 11.133-1.893 4.2431 0.0478 4.846 0.23074 3.0856 0.93633-1.2033 0.4823-2.0126 1.4027-1.7984 2.0454 0.37196 1.1159 4.3663 2.1904 15.705 4.2249l5.1562 0.92516-5.625 0.0183c-3.0938 0.01-7.7344-0.37708-10.312-0.86033zm99.037-9.1969-2.2132-1.9022 12.526 0.054c6.8892 0.0297 14.213 0.37128 16.276 0.75903 3.2644 0.6137 2.5966 0.79329-5.1562 1.3867-4.8984 0.37496-11.227 0.8894-14.062 1.1432-4.2533 0.38067-5.5438 0.12837-7.3695-1.4408zm-117.33-1.95c-25.328-2.1261-26.017-2.514-4.6875-2.6408 22.904-0.13619 39.85 0.71275 36.794 1.8432-3.2955 1.2191-21.653 1.6751-32.107 0.7976z"/>
</g>
</svg>
