<?xml version="1.0" encoding="UTF-8" standalone="no"?>
<!-- Created with Inkscape (http://www.inkscape.org/) -->
<svg id="svg3380" xmlns:rdf="http://www.w3.org/1999/02/22-rdf-syntax-ns#" xmlns="http://www.w3.org/2000/svg" height="938.48" viewBox="0 0 938.4776 938.4776" width="938.48" version="1.1" xmlns:cc="http://creativecommons.org/ns#" xmlns:dc="http://purl.org/dc/elements/1.1/">
<metadata id="metadata3386">
<rdf:RDF>
<cc:Work rdf:about="">
<dc:format>image/svg+xml</dc:format>
<dc:type rdf:resource="http://purl.org/dc/dcmitype/StillImage"/>
<dc:title/>
</cc:Work>
</rdf:RDF>
</metadata>
<g id="g3390">
<path id="path3398" fill="#fefefe" d="m0 469.24v-469.24h469.24 469.24v469.24 469.24h-469.24-469.24v-469.24z"/>
<path id="path3396" fill="#a1a1a1" d="m446.25 929.46c-16.232-0.61948-42.285-2.3392-49.268-3.2521-36.523-4.7745-64.154-11.335-78.874-18.728-19.643-9.8652-24.047-19.703-15.221-34.002 5.7178-9.2636 17.123-17.211 34.511-24.048 8.5948-3.3795 31.726-8.5953 44.566-10.049 6.9682-0.78908 14.781-1.8172 17.362-2.2848 7.1098-1.2881 22.054-1.8682 22.054-0.85608 0 0.48264-0.90218 0.87753-2.0048 0.87753-1.1027 0-7.543 0.87932-14.312 1.9541-46.356 7.3604-52.652 8.7478-64.061 14.118-4.2484 1.9997-7.969 3.6358-8.2679 3.6358-0.29892 0-3.3241 1.6893-6.7225 3.7539-3.3985 2.0646-6.4367 3.7539-6.7515 3.7539-0.31483 0-2.3832 1.7772-4.5965 3.9493-5.464 5.3625-5.4445 8.2091 0.0914 13.347 4.0993 3.8045 20.051 12.379 31.428 16.894 17.186 6.8193 67.119 15.871 85.509 15.5 4.3934-0.0885 20.446 0.32098 35.673 0.91004 18.69 0.72305 30.124 0.77119 35.193 0.14813 4.1293-0.50759 11.309-1.1728 15.954-1.4782 21.5-1.4136 59.987-9.0159 75.828-14.978 10.221-3.8473 28.076-13.273 31.863-16.821 2.7666-2.5921 3.5193-3.999 3.5193-6.5777 0-5.2233-7.1058-11.588-18.986-17.007-2.9581-1.3492-5.6225-2.8481-5.9209-3.3309-0.29845-0.48284-1.4795-0.87789-2.6246-0.87789s-2.915-0.5724-3.9331-1.272c-6.0386-4.1493-45.305-12.278-73.409-15.196-3.6487-0.37885-5.6388-0.97327-5.2679-1.5734 0.36604-0.59226 2.6294-0.73856 5.864-0.37903 2.8974 0.32203 8.4353 0.78997 12.306 1.0399 21.559 1.3917 50.941 7.3724 68.188 13.879 17.193 6.4869 26.943 13.732 33.056 24.563 13.681 24.241-15.862 40.359-92.798 50.628-20.852 2.7832-73.571 4.7662-99.948 3.7596zm41.719-69.401c-0.57778-0.69618-0.77653-2.129-0.44166-3.1841 0.33486-1.0551 0.17056-3.2925-0.36511-4.972-6.7089-21.035-7.3645-25.794-7.9837-57.955-0.29317-15.227-1.0103-43.1-1.5936-61.94-1.7289-55.843-0.31411-123.88 3.3859-162.83 3.2092-33.779 5.7635-49.677 10.535-65.564 2.2795-7.5906 2.3767-8.5334 1.1124-10.792-2.059-3.6789-8.2908-4.9579-22.437-4.6046-16.507 0.41216-20.254 2.5549-18.014 10.301 4.8647 16.824 8.0952 36.815 10.432 64.56 4.5196 53.651 4.8001 102.84 1.1262 197.55-2.3465 60.488-3.084 69.676-6.3534 79.148-1.4922 4.3232-2.1958 7.9526-1.8637 9.6131 0.29345 1.4672 0.0964 2.9379-0.43793 3.2681-0.53431 0.33022-0.83722 2.1414-0.67312 4.0249 0.28205 3.2373 0.13481 3.4404-2.6939 3.7143-2.3323 0.22587-3.3284-0.22321-4.5163-2.0362-1.4243-2.1737-1.3976-2.6226 0.407-6.8591 1.8799-4.4132 5.0781-15.628 6.6721-23.397 2.0939-10.205 3.231-62.904 3.2378-150.06 0.008-106.8-0.41857-116.51-6.4311-146.24-4.1898-20.718-10.805-42.536-15.158-49.993-2.7456-4.7033-16.061-17.447-24.105-23.07-6.059-4.2355-19.164-12.326-31.723-19.584-11.325-6.5453-27.042-18.315-40.824-30.573-20.938-18.622-35.289-36.177-49.006-59.948-15.999-27.725-24.905-56.559-28.904-93.579-0.9361-8.6665-0.62404-48.3 0.45656-57.986 4.2722-38.293 18.297-90.284 36.834-136.55 3.1023-7.7424 6.3961-15.978 7.3197-18.3 3.2197-8.0975 12.25-25.816 13.722-26.926 2.2935-1.7277 8.7958-2.8244 26.146-4.4098 29.493-2.6949 56.872-3.4107 129.04-3.3739 69.734 0.035602 110.3 1.1547 134.2 3.702 21.378 2.2786 21.394 2.2869 26.624 13.358 18.75 39.693 38.633 100.48 45.988 140.59 4.4297 24.159 4.7349 27.908 4.7745 58.655 0.0397 30.898-0.45201 37.303-4.323 56.309-5.7484 28.223-14.61 50.337-30.249 75.488-22.146 35.616-52.455 64.183-92.139 86.846-29.803 17.02-47.156 31.367-52.903 43.741-5.1586 11.105-14.128 45.223-17.003 64.676-3.2235 21.809-5.0816 83.058-5.0963 167.99-0.0153 88.424 1.1205 111.7 6.1132 125.29 3.363 9.151 4.0002 12.27 2.9189 14.291-1.2825 2.3964-4.4339 3.2704-5.8107 1.6115zm-7.4648-379.09c0-0.77424-0.63347-1.4077-1.4077-1.4077-1.5412 0-1.9486-3.3089-0.51632-4.194 0.49026-0.30301 1.3643 0.33281 1.9424 1.4129 1.3326 2.4899 3.4872 1.0127 3.9144-2.6838 0.24526-2.1222 1.5285-3.1281 8.2674-6.4809 4.3874-2.1828 9.6663-4.4393 11.731-5.0143 3.7504-1.0446 7.0386-3.2731 7.0386-4.7703 0-0.43615-1.4205-0.79302-3.1566-0.79302-4.3482 0-13.057-1.7234-13.687-2.7085-0.28481-0.44528-1.9959-1.1298-3.8025-1.521-1.8066-0.3913-6.3112-1.9225-10.01-3.4026-8.0371-3.2158-11.731-3.376-15.527-0.67297-2.0644 1.47-4.9933 2.2149-10.783 2.7426-5.3424 0.48693-8.5255 1.2464-9.7074 2.316-0.96721 0.87531-3.6761 1.8076-6.0198 2.0718-2.6195 0.29525-4.2612 0.94938-4.2612 1.6978 0 1.852 4.646 5.1077 7.289 5.1077 1.2889 0 3.6603 0.79647 5.2697 1.77 1.6094 0.97347 3.982 2.0856 5.2724 2.4715 3.5637 1.0656 9.3848 6.0168 9.3848 7.9822 0 0.95849 0.44837 2.0198 0.99636 2.3585 0.54801 0.33869 1.3822 1.6306 1.8537 2.8708 0.80697 2.1225 1.3 2.255 8.3884 2.255 6.0686 0 7.531-0.27336 7.531-1.4077zm-14.64-2.7216c-0.34354-0.89525-0.16008-2.0923 0.4077-2.66 0.75079-0.75079 1.2027-0.58841 1.657 0.59539 0.34354 0.89526 0.16008 2.0923-0.4077 2.66-0.75078 0.75079-1.2027 0.58841-1.657-0.5954zm22.293-42.348c15.949-1.822 33.605-5.2284 49.125-9.4779 18.751-5.1342 33.297-12.998 62.597-33.84 15.846-11.272 23.098-17.647 33.233-29.212 16.167-18.449 31.332-50.289 39.198-82.296 9.6459-39.251 7.2957-97.098-6.0434-148.75-5.3466-20.703-14.225-45.674-23.858-67.101-2.7846-6.194-5.8903-13.373-6.9015-15.954-1.0112-2.5808-4.0008-9.2323-6.6435-14.781-3.4932-7.3345-5.2682-10.089-6.5018-10.089-0.93328 0-6.0991 0.61746-11.48 1.3721-28.637 4.0166-87.152 7.0742-135.39 7.0742-48.783 0-107.87-3.0617-136.63-7.0795-5.3805-0.75173-10.534-1.3668-11.453-1.3668-1.7418 0-8.9803 13.831-14.777 28.235-1.5401 3.827-3.6309 8.6474-4.6461 10.712-5.8556 11.908-13.449 31.031-19.378 48.801-10.098 30.265-14.565 53.111-18.268 93.434-1.9008 20.699-0.76532 49.132 2.682 67.157 3.1461 16.45 10.965 40.212 18.802 57.137 7.3728 15.924 20.778 34.631 32.982 46.028 11.441 10.684 43.064 32.588 59.971 41.54 14.327 7.5859 42.219 15.044 67.57 18.069 4.9036 0.585 9.0915 1.2337 9.3066 1.4416 0.87183 0.84281 14.725 0.29249 26.501-1.0527zm21.43-408.24c25.557-0.80816 72.591-3.1917 83.822-4.2478 12.111-1.1388 26.143-3.4928 27.215-4.5655 0.42317-0.42317-2.5324-1.2608-6.5679-1.8614-18.711-2.7847-43.172-3.3784-139.19-3.3784-95.92 0-120.49 0.59459-139.12 3.3668-10.677 1.589-9.7462 2.1029 9.1559 5.0547 17.646 2.7556 112.03 7.2551 136.53 6.5085 6.452-0.19666 19.121-0.59126 28.154-0.8769zm-46.04 831.02c-1.8374-0.9339-3.9394-2.4193-4.671-3.3009-1.2349-1.488-1.029-1.544 2.8715-0.78055 3.6481 0.71402 7.7026 0.7236 17.81 0.0421 4.5459-0.30651 2.9565 1.7427-2.9452 3.7971-7.0672 2.4602-8.6438 2.4894-13.065 0.24226z"/>
<path id="path3394" fill="#5e5e5e" d="m447.65 928.53c-50.041-2.031-88.577-7.6146-116.84-16.929-14.845-4.8923-26.019-12.159-29.653-19.283-2.4421-4.7868-1.9143-11.234 1.1901-14.538l2.0235-2.1539 1.0196 2.0283c0.5608 1.1156 3.276 3.1923 6.0337 4.615 2.7578 1.4227 5.714 3.2042 6.5694 3.959 2.3238 2.0504 19.401 10.405 27.893 13.646 21.143 8.0689 64.142 15.88 88.626 16.1 5.9359 0.0533 12.904 0.45914 15.485 0.90186 2.7645 0.47425 7.4904 0.43039 11.503-0.10677 4.5084-0.60357 9.7424-0.58558 15.485 0.0532 12.012 1.3362 50.394-1.4564 69.676-5.0694 4.1293-0.77377 10.253-1.857 13.608-2.4071 8.2143-1.3469 25.264-5.9441 34.371-9.2677 8.1082-2.9591 24.954-11.388 30.75-15.386 2.0076-1.3849 4.1512-2.518 4.7634-2.518 0.61224 0 2.105-1.0558 3.3173-2.3462 2.5552-2.7199 3.979-2.9256 6.0331-0.87144 1.8809 1.8809 1.9638 9.8729 0.13909 13.402-3.5352 6.8362-15.681 14.622-30.325 19.439-20.02 6.5852-59.812 13.385-89.872 15.357-15.756 1.0337-59.55 1.8733-71.794 1.3764zm1.1262-70.006c-1.5673-1.5673-1.4103-3.6863 0.62497-8.4343 1.6918-3.9468 4.0481-12.654 5.7934-21.409 1.9094-9.5777 2.9851-51.25 3.4443-133.42 0.70159-125.55-0.39688-143-11.661-185.19-6.5259-24.445-9.3973-30.251-19.814-40.066-9.0971-8.5713-16.967-14.204-33.683-24.109-20.37-12.069-25.046-15.205-40.148-26.921-45.322-35.161-75.546-82.322-86.266-134.61-3.6305-17.707-4.4754-26.485-4.9493-51.418-0.45973-24.188 0.63964-38.997 4.5334-61.064 7.2302-40.976 29.374-108.11 48.026-145.6 5.6712-11.399 6.0628-11.648 20.825-13.248 4.6455-0.50326 12.036-1.3276 16.423-1.8319 4.3874-0.50427 35.593-1.3599 69.345-1.9014 64.48-1.0345 157.1-0.00123 176.54 1.9693 33.208 3.3672 31.064 2.5032 37.256 15.011 4.6376 9.3681 6.0728 12.66 12.683 29.093 18.667 46.406 33.348 102.12 37.304 141.57 1.2536 12.502 1.2539 43.135 0.00051 55.641-3.4828 34.749-12.196 63.976-26.958 90.428-12.396 22.211-23.99 37.557-41.481 54.901-18.548 18.393-34.173 30.172-59.158 44.598-34.171 19.729-48.19 32.469-54.079 49.144-7.3559 20.828-13.886 50.452-15.852 71.913-2.4592 26.841-4.1853 91.63-4.1752 156.71 0.0126 80.641 1.889 116.6 6.5374 125.29 2.2687 4.239 3.6753 10.59 2.7347 12.348-1.6436 3.0712-3.6733 2.0832-3.6808-1.7917-0.004-1.9356-1.2254-7.109-2.7147-11.496-4.6054-13.567-5.5972-22.764-6.123-56.778-0.26329-17.033-0.9532-46.173-1.5331-64.755-1.9808-63.467 0.96745-144.53 6.7067-184.41 1.5497-10.768 6.4381-33.73 7.9523-37.354 2.9146-6.9756 0.9764-11.359-5.8628-13.258-1.9691-0.5468-9.0703-0.98726-15.78-0.9788-18.442 0.0233-23.092 2.904-20.316 12.587 1.9372 6.757 6.5457 28.929 7.6195 36.657 3.6946 26.593 4.9222 51.64 5.3818 109.8 0.27689 35.041 0.0525 67.518-0.56393 81.648-0.56305 12.904-1.4714 37.609-2.0185 54.901-1.113 35.176-2.5512 48.955-6.1779 59.191-1.3587 3.8346-2.5924 9.0836-2.7416 11.664-0.14922 2.5808-0.30523 5.0091-0.3467 5.3962-0.11708 1.093-2.3899 0.82941-3.6416-0.42231zm36.591-376.11c8.472-1.8735 13.899-4.1013 13.899-5.7057 0-1.2869-4.215-0.16274-9.7335 2.596-5.3 2.6496-7.254 1.8281-4.3706-1.8375 1.0471-1.3312 1.9039-2.8602 1.9039-3.3977 0-2.354 12.795-9.309 20.044-10.896 1.511-0.33071 5.1991-3.0916 8.4463-6.3228l5.7641-5.7358-5.1572 0.68036c-2.8365 0.3742-5.8259 1.2856-6.6432 2.0252-2.0069 1.8162-7.3652 1.702-9.469-0.2019-0.94003-0.85071-3.9164-1.8957-6.6143-2.3222-3.7745-0.59666-5.561-1.484-7.7508-3.8495-1.5651-1.6908-3.9009-3.7729-5.1906-4.627-1.7129-1.1343-2.069-1.8402-1.3214-2.6189 0.56294-0.58635 8.3758-2.3284 17.362-3.8712 18.704-3.2113 35.077-6.7606 43.292-9.3849 3.1178-0.99602 6.1597-1.811 6.7598-1.811 2.6477 0 24.679-11.858 36.673-19.74 43.004-28.257 59.197-45.615 75.077-80.477 14.719-32.314 21.103-61.906 21.1-97.802-0.006-55.518-11.717-108.05-36.508-163.76-2.9857-6.7101-6.7189-15.156-8.2959-18.77-1.577-3.6131-4.4571-9.8962-6.4002-13.962l-3.5329-7.393-6.1736 0.60137c-3.3955 0.33075-9.7633 1.0184-14.151 1.5281-37.513 4.3579-71.22 5.8901-129.04 5.8659-59.06-0.02475-92.808-1.5478-129.98-5.8659-4.3874-0.50968-10.733-1.1952-14.1-1.5234l-6.1233-0.59669-5.7803 12.081c-3.1792 6.6444-7.5304 16.093-9.6694 20.996-2.139 4.9035-5.9475 13.631-8.4632 19.394-21.335 48.875-31.388 94.06-32.536 146.25-0.73318 33.315 1.7769 52.159 10.571 79.362 6.803 21.044 17.505 42.896 27.565 56.285 7.6167 10.137 23.113 24.797 36.246 34.29 26.928 19.464 45.751 30.11 61.884 34.999 8.2873 2.5114 13.89 3.829 37.539 8.8283 3.8033 0.80401 5.6309 1.6402 5.6309 2.5765 0 0.99829 1.5237 1.5444 5.4457 1.9517 6.1824 0.6421 6.9594 1.1628 7.7679 5.2052 0.52576 2.6288 0.29747 2.9949-2.4686 3.9592-1.6764 0.58439-5.5188 1.0625-8.5388 1.0625-4.2395 0-5.9186 0.42774-7.3678 1.877-1.9601 1.9602-8.4463 2.6808-8.4463 0.93848 0-0.51616 0.84463-0.93848 1.877-0.93848 1.0323 0 1.877-0.40318 1.877-0.89595 0-1.191-6.1155-2.2969-8.2046-1.4836-1.5042 0.58554-1.4635 0.7938 0.46217 2.3651 1.1676 0.95273 2.1116 2.7723 2.1116 4.07 0 3.2478 4.8738 7.2062 8.8726 7.2062 1.7038 0 3.6219 0.63153 4.2625 1.4034 0.64059 0.77187 2.7829 1.8882 4.7606 2.4808 1.9778 0.59255 4.6055 2.1782 5.8394 3.5236 3.2638 3.5588 6.4854 9.2571 5.5577 9.8304-0.43981 0.27183-3.6239-0.81797-7.0757-2.4218-6.149-2.857-8.5406-3.0144-6.388-0.42062 0.99398 1.1977 12.432 4.7872 17.956 5.635 5.4796 0.84097 11.295 0.46395 18.948-1.2284zm24.69-453.35c74.711-2.9271 115.05-6.7142 113.74-10.68-0.34027-1.0362-7.2933-2.4113-22.002-4.3512-11.523-1.5198-203.61-2.3358-232.04-0.98577-22.461 1.0663-40.97 3.1522-42.621 4.8034-1.5505 1.5505 0.71632 2.4935 10.197 4.2422 10.717 1.9768 21.951 3.1937 33.362 3.6139 4.9036 0.18057 17.784 0.83631 28.624 1.4572 50.92 2.9167 74.476 3.3208 110.74 1.9z"/>
<path id="path3392" fill="#0d0d0d" d="m449.06 927.59c-21.041-0.89363-43.697-2.4866-52.301-3.6775-41.594-5.7569-62.707-10.759-78.115-18.506-9.67-4.862-14.968-9.2417-16.841-13.92-1.7346-4.3353-1.8498-6.3815-0.55145-9.7966l0.94057-2.4739 3.4964 2.882c1.923 1.5851 4.4964 2.882 5.7185 2.882 1.2222 0 3.3431 0.79252 4.7132 1.7612 3.6488 2.5797 20.662 10.973 28.775 14.196 13.3 5.2834 50.26 13.562 67.563 15.133 15.814 1.4361 40.342 2.8965 44.578 2.6541 5.8246-0.33335 21.165-0.3034 26.277 0.0513 3.7801 0.26228 19.116-0.6867 45.047-2.7875 18.125-1.4684 51.708-8.9424 67.702-15.067 8.4597-3.2397 25.664-11.702 28.853-14.193 1.231-0.96122 3.1789-1.7477 4.3287-1.7477s3.7-1.279 5.667-2.8422c4.199-3.337 5.0917-2.6741 5.1136 3.7974 0.0328 9.691-11.025 18.398-31.894 25.114-4.9035 1.5781-11.238 3.3573-14.077 3.9538-2.8389 0.59652-8.5402 1.8733-12.669 2.8372-7.0063 1.6355-15.282 2.9482-38.478 6.1031-18.698 2.5432-71.51 4.5954-93.848 3.6467zm0.1309-69.539c-1.0427-1.0427-0.59337-4.4405 0.83742-6.3322 1.2831-1.6964 1.3779-1.555 1.3779 2.0562 0 3.72-0.94576 5.5455-2.2153 4.276zm40.437-3.769c-0.24289-2.4725-0.71154-5.5512-1.0415-6.8416-0.36824-1.4404-0.008-1.078 0.934 0.93848 2.6422 5.6582 3.1359 8.2517 1.7842 9.3735-0.9844 0.81699-1.3247 0.11266-1.6767-3.4704zm-35.341-14.977c-0.0364-1.1197 0.54242-4.4982 1.2862-7.5078 2.9099-11.775 3.8012-47.601 3.7904-152.34-0.009-87.85-0.22382-103.95-1.5643-117.31-2.979-29.689-13.531-72.03-20.461-82.103-3.4855-5.066-16.951-17.787-24.544-23.188-3.2811-2.3336-13.985-9.0348-23.787-14.892-32.326-19.315-57.516-40.441-76.639-64.276-17.275-21.531-32.011-49.296-39.574-74.562-11.997-40.082-13.097-92.465-2.9853-142.18 7.7778-38.239 28.349-98.644 45.689-134.16 4.8743-9.9835 5.5765-10.807 9.2142-10.807 1.8469 0 2.0466 0.19056 0.93848 0.89547-1.2021 0.76465-1.2221 1.1947-0.13741 2.944 1.0998 1.7736 1.0624 2.1648-0.27897 2.9155-1.6988 0.95069-5.7194 8.7732-12.672 24.655-2.4857 5.6778-7.6732 17.503-11.528 26.277-15.905 36.206-26.484 73.511-30.739 108.39-7.5099 61.568-1.6312 105.35 20.092 149.65 15.269 31.135 31.654 48.18 71.348 74.223 23.763 15.59 37.249 21.502 61.047 26.76 9.8143 2.1683 12.186 3.2196 9.5471 4.2322-2.8374 1.0888-0.59574 2.2782 4.3508 2.3085 2.787 0.0171 5.6512 0.61945 6.6933 1.4077 1.1401 0.86234 3.9667 1.3779 7.5547 1.3779 5.8677 0 7.9854 1.0151 7.9854 3.8278 0 2.9518-4.4824 3.7529-18.016 3.2199-8.2823-0.32618-13.037-0.16469-13.42 0.45583-0.32665 0.52853 0.27816 2.0696 1.344 3.4246 1.0659 1.355 1.9379 3.2076 1.9379 4.1169 0 2.475 6.1814 7.4785 9.2391 7.4785 1.4325 0 5.6416 1.4962 9.3536 3.3249 5.4698 2.6947 7.1082 4.0288 8.6437 7.0386 2.1248 4.165 1.4761 4.5153-3.5827 1.9345-6.768-3.4528-10.964-2.4239-6.8585 1.6817 6.0138 6.0138 29.655 8.1972 43.15 3.9852 7.1085-2.2186 12.401-6.0567 10.699-7.7588-0.91769-0.91769-4.3279 0.0374-11.755 3.2924-4.1514 1.8194-4.3321 1.272-1.1338-3.4345 2.6993-3.9724 13.628-10.064 18.055-10.064 2.92 0 5.5675-1.7502 13.841-9.1503 7.1866-6.4277 6.3237-7.7884-3.5086-5.5321-8.1304 1.8658-13.405 2.0929-20.624 0.88796-6.64-1.1083-8.4558-2.5182-8.0857-6.2785 0.25197-2.5602 0.71425-2.9558 4.2711-3.6544 2.1937-0.43092 3.9885-1.1358 3.9885-1.5663 0-1.1902 1.928-1.7335 17.271-4.8664 16.581-3.3857 33.439-8.1257 41.384-11.636 20.377-9.0032 57.704-35.171 73.731-51.688 19.585-20.184 33.669-46.45 43.617-81.338 7.3033-25.613 9.5878-55.532 6.9664-91.236-3.2905-44.817-15.532-91.832-34.699-133.26-2.149-4.6455-4.8764-10.98-6.0607-14.077-3.6639-9.5806-11.74-26.134-13.843-28.372-1.2512-1.3319-1.5465-2.129-0.78859-2.129 0.78619 0 1.054-0.82363 0.76297-2.3462-0.46346-2.4244 0.49835-2.9044 3.5067-1.75 1.4401 0.55262 2.7574 3.0612 10.653 20.288 7.9768 17.404 23.015 59.5 28.747 80.471 1.3403 4.9036 3.0381 11.027 3.7728 13.608 5.5774 19.592 10.698 47.067 12.767 68.509 1.3655 14.148 0.56217 51.092-1.3774 63.347-4.9158 31.061-10.423 49.644-20.967 70.741-22.808 45.641-56.574 80.584-103.97 107.6-19.765 11.265-31.5 19.573-41.03 29.047-10.601 10.539-12.663 14.301-18.524 33.8-5.3631 17.841-10.077 41.147-11.769 58.186-2.9563 29.768-4.4124 95.829-3.8785 175.96 0.27509 41.293 0.90628 78.668 1.4026 83.055 0.49636 4.3874 1.1764 10.3 1.5111 13.139 0.89553 7.5948-0.88796 3.8011-2.206-4.6924-0.94984-6.1208-1.8515-33.969-4.4365-137.02-0.7029-28.021 1.6677-96.547 4.3666-126.23 2.1435-23.57 5.4649-44.763 9.0457-57.716 3.5766-12.938 3.7539-15.977 1.0741-18.405-3.6018-3.263-7.9368-4.1185-20.869-4.1185-13.452 0-17.553 0.76492-20.885 3.8951-2.5899 2.4331-2.7926 5.8017-0.75365 12.524 2.2049 7.2691 5.7908 26.192 7.3987 39.042 3.4818 27.827 4.513 49.009 4.9839 102.37 0.4456 50.498 0.0461 70.15-2.6865 132.16-0.55727 12.646-1.1161 27.638-1.2419 33.316-0.12575 5.6778-0.69531 13.491-1.2657 17.362-1.1122 7.5483-3.756 16.09-3.8722 12.511zm77.917-396.93c1.0885-1.3116 1.0196-1.4697-0.51118-1.1731-0.97312 0.18858-1.9451 0.87075-2.1599 1.516-0.55741 1.6741 1.1825 1.4508 2.6711-0.34287zm-166.43-430.83c1.1674-0.22448 2.8566-0.21596 3.7539 0.01894 0.89727 0.23489-0.0579 0.41856-2.1225 0.40814s-2.7988-0.2026-1.6314-0.42708zm214.9 0.0014c1.1614-0.22369 3.0618-0.22369 4.2231 0 1.1614 0.22369 0.21116 0.40671-2.1116 0.40671-2.3227 0-3.2729-0.18302-2.1116-0.40671zm-179.25-0.976c6.323-0.16236 16.67-0.16236 22.993 0s1.1496 0.2952-11.496 0.2952-17.819-0.13284-11.496-0.2952zm66.632 0.0028c4.2584-0.17389 11.227-0.17389 15.485 0 4.2584 0.17389 0.77425 0.31617-7.7424 0.31617-8.5167 0-12.001-0.14228-7.7424-0.31617zm49.739-0.0038c7.8715-0.15697 20.752-0.15697 28.624 0 7.8715 0.15697 1.4312 0.2854-14.312 0.2854s-22.183-0.12843-14.312-0.2854z"/>
</g>
</svg>
