<?xml version="1.0" encoding="UTF-8" standalone="no"?>
<!-- Created with Inkscape (http://www.inkscape.org/) -->
<svg id="svg3336" xmlns:rdf="http://www.w3.org/1999/02/22-rdf-syntax-ns#" xmlns="http://www.w3.org/2000/svg" height="938.48" viewBox="0 0 938.4776 938.4776" width="938.48" version="1.1" xmlns:cc="http://creativecommons.org/ns#" xmlns:dc="http://purl.org/dc/elements/1.1/">
<metadata id="metadata3342">
<rdf:RDF>
<cc:Work rdf:about="">
<dc:format>image/svg+xml</dc:format>
<dc:type rdf:resource="http://purl.org/dc/dcmitype/StillImage"/>
<dc:title/>
</cc:Work>
</rdf:RDF>
</metadata>
<g id="g3346">
<path id="path3354" fill="#fefefe" d="m0 469.24v-469.24h469.24 469.24v469.24 469.24h-469.24-469.24v-469.24z"/>
<path id="path3352" fill="#a2a2a2" d="m439.68 912.14c-33.666-1.701-66.735-6.6974-87.748-13.258-14.29-4.4614-26.46-12.232-29.086-18.573-3.7101-8.957 4.4518-22.093 18.897-30.414 10.252-5.9054 30.406-11.836 48.666-14.322 5.9359-0.80787 11.848-1.6194 13.139-1.8035 9.1079-1.2993 51.36-3.1129 51.887-2.2599 0.62616 1.0132-40.314 3.1827-63.741 6.9896-18.6 3.0227-26.52 5.2176-37.377 10.359-27.127 12.846-28.473 18.685-6.8327 29.64 17.506 8.8621 29.882 12.496 60.843 17.866 53.69 1.3702 91.408 6.1949 135.99-2.6072 23.244-4.6286 33.665-8.0132 47.577-15.452 9.7886-5.234 14.363-9.2315 14.363-12.553 0-5.1243-11.515-13.03-29.193-20.041-7.0363-2.7909-22.74-6.4614-36.5-8.5314-15.481-2.3287-58.644-6.0215-57.363-6.8657 1.3875-0.91443 44.034 2.2629 63.296 5.0112 21.308 3.04 37.244 7.6453 50.465 14.583 14.435 7.5755 22.997 22.15 18.29 31.134-6.2439 11.918-29.993 20.71-72.71 26.915-28.003 4.0677-70.742 5.8054-102.87 4.1824zm10.912-59.648c-2.4204-1.6953-2.3673-3.418 0.32817-10.651 0.86035-2.3087 1.9294-5.8983 2.3756-7.9771 0.44622-2.0787 1.2523-5.5283 1.7913-7.6658 3.8922-15.435 4.7004-201.95 1.0121-233.55-1.8176-15.571-7.3887-39.64-12.925-55.839-2.2002-6.4383-3.1321-7.7631-10.927-15.534-9.5115-9.4818-14.417-13.023-34.619-24.992-20.982-12.431-45.154-31.522-57.016-45.032-29.115-33.158-44.818-67.868-49.816-110.11-1.4089-11.907-1.4148-45.9-0.0101-58.186 3.1846-27.855 12.823-64.745 26.972-103.23 8.6224-23.454 20.177-48.745 22.948-50.228 2.6874-1.4383 22.894-3.759 40.788-4.6845 22.46-1.1617 160.5-1.1556 182.63 0.008 22.734 1.1957 39.133 3.3151 41.959 5.423 3.7524 2.7982 16.958 33.796 26.378 61.919 9.217 27.517 15.298 50.749 19.467 74.371 2.4037 13.62 2.569 16.309 2.5964 42.232 0.0263 24.84-0.19314 28.939-2.1353 39.885-5.6588 31.894-14.116 52.882-32.239 80.007-17.293 25.882-44.293 50.204-75.045 67.601-21.839 12.354-37.359 24.559-42.56 33.469-6.1684 10.567-14.847 43.651-17.368 66.213-3.0736 27.5-4.893 163.02-2.797 208.34 0.92674 20.038 2.3703 29.9 5.5989 38.253 2.4578 6.3586 2.4388 9.2594-0.0694 10.602-2.59 1.3861-4.0622-0.0417-4.2042-4.0772-0.0584-1.6584-0.82342-5.338-1.7002-8.1769-4.567-14.787-4.2659-10.74-6.2155-83.56-2.7186-101.54 1.4002-177.59 11.318-208.97 2.3279-7.3665 2.3091-8.9433-0.1326-11.155-1.7024-1.5418-3.7364-1.8246-14.781-2.0556-19.393-0.40551-20.391 0.51268-16.765 15.42 3.8357 15.769 5.1597 24.371 7.4183 48.195 1.8956 19.995 2.0946 27.487 2.1309 80.24 0.0283 41.23-0.44751 69.535-1.6331 97.132-1.8639 43.388-2.7277 53.195-5.3139 60.333-0.97477 2.6902-2.1103 7.279-2.1531 10.345-0.0469 3.3605-0.24098 5.9924-0.94827 6.4416-1.6155 1.0258-1.8654 0.98258-4.3388-0.74982zm26.871-323.59c0.30681-0.30682-0.25596-1.1585-1.2506-1.8927-1.416-1.0452-1.5625-1.5843-0.67512-2.4844 0.89401-0.90684 1.4474-0.88894 2.6206 0.0847 1.6731 1.3885 2.9279 0.53026 3.4303-2.3462 0.22409-1.2829 2.845-3.1394 8.2808-5.8655 4.3741-2.1937 8.6079-3.9885 9.4084-3.9885 2.0543 0 5.7664-2.7692 5.1181-3.8181-0.29718-0.48085-2.554-0.87427-5.0151-0.87427-2.9766 0-8.3197-1.414-15.958-4.2232-6.3159-2.3227-12.318-4.2232-13.338-4.2232-1.0201 0-3.6328 0.90791-5.806 2.0176-2.3946 1.2227-6.4424 2.1964-10.275 2.4715-3.6981 0.26547-6.7657 0.9864-7.3881 1.7363-0.58536 0.70531-2.4658 1.2824-4.1787 1.2824s-3.3328 0.35349-3.5999 0.78554c-0.86988 1.4075 2.3036 4.8453 4.4728 4.8453 2.601 0 14.858 5.9397 16.607 8.0482 1.6333 1.968 3.5039 5.1184 4.2447 7.1489 0.3189 0.87408 1.6982 1.7811 3.065 2.0156 2.991 0.51309 9.4584 0.0581 10.237-0.72013zm-12.733-3.4243c0.18496-0.55487 0.73748-1.0089 1.2278-1.0089 0.49035 0 1.0429 0.45399 1.2278 1.0089 0.18496 0.55488-0.36757 1.0089-1.2278 1.0089-0.86028 0-1.4128-0.45398-1.2278-1.0089zm19.059-35.593c24.249-2.6698 49.129-8.8122 62.103-15.332 9.055-4.5506 26.683-15.924 40.661-26.235 17.122-12.63 30.208-28.185 39.792-47.299 9.657-19.26 16.908-42.304 19.433-61.757 1.5427-11.884 1.5518-44.132 0.017-60.063-3.2744-33.987-13.555-71.827-28.302-104.17-1.6474-3.6131-4.3852-9.9479-6.084-14.077-4.0358-9.8097-9.8614-21.956-10.812-22.544-0.41305-0.25528-7.4372 0.36689-15.609 1.3826-35.261 4.3827-97.095 6.4218-146.54 4.8325-41.369-1.3297-57.961-2.3706-76.794-4.8175-7.8163-1.0156-14.674-1.8465-15.238-1.8465-1.0466 0-5.4092 8.1601-9.7838 18.3-1.3361 3.097-5.5639 12.81-9.3953 21.585-15.239 34.902-23.76 64.719-27.371 95.783-4.9671 42.725-3.0364 71.704 6.7122 100.74 14.134 42.104 29.094 60.933 69.757 87.799 21.648 14.303 31.325 18.453 54.811 23.506 13.203 2.8411 36.448 6.045 40.444 5.5746 1.5485-0.1823 7.0386-0.79643 12.2-1.3647zm43.17-350.09c30.594-1.313 49.224-2.6526 60.063-4.3188 14.389-2.212 13.974-2.783-3.7539-5.1599-10.679-1.4319-176.56-2.2023-201.3-0.93493-20.313 1.0405-34.427 2.7061-33.145 3.9112 2.4618 2.3146 31.3 4.9078 72.561 6.525 14.194 0.55634 28.764 1.1574 32.377 1.3356 9.2076 0.45428 47.542-0.25701 73.201-1.3582zm-7.5738 693.68c-346.25 70.002-173.13 35.001 0 0z"/>
<path id="path3350" fill="#5e5e5e" d="m450.94 911.63c-52.237-2.2474-92.245-9.2232-113.34-19.763-11.181-5.5852-15.992-12.265-14.318-19.883 0.98192-4.4706 2.7816-5.3895 5.8696-2.9967 6.5658 5.0876 22.617 13.769 32.954 17.823 9.9259 3.8931 34.759 9.5736 53.647 12.271 29.41 2.736 59.718 2.8779 81.262 1.8246 24.131-1.1974 41.549-3.6925 62.525-8.9569 15.989-4.0129 35.668-12.329 42.339-17.892 1.459-1.2167 3.1252-2.2122 3.7026-2.2122 0.57735 0 2.1939-1.0961 3.5922-2.4359l2.5425-2.4359 1.9666 1.9666c1.3875 1.3875 1.9666 3.1565 1.9666 6.0074 0 14.225-24.682 24.953-73.67 32.018-24.056 3.4696-67.296 5.6849-91.032 4.6637zm-1.0516-60.856c-0.28793-0.75031 0.33693-3.6639 1.3886-6.4746 6.3302-16.919 7.3714-32.648 8.2399-124.49 0.55888-59.095-0.42111-109.24-2.4853-127.16-2.2695-19.709-10.775-53.605-15.741-62.729-2.972-5.4605-14.032-16.019-23.407-22.345-3.7308-2.5175-12.6-7.9778-19.71-12.134-26.8-15.666-52.054-37.328-67.653-58.029-21.795-28.924-34.603-61.061-38.743-97.214-1.4005-12.228-1.3926-44.242 0.014-56.778 2.9327-26.138 11.476-59.981 24.284-96.194 8.7714-24.801 22.308-55.067 25.341-56.659 2.0085-1.0543 5.8926-1.6855 21.776-3.5392 10.259-1.1973 28.201-1.5642 94.317-1.929 91.073-0.50238 124.89 0.55079 143.91 4.4816l5.0118 1.036 4.4318 9.5353c18.145 39.04 34.43 91.215 40.616 130.13 1.8852 11.858 2.1592 16.927 2.1309 39.416-0.0352 27.97-1.2961 39.252-6.6078 59.124-8.6395 32.322-26.274 62.493-51.043 87.329-16.615 16.66-29.87 26.758-51.638 39.337-29.778 17.207-41.655 27.778-46.478 41.361-5.744 16.179-11.804 41.988-13.542 57.676-2.474 22.329-3.2669 55.661-3.2708 137.49-0.005 93.104 0.0697 94.531 5.7392 110.47 2.4586 6.9127 2.4201 9.6532-0.13562 9.6532-0.95141 0-1.4372-0.89607-1.4372-2.6511 0-1.4581-0.99126-5.5756-2.2028-9.1502-1.2115-3.5745-2.6874-9.2442-3.2798-12.599-1.2199-6.9094-3.9088-98.605-3.8941-132.79 0.0283-65.858 5.104-124.82 12.742-148.01 3.4821-10.575 0.30301-12.932-17.442-12.932-15.025 0-18.353 1.2866-18.201 7.0357 0.0545 2.0646 1.2395 8.8217 2.6333 15.016 3.2105 14.268 4.6882 25.071 6.8036 49.739 2.3515 27.422 2.3864 111.72 0.0694 167.52-1.8823 45.326-2.6809 54.563-5.3994 62.445-1.0611 3.0769-2.185 8.0226-2.4975 10.991-0.47004 4.4643-0.87432 5.3962-2.3409 5.3962-0.97499 0-2.0083-0.61389-2.2962-1.3642zm33.93-321.42c4.0192-1.0044 7.9641-2.4825 8.7662-3.2847 2.105-2.105-0.18627-1.9181-5.3809 0.43906-4.1774 1.8956-7.1178 2.4145-6.5302 1.1525 2.4258-5.2102 5.2842-7.9944 11.294-11.001 3.64-1.821 7.5117-3.3243 8.6037-3.3406 2.0318-0.0303 4.5216-1.9764 9.4933-7.42l2.8154-3.0827-3.2847 0.66662c-1.8066 0.36665-5.2353 1.2888-7.6194 2.0493-4.0602 1.2951-4.5645 1.2595-7.9632-0.56205-1.9956-1.0696-4.4015-1.9447-5.3464-1.9447-2.3627 0-4.3347-1.1644-8.6217-5.0912-2.2063-2.0209-3.313-3.6792-2.7778-4.1626 0.89766-0.81076 3.3362-1.326 22.944-4.848 18.442-3.3127 35.443-8.151 44.744-12.734 9.1162-4.4919 28.36-16.774 42.2-26.933 16.072-11.797 31.197-29.671 40.143-47.435 8.5838-17.045 16.362-40.851 19.062-58.339 1.8941-12.268 2.1442-51.961 0.4229-67.101-3.35-29.465-11.948-62.575-23.571-90.771-5.683-13.786-16.438-38.263-19.239-43.786l-2.5595-5.0472-5.3195 0.60675c-2.9257 0.33372-7.3893 0.87299-9.919 1.1984-3.3465 0.43045-4.418 0.2979-3.9331-0.48656 0.3665-0.593 1.9272-1.0782 3.4681-1.0782 4.5188 0 15.029-2.9504 14.649-4.1119-0.53604-1.6354-11.735-3.1948-30.7-4.2746-22.533-1.283-170.72-1.2859-193.33-0.004-18.435 1.0457-29.193 2.5795-29.744 4.2411-0.40393 1.2163 9.6265 4.1492 14.19 4.1492 1.7839 0 3.5285 0.46117 3.8768 1.0248 0.45129 0.73021-1.219 0.80619-5.8101 0.26432-3.5439-0.41828-8.1327-0.77387-10.197-0.7902l-3.7539-0.0297-5.1616 10.335c-2.8389 5.6845-6.8228 14.131-8.8532 18.77-2.0304 4.6388-5.3574 12.235-7.3934 16.88-22.185 50.619-32.177 113.32-25.498 160.01 2.5651 17.931 8.629 37.567 17.206 55.714 12.568 26.591 28.26 42.949 62.722 65.381 21.979 14.307 31.079 17.729 67.162 25.259 3.525 0.73555 5.3962 1.5908 5.3962 2.4664 0 0.925 1.0987 1.3404 3.5451 1.3404 4.1053 0 7.7166 2.1671 7.7166 4.6307 0 2.7256-1.9193 3.6305-8.7583 4.1293-4.1303 0.30127-7.0211 1.025-8.1405 2.0381-1.2204 1.1044-2.1988 1.3118-3.2951 0.69828-0.8576-0.47994-1.4158-1.2266-1.2406-1.6592 0.43477-1.0731-4.3542-2.2729-5.7151-1.4319-0.79181 0.48936-0.69287 1.0085 0.35849 1.8811 0.79867 0.66284 1.4521 1.9364 1.4521 2.8302 0 2.2455 4.2163 6.5915 6.3947 6.5915 2.6177 0 13.546 5.149 15.233 7.1772 2.2252 2.6753 4.0983 6.8256 3.397 7.5269-0.34638 0.3463-2.7389-0.35815-5.3167-1.5655-4.3885-2.0555-7.1201-2.0523-5.0619 0.006 1.54 1.54 14.609 4.521 20.193 4.6061 2.9026 0.0442 8.5659-0.74136 12.585-1.7458zm-47.39-385.82c-27.878-0.75918-56.262-2.3637-57.128-3.2294-0.25764-0.25764-0.25791-0.67896-0.00061-0.93626s17.326 0.37408 37.93 1.4031 45.342 1.873 54.973 1.8755c16.996 0.005 89.497-3.095 100.62-4.3018 3.9426-0.42759 5.333-0.30022 4.8716 0.44631-0.3551 0.57456-2.4156 1.0478-4.5788 1.0518s-6.467 0.4039-9.564 0.88889c-14.748 2.3096-86.851 3.8987-127.13 2.8019zm-68.076-4.6363c-0.70483-1.1404 3.9154-1.1404 6.5693 0 1.4592 0.62704 1.0015 0.82124-2.0562 0.87252-2.1632 0.0363-4.1942-0.35635-4.5132-0.87252z"/>
<path id="path3348" fill="#0e0e0e" d="m451.88 910.7c-45.804-2.248-73.869-6.1427-98.54-13.675-19.28-5.886-29.594-13.593-29.548-22.078 0.0251-4.587 1.2952-5.5561 4.2431-3.2374 1.4108 1.1097 3.3931 2.0177 4.4052 2.0177s2.9611 0.79229 4.3312 1.7606c3.7681 2.6632 19.017 10.141 26.17 12.833 12.396 4.6657 42.298 11.221 57.969 12.708 4.1293 0.39187 14.352 1.1541 22.716 1.6939 14.249-1.3606 32.175 1.4163 44.81 0.19058 4.6696-0.56603 15.036-1.4012 23.036-1.856 21.388-1.2157 47.088-6.3938 65.585-13.214 6.5586-2.4182 22.396-10.233 25.117-12.394 0.59254-0.47058 2.066-1.046 3.2743-1.2787s3.372-1.2919 4.8082-2.3537c3.2487-2.4018 4.448-1.733 4.448 2.4804 0 14.379-24.457 24.928-73.805 31.832-24.254 3.3932-67.629 5.62-89.021 4.5701zm-1.0511-60.859c-0.76589-1.9959 0.59221-3.884 1.6233-2.2567 1.1067 1.7465 1.0382 3.6195-0.13239 3.6195-0.53237 0-1.2033-0.61324-1.4909-1.3628zm35.32-1.6873c0.0109-2.3145 0.23377-2.7106 0.92411-1.6423 1.1921 1.8446 1.1921 4.6924 0 4.6924-0.51616 0-0.93201-1.3725-0.92411-3.05zm-29.479-18.734c4.5281-22.26 5.4956-200.96 1.287-237.7-1.958-17.095-9.7505-48.942-14.537-59.411-4.7044-10.289-18.384-22.015-42.036-36.034-44.314-26.266-70.051-52.43-89.82-91.312-9.6413-18.962-16.108-41.074-18.802-64.286-1.3387-11.537-1.3449-45.792-0.0104-57.247 1.3947-11.971 4.2006-27.07 7.6736-41.293 3.2882-13.466 3.4339-13.965 11.222-38.478 9.3942-29.565 26.929-71.259 30.554-72.65 2.3517-0.90245 3.134-0.63673 2.5565 0.86833-0.29963 0.78082-0.0645 1.9984 0.52265 2.7058 0.81588 0.98308 0.74209 1.411-0.31316 1.8159-1.3823 0.53045-4.2475 6.1833-12.923 25.498-24.582 54.724-32.45 83.262-36.477 132.3-3.1847 38.783 3.4394 74.626 19.951 107.95 12.382 24.993 25.925 39.14 57.998 60.586 20.997 14.04 31.449 18.784 53.493 24.281 8.0786 2.0144 9.8043 2.7488 9.5782 4.0766-0.22502 1.3216 0.4657 1.6251 3.7539 1.6494 2.2163 0.0164 4.8494 0.6499 5.8514 1.4077 1.058 0.80024 3.8622 1.3779 6.689 1.3779 5.6152 0 8.0719 1.7696 5.9709 4.3012-1.0304 1.2416-3.1698 1.4379-13.019 1.1948-13.55-0.33443-15.033 0.10181-12.272 3.6117 1.0414 1.3239 1.8935 2.855 1.8935 3.4024 0 1.773 4.9882 6.2595 6.9595 6.2595 3.5376 0 14.367 5.8778 16.036 8.7041 0.87317 1.4782 1.3763 2.8989 1.118 3.1571-0.25825 0.25826-2.635-0.46199-5.2816-1.6006-5.1904-2.2329-6.1978-2.0665-5.266 0.86948 0.59338 1.8696 4.6055 3.744 12.242 5.7194 9.7174 2.5136 28.946-0.46735 33.367-5.1727 3.0892-3.2883 0.43918-3.8973-5.6189-1.2911-2.6467 1.1386-5.0566 1.8258-5.3553 1.5271-0.29869-0.29868 0.3847-1.846 1.5186-3.4384 2.4112-3.3862 9.5056-7.2297 14.952-8.1007 2.9147-0.46608 5.2796-1.944 9.9316-6.2067 3.3583-3.0772 6.106-6.0261 6.106-6.553 0-0.55484-1.2836-0.75355-3.05-0.47218-15.627 2.4893-16.69 2.5838-18.45 1.642-1.0113-0.54122-3.0527-0.98403-4.5364-0.98403-6.5204 0-8.186-6.203-2.118-7.8881 1.8066-0.50165 3.544-1.2925 3.8611-1.7574 0.31702-0.46491 7.2852-2.2334 15.485-3.93 28.886-5.9767 38.35-9.9557 63.133-26.543 26.754-17.906 36.887-27.12 48.22-43.844 13.44-19.833 25.288-51.262 29.024-76.986 1.5746-10.844 1.5672-51.806-0.0118-65.693-3.8467-33.832-13.687-68.498-29.704-104.64-10.966-24.745-13.265-29.668-15.155-32.453-1.2096-1.7825-1.7212-3.4593-1.2754-4.1806 0.4094-0.66243 0.53892-1.7398 0.28782-2.3941-0.56311-1.4675 2.9965-0.71155 4.1737 0.8863 1.2494 1.696 9.1289 19.018 12.867 28.288 12.884 31.946 26.134 76.471 30.022 100.89 0.86304 5.4197 1.9914 12.177 2.5074 15.016 1.8099 9.9567 2.0961 45.336 0.47826 59.124-3.5958 30.647-10.965 54.293-23.834 76.478-10.591 18.258-19.642 30.1-33.847 44.282-15.094 15.07-29.104 25.56-51.589 38.63-6.3361 3.6829-14.782 8.8837-18.77 11.557-10.077 6.7569-22.132 18.95-25.017 25.303-5.5468 12.215-13.304 43.226-15.466 61.832-2.1154 18.201-3.0068 47.399-3.6388 119.19-0.67163 76.291-1.2964 78.619-2.5186 9.3848-1.3852-78.468 3.1012-144.59 11.8-173.91 2.3443-7.9018 2.0618-10.697-1.3361-13.223-2.4213-1.8-3.8907-1.9698-17.052-1.9698-13.951 0-14.478 0.0713-16.824 2.2752-2.6252 2.4663-3.1617 6.4491-1.4685 10.903 1.4103 3.7093 5.3937 24.115 6.4959 33.277 0.52784 4.3874 1.6829 16.423 2.5668 26.747 4.1849 48.875 0.30391 222.33-5.0953 227.73-0.47391 0.47391-0.32153-1.7936 0.33861-5.0389zm65.596-333.9c0.31901-0.51616 0.1577-0.93847-0.35847-0.93847-0.51616 0-1.1995 0.42231-1.5185 0.93847-0.31901 0.51617-0.15769 0.93848 0.35847 0.93848s1.1995-0.42231 1.5185-0.93848zm-41.6 331.88c-0.60539-3.2855-1.0302-11.415-0.94406-18.066l0.15662-12.092 0.6478 13.139c0.35629 7.2263 0.97369 15.356 1.372 18.066 1.0193 6.9348 0.0934 6.1483-1.2324-1.0467zm-70.79-701.39c2.1937-0.19757 5.7834-0.19757 7.9771 0 2.1937 0.19759 0.39885 0.35925-3.9885 0.35925s-6.1822-0.16166-3.9885-0.35925zm118.72 0.004c1.9356-0.20247 5.103-0.20247 7.0386 0s0.35193 0.36812-3.5193 0.36812-5.4549-0.16565-3.5193-0.36812z"/>
</g>
</svg>
