<?xml version="1.0" encoding="UTF-8" standalone="no"?>
<!-- Created with Inkscape (http://www.inkscape.org/) -->
<svg id="svg3573" xmlns:rdf="http://www.w3.org/1999/02/22-rdf-syntax-ns#" xmlns="http://www.w3.org/2000/svg" height="937.5" viewBox="0 0 937.5 937.5" width="937.5" version="1.1" xmlns:cc="http://creativecommons.org/ns#" xmlns:dc="http://purl.org/dc/elements/1.1/">
<metadata id="metadata3579">
<rdf:RDF>
<cc:Work rdf:about="">
<dc:format>image/svg+xml</dc:format>
<dc:type rdf:resource="http://purl.org/dc/dcmitype/StillImage"/>
<dc:title/>
</cc:Work>
</rdf:RDF>
</metadata>
<g id="g3583">
<path id="path3595" fill="#fdfdfd" d="m0 468.75v-468.75h468.75 468.75v468.75 468.75h-468.75-468.75v-468.75z"/>
<path id="path3593" fill="#cfcfcf" d="m453.65 897.71c-0.29764-0.29764-10.838-0.92393-23.424-1.3918-12.585-0.46783-24.992-1.3587-27.57-1.9798-13.604-3.2771-25.886-8.6812-30.223-13.298-2.9712-3.1627-4.9328-9.5033-4.9328-15.945 0-3.0823-0.4436-11.572-0.98577-18.866-0.54219-7.2943-1.371-21.489-1.8418-31.544-2.3914-51.074-2.8904-60.258-3.7437-68.906-0.50878-5.1562-1.149-19.922-1.4228-32.812-0.27376-12.891-0.92709-27.867-1.4518-33.281-0.52474-5.4141-1.3992-20.18-1.9433-32.812-1.8757-43.553-3.9952-81.715-5.4931-98.906-0.49423-5.6719-1.1268-19.172-1.4056-30-0.27888-10.828-0.91328-22.43-1.4098-25.781-0.49649-3.3516-1.3679-18.117-1.9364-32.812-0.95551-24.697-1.6665-41.342-4.5247-105.94-0.58181-13.148-1.4731-26.762-1.9807-30.252-0.50759-3.49-0.91922-9.8182-0.91472-14.062 0.005-4.2443-0.69419-13.363-1.5526-20.263-1.4776-11.877-1.4733-12.708 0.0794-15.592 0.90209-1.6751 2.55-3.4615 3.662-3.9698 7.118-3.2539 8.8805-3.3056 126.71-3.7237 63.938-0.22684 118.55-0.1271 121.36 0.22166 4.0582 0.50396 5.7417 1.2697 8.2031 3.7311 3.6304 3.6304 3.8085 5.5528 1.6071 17.347-0.81807 4.3828-1.865 15.984-2.3265 25.781-0.4615 9.7969-1.4816 30.891-2.267 46.875-0.78533 15.984-1.8336 41.086-2.3295 55.781-0.49589 14.695-1.1125 30.305-1.3702 34.688-0.62047 10.552-3.0579 68.312-4.1737 98.906-0.48896 13.406-1.3367 30.914-1.8839 38.906-0.91712 13.395-1.9641 33.7-3.9156 75.938-0.41691 9.0234-1.1949 29.062-1.7289 44.531-0.53397 15.469-1.1775 31.5-1.4301 35.625-1.0431 17.036-3.3306 67.448-4.2326 93.281-0.53115 15.211-1.4541 29.766-2.0511 32.344-1.5435 6.6662-4.7995 11.301-10.501 14.948-5.3848 3.4446-18.015 7.6764-25.46 8.5302-2.5763 0.29546-6.3716 0.94571-8.4341 1.445-6.1126 1.4797-71.602 4.4117-72.757 3.2574zm32.913-9.0266c29.459-2.0052 26.079-2.4128-20.565-2.4802-33.355-0.0482-46.767 0.22044-45.532 0.91194 2.3488 1.3145 35.585 3.4785 45.002 2.9302 4.125-0.24017 13.617-0.85303 21.094-1.3619zm-43.51-12.95c2.0316-1.5981 4.1618-1.7841 21.71-1.8965 12.213-0.0782 23.123-0.67162 29.302-1.5939 5.4141-0.80815 11.455-1.5368 13.424-1.6192 2.1865-0.0915 3.9081-0.73488 4.4227-1.6529 0.46342-0.82668 1.0776-21.553 1.3649-46.058l0.5223-44.555-10.101 1.8229c-16.699 3.0136-36.628 4.295-48.539 3.1211-5.6719-0.55901-10.867-1.3605-11.545-1.7812-0.67803-0.42065-1.1448-1.8831-1.0374-3.25 0.1075-1.3668-0.14317-3.2808-0.55704-4.2532-1.4735-3.4622 0.65964-4.8399 6.6976-4.3257 9.8454 0.83841 24.08 0.45671 32.142-0.86187 6.3859-1.0444 8.4206-1.7992 10.686-3.9641 1.539-1.4707 3.7902-2.674 5.0028-2.674 3.315 0 3.0026-3.5505-0.37341-4.2435-1.418-0.29108-4.1036-0.93193-5.9682-1.4241-1.8645-0.49218-5.1473-0.89487-7.295-0.89487-2.7157 0-4.0804-0.45711-4.481-1.5009-0.85973-2.2404 1.3881-3.1563 7.7856-3.1723 5.7227-0.0143 6.9344-0.60673 8.1348-3.9775 0.53654-1.5066-1.0786-1.6199-23.196-1.6272-13.075-0.005-24.813-0.40343-26.085-0.88695-2.7778-1.0561-3.5055-2.7068-3.5055-7.9515 0-7.2911-1.7232-6.928 36.094-7.6053 18.562-0.3325 36.949-0.67881 40.859-0.7696 6.8745-0.15963 10.888-1.631 9.6991-3.5553-0.2835-0.45871 0.14173-4.3133 0.94495-8.5656 0.80323-4.2524 1.6918-9.3137 1.9745-11.247 0.37099-2.5369 0.97369-3.5156 2.165-3.5156 1.4642 0 1.8397-2.0946 3.32-18.516 0.91799-10.184 1.8018-21.047 1.964-24.141 0.16222-3.0938 0.74987-10.055 1.3059-15.469 0.55601-5.4141 1.4453-15.75 1.9762-22.969 0.5309-7.2188 1.3963-14.812 1.9231-16.875 0.52679-2.0625 1.1531-7.5469 1.3917-12.188 0.23864-4.6406 0.62367-10.758 0.85562-13.594 0.23194-2.8359 0.87883-12.328 1.4375-21.094 0.55869-8.7656 1.4113-19.102 1.8946-22.969 0.85882-6.8709 2.3839-23.398 3.8066-41.25 1.2035-15.102 3.567-38.596 4.5272-45 0.50246-3.3516 1.3846-14.742 1.9602-25.312 0.57565-10.57 1.4255-21.328 1.8885-23.906 0.463-2.5781 0.8517-6.7318 0.86378-9.2303 0.0121-2.4986 0.39349-7.772 0.84758-11.719 0.4541-3.9468 0.81231-8.8634 0.79602-10.926-0.0163-2.0625 0.45901-7.5469 1.0562-12.188 0.59719-4.6406 1.27-12.023 1.4952-16.406 0.22517-4.3828 0.89544-14.297 1.4895-22.031 0.59406-7.7344 0.94869-16.594 0.78807-19.688-0.26959-5.1926-0.4722-5.6503-2.6358-5.9539-1.2891-0.18089-2.5547-0.65693-2.8125-1.0579-0.25781-0.40093-3.7972-1.1706-7.8652-1.7104-6.7937-0.90148-11.242-2.9518-9.7156-4.4783 0.92843-0.92843 13.885-3.2035 18.251-3.2047 2.9464-0.00083 4.1982-0.46231 4.9219-1.8145 0.53376-0.99735 0.97048-2.0029 0.97048-2.2345 0-2.9874-113.13-5.7608-138.75-3.4014-5.4141 0.49861-15.961 1.1106-23.438 1.36-43.036 1.4355-42.182 1.3414-43.506 4.7925-0.70607 1.84 1.5689 4.6432 5.3588 6.6031 3.1016 1.6039 3.2135 5.2424 0.17848 5.8006-3.2963 0.60624-4.2354 2.0338-3.712 5.6432 0.27167 1.8734 1.109 10.367 1.8607 18.875 0.75171 8.5078 1.7938 19.688 2.3158 24.844 0.52199 5.1562 1.149 12.328 1.3933 15.938 0.51979 7.679 3.0168 36.599 4.2091 48.75 0.45538 4.6406 1.2945 13.711 1.8647 20.156 0.57022 6.4453 1.8903 20.789 2.9335 31.875s2.2944 25.008 2.7804 30.938c0.48604 5.9297 1.4952 17.32 2.2426 25.312 0.74739 7.9922 2.0034 22.758 2.7912 32.812 0.78775 10.055 1.8548 22.289 2.3712 27.188 1.4804 14.041 5.4752 57.375 6.5253 70.781 0.52501 6.7031 1.4403 18.727 2.034 26.719 0.59369 7.9922 1.4623 15.164 1.9303 15.938 1.1552 1.9092 0.3217-14.242-2.0804-40.312-1.0689-11.602-2.5209-28.688-3.2266-37.969-0.70571-9.2812-1.9364-24.68-2.7348-34.219-2.002-23.917-3.2898-42.208-3.1684-45 0.0561-1.2891-0.19256-6.4788-0.55243-11.533-0.86037-12.083 0.0376-14.924 3.5931-11.369 1.8588 1.8588 1.887 3.2143 0.0669 3.2143-1.7666 0-1.8182 3.0396-0.10834 6.3747 0.71385 1.3924 1.2939 3.688 1.2891 5.1014-0.005 1.4134 0.51573 3.8362 1.1569 5.3841 0.64115 1.5479 0.95117 3.6348 0.68894 4.6376s-0.12686 6.3846 0.30083 11.96c2.3512 30.649 2.8697 36.331 3.6848 40.383 0.49139 2.4425 1.334 9.8958 1.8726 16.563 0.53851 6.6671 1.6062 16.37 2.3726 21.562 1.6809 11.388 3.8623 31.311 5.6528 51.628 0.72706 8.25 1.7549 16.526 2.284 18.39 0.52916 1.8645 0.9621 4.3008 0.9621 5.414 0 2.8358 3.4135 12.239 5.1325 14.138 0.79294 0.8762 1.43 3.2951 1.43 5.4296 0 6.174 1.2593 8.2689 6.0763 10.109 2.3785 0.90836 4.7266 2.4027 5.2179 3.3207 1.3444 2.512 1.0731 9.6272-0.44584 11.691-1.1907 1.6181-1.1186 2.0558 0.65015 3.9483 1.765 1.8885 1.8631 2.4774 0.87038 5.2228-0.6154 1.7019-1.1189 4.2137-1.1189 5.5818 0 1.8064-0.75736 2.8791-2.7659 3.9178-1.5213 0.78668-3.3391 1.4303-4.0396 1.4303-0.70049 0-2.0925 0.66162-3.0934 1.4703-1.7018 1.3749-1.5538 1.4338 2.2832 0.90745 6.8214-0.93569 11.576 4.156 6.7158 7.1914-1.6843 1.0519-1.7139 1.284-0.35505 2.7855 3.6686 4.0538-1.8652 5.8471-9.5263 3.0871-2.0625-0.74303-4.2038-1.3573-4.7585-1.3651-1.3083-0.0183-0.81895 37.338 0.64665 49.368 0.79016 6.4854 0.77494 10.168-0.0619 14.973-0.86159 4.9476-0.85295 8.5795 0.0386 16.243 1.492 12.824 2.9877 15.507 9.0523 16.242 2.4517 0.29699 5.7233 1.1322 7.2702 1.856 3.4762 1.6266 7.3924 3.343 7.8209 3.4278 0.17649 0.0349 1.3346-0.73391 2.5735-1.7084zm0.44265-125.19c-0.66167-0.79727-0.95814-2.0878-0.65883-2.8678 0.70508-1.8374 8.9128-1.935 11.374-0.13534 1.7101 1.2505 1.7087 1.3069-0.0552 2.2349-3.6224 1.9058-9.3721 2.3202-10.66 0.76822zm-55.76-271.35c-0.40385-0.65344-0.48109-1.4412-0.17165-1.7507 0.83903-0.83902 1.7538 0.39497 1.3007 1.7545-0.31755 0.95266-0.53838 0.95192-1.129-0.004zm-3.1762-41.845c0.0191-1.5469 0.22921-2.0662 0.46691-1.154 0.23769 0.91215 0.22206 2.1778-0.0348 2.8125-0.25681 0.63471-0.45129-0.1116-0.43218-1.6585zm-2.05-13.12c0-1.3975 0.40369-2.2049 0.9375-1.875 0.51562 0.31867 0.9375 1.1624 0.9375 1.875 0 0.71258-0.42188 1.5563-0.9375 1.875-0.53381 0.32992-0.9375-0.47746-0.9375-1.875zm152.64-145.49c0.67675-0.27081 1.4854-0.23751 1.7969 0.074 0.31152 0.31152-0.2422 0.5331-1.2305 0.4924-1.0921-0.045-1.3143-0.26713-0.56641-0.5664zm-135.76 505.02c0-1.25-0.625-1.875-1.875-1.875-2.0645 0-2.1314 0.11608-1.306 2.2671 0.81522 2.1244 3.181 1.8328 3.181-0.39207zm-1.875-8.9062c0-2.7844 1.5145-3.81 3.362-2.2767 0.92337 0.76632 1.7218 0.84912 2.3293 0.24155 0.60758-0.60758-1.5138-2.4143-6.1891-5.2711-6.6835-4.0839-6.9685-4.1743-4.7142-1.4952 1.7518 2.0819 2.3994 3.9286 2.3994 6.8421 0 2.1948 0.26978 4.2604 0.59951 4.5901 1.0533 1.0533 2.213-0.32531 2.213-2.6308zm111.09-2.4001c5.5203-1.4476 6.4159-1.809 5.86-2.365-0.53533-0.53534-11.016 2.2776-11.016 2.9566 0 0.60701 1.0409 0.48758 5.1562-0.59161zm-136.38-44.895c-0.56614-1.0578-1.6406-1.9234-2.3876-1.9234-1.0705 0-0.91455 0.84406 0.7361 3.9844 1.7636 3.3552 2.1406 3.659 2.3876 1.9234 0.16129-1.1336-0.16997-2.9265-0.73611-3.9844zm182.79 1.37c2.6499-2.8207 3.3816-2.9161 4.0076-0.52259 0.37631 1.439 0.97296 1.6849 2.8435 1.1719 7.0632-1.9373 8.0324-8.3528 10.933-72.368 0.47894-10.57 1.3136-27.445 1.8547-37.5 0.54116-10.055 1.4274-29.039 1.9694-42.188 0.54203-13.148 1.3726-31.289 1.8457-40.312 0.47312-9.0234 1.2941-26.531 1.8244-38.906 0.53033-12.375 1.3821-28.195 1.8928-35.156 0.51073-6.9609 1.1643-21.516 1.4524-32.344 0.28807-10.828 0.90422-23.273 1.3692-27.656 1.3616-12.834 2.1059-35.874 1.1396-35.277-1.4896 0.92064-2.8143 18.004-5.8253 75.12-0.54364 10.312-1.6254 26.548-2.4039 36.078-2.3029 28.192-4.192 59.054-5.0002 81.683-0.41637 11.659-0.99 21.575-1.2747 22.036-0.28472 0.4607-0.98123 6.7417-1.5478 13.958-0.56655 7.2161-1.4661 17.339-1.9991 22.495-0.53293 5.1562-1.1526 12.328-1.3771 15.938-0.66309 10.663-1.1328 14.235-2.0985 15.961-0.60071 1.0734-0.57164 2.5322 0.0851 4.2721 0.82566 2.1874 0.69054 2.981-0.78518 4.6117-1.1784 1.3021-1.7065 3.0977-1.5583 5.2984 0.1233 1.8308-0.17885 3.8144-0.67145 4.408-0.49261 0.59355-1.3732 7.1952-1.9569 14.67-1.1244 14.4-3.336 28.291-4.9998 31.404-0.55123 1.0312-1.2994 3.5625-1.6625 5.625-0.36314 2.0625-0.97093 5.1211-1.3507 6.7969-0.83331 3.6775 0.27704 3.9145 3.294 0.70313zm-172.26-12.85c-0.54403-0.66639-1.2197-4.7976-1.5014-9.1804-0.57722-8.9799-1.8799-17.846-3.2368-22.031-0.50157-1.5469-1.4578-4.7109-2.1248-7.0312-1.6044-5.5805-1.8514-5.9669-3.0492-4.7692-0.56055 0.56055-1.3567 1.0192-1.7692 1.0192-1.2828 0-0.81147-5.9537 0.70087-8.8539 1.1614-2.2273 1.3232-4.7612 0.83788-13.125-0.3308-5.7007-1.1598-13.727-1.8421-17.836-0.68239-4.1091-1.0515-7.7773-0.82026-8.1515 0.47908-0.77516-2.2557-34.831-3.0554-38.049-0.28831-1.1602-0.95199-2.1094-1.4748-2.1094-0.54894 0-0.46046-0.59065 0.20935-1.3977 0.77381-0.93238 0.95068-2.7937 0.53125-5.5907-0.34583-2.3061-0.8247-7.4779-1.0641-11.493-0.23945-4.015-0.60532-8.5655-0.81305-10.112-0.20772-1.5469-0.41015-3.5508-0.44983-4.4531-0.0397-0.90234-0.38857-1.5352-0.77529-1.4062-0.74685 0.24896-1.1719-0.53616-1.1719-2.1647 0-0.54606 0.48772-0.6914 1.0838-0.32299 0.7853 0.48535 0.91726-0.33861 0.47907-2.9915-0.33262-2.0138-0.6094-6.3265-0.61507-9.5839-0.01-5.6299-0.10983-5.891-2.0239-5.2834-1.8084 0.57397-1.9596 0.36546-1.4831-2.0462 0.29177-1.4769-0.0245-5.2166-0.70282-8.3103-0.67832-3.0938-1.2706-4.5703-1.3161-3.2812-0.1545 4.3718 1.732 34.144 3.1485 49.688 1.5076 16.543 3.1798 41.431 3.811 56.719 0.21289 5.1562 0.6009 14.438 0.86223 20.625 0.26133 6.1875 0.96656 14.625 1.5672 18.75 0.60062 4.125 1.1671 16.007 1.2589 26.403l0.16686 18.903 2.7411 3.2945c1.5076 1.812 3.0776 3.3249 3.4887 3.3622 1.1679 0.10575-0.0933-13.679-1.8119-19.804-1.2465-4.4425-1.3302-5.9894-0.43083-7.9633 0.7289-1.5998 1.4349-2.131 2.0349-1.5311 1.2089 1.2089 2.9884 12.384 2.3567 14.799-0.27146 1.038 0.55981 5.2218 1.8472 9.2972 2.8059 8.8824 3.132 9.488 4.4162 8.2038 0.68094-0.68094 0.67799-1.3487-0.01-2.1911zm-11.326-36.502c0.1657-1.731 0.72314-3.0418 1.2388-2.9129 1.3929 0.34824 1.1358 5.1683-0.30127 5.6473-0.89848 0.29949-1.156-0.45163-0.9375-2.7344zm167.65 38.048c0-0.28794 0.40724-3.3465 0.90499-6.7969 2.4996-17.327 3.7825-28.639 4.1271-36.39 0.40787-9.1743-0.59941-13.435-1.6391-6.9339-0.34151 2.1357-0.37091 4.2876-0.0653 4.782 0.30557 0.49442 0.07 2.3701-0.52335 4.1681-0.59341 1.7981-1.2455 6.7468-1.4491 10.997-0.34211 7.1414-1.3826 16.946-2.8348 26.712-0.3927 2.6412-0.24318 3.9844 0.44354 3.9844 0.56978 0 1.036-0.23559 1.036-0.52355zm5.625-58.126c0-0.74301-0.42188-1.3509-0.9375-1.3509-0.51563 0-0.9375 0.86865-0.9375 1.9303 0 1.0617 0.42187 1.6696 0.9375 1.3509 0.51562-0.31867 0.9375-1.1873 0.9375-1.9303zm-186.87-150.65c-0.26007-0.64453-0.47287-0.11718-0.47287 1.1719s0.2128 1.8164 0.47287 1.1719c0.26007-0.64453 0.26007-1.6992 0-2.3438zm3.1006 0c-0.0227-2.4236-0.21476-2.7277-0.93899-1.4868-0.50078 0.85802-0.65375 2.2291-0.33995 3.0469 0.88198 2.2984 1.3102 1.7761 1.2789-1.5601zm-3.0752-44.531c-0.23581-0.90234-0.42875-0.16406-0.42875 1.6406s0.19294 2.543 0.42875 1.6406c0.2358-0.90234 0.2358-2.3789 0-3.2812zm-0.0253-16.406c-0.26007-0.64453-0.47286-0.11718-0.47286 1.1719s0.21279 1.8164 0.47286 1.1719c0.26008-0.64453 0.26008-1.6992 0-2.3438zm-0.91797-19.629c-0.29927-0.74787-0.52142-0.52573-0.5664 0.56641-0.0407 0.98827 0.18087 1.542 0.4924 1.2305 0.31152-0.31153 0.34482-1.1201 0.074-1.7969zm-3.75-3.75c-0.29927-0.74787-0.52142-0.52573-0.5664 0.56641-0.0407 0.98827 0.18087 1.542 0.4924 1.2305 0.31152-0.31153 0.34482-1.1201 0.074-1.7969zm2.8448-4.2644c-0.21549-1.4251-0.39756-0.48165-0.4046 2.0965-0.007 2.5781 0.16928 3.7441 0.3918 2.591 0.22253-1.1531 0.22829-3.2624 0.0127-4.6875zm-3.3951-4.6734c-0.8846-1.5198-0.97319-1.4874-0.99916 0.36511-0.0157 1.118 0.28409 2.8055 0.66615 3.75 0.62546 1.5462 0.72498 1.5099 0.99916-0.36511 0.16749-1.1453-0.13228-2.8328-0.66615-3.75zm2.4479-13.61c-0.22424-1.1662-0.41623-0.43281-0.42663 1.6297s0.17307 3.0166 0.40771 2.1203c0.23465-0.89634 0.24316-2.5838 0.0189-3.75zm-0.6631-12.375c0-1.7076-0.47412-2.2498-1.875-2.1442-2.312 0.17415-2.4094 1.4736-0.23438 3.1247 2.1553 1.6361 2.1094 1.6574 2.1094-0.98043zm-3.4227-14.824c-0.90264-3.2641-2.4578-1.7019-1.8666 1.875 0.3196 1.9336 0.63855 4.5703 0.70875 5.8594 0.0741 1.3597 0.43917 0.57245 0.86958-1.875 0.40806-2.3203 0.53776-4.957 0.28824-5.8594zm235.96-17.029c-0.64668-1.7469-0.7951-1.6325-1.3891 1.07-0.36579 1.6642-0.34729 3.9845 0.0412 5.1562 0.64941 1.9592 0.76106 1.8732 1.3891-1.07 0.37562-1.7602 0.35712-4.0805-0.0411-5.1562zm-238.46-6.8777c-0.22-0.91-0.41-0.17-0.41 1.63 0 1.8047 0.19294 2.543 0.42875 1.6406 0.2358-0.90234 0.2358-2.3789 0-3.2812zm238.12-0.41015c-0.29927-0.74787-0.52142-0.52573-0.5664 0.56641-0.0407 0.98827 0.18087 1.542 0.49239 1.2305 0.31152-0.31153 0.34482-1.1201 0.074-1.7969zm1.116-9.4336-0.11859-7.7344-0.83793 6.54c-0.78349 6.1152-0.60169 8.9288 0.57694 8.9288 0.274 0 0.44481-3.4805 0.37958-7.7344zm-240.18-14.941c-0.29927-0.74787-0.52142-0.52573-0.5664 0.56641-0.0407 0.98827 0.18087 1.542 0.49239 1.2305 0.31152-0.31153 0.34482-1.1201 0.074-1.7969zm240.94 0c-0.29927-0.74787-0.52142-0.52573-0.5664 0.56641-0.0407 0.98827 0.18087 1.542 0.49239 1.2305 0.31152-0.31153 0.34482-1.1201 0.074-1.7969z"/>
<path id="path3591" fill="#afafaf" d="m450.8 896.74c-0.29129-0.29127-10.4-0.91235-22.463-1.3802-14.622-0.56704-23.965-1.3627-28.027-2.3868-14.834-3.7398-26.062-9.5975-29.397-15.337-2.3082-3.9721-2.9395-12.83-7.1936-100.92-0.52293-10.828-1.3733-24.328-1.8898-30-0.51643-5.6719-1.377-23.18-1.9125-38.906-0.53541-15.727-1.3121-34.078-1.726-40.781-0.4139-6.7031-1.2509-23.578-1.86-37.5-0.60913-13.922-1.5185-28.688-2.0209-32.812-0.95112-7.8098-2.1082-30.391-3.7229-72.656-0.52202-13.664-1.3439-27.586-1.8263-30.938-0.48246-3.3516-1.3369-17.273-1.8988-30.938-2.0673-50.27-3.7664-88.026-4.5989-102.19-0.46977-7.9922-1.3209-23.812-1.8914-35.156-0.57048-11.344-1.4424-24.211-1.9376-28.594-2.3062-20.41-2.2998-20.913 0.30277-24.006 1.6445-1.9544 3.8284-3.1639 7.0592-3.9096 12.548-2.8965 235.05-4.0961 245.3-1.3225 2.0625 0.55814 4.7503 2.1745 5.9729 3.5919 2.4963 2.8941 2.4754 5.1248-0.21779 23.302-0.76397 5.1562-1.6371 18.656-1.9404 30-0.30326 11.344-0.95826 26.32-1.4556 33.281-0.86469 12.103-1.8843 33.447-3.8965 81.562-1.7361 41.514-3.5066 85.791-4.4424 111.09-0.51486 13.922-1.1924 28.266-1.5057 31.875-0.90602 10.438-3.2279 62.42-6.9722 156.09-0.50496 12.633-1.37 29.93-1.9223 38.438-1.1869 18.283-1.4158 23.366-2.7452 60.938-0.55644 15.727-1.439 30.397-1.9613 32.601-2.4128 10.181-10.356 16.43-25.896 20.372-5.0736 1.287-10.633 2.3401-12.355 2.3401-1.7215 0-3.8574 0.38927-4.7464 0.86504-2.9172 1.5612-74.837 4.7463-76.208 3.375zm49.822-7.9756c13.453-1.3264 14.528-1.6056 13.047-3.3896-0.89814-1.0822-2.0964-1.2571-5.0046-0.73064-2.103 0.38074-23.406 0.72201-47.339 0.75839-31.474 0.0478-43.613 0.35942-43.869 1.126-0.87231 2.6164 19.088 4.0642 49.416 3.5845 13.148-0.20796 28.336-0.81486 33.75-1.3487zm-57.012-11.892c1.4728-1.3328 4.6171-1.6116 21.168-1.8767 10.691-0.17125 24.401-0.96479 30.466-1.7634 6.0656-0.79863 11.468-1.18 12.006-0.84753 2.1261 1.314 5.4173-0.52099 6.3778-3.5559 0.58201-1.839 0.92437-14.2 0.86339-31.172-0.0987-27.464 0.71318-55.543 1.7009-58.828 0.6261-2.0824-0.12268-2.0722-11.014 0.14895-8.6295 1.7599-23.962 3.5272-35.025 4.0372-8.213 0.37858-24.635-1.1633-25.666-2.4099-0.48814-0.5902-0.90293-2.1278-0.92175-3.4168-0.0188-1.2891-0.16152-3.3984-0.31713-4.6875-0.2593-2.1478-0.008-2.3219 2.9983-2.0828 1.8047 0.14354 9.1875 0.31583 16.406 0.38286 16.161 0.15005 26.92-1.7445 30.24-5.3249 1.2294-1.3259 3.2224-2.3502 4.5728-2.3502 1.5821 0 2.5552-0.61783 2.8701-1.8223 0.26209-1.0023 1.3828-1.9692 2.4904-2.1487 1.7105-0.27726-4.9102-2.035-19.08-5.0656-3.2787-0.70122-3.2774-0.70229 1.6347-1.3544 8.0383-1.0672 9.6153-1.6669 9.6153-3.6563 0-2.0049 2.575-3.7651 5.508-3.7651 1.0347 0 2.0773-0.31641 2.3168-0.70313 0.23954-0.38671-12.212-0.56924-27.669-0.4056-32.876 0.34803-32.656 0.39674-32.656-7.2356 0-2.5128 0.52824-4.9895 1.1795-5.53 0.75497-0.62657 11.974-1.0434 31.172-1.1581 16.496-0.0986 32.744-0.62291 36.107-1.1652 5.2033-0.83897 6.9363-0.72767 11.623 0.7465l5.508 1.7325 2.0059-2.5157c1.1033-1.3836 2.9296-2.5157 4.0585-2.5157 4.2175 0 5.4254-4.1827 9.069-31.406 0.90284-6.7456 1.669-20.926 1.9136-35.415 0.22435-13.291 0.60086-24.477 0.83668-24.859 0.23583-0.38158 0.73652-8.7025 1.1127-18.491 0.37612-9.7885 0.88599-19.274 1.133-21.078 0.24705-1.8047 0.38536-6.5987 0.30737-10.653-0.0802-4.1652 0.30318-7.9084 0.88113-8.6048 0.56262-0.67792 1.4159-6.8526 1.8961-13.722 0.48025-6.869 1.0848-13.694 1.3435-15.166 0.36929-2.102 0.16902-2.5614-0.93227-2.1388-1.0158 0.3898-1.4026-0.11138-1.4026-1.8172 0-1.7232 0.44036-2.2815 1.6406-2.08 2.3964 0.40237 2.8288-9.44 0.61925-14.096-1.354-2.8534-1.4391-4.1961-0.57168-9.0216 0.56052-3.1181 1.0043-6.3021 0.98612-7.0755-0.13053-5.5634 4.1088-48.146 5.6467-56.719 0.55498-3.0938 1.4276-9.5996 1.9392-14.457 0.51158-4.8579 1.4225-9.1368 2.0243-9.5087 0.78502-0.48517 0.82956-1.4352 0.15764-3.3627-1.046-3.0004-0.75784-14.513 0.66511-26.577 0.51693-4.3828 0.8496-8.6016 0.73927-9.375-0.11032-0.77344 0.11828-4.3594 0.50802-7.9688 1.1658-10.797 1.5002-15.149 2.521-32.812 0.53635-9.2812 1.154-17.508 1.3726-18.281 0.41083-1.4536 1.1471-13.474 1.9236-31.406 0.24882-5.746 0.0533-10.927-0.4414-11.699-0.6195-0.96753-3.3821-1.5634-9.1373-1.971-9.5132-0.67362-12.468-1.424-12.468-3.1662 0-1.5125 1.647-1.9267 13.41-3.3721 9.053-1.1124 9.1868-1.1653 8.9062-3.52-0.24504-2.0564-0.98105-2.5466-5.2657-3.5069-10.353-2.3203-128.45-3.5284-142.82-1.461-3.7891 0.54508-17.014 1.1963-29.389 1.4471-23.606 0.47851-27.896 0.9035-29.578 2.9306-1.9311 2.3268-0.60988 6.3199 2.8592 8.6416 4.326 2.8952 4.4327 3.5572 0.87011 5.3994-3.4174 1.7672-3.3671-1.7139-0.39276 27.153 0.79692 7.7344 2.0416 21.234 2.766 30 3.1185 37.736 4.4183 52.661 6.1232 70.312 2.5359 26.254 5.4943 58.039 6.588 70.781 0.50893 5.9297 1.5602 17.531 2.3361 25.781 0.77592 8.25 2.0174 22.805 2.7588 32.344 0.74145 9.5391 1.7954 21.773 2.3422 27.188 5.0368 49.875 6.0062 60.854 7.5332 85.312 1.5916 25.494 2.9228 35.625 4.6812 35.625 2.1178 0 1.5574-15.861-1.8222-51.562-1.0982-11.602-2.3744-27-2.836-34.219-1.9643-30.718-2.8578-42.623-3.7293-49.688-1.4265-11.564-2.0609-28.594-1.0651-28.594 0.48079 0 1.1342 3.0586 1.4521 6.7969 1.469 17.276 4.3306 46.891 5.1859 53.672 0.7949 6.3016 2.9693 24.796 5.2905 45 0.2962 2.5781 0.68541 4.9266 0.8649 5.2187 0.17951 0.29219 0.9951 8.9406 1.8124 19.219 2.0993 26.399 3.5131 35.183 7.822 48.6 1.3804 4.2982 1.5867 6.3909 0.92186 9.3498-1.012 4.5039-0.27902 5.2969 7.1208 7.704 6.8317 2.2224 8.0636 3.581 8.0636 8.8932 0 4.4077-1.6124 7.3763-4.0513 7.4592-0.6077 0.0206 0.0263 0.65175 1.4088 1.4024 2.7212 1.4776 4.1269 4.4166 2.9913 6.2542-0.39037 0.63163-0.94992 2.6259-1.2434 4.4318-0.53635 3.2996-1.2598 3.9172-8.0116 6.8386-1.5469 0.66931-2.8125 1.8441-2.8125 2.6106 0 1.4835 1.0628 1.5837 5.7434 0.54179 2.1203-0.472 3.3519-0.23145 4.4531 0.86978 2.331 2.331 1.8336 4.1854-1.2903 4.8102-3.4271 0.68542-3.565 1.5593-0.46875 2.97 2.9494 1.3438 3.103 3.9178 0.23437 3.9284-1.1602 0.005-4.9386-0.71718-8.3966-1.6034-3.458-0.88619-6.4572-1.4171-6.6649-1.1798-0.20772 0.23731-0.0508 2.9627 0.34878 6.0565 0.39954 3.0938 0.77236 14.062 0.82847 24.375 0.0562 10.312 0.53888 20.646 1.0728 22.964 0.70457 3.058 0.65464 5.8041-0.18207 10.014-0.91488 4.6027-0.91075 8.3775 0.02 18.286 1.5495 16.497 1.5097 16.414 8.2322 17.165 2.9945 0.33474 7.7648 1.606 10.601 2.825 6.264 2.6925 7.3353 2.7794 9.5508 0.77443zm0.51237-126.5c-1.8166-1.8166-0.52324-3.1882 3.0065-3.1882 3.1645 0 5.6756 1.2672 4.6023 2.3225-0.79594 0.78262-6.9874 1.487-7.6088 0.86565zm86.955-29.46c-0.75316-1.2186 1.2307-14.227 2.3387-15.335 0.45649-0.45649 1.4838-0.57909 2.283-0.27243 1.6013 0.61449 1.398 2.9157-1.029 11.645-1.3295 4.7816-2.3743 5.934-3.5927 3.9626zm6.1072-27.009c0-2.1484 0.39535-3.9062 0.87856-3.9062 0.48666 0 0.63657 1.5682 0.33606 3.5156-0.75119 4.868-1.2146 5.017-1.2146 0.39063zm0.94782-12.859c0.0207-3.6659 1.1853-8.8105 1.8951-8.3718 0.90735 0.56077 0.0279 8.0978-1.0864 9.3093-0.49138 0.53432-0.81493 0.15927-0.80874-0.9375zm1.86-24.68c0-1.5469 0.42187-3.0732 0.9375-3.3919 0.54543-0.33709 0.9375 0.59682 0.9375 2.2331 0 1.5469-0.42188 3.0732-0.9375 3.3919-0.54543 0.33709-0.9375-0.59682-0.9375-2.2331zm8.4375-92.399c0-1.3195 0.42187-2.3991 0.9375-2.3991 0.51562 0 0.9375 0.81885 0.9375 1.8197s-0.42188 2.0804-0.9375 2.3991c-0.53171 0.32861-0.9375-0.45902-0.9375-1.8197zm1.0115-10.446c0.045-1.0921 0.26713-1.3143 0.5664-0.56641 0.27081 0.67675 0.23751 1.4854-0.074 1.7969-0.31152 0.31152-0.5331-0.2422-0.4924-1.2305zm-11.83 298.45c0.35189-6.3214 0.90653-14.447 1.2325-18.056 0.77529-8.5837 0.85459-65.153 0.0913-65.155-1.9132-0.004-2.5742 3.7414-2.814 15.944-0.14679 7.4721-0.14335 16.961 0.008 21.086 0.25373 6.9313 0.31993 20.486 0.14065 28.795-0.0413 1.9154-0.65682 8.2087-1.3678 13.985-0.71095 5.7764-1.122 11.065-0.91356 11.752 0.20849 0.68708 0.58703 1.9088 0.8412 2.7149 1.1516 3.6523 2.1932-0.49115 2.7819-11.066zm6.1024 6.5535c-0.0242-2.5891-0.17686-2.7918-1.016-1.3493-0.54309 0.93365-0.75444 2.3048-0.46967 3.0469 0.86656 2.2582 1.5157 1.5165 1.4856-1.6976zm-0.2881-10.312c-0.26007-0.64453-0.47287-0.11718-0.47287 1.1719s0.2128 1.8164 0.47287 1.1719c0.26007-0.64453 0.26007-1.6992 0-2.3438zm-141.61-10.78c0.27927-0.90234 0.9056-2.384 1.3918-3.2926 0.48624-0.90858 0.62163-2.6976 0.30087-3.9756-0.41828-1.6665-0.1574-2.4587 0.92248-2.8012 4.8154-1.5271 4.8795-1.6008 2.2088-2.5398-2.6629-0.93627-3.2723-2.0856-1.6406-3.094 0.51562-0.31867 0.9375-2.5795 0.9375-5.0241s0.45264-4.8973 1.0059-5.4506c1.1114-1.1114 3.131-26.311 2.4665-30.775-0.23027-1.5469-0.0615-3.7617 0.37501-4.9218 0.72264-1.9205 0.18747-2.414-5.98-5.5142-3.7255-1.8727-8.5371-4.6149-10.693-6.0938-2.1554-1.4789-4.1461-2.6889-4.4237-2.6889-0.91466 0 0.61817 3.2422 2.545 5.3832 1.6302 1.8113 2.0586 4.4037 3.0988 18.75 0.66389 9.1564 1.4947 24.242 1.8463 33.523 0.64837 17.116 1.2106 20.156 3.7275 20.156 0.77148 0 1.6312-0.73828 1.9104-1.6406zm7.8709-2.1094c0-3.4441-1.5941-3.6733-2.8357-0.40772-1.213 3.1906-1.2042 3.2202 0.9607 3.2202 1.4583 0 1.875-0.625 1.875-2.8125zm135.94-4.7428c0-0.4852-0.42188-0.88217-0.9375-0.88217-0.51563 0-0.9375 0.65771-0.9375 1.4616 0 0.80387 0.42187 1.2008 0.9375 0.88217 0.51562-0.31867 0.9375-0.97639 0.9375-1.4616zm-0.33982-30.574c0.11389-4.428-0.14868-7.6799-0.5835-7.2266-1.2658 1.3197-1.5525 17.206-0.28763 15.941 0.36523-0.36523 0.75724-4.2869 0.87113-8.7149zm0.0233-19.293c-0.26007-0.64453-0.47286-0.11718-0.47286 1.1719s0.21279 1.8164 0.47286 1.1719c0.26008-0.64453 0.26008-1.6992 0-2.3438zm-40.41-6.35c9.6791-2.4632 12.209-3.5579 11.005-4.762-1.071-1.071-8.6348 0.38244-12.469 2.396-1.2891 0.67696-3.71 1.5229-5.3799 1.88-3.413 0.7297-5.0439 2.3799-2.352 2.3799 0.96456 0 5.1027-0.85225 9.1959-1.8939zm41.231-7.5435c1.0993-1.7788-0.50402-2.2177-2.1368-0.58496-1.4615 1.4615-1.4641 1.5848-0.033 1.5848 0.8535 0 1.8299-0.44994 2.1698-0.99987zm-170.49-32.05c0.25314-8.6099 1.0329-16.747 1.6655-17.379 0.36564-0.36563 1.2313 0.1099 1.9236 1.0567 1.8134 2.48 4.7466 1.6294 4.4312-1.285-0.13775-1.273-0.65685-6.6569-1.1536-11.964-0.86025-9.1916-4.0765-25.291-5.6624-28.343-1.2532-2.4121-4.6501-35.078-6.5293-62.789-0.542-7.9922-1.3787-17.906-1.8594-22.031-0.77675-6.6657-2.9638-33.532-5.6473-69.375-0.50186-6.7031-1.3769-17.672-1.9444-24.375-0.56758-6.7031-1.3851-23.367-1.8167-37.031-0.43161-13.664-0.97077-28.008-1.1981-31.875-0.22735-3.8672-0.70275-12.938-1.0564-20.156-0.35368-7.2188-1.0394-16.922-1.5238-21.562-0.48439-4.6406-1.2955-13.5-1.8025-19.688-2.3538-28.725-2.9507-34.119-4.3578-39.375-0.8282-3.0938-1.6391-9.8438-1.802-15-0.44784-14.174-1.4105-22.969-2.5142-22.969-1.0338 0-1.0214 0.386 1.6252 50.625 2.1933 41.635 3.3195 60.183 4.9237 81.094 0.83071 10.828 1.4709 21.586 1.4227 23.906-0.17373 8.3585 1.5837 24.713 2.7318 25.423 0.88731 0.54838 0.86159 1.2269-0.11575 3.0531-0.94953 1.7742-1.0991 4.7102-0.6122 12.014 0.35444 5.3163 0.77308 13.463 0.93031 18.104 0.68808 20.309 2.3235 45.397 4.339 66.562 1.1548 12.127 2.5606 38.425 3.2576 60.938 0.30331 9.7969 0.97615 22.664 1.4952 28.594 0.51906 5.9297 1.1046 18.375 1.3012 27.656 0.69095 32.621 1.7842 40.69 6.4465 47.578 2.3809 3.5175 2.9655 3.2526 3.1025-1.4062zm175.53-0.13239c1.0229-1.2325 2.9894-1.8237 10.196-3.0654 5.1809-0.89265 7.492-5.0234 8.6021-15.375 1.2898-12.027 3.387-50.897 6.1171-113.38 1.4158-32.403 2.5303-55.509 4.2959-89.062 0.47481-9.0234 1.2704-25.688 1.7679-37.031 1.2713-28.984 2.7389-56.738 3.8421-72.656 2.0751-29.943 4.1249-97.37 2.8427-93.509-0.47203 1.4214-1.1035 5.6402-1.4032 9.375-0.29971 3.7348-0.98325 12.275-1.519 18.978-0.53575 6.7031-1.1301 16.406-1.3209 21.562-0.19076 5.1562-1.01 18.023-1.8206 28.594-0.81057 10.57-1.9 27.445-2.4211 37.5-1.7182 33.158-2.8437 50.974-3.7904 60-1.133 10.802-3.4349 47.531-4.7006 75-0.51078 11.086-1.3177 23.109-1.7933 26.719-0.47551 3.6094-1.3432 13.312-1.9282 21.562-0.58498 8.25-1.3029 17.109-1.5954 19.688-0.29252 2.5781-0.50044 6.1494-0.46206 7.9361 0.0384 1.7867-0.34658 3.7503-0.85548 4.3634-0.50891 0.61319-0.66184 2.1645-0.33986 3.4473 0.34765 1.3852-0.0235 3.51-0.91391 5.2318-1.1889 2.2991-1.2706 3.2656-0.39444 4.6685 0.89854 1.4388 0.74117 2.3606-0.84274 4.936-1.2732 2.0702-1.7741 4.0615-1.4465 5.7504 0.27559 1.4209 0.0683 3.1084-0.46079 3.75-0.52903 0.64156-1.2013 4.7524-1.494 9.1352-1.2957 19.403-3.2321 32.478-5.4561 36.84-0.47225 0.92621-1.2319 3.9774-1.6881 6.7803-0.68695 4.2208-2.1725 8.5371-4.4274 12.864-0.65673 1.2602 2.2971 0.73936 3.4096-0.60115zm42.272-457.08c0-1.0008-0.42188-2.0804-0.9375-2.3991-0.53171-0.32861-0.9375 0.45902-0.9375 1.8197 0 1.3195 0.42187 2.3991 0.9375 2.3991 0.51562 0 0.9375-0.81885 0.9375-1.8197z"/>
<path id="path3589" fill="#8f8f8f" d="m428.44 895.39c-9.0234-0.36239-19.359-1.1979-22.969-1.8566-14.004-2.5559-28.027-8.6407-32.694-14.187-3.3901-4.0289-4.2989-10.036-5.3141-35.126-1.1995-29.646-2.3806-52.853-3.6264-71.25-2.3634-34.903-3.0256-47.366-3.8859-73.125-0.49936-14.953-1.1148-28.242-1.3677-29.531-0.25286-1.2891-0.89846-13.102-1.4347-26.25-0.53621-13.148-1.5834-34.242-2.3272-46.875-0.74375-12.633-1.7865-33.094-2.3172-45.469-0.53071-12.375-1.3811-25.355-1.8897-28.846-0.50862-3.49-0.92648-10.451-0.92858-15.469-0.002-5.0178-0.43256-14.819-0.95659-21.779-0.97826-12.995-2.0716-35.609-3.6714-75.938-0.50112-12.633-1.3597-30.141-1.908-38.906-0.54826-8.7656-1.4104-24.586-1.9158-35.156-1.4881-31.122-2.7581-48.923-3.8244-53.603-0.81939-3.5961-0.72474-4.9615 0.52668-7.5987 0.83905-1.7682 2.4557-3.6603 3.5925-4.2047 7.0596-3.3809 11.566-3.5003 132.08-3.5003h117.82l2.6476 1.9593c4.8867 3.6164 5.5261 6.2888 3.6845 15.399-1.5542 7.6887-2.2878 18.244-4.2668 61.391-0.49666 10.828-1.3461 28.125-1.8876 38.438-0.8488 16.164-2.3904 53.806-3.4363 83.906-0.52495 15.107-3.1523 73.321-5.5005 121.88-0.7606 15.727-1.7998 39.352-2.3094 52.5-0.50959 13.148-1.3604 28.572-1.8908 34.274-0.53035 5.7021-0.98638 16.46-1.0134 23.906-0.027 7.4463-0.451 20.922-0.94215 29.945-0.49116 9.0234-1.5543 30.539-2.3626 47.812-4.4963 96.093-4.315 93.598-7.1208 97.969-3.0199 4.7044-4.7502 6.2104-10.629 9.2511-13.144 6.7982-36.329 9.8013-79.677 10.321-17.531 0.20999-39.258 0.0853-48.281-0.2771zm51.424-4.8207c7.553-0.54721 18.288-1.327 23.856-1.733 9.3454-0.68132 13.246-1.8716 11.583-3.5347-0.46998-0.46999-89.145-0.77052-98.347-0.33331-1.273 0.0605-0.73258 2.8934 0.65336 3.4253 1.5965 0.61264 32.803 2.8727 42.098 3.0489 3.5329 0.0669 12.603-0.32597 20.156-0.87318zm-78.61-6.51c-1.847-1.1936-4.0189-1.1936-3.2812 0 0.31867 0.51562 1.5037 0.93104 2.6335 0.92315 1.6699-0.0116 1.791-0.18432 0.64779-0.92315zm135.42-0.85545c0.29079-0.4705-0.54188-0.73794-1.8504-0.5943-3.2776 0.35978-4.1219 1.4498-1.123 1.4498 1.3446 0 2.6826-0.38496 2.9734-0.85545zm-93.231-5.2383c2.1981-2.3398 2.2324-2.3438 20.085-2.362 9.8359-0.01 23.21-0.61695 29.721-1.3486 6.5108-0.7317 12.727-1.0979 13.813-0.81381 4.3974 1.1499 6.4784-0.35146 8.0685-5.8213 0.82936-2.8529 1.2582-5.5912 0.95293-6.0851-0.30526-0.49391-0.13867-1.6396 0.37019-2.5461 1.0079-1.7954 0.85966-1.981 2.4281 3.0394 0.24162 0.77344 1.0362 1.4062 1.7657 1.4062 1.8896 0 2.558-4.7315 0.98548-6.9765-0.93147-1.3299-1.3155-4.8278-1.3155-11.982 0-9.5309-0.10799-10.104-1.9044-10.104-2.4231 0-3.3201-2.2944-2.016-5.1566 0.74972-1.6454 1.9411-2.321 4.5764-2.5951l3.5628-0.37055-3.9844-0.15761c-3.3068-0.13079-3.9844-0.47642-3.9844-2.0326 0-1.0312 0.59681-1.875 1.3262-1.875 0.94669 0 1.4743-1.6769 1.8436-5.8594 1.6655-18.862 1.9158-19.816 4.3998-16.771 1.5353 1.8821 1.8054 1.9622 1.8054 0.53531 0-0.92285-0.51496-3.102-1.1444-4.8426-0.95562-2.6427-0.91697-3.3137 0.23437-4.0688 1.1892-0.77979 1.1531-1.077-0.2619-2.1615-2.0475-1.5692-2.0543-2.3209-0.0416-4.545 1.3298-1.4694 1.4017-2.0828 0.42721-3.6432-1.0274-1.6451-0.80423-2.2197 1.8109-4.6626 3.5965-3.3597 3.1331-4.2558-1.2531-2.4232-1.784 0.74542-5.0992 1.6594-7.367 2.031-2.2678 0.37164-6.4436 1.2476-9.2795 1.9465-10.606 2.614-28.666 4.4256-43.594 4.3729-17.619-0.0623-20.742-0.70967-20.366-4.2221 0.14235-1.3312-0.17406-2.688-0.70313-3.015-0.52906-0.32698-0.96193-1.4134-0.96193-2.4142 0-2.1539 3.1583-2.3853 11.502-0.84286 3.6425 0.67336 8.1374 0.67788 14.469 0.0145 15.593-1.6336 21.01-2.8839 23.327-5.3844 1.1518-1.2429 3.6091-2.5056 5.4606-2.806 1.8931-0.30721 3.3663-1.0894 3.3663-1.7874 0-0.68265 1.5182-1.5259 3.374-1.8741 3.9393-0.73901 2.6016-2.227-2.0229-2.2501-4.1877-0.021-5.873-1.773-6.2113-6.4572l-0.29604-4.0991 4.5102-1.1611c2.4806-0.63857 5.0118-1.6785 5.625-2.311 0.8792-0.90688-0.27216-0.99316-5.4477-0.40823-3.6094 0.40792-17.451 0.72089-30.759 0.69549-20.293-0.0387-24.425-0.27473-25.613-1.4627-1.3677-1.3677-2.3014-9.4179-1.2179-10.501 0.29134-0.29133 13.79-0.73427 29.998-0.9843 16.207-0.25003 33.286-0.73014 37.952-1.0669 7.4136-0.53503 8.9525-0.37351 12.193 1.2797 5.9976 3.0597 9.8776 3.0782 9.5459 0.0454-0.16349-1.4949 0.40463-2.1927 2.1204-2.6045 3.9257-0.94223 5.9304-9.9668 8.936-40.227 0.73569-7.407 1.2944-14.368 1.2415-15.469-0.50103-10.437 1.6581-56.444 3.5697-76.064 0.35166-3.6094 0.57029-9.0938 0.48582-12.188-0.0845-3.0938 0.25748-6.6797 0.75985-7.9688 0.50238-1.2891 1.321-7.4062 1.8191-13.594 2.1486-26.689 4.872-58.341 6.292-73.125 0.84191-8.7656 1.6562-18.015 1.8096-20.554 0.15337-2.5393 0.76404-8.4455 1.357-13.125 0.59302-4.6795 1.6374-12.938 2.3208-18.352 1.6992-13.461 1.8579-27.268 0.32446-28.216-0.92536-0.57191-0.8535-1.1045 0.32793-2.4303 1.5368-1.7246 1.579-2.2758 3.1027-40.604 0.23575-5.9297 0.90715-16.266 1.492-22.969 1.2726-14.586 1.3546-15.935 2.2793-37.504 0.63415-14.792 0.54121-17.03-0.75167-18.103-0.83845-0.69585-5.153-1.4626-9.9949-1.7763-8.2873-0.53692-13.548-2.2975-10.371-3.471 0.77344-0.28571 5.8059-1.0552 11.183-1.71 9.4029-1.145 9.8027-1.2868 10.45-3.7082 0.59396-2.2209 0.32557-2.6479-2.277-3.6226-7.466-2.796-127.66-5.0457-144.49-2.7045-3.9313 0.5468-18.411 1.3367-32.177 1.7554-15.627 0.47528-26.174 1.1928-28.076 1.91-2.691 1.0146-3.0469 1.5591-3.0469 4.6618 0 3.5299 1.5597 5.7206 4.9219 6.9129 2.2609 0.8018 2.0539 2.0293-0.64001 3.7944-2.0032 1.3126-2.2327 2.0383-1.8868 5.9672 1.2454 14.145 3.3145 35.661 4.1714 43.379 0.54386 4.8984 1.1606 11.859 1.3705 15.469 0.20988 3.6094 1.0323 14.789 1.8275 24.844 0.79525 10.055 1.6437 21.023 1.8854 24.375 0.24171 3.3516 1.0978 12.422 1.9024 20.156 3.8523 37.03 5.157 50.316 5.662 57.656 0.30153 4.3828 0.95306 11.555 1.4478 15.938 1.1146 9.8729 3.2859 33.682 4.6597 51.094 1.0779 13.662 2.0746 24.692 4.2356 46.875 3.5876 36.827 5.0443 56.505 5.0149 67.742-0.0139 5.2894 0.41775 10.985 0.9591 12.656 0.54134 1.6715 0.92126 4.7266 0.84428 6.7891-0.18321 4.9085 2.7294 14.777 4.2157 14.283 2.8916-0.96022 2.5782-14.712-1.2336-54.127-2.4586-25.423-3.1772-39.728-1.8602-37.031 1.1474 2.3497 6.5648 50.993 6.5648 58.946 0 9.7187 2.6514 25.47 6.9632 41.367 0.83914 3.0938 1.4436 8.0877 1.3432 11.098-0.2086 6.255-0.20948 6.2541 8.2633 9.0969 3.1836 1.0682 6.2655 2.517 6.8485 3.2195 0.58878 0.70944 0.93293 3.4994 0.77407 6.2753l-0.286 4.998-4.4531 0.28574c-5.616 0.36037-5.7588 1.7473-0.26458 2.5712 5.9229 0.88819 6.576 2.0221 4.9479 8.5909-1.3761 5.552-1.3374 5.5118-8.4333 8.7765-2.65 1.2192-3.49 4.1361-1.4062 4.8833 0.64454 0.23111 1.931 0.0293 2.8589-0.44842 2.934-1.5107 6.7154-0.53176 7.0501 1.8251 0.25485 1.7944-0.13008 2.1094-2.5781 2.1094-3.5625 0-3.6577 1.1467-0.29958 3.6089 1.9739 1.4472 2.3213 2.1508 1.4825 3.0019-0.84389 0.85623-2.5495 0.65528-7.4235-0.87461-3.4803-1.0924-6.9543-1.9862-7.7198-1.9862-2.1294 0-13.065-5.3328-19.648-9.5819-3.238-2.0898-6.1198-3.5672-6.4041-3.2829-0.63296 0.63296 1.1655 4.2334 3.3823 6.7711 1.3444 1.5391 1.8326 5.1502 2.7249 20.156 0.59785 10.055 1.2856 24.398 1.5284 31.875 0.46744 14.396 1.9054 25.948 3.4717 27.891 1.5456 1.9169 8.9163 1.4906 10.024-0.57986 0.51562-0.96345 0.69883-1.9904 0.40712-2.2821-0.29173-0.29171 0.42137-2.2238 1.5846-4.2936 1.9837-3.5295 2.0478-4.1703 1.0321-10.32-1.3612-8.2423-1.4842-53.54-0.1454-53.54 0.51562 0 0.98368 0.10547 1.0401 0.23437 0.22473 0.51323 1.7897 53.859 1.657 56.484-0.77675 15.374 0.52055 35.362 2.5014 38.538 0.9846 1.5789 2.462 2.0745 7.3557 2.4673 4.514 0.36234 7.4269 1.2461 11.082 3.3622 2.7268 1.5788 5.2008 2.8943 5.4976 2.9234 0.29683 0.029 1.5305-1.002 2.7415-2.291zm48.047-123.07c-3.3271-0.53842-2.4577-2.086 1.1719-2.086 1.8047 0 3.2812 0.37674 3.2812 0.8372 0 1.1319-1.8938 1.6629-4.4531 1.2488zm-47.109-6.3047c0-1.4708 1.6294-1.8014 4.1367-0.83927 2.0797 0.79806 0.88831 2.2455-1.8483 2.2455-1.4092 0-2.2884-0.54032-2.2884-1.4062zm89.137-36.641c0.045-1.0921 0.26713-1.3143 0.5664-0.56641 0.27081 0.67675 0.23751 1.4854-0.074 1.7969-0.31152 0.31152-0.5331-0.2422-0.4924-1.2305zm3.8365 153.68c0.94294-0.85335 1.7144-2.119 1.7144-2.8125 0-1.7283 0.95443-1.5808 2.457 0.37967 1.9687 2.5687 3.1055-0.064 3.3397-7.7344 0.11018-3.6094 0.27398-8.4609 0.36401-10.781 0.87071-22.442 1.2389-66.996 0.58196-70.424-0.62142-3.2434-0.4944-4.9705 0.50598-6.8798 2.3037-4.3968 1.2096-4.3615-6.5952 0.21312l-4.5029 2.6393 0.0488 21.523c0.0269 11.837 0.0819 24.265 0.12246 27.616 0.0915 7.5719-0.72035 19.399-1.4079 20.512-0.77297 1.2507-0.90817 25.007-0.14929 26.235 0.88438 1.431 1.4963 1.3465 3.521-0.48584zm2.726-19.62c0.045-1.0921 0.26713-1.3143 0.5664-0.56641 0.27081 0.67675 0.23751 1.4854-0.074 1.7969-0.31152 0.31152-0.5331-0.2422-0.4924-1.2305zm1.0999-9.2969c0.0104-2.0625 0.2024-2.7959 0.42664-1.6297s0.21572 2.8537-0.0189 3.75c-0.23465 0.89633-0.41813-0.0579-0.40772-2.1203zm-0.23642-9.5875c0-3.55 1.4875-4.8292 2.3726-2.0403 0.40597 1.2791 0.0943 2.5314-0.87 3.4958-1.3785 1.3785-1.5026 1.2582-1.5026-1.4555zm-0.24823-46.505c-1.0337-2.5755-0.82956-8.8666 0.3106-9.5712 1.5618-0.96524 1.6713-0.34748 1.0035 5.6636-0.42117 3.7915-0.84952 5.0652-1.3141 3.9077zm-34.445-6.1277c7.6662-1.9795 9.9121-2.9254 10.174-4.2848 0.30755-1.597-0.12646-1.6902-5.1318-1.1019-3.0073 0.35345-6.3199 1.1786-7.3614 1.8338-1.0415 0.65514-4.5505 1.9786-7.7978 2.9409-13.305 3.9432-4.7806 4.4589 10.117 0.61202zm-129.32-36.02c-0.58417-1.7701-0.81511-5.0679-0.51321-7.3284 1.4034-10.508 1.2802-10.204 4.1287-10.204 3.7757 0 4.7842-1.6301 3.7768-6.1047-0.46296-2.0565-1.486-9.0712-2.2734-15.588-0.78743-6.5171-2.517-15.587-3.8434-20.156-1.3749-4.7356-2.8073-12.942-3.3318-19.088-0.50602-5.9297-1.5173-15.799-2.2472-21.932-0.72995-6.133-1.1248-11.478-0.87732-11.879 0.24742-0.40034-0.57819-10.992-1.8347-23.537s-2.7519-29.137-3.3231-36.871c-0.57122-7.7344-1.657-21.867-2.413-31.406-1.61-20.317-1.643-20.824-3.5394-54.375-0.80148-14.18-1.9245-37.383-2.4956-51.562-0.57107-14.18-1.655-32.742-2.4088-41.25-0.75377-8.5078-1.9981-23.695-2.7652-33.75-0.88623-11.616-2.0975-20.811-3.3224-25.221-1.7625-6.3452-2.4747-13.413-1.7096-16.966 0.59914-2.782-1.2402-20.62-2.1865-21.205-1.8177-1.1234-2.6855 1.9807-2.259 8.0796 0.47661 6.8145 2.8268 50.546 4.2574 79.219 1.0556 21.157 2.5012 44.28 3.8096 60.938 0.91076 11.594 1.7615 28.012 2.2589 43.594 0.58976 18.474 2.41 52.414 3.3434 62.344 0.53323 5.6719 1.3694 14.531 1.8581 19.688 1.2382 13.063 2.5812 38.78 4.2594 81.562 1.431 36.481 3.0058 69.355 3.7052 77.344 0.48034 5.4871 3.3093 11.978 7.1036 16.3 3.5302 4.0206 4.3223 3.8416 2.8424-0.6425zm175.16-3.0376c2.8857-1.3091 5.9793-2.7857 6.8746-3.2812 0.89535-0.49554 2.6229-0.90098 3.8391-0.90098 2.2848 0 4.2766-1.7406 6.1605-5.3836 0.97637-1.888 2.419-21.691 5.7543-78.991 0.97187-16.696 1.8472-37.174 3.6866-86.25 0.4735-12.633 1.1096-25.5 1.4137-28.594 0.30403-3.0938 1.1791-19.125 1.9447-35.625 2.1915-47.233 3.1224-65.716 4.6274-91.875 1.279-22.23 2.3416-47.055 3.7222-86.953 0.28266-8.1693 0.14553-14.766-0.30696-14.766-0.44983 0-1.0699 1.553-1.3779 3.4512-0.71297 4.3935-2.9271 32.724-4.8224 61.705-0.80931 12.375-1.8968 28.195-2.4167 35.156-0.51987 6.9609-1.3428 20.883-1.8288 30.938-1.6512 34.164-2.7581 51.082-3.6801 56.25-0.50602 2.8359-1.155 11.484-1.4422 19.219-0.28717 7.7344-0.93784 19.125-1.4459 25.312-0.50807 6.1875-1.3473 19.477-1.865 29.531-0.51767 10.055-1.575 25.453-2.3496 34.219-0.77461 8.7656-1.673 20.156-1.9965 25.312-0.32348 5.1562-0.91798 9.9969-1.3211 10.757-0.40315 0.76012-0.31762 2.1582 0.19006 3.1068 0.64518 1.2055 0.56531 2.1558-0.26534 3.1567-0.65362 0.78756-1.0918 2.8659-0.9738 4.6185 0.11803 1.7526-0.37994 4.3508-1.1066 5.7738-0.99383 1.9461-1.0637 2.9881-0.28211 4.2053 0.80246 1.2496 0.64996 2.2769-0.66968 4.5109-1.0685 1.8088-1.4934 3.7509-1.134 5.1828 0.32996 1.3147 0.0129 3.1868-0.74423 4.3954-0.86951 1.3878-1.5341 6.5306-1.9502 15.091-0.55869 11.494-3.1508 28.041-4.8144 30.733-0.32846 0.53146-1.2124 3.9386-1.9643 7.5714s-2.3932 8.2305-3.6473 10.217c-3.4912 5.5304-3.3263 5.6173 4.1918 2.2065zm-157.7-76.12c-0.2377-0.91216-0.44781-0.39285-0.46691 1.154-0.0191 1.5469 0.17536 2.2932 0.43217 1.6585 0.2568-0.63472 0.27243-1.9003 0.0348-2.8125zm-2.9208-27.12c-0.6172-1.6084-2.4164-0.80391-2.4164 1.0805 0 0.70943 0.50782 2.4775 1.1285 3.929l1.1285 2.6392 0.3438-3.1361c0.1891-1.7248 0.10613-3.7555-0.18438-4.5125zm-2.9087-25.23c-0.77354-7.1822-1.7745-14.746-2.2243-16.809-0.74653-3.423-0.82726-3.5023-0.92567-0.90951-0.11101 2.9246 2.2959 24.158 3.2722 28.867 1.2502 6.0299 1.196 1.0908-0.12226-11.149zm-15.74-178.7c-0.29927-0.74787-0.52142-0.52573-0.5664 0.56641-0.0407 0.98827 0.18087 1.542 0.49239 1.2305 0.31152-0.31153 0.34482-1.1201 0.074-1.7969zm-0.15769-9.0218c-0.33642-0.87102-0.81728-4.5099-1.0686-8.0865-0.49744-7.0798-1.1364-9.0059-2.2986-6.9291-0.41251 0.7371-0.33912 3.1689 0.16307 5.404s0.93834 5.5885 0.96923 7.4521c0.0309 1.8636 0.27706 4.1953 0.54706 5.1816 0.45473 1.6612 0.55752 1.6743 1.3952 0.17744 0.49737-0.88875 0.62905-2.3286 0.29263-3.1996zm-3.1347-27.834c-0.53219-1.5469-1.2604-6.1139-1.6184-10.149-0.35791-4.035-1.0031-6.984-1.4337-6.5534-0.57021 0.57021 1.0112 20.528 2.0292 25.609 0.0516 0.25781 0.52064-1.0078 1.0422-2.8125 0.64419-2.229 0.63799-4.1831-0.0193-6.0938zm224.29-112.64c0.70964-1.8493-0.16898-5.0242-1.3904-5.0242-0.48087 0-0.87432 1.4766-0.87432 3.2812 0 3.4266 1.2496 4.3883 2.2647 1.7429z"/>
<path id="path3587" fill="#616161" d="m452.66 895.78c-0.25691-0.2569-10.769-0.88012-23.359-1.3849-23.024-0.9231-29.369-1.8588-41.071-6.0562-7.946-2.8503-15.367-8.3313-17.218-12.717-1.218-2.8853-2.1021-15.294-3.4735-48.75-0.58122-14.18-1.4764-28.523-1.9893-31.875-0.95343-6.2303-2.0047-27.639-3.683-75-0.52072-14.695-1.3576-32.414-1.8598-39.375-0.99898-13.848-2.4821-39.794-3.7781-66.094-2.2663-45.992-2.8915-57.052-3.7621-66.562-0.51925-5.6719-1.3562-20.438-1.8598-32.812-0.50362-12.375-1.538-34.523-2.2986-49.219-0.76059-14.695-2.0247-41.484-2.8091-59.531-1.2956-29.808-2.9412-61.125-5.1479-97.969-0.44779-7.4766-1.3106-17.707-1.9174-22.735-1.0137-8.3992-0.96146-9.3837 0.6432-12.131 2.8464-4.8738 6.1737-5.2651 53.264-6.264 56.281-1.1938 193.74-0.76643 198.73 0.6179 6.8635 1.9053 8.001 5.6038 5.6812 18.472-0.9304 5.1611-2.0072 16.767-2.393 25.79-0.38575 9.0234-1.1839 27.797-1.7736 41.719-0.58972 13.922-1.4707 29.32-1.9576 34.219-0.48697 4.8984-1.3489 23.461-1.9153 41.25-0.56646 17.789-1.5989 46.266-2.2943 63.281-0.69542 17.016-1.6938 42.117-2.2185 55.781-0.52477 13.664-1.4103 31.805-1.9679 40.312-1.3112 20.008-2.7385 52.4-6.5269 148.12-0.52036 13.148-1.3953 30.656-1.9443 38.906-1.1034 16.581-1.2474 19.807-2.7836 62.344-0.75963 21.036-1.4556 30.613-2.4193 33.293-4.9238 13.69-20.116 19.706-55.743 22.072-7.4766 0.4966-19.289 1.3278-26.25 1.8471-13.234 0.98727-33.102 1.2484-33.905 0.44569zm34.84-5.19c9.5391-0.53385 19.664-1.3744 22.5-1.8678 16.49-2.8692 20.652-4.6066 11.25-4.6969-3.3516-0.0322-8.4141-0.0925-11.25-0.1341s-25.061 0.007-49.39 0.1096c-36.451 0.15262-44.424 0.41447-45.315 1.4882-1.8319 2.2073-0.28777 3.0254 7.7469 4.1045 14.872 1.9972 39.714 2.3813 64.458 0.99649zm-75.509-3.651c0.29666-0.48 0.0765-1.1588-0.48923-1.5084-1.2914-0.79814-11.099-3.1657-13.299-3.2104-2.4005-0.0488-2.0061 2.6608 0.46875 3.22 1.7182 0.38825 9.4406 1.8311 12.132 2.2667 0.35629 0.0577 0.89052-0.28788 1.1872-0.76787zm126.57-3.2029c1.2366-0.90421 1.4109-1.4588 0.61353-1.9516-1.6081-0.99386-8.2426 0.31434-9.5434 1.8818-0.92801 1.1182-0.43686 1.333 3.0481 1.333 2.2849 0 4.9317-0.56842 5.8818-1.2632zm-94.737-4.8306 1.5357-2.3438 17.556-0.029c9.6561-0.0159 20.721-0.45947 24.588-0.98569 3.8672-0.52622 11.157-0.96671 16.199-0.97887 8.3883-0.0203 9.3768-0.21548 11.621-2.2955 1.3492-1.2504 3.5255-2.2734 4.8363-2.2734 3.4766 0 8.591-3.7682 9.2251-6.7969 0.82578-3.9443 1.8719-3.0825 2.5606 2.1094 0.43428 3.2738 1.0475 4.6875 2.0331 4.6875 1.9897 0 9.0931-3.7425 10.34-5.4476 1.5978-2.1851 2.4019-19.635 2.7559-59.805 0.17767-20.162 0.60337-37.776 0.94599-39.141 0.76942-3.0656-1.3165-3.3663-5.0606-0.72942-10.938 7.7037-30.338 12.72-62.488 16.158-8.7458 0.93525-30.709 0.47047-33.799-0.71525-1.7811-0.68348-1.7477-2.1954 0.0486-2.1954 2.0891 0 1.7157-1.0868-1.1719-3.4104-3.8491-3.0974-1.9878-4.278 4.9527-3.1415 8.688 1.4227 19.793 1.0987 30.882-0.90105 8.288-1.4946 10.616-2.2877 12.768-4.349 2.1905-2.0986 3.1976-2.4292 6.0101-1.9728 3.0749 0.49899 3.353 0.36321 3.0939-1.5103-0.27445-1.9845-0.0154-2.0519 7.1988-1.8736 4.116 0.10176 7.6033 0.52364 7.7496 0.9375 0.14633 0.41386 0.68108 1.3853 1.1883 2.1587 0.80784 1.2318 1.0319 1.2357 1.8061 0.0314 1.0209-1.5879-0.38157-3.7814-2.4176-3.7814-0.7173 0-2.0367-0.38689-2.9321-0.85975-0.89535-0.47287-5.0029-1.4546-9.1279-2.1817-6.6692-1.1755-7.4771-1.5374-7.293-3.2669 0.11385-1.0698-0.41349-2.46-1.1719-3.0894-2.1514-1.7855-1.6277-3.6383 1.1992-4.2431 9.1065-1.9481 11.667-4.9869 3.5156-4.1717-2.5781 0.25781-16.33 0.46875-30.56 0.46875-20.551 0-26.191-0.26463-27.422-1.2867-1.5907-1.3207-2.126-7.1848-0.83226-9.117 0.47272-0.70596 10.246-1.0758 31.158-1.1789 16.758-0.0827 32.914-0.59118 35.903-1.13 5.9307-1.0691 7.1427-0.8521 14.534 2.602 5.5445 2.5912 9.447 2.3193 10.24-0.71337 0.26355-1.0078 0.84005-1.8323 1.2811-1.8323 1.8078 0 4.8191-15.648 7.487-38.906 0.47319-4.125 1.0823-16.148 1.3537-26.719 0.5068-19.744 1.6436-41.494 3.3319-63.75 0.52806-6.9609 0.91738-14.692 0.86516-17.18-0.0522-2.4878 0.32147-5.8628 0.83042-7.5s1.3675-8.4611 1.9078-15.164c4.0719-50.512 7.7666-90.427 10.37-112.03 1.0253-8.5078 2.7105-27.914 3.7449-43.125s2.3434-34.406 2.909-42.656c0.56555-8.25 0.97445-17.531 0.90866-20.625-0.0658-3.0938 0.55569-11.953 1.3811-19.688 0.82537-7.7344 1.3854-18.795 1.2445-24.579-0.25076-10.292-0.30692-10.536-2.6337-11.422-1.3076-0.49821-5.9792-1.0645-10.381-1.2583-8.4831-0.37364-11.618-1.2912-9.1429-2.6762 0.75644-0.42333 6.0307-1.2873 11.721-1.92l10.345-1.1504-0.14077-2.8721c-0.13427-2.7398-0.43033-2.9426-6.4244-4.4009-4.6976-1.1429-13.21-1.6778-33.725-2.1188-15.093-0.3245-36.512-0.81711-47.598-1.0947-17.087-0.42783-55.709 0.60986-70.312 1.8892-2.3203 0.20327-13.711 0.59582-25.312 0.87233-16.162 0.38521-22.19 0.86909-25.781 2.0695-5.063 1.6922-7.4138 3.1925-5.0024 3.1925 1.084 0 1.4384 0.90021 1.3594 3.4528-0.0902 2.9128 0.37734 3.7831 2.9899 5.5653 2.9784 2.0316 3.0232 2.1519 1.1719 3.1427-2.238 1.1977-2.4132 3.8895-1.0056 15.447 1.4982 12.301 3.6575 34.095 4.3131 43.531 0.96359 13.869-1.5895 9.0957-2.949-5.5135-0.072-0.77344-0.19333-1.9585-0.26967-2.6335-0.0763-0.67496-0.58945-0.94869-1.1402-0.60829-0.55078 0.3404-0.75433 1.2628-0.45232 2.0498 0.30199 0.787 0.7749 8.4435 1.0509 17.015 0.44021 13.67 1.588 27.252 5.0402 59.646 0.49456 4.6406 1.7487 13.078 2.787 18.75 1.8759 10.247 4.8028 37.103 4.7767 43.828-0.0147 3.7976 1.532 4.8624 2.0426 1.4062 0.27582-1.8669 1.58 7.8863 4.5443 33.984 0.84988 7.4825 2.0363 21.627 3.401 40.547 0.42551 5.8991 0.28896 8.2031-0.48618 8.2031-0.59284 0-1.1148-0.31641-1.1598-0.70313-0.0451-0.38671-0.23304-3.2344-0.41773-6.3281-0.1847-3.0938-0.54868-7.3125-0.80887-9.375-1.0133-8.0327-2.4132-21.908-2.932-29.062-0.75881-10.463-1.3185-13.594-2.4304-13.594-1.2653 0 0.26901 23.902 2.9187 45.469 0.50679 4.125 0.98432 8.3438 1.0612 9.375 0.0769 1.0312 0.70556 10.312 1.3971 20.625 1.3006 19.394 3.4174 36.858 5.1812 42.745 0.74222 2.4773 0.72687 3.9218-0.0573 5.3869-0.82247 1.5368-0.75013 3.4748 0.31137 8.3414 2.4163 11.078 7.3064 48.746 7.177 55.285-0.0225 1.1388 0.54454 2.4044 1.2601 2.8125 0.71562 0.40812 1.9128 2.2186 2.6605 4.0233l1.3594 3.2812 2.1059-3.5156c2.4791-4.1386 3.7958-4.4894 3.7958-1.0113 0 1.3774 0.58528 3.1703 1.3006 3.9844 1.359 1.5465 3.3869 9.7574 3.3869 13.714 0 3.0294-3.5932 3.1369-6.2894 0.18823-2.3592-2.5801-4.9606-7.595-4.9606-9.5628 0-0.79904-0.63281-1.4528-1.4062-1.4528-1.7818 0-1.7636 0.86949 0.14305 6.8551 1.7611 5.5286 2.8335 7.2074 4.6038 7.2074 0.67982 0 4.7552 1.6564 9.0563 3.681 4.3012 2.0245 9.0722 3.9796 10.602 4.3447 4.305 1.027 6.0633 3.0722 6.0633 7.0527 0 5.0024-1.8959 6.5739-7.0744 5.8641-2.7602-0.37832-4.1756-0.22252-4.1756 0.4596 0 1.3905 3.1154 2.9729 5.8529 2.9729 1.2244 0 3.0196 0.58018 3.9894 1.2893 1.646 1.2036 1.6772 1.6481 0.46877 6.6852-1.1572 4.8236-1.6483 5.5419-4.6309 6.7728-6.4375 2.6567-8.3271 5.8344-4.6421 7.8066 1.4288 0.76465 2.2592 0.77378 3 0.033 0.56339-0.56341 2.2056-1.0244 3.6494-1.0244 2.0334 0 2.625 0.43933 2.625 1.9495 0 1.6784-0.39113 1.8636-2.8125 1.3318-3.6563-0.80307-3.8292 1.4079-0.32563 4.1638 1.3678 1.0759 2.2214 2.2216 1.897 2.546-0.32441 0.32441-4.713-0.57624-9.7525-2.0014-9.5018-2.6872-18.853-6.8524-25.773-11.48-2.2078-1.4764-5.2229-3.2064-6.7001-3.8446l-2.6859-1.1602 2.4515 2.9134c1.3483 1.6024 2.4515 3.3812 2.4515 3.9529 0 0.57174 0.81724 1.9105 1.8161 2.975 1.5649 1.6677 1.9539 4.2513 2.8125 18.68 0.54801 9.2095 0.9964 22.104 0.9964 28.653 0 12.949 1.8744 29.541 4.218 37.336 1.1424 3.7998 1.9064 4.9219 3.3513 4.9219 1.0294 0 2.9332 0.69552 4.2306 1.5456 3.0505 1.9988 4.2015 0.86902 4.8343-4.7453 0.51543-4.5729 1.794-5.6864 2.5156-2.1909 0.90981 4.4074 1.7455 11.654 1.8468 16.016 0.13288 5.717 1.9248 7.1871 8.7604 7.1871 4.9857 0 8.9018 1.4235 13.26 4.8201 3.0456 2.3736 5.2256 2.1877 7.053-0.60131zm85.459-25.832c-0.32855-3.3237-0.23137-7.3087 0.21597-8.8556 0.69679-2.4094 0.909-1.7696 1.4807 4.4646 0.38408 4.1881 0.29241 7.9472-0.21597 8.8556-0.65521 1.1708-1.0376 0.0177-1.4807-4.4646zm1.3463-17.817c0-1.0617 0.42187-1.6696 0.9375-1.3509 0.51562 0.31867 0.9375 1.1873 0.9375 1.9303 0 0.74301-0.42188 1.3509-0.9375 1.3509-0.51563 0-0.9375-0.86865-0.9375-1.9303zm-0.40496-4.3352c-0.33907-0.88358 0.0271-2.1958 0.83927-3.008 1.2959-1.2959 1.4407-1.1906 1.4407 1.0486 0 2.9552-1.4272 4.1817-2.28 1.9594zm1.5143-13.625c-1.29-1.29-1.5137-15.52-0.2747-17.475 1.3405-2.1156 1.8267-0.0154 2.0872 9.0159 0.26115 9.0528-0.00003 10.272-1.8126 8.4592zm0.29688-23.234c0.31867-0.51563 0.76545-0.9375 0.99283-0.9375s0.41342 0.42187 0.41342 0.9375c0 0.51562-0.44678 0.9375-0.99283 0.9375-0.54606 0-0.73209-0.42188-0.41342-0.9375zm0.15803-3.2075c-0.99741-2.5992-0.73865-15.543 0.31072-15.543 0.51562 0 0.99468 1.1602 1.0646 2.5781 0.46563 9.4482 0.4497 11.204-0.11616 12.807-0.58333 1.6523-0.6809 1.6645-1.2591 0.15769zm-137.98-139.3c-0.31818-0.51482-0.79171-3.9953-1.0523-7.7344-0.60032-8.614 1.0165-6.6119 1.8915 2.3423 0.59556 6.0946 0.39429 7.3879-0.83918 5.3921zm-2.34-23.44c0-1.0312 0.42187-1.875 0.9375-1.875 0.51562 0 0.9375 0.84375 0.9375 1.875s-0.42188 1.875-0.9375 1.875c-0.51563 0-0.9375-0.84375-0.9375-1.875zm-0.3489-8.2824c-0.91681-5.8309-0.96897-6.3117-2.3558-21.718-0.58019-6.4453-1.2543-13.617-1.498-15.938-0.29113-2.7715-0.15184-3.7259 0.40603-2.782 0.46706 0.79023 1.3106 6.6965 1.8746 13.125 0.56397 6.4285 1.4744 14.641 2.0231 18.251 0.54871 3.6094 0.84888 8.25 0.66705 10.312l-0.3306 3.75-0.78635-5.0012zm-5.147-48.364c-0.62872-1.5069-0.87272-3.4053-0.54221-4.2188 0.4792-1.1794 0.77992-1.0132 1.4848 0.82089 0.48611 1.2649 0.7301 3.1633 0.54221 4.2188-0.2982 1.675-0.48695 1.5706-1.4848-0.82089zm-8.408-97.573c0.01-5.157 0.0856-5.3643 0.91273-2.4915 0.58081 2.0172 0.57706 4.021-0.0105 5.625-0.76627 2.0917-0.91104 1.5888-0.90219-3.1335zm-10.32-110.16c0-1.2891 0.2128-1.8164 0.47287-1.1719 0.26007 0.64454 0.26007 1.6992 0 2.3438-0.26007 0.64454-0.47287 0.11719-0.47287-1.1719zm139.87 411.17c9.1253-2.5751 11.089-3.7009 10.253-5.8784-0.76529-1.9943-7.9484-1.0929-15.575 1.9546-3.1833 1.272-8.7409 3.0336-12.35 3.9148-10.032 2.4491-9.8555 3.54 0.46875 2.9013 5.0044-0.3096 12.541-1.5768 17.203-2.8924zm59.06-28.261c1.4683-1.8402 2.3764-3.6332 2.0179-3.9843-0.66013-0.64664-6.0939 5.231-6.0939 6.5918 0 1.5713 1.5151 0.60207 4.076-2.6074zm-188.34-5.7947c-1.0496-3.6978-0.59997-16.237 0.63566-17.726 0.57455-0.69229 1.7851-1.2587 2.6901-1.2587 3.6384 0 3.9694-2.044 2.3821-14.71-1.7365-13.857-3.8736-25.218-5.7371-30.499-1.9441-5.5101-4.2922-26.786-6.9612-63.072-0.53096-7.2188-1.3913-17.555-1.9119-22.969-1.0114-10.519-3.8778-45.802-5.598-68.906-0.57584-7.7344-1.4608-19.125-1.9665-25.312-0.50576-6.1875-1.3-23.906-1.7651-39.375-0.95889-31.897-2.3106-53.623-6.62-106.41-1.2948-15.86-1.6113-18.063-3.3152-23.082-1.0352-3.0491-1.5548-8.8376-1.7543-19.544-0.28839-15.475-1.0645-19.249-3.9588-19.249-1.3574 0-1.4496 1.5358-0.88717 14.766 0.88597 20.839 3.2324 65.206 4.8218 91.172 0.74168 12.117 1.7873 29.836 2.3236 39.375 0.53632 9.5391 1.3889 23.883 1.8946 31.875 0.50568 7.9922 1.3506 23.391 1.8776 34.219 1.3052 26.817 2.6234 48.509 3.7316 61.406 1.7941 20.88 2.7521 37.218 3.2433 55.312 0.86586 31.896 2.8303 71.29 5.1192 102.66 0.74236 10.173 2.3765 14.554 7.6843 20.599 3.5258 4.0156 5.0834 4.2946 4.0714 0.72918zm32.134-0.80078c-0.31153-0.31152-1.1201-0.34482-1.7969-0.074-0.74787 0.29927-0.52573 0.52142 0.56641 0.5664 0.98827 0.0407 1.542-0.18087 1.2305-0.49239zm142.39-4.2838c3.5518-1.6364 8.1224-3.2184 10.157-3.5156 7.2117-1.0536 7.7033-3.4292 10.298-49.759 1.5382-27.47 1.6607-30.001 3.8332-79.219 1.5266-34.586 2.9515-64.292 4.2495-88.594 0.4544-8.5078 1.2562-25.383 1.7818-37.5 0.89715-20.684 1.5398-32.522 3.8168-70.312 1.8935-31.425 3.4608-72.586 4.0608-106.64 0.13757-7.8094-0.76096-10.305-1.6875-4.6865-2.648 16.057-6.3735 67.043-10.84 148.36-1.0146 18.47-1.9399 31.753-3.6898 52.969-0.76097 9.2263-2.62 40.73-4.1767 70.781-0.24041 4.6406-1.0776 15.609-1.8605 24.375-3.3378 37.373-3.7613 42.351-3.8681 45.469-0.0619 1.8047-0.44658 4.0195-0.85502 4.9219-0.40844 0.90234-0.49498 2.286-0.19229 3.0747 0.30267 0.78876-0.12179 3.1138-0.94322 5.1668-1.177 2.9417-1.2539 4.0215-0.36266 5.0954 0.90408 1.0894 0.73133 1.9238-0.86132 4.1604-1.3495 1.8952-1.8056 3.5412-1.4139 5.102 0.31807 1.2673 0.16452 3.0817-0.34124 4.0321-0.50574 0.95037-1.4004 8.0561-1.988 15.79-1.1706 15.407-3.1955 27.49-5.283 31.527-0.7391 1.4293-1.3531 3.9907-1.3644 5.6921-0.022 3.3154-2.9088 10.477-5.279 13.096-0.79559 0.87913-1.1694 2.0469-0.83062 2.595 0.79758 1.2905 0.22181 1.4396 7.6412-1.9786zm-172.99-234.46c0.4881-6.8661-0.73431-15.991-2.0346-15.187-0.95505 0.59025-1.1897 12.537-0.29217 14.876 0.67771 1.7661 2.2088 1.9708 2.3268 0.31105zm-15.8-168.11c-0.63962-3.346-1.1574-2.7866-1.141 1.2325 0.009 2.241 0.29772 3.0688 0.79591 2.2832 0.42986-0.67786 0.58515-2.2599 0.34511-3.5156zm-18.97-51.09c0-0.4852-0.42188-0.88217-0.9375-0.88217-0.51563 0-0.9375 0.65771-0.9375 1.4616 0 0.80387 0.42187 1.2008 0.9375 0.88217 0.51562-0.31867 0.9375-0.97639 0.9375-1.4616zm248.25-1.0697c1.6648-1.6648 1.4162-7.0002-0.35793-7.681-0.8156-0.31298-1.6594-0.56905-1.875-0.56905-0.21563 0-0.39207 2.1094-0.39207 4.6875 0 4.7621 0.60472 5.5828 2.625 3.5625zm-246.92-4.8261c0.44886-1.9002 0.30035-2.5598-0.51511-2.288-1.8448 0.61494-3.0368 3.1601-2.3357 4.9872 0.79398 2.0691 1.9925 0.93428 2.8508-2.6992z"/>
<path id="path3585" fill="#0d0d0d" d="m435.47 894.41c-18.272-0.73843-24.632-1.3171-32.812-2.9851-12.207-2.4891-24.054-7.616-28.265-12.232-3.8411-4.2103-3.7882-3.7444-6.4182-56.538-0.69354-13.922-2.1236-39.234-3.1778-56.25-1.0543-17.016-2.3788-44.227-2.9433-60.469-0.56455-16.242-1.3741-34.805-1.799-41.25-0.4249-6.4453-1.2474-22.477-1.8277-35.625-0.58033-13.148-1.4848-27.914-2.0098-32.812-0.52507-4.8984-1.3994-18.188-1.9428-29.531-2.2293-46.53-4.194-85.463-6.3867-126.56-1.0709-20.072-2.0132-53.237-1.4517-51.094 0.79327 3.0286 3.7792 51.484 7.4814 121.41 1.4106 26.643 2.6196 44.196 4.3262 62.812 0.51994 5.6719 1.3133 22.125 1.763 36.562 1.4842 47.652 3.2484 82.839 5.5486 110.67 0.87507 10.588 2.3825 14.397 8.3304 21.049 3.0466 3.4072 4.0035 3.9913 4.9804 3.0401 0.9609-0.9356 0.98362-2.0208 0.11064-5.2847-1.1163-4.1737-0.14421-14.798 1.4041-15.346 3.8713-1.3697 5.4294-2.8878 5.6891-5.5432 0.45117-4.6127-4.2755-34.831-6.7324-43.041-2.653-8.8656-4.6637-26.413-7.1342-62.264-0.55077-7.9922-1.3964-17.906-1.8792-22.031-0.83445-7.1297-2.9544-32.748-4.7322-57.188-0.45012-6.1875-1.4925-19.898-2.3163-30.469-0.82385-10.57-1.8879-31.664-2.3646-46.875-1.5451-49.302-7.0402-121.36-9.8877-129.66-1.0689-3.1156-1.416-6.4411-1.1253-10.781 0.49713-7.4209-1.4061-26.823-2.7982-28.525-0.67617-0.82675-0.59159-3.1876 0.27767-7.7513 0.68748-3.6094 0.92478-6.8946 0.52733-7.3005-0.39744-0.40588-1.8342-0.31534-3.1929 0.20121-2.8454 1.0818-3.8856 4.0945-3.1805 9.2112 0.73665 5.3454 1.6434 39.967 1.0307 39.355-0.29535-0.29535-0.88998-6.3712-1.3214-13.502-0.43143-7.1306-1.2675-16.92-1.8579-21.754-1.5618-12.787-0.53317-14.507 9.8378-16.446 5.2718-0.98577 76.842-2.2744 86.25-1.553l9.375 0.71888-7.9688 0.145c-4.3828 0.0798-12.398 0.55109-17.812 1.0474-5.4141 0.49632-18.938 1.1106-30.052 1.3651-11.115 0.25448-20.818 0.67096-21.562 0.92553-0.74459 0.25457-3.1278 0.9167-5.296 1.4714-5.0862 1.3013-7.1628 3.2899-5.8997 5.65 0.5146 0.96155 0.93564 3.0416 0.93564 4.6224 0 1.8775 0.46846 2.8741 1.3509 2.8741 2.472 0 2.5467 1.8653 0.11174 2.791-2.853 1.0847-2.9081 1.8684-1.0292 14.622 1.6 10.86 3.857 35.617 5.2502 57.587 1.629 25.689 6.0516 66.579 8.3655 77.344 1.3631 6.3415 2.6755 23.013 3.7637 47.812 0.4978 11.344 1.3411 25.266 1.874 30.938 0.53287 5.6719 1.1478 13.055 1.3664 16.406 0.21866 3.3516 0.84456 11.262 1.3909 17.578 0.54633 6.3164 1.4022 16.441 1.9019 22.5 1.2185 14.774 3.5872 35.04 4.9035 41.953 0.58906 3.0938 1.1558 8.7891 1.2595 12.656 0.10369 3.8672 0.67824 10.195 1.2768 14.062 2.9771 19.235 3.6194 24.74 6.1807 52.969 1.3936 15.359 2.6006 20.562 5.5186 23.786 0.91335 1.0092 7.4286 3.8494 14.478 6.3114 7.0497 2.462 13.143 4.9238 13.541 5.4706 0.67261 0.92487 0.0507 7.0777-0.80288 7.9436-0.20979 0.2128-5.236-0.15418-11.169-0.8155-8.7545-0.97576-11.06-0.97666-12.231-0.005-2.2584 1.8743-0.24893 2.9776 5.9896 3.2884 3.0921 0.15403 6.467 0.73233 7.4999 1.2851 1.0329 0.55278 4.0197 1.4644 6.6374 2.0258 5.3489 1.1471 5.6697 1.9224 3.1543 7.6236-1.0867 2.4631-3.055 4.5304-6.0938 6.4001-5.2703 3.2428-5.62 5.0944-1.676 8.8729 3.6175 3.4658 3.715 5.39 0.23438 4.6263-9.729-2.1345-18.932-5.9171-26.016-10.692-2.0625-1.3905-5.6303-3.5476-7.9284-4.7936s-4.9348-3.0038-5.8594-3.9061c-2.0632-2.0136-4.9326-2.2511-3.837-0.3175 0.41234 0.72772 2.7473 3.0783 5.1887 5.2235 6.7749 5.9529 8.2074 10.118 9.195 26.735 0.45967 7.7344 0.8496 21.581 0.8665 30.771 0.0448 24.356 4.4651 50.323 8.5664 50.323 0.54586 0 2.8517 1.5235 5.1241 3.3856 2.5855 2.1186 4.693 3.1702 5.6317 2.81 0.82501-0.31659 2.503 0.21336 3.729 1.1777 1.4372 1.1305 4.6222 1.9891 8.9659 2.4171 5.7527 0.56686 7.1437 1.0705 9.5207 3.4476 1.531 1.531 2.6267 2.9407 2.4348 3.1327-1.0612 1.0612-24.692 0.51563-31.286-0.72231-7.6143-1.4295-9.8438-1.027-9.8438 1.7773 0 2.2171 3.3548 3.1837 19.363 5.5786 28.228 4.223 73.857 4.0096 103.45-0.48379 6.4453-0.97868 13.631-2.0285 15.968-2.333 2.3371-0.30447 5.7121-1.4458 7.5-2.5362 3.2485-1.9813 3.2492-1.9833 1.0612-2.9646-1.5441-0.69253-5.1454-0.65335-12.217 0.13293-14.143 1.5726-52.625 2.6058-52.625 1.4129 0-0.51796 0.75913-1.6287 1.687-2.4684 2.1859-1.9782 19.656-4.4667 26.488-3.773 3.7882 0.3846 6.6093 0.009 10.931-1.4535 3.2039-1.0845 9.1569-2.1533 13.229-2.3751 8.4663-0.46108 13.091-2.0789 15.805-5.5286 1.563-1.9871 2.0041-4.4145 2.533-13.942 0.51768-9.3245 1.6327-70.489 1.5378-84.356-0.0246-3.587 1.5466-5.4826 15.406-18.586 5.6776-5.3681 8.1489-11.25 4.7268-11.25-0.77344 0-1.4062 0.35611-1.4062 0.79135 0 1.7517-12.322 15.978-15.425 17.809-1.8285 1.0788-3.3246 2.3977-3.3246 2.9307 0 0.53301-0.59228 0.96912-1.3162 0.96912-0.72391 0-3.7825 1.3875-6.7969 3.0833-8.4876 4.775-11.602 5.8885-12.483 4.4627-0.47859-0.77438-2.251-1.0702-5.0697-0.84597-4.8319 0.3843-5.1787 0.065-2.4588-2.2638 2.0237-1.7327 2.2247-2.4441 1.1575-4.0965-0.85996-1.3316-7.367-4.0897-9.6485-4.0897-0.93471 0-2.8373-0.4326-4.228-0.96134-2.4337-0.92528-2.4669-1.0294-0.88483-2.7776 2.708-2.9923 1.1903-4.6986-4.1793-4.6986-2.5943 0-4.7169-0.42188-4.7169-0.9375 0-0.51563 0.87727-0.9375 1.9495-0.9375 2.0273 0 13.862-4.3805 15.249-5.6441 0.43585-0.39714-15.02-0.49237-34.345-0.21163l-35.138 0.51045-1.1031-2.0612c-0.60672-1.1337-0.97165-3.1036-0.81095-4.3776l0.29217-2.3164 31.059-0.45699c17.082-0.25134 33.061-0.83101 35.508-1.2882 5.1094-0.95455 8.1344-0.27443 15.203 3.4182 4.6178 2.4122 5.1135 2.4899 7.4731 1.1707 4.2474-2.3745 6.6782-8.6171 8.759-22.493 2.9686-19.797 3.6973-28.142 4.2164-48.281 0.26582-10.312 0.89418-25.711 1.3964-34.219 0.50219-8.5078 1.1364-19.477 1.4093-24.375 0.2729-4.8984 0.89288-11.648 1.3777-15 0.48485-3.3516 1.3283-11.789 1.8744-18.75 3.4188-43.58 8.6861-100.05 11.281-120.94 0.9928-7.9922 2.0463-18.539 2.3411-23.438 0.29483-4.8984 1.1541-16.289 1.9096-25.312 1.5935-19.033 3.8783-48.069 5.0534-64.219 0.45021-6.1875 1.0376-11.883 1.3053-12.656 0.2677-0.77344 0.73587-5.2031 1.0404-9.8438 0.30453-4.6406 0.76205-9.7031 1.0167-11.25 1.0728-6.5161 1.1159-12.262 0.10135-13.511-0.59138-0.72788-1.0752-2.1952-1.0752-3.2608 0-2.3293-3.928-3.2479-14.242-3.3305-3.7078-0.0297-6.9737-0.42965-7.2574-0.88873-0.59973-0.9704 2.9334-1.6975 12.124-2.4951 6.6633-0.57829 11.719-1.9628 11.719-3.2095 0-0.37778-0.96443-1.7275-2.1432-2.9994-3.7753-4.0736-13.875-5.319-49.419-6.0945-23.481-0.51224-29.987-0.888-25.781-1.489 6.8523-0.97927 84.976-0.18668 89.428 0.90727 1.7482 0.42955 3.8035 1.7223 4.5674 2.8729l1.389 2.0919-3.3454-1.3978c-1.84-0.76878-3.495-1.0852-3.6779-0.70304-0.18289 0.38211-0.16799 3.3315 0.0331 6.5541 0.3006 4.817 0.65763 5.8594 2.0069 5.8594 1.5109 0 3.1206-2.2906 4.9412-7.0312 0.92058-2.3971 0.40276 2.7107-1.5207 15-0.80701 5.1562-1.5191 13.594-1.5824 18.75-0.0633 5.1562-0.45197 12.117-0.86369 15.469-0.44339 3.6094-0.55129-2.3641-0.26467-14.652 0.36051-15.455 0.19989-20.921-0.62977-21.434-0.61253-0.37856-1.4752-0.32427-1.917 0.12064-2.6426 2.6612-6.2543 48.333-12.185 154.09-1.0655 18.998-2.0675 33.484-3.6966 53.438-0.52621 6.4453-1.8045 26.273-2.8407 44.062-2.1147 36.304-4.6446 69.812-7.2201 95.625-0.23151 2.3203-0.5001 5.511-0.59689 7.0904-0.0968 1.5794-0.98692 4.6701-1.9781 6.8681-1.5388 3.4124-1.6054 4.1204-0.45575 4.8448 1.1529 0.72655 1.1108 1.2658-0.29342 3.7533-1.0005 1.7724-1.4166 3.7943-1.0672 5.1863 0.31493 1.2548 0.14517 2.8033-0.37723 3.4411-0.52242 0.63783-1.1861 4.9566-1.4749 9.5972-1.1568 18.591-3.3386 33.243-5.5839 37.5-0.54392 1.0312-1.303 4.1447-1.6868 6.9188-0.41831 3.0234-1.8502 6.8976-3.5747 9.6717-5.1639 8.3069-3.8038 9.0324 7.5636 4.0345 4.1046-1.8047 8.6427-3.2812 10.085-3.2812 5.5963 0 7.0335-4.5204 8.4947-26.719 1.3558-20.597 3.426-61.693 5.1948-103.12 1.4624-34.253 2.5352-56.564 4.2604-88.594 0.486-9.0234 1.294-25.477 1.7956-36.562 2.7402-60.568 4.7528-84.497 4.1003-48.75-0.24943 13.664-0.69097 25.477-0.98119 26.25-0.29023 0.77344-1.0894 16.805-1.7759 35.625-2.4834 68.081-3.0762 82.289-4.0682 97.5-1.4348 22.001-2.9512 56.533-6.5458 149.06-0.51079 13.148-1.3538 30.234-1.8734 37.969-0.51958 7.7344-1.6183 30.727-2.4416 51.094-0.82331 20.367-1.704 38.813-1.957 40.99-0.70769 6.0891-5.4336 12.378-11.87 15.797-5.4533 2.8961-17.081 5.9992-29.264 7.8098-19.467 2.893-60.524 4.2067-91.875 2.9397zm9.4612-13.63c1.1224-1.7129 2.4529-2.3884 4.9435-2.5098 6.9519-0.33882 15.635 0.40018 16.904 1.4386 0.71959 0.5892 2.4071 1.5644 3.75 2.167 1.9968 0.89613-0.25213 1.1096-12.346 1.1719l-14.787 0.0761 1.5357-2.3438zm9.2888-104.56c-5.126-1.0345-9.6249-2.9184-8.2183-3.4414 0.63621-0.23654 4.644-0.0106 8.9062 0.50201 14.697 1.7677 41.968-2.711 41.968-6.8923 0-0.82927 0.87323-1.3937 2.1562-1.3937 2.3005 0 4.4062 1.576 4.4062 3.2978 0 1.196-10.79 4.8174-16.406 5.5062-2.0625 0.25296-5.3185 1.1177-7.2355 1.9218-3.7897 1.5894-18.731 1.8813-25.577 0.49963zm59.702-11.694c1.2266-2.692 2.4467-3.0059 3.2767-0.84289 0.58059 1.513-1.0627 3.1457-3.1928 3.1723-0.88848 0.0111-0.90765-0.52142-0.0839-2.3294zm-8.4323-1.4648c0.22559-0.67676 0.96387-1.415 1.6406-1.6406 0.70312-0.23437 1.0547 0.11719 0.82031 0.82031-0.22559 0.67676-0.96387 1.415-1.6406 1.6406-0.70312 0.23437-1.0547-0.11719-0.82031-0.82031zm-160.38-395.26c-0.0598-0.60236-0.38178-1.868-0.71548-2.8125-0.47076-1.3324-0.346-1.477 0.55667-0.64501 0.63987 0.58977 0.96183 1.8554 0.71548 2.8125-0.24636 0.95712-0.49686 1.2474-0.55667 0.64501z"/>
</g>
</svg>
