<?xml version="1.0" encoding="UTF-8" standalone="no"?>
<!-- Created with Inkscape (http://www.inkscape.org/) -->
<svg id="svg3597" xmlns:rdf="http://www.w3.org/1999/02/22-rdf-syntax-ns#" xmlns="http://www.w3.org/2000/svg" height="937.5" viewBox="0 0 937.5 937.5" width="937.5" version="1.1" xmlns:cc="http://creativecommons.org/ns#" xmlns:dc="http://purl.org/dc/elements/1.1/">
<metadata id="metadata3603">
<rdf:RDF>
<cc:Work rdf:about="">
<dc:format>image/svg+xml</dc:format>
<dc:type rdf:resource="http://purl.org/dc/dcmitype/StillImage"/>
<dc:title/>
</cc:Work>
</rdf:RDF>
</metadata>
<g id="g3607">
<path id="path3621" fill="#fefefe" d="m0 468.75v-468.75h468.75 468.75v468.75 468.75h-468.75-468.75v-468.75z"/>
<path id="path3619" fill="#cfcfcf" d="m410.62 893.45c-31.664-1.6474-45.533-4.6058-52.129-11.12-3.8591-3.8113-5.7412-9.0917-6.9024-19.365-1.0286-9.1007-3.1188-24.888-9.8674-74.531-1.7874-13.148-4.7476-35.086-6.5782-48.75-4.0829-30.477-8.9818-66.19-12.667-92.344-1.5257-10.828-4.0315-28.969-5.5684-40.312-1.5369-11.344-3.8866-28.641-5.2214-38.438-7.7726-57.045-7.8491-58.077-4.6654-62.936 0.86335-1.3176 3.5381-3.2679 5.9438-4.334l4.3741-1.9382 122.34 0.71345c67.289 0.3924 135.63 0.98767 151.88 1.3228 42.236 0.87153 41.102-0.24466 36.135 35.57-1.2665 9.131-4.032 29.891-6.1456 46.133-2.1135 16.242-5.0779 38.602-6.5875 49.688s-3.1345 23.531-3.611 27.656c-0.4764 4.125-2.1784 17.203-3.7821 29.062-6.4128 47.421-7.6641 56.821-9.4222 70.781-2.8043 22.268-7.264 55.853-9.8344 74.062-1.2738 9.0234-3.012 21.469-3.8628 27.656-1.6729 12.167-2.5576 14.623-6.6335 18.412-6.6572 6.1899-18.364 9.6211-39.719 11.642-17.888 1.6927-103.56 2.6124-127.47 1.3685zm129.66-11.29c8.1725-2.0039 9.3877-2.5757 10.993-5.1726 1.8334-2.9666 2.8281-11.594 4.3336-37.588 0.58569-10.112 0.54151-10.46-1.408-11.079-2.5537-0.81051-2.5466-2.1671 0.0258-4.9052 2.5534-2.7179 1.647-2.7326-7.8604-0.12706-6.0482 1.6575-7.5983 1.809-8.22 0.80306-0.88924-1.4388-1.8125-1.2098-11.271 2.7953-19.151 8.1098-49.827 13.858-66.951 12.546-8.7218-0.66828-20.793-3.5118-22.968-5.4105-1.9526-1.7042-10.028-2.8758-10.834-1.5718-0.84289 1.3638-3.9963 1.2315-4.9031-0.20581-0.41234-0.65357-1.8044-1.9221-3.0935-2.819-1.2891-0.89687-3.3378-2.3385-4.5528-3.2036-2.1143-1.5054-2.2802-1.4787-3.8644 0.62155-1.9603 2.5988-4.3306 2.0782-5.5874-1.2272-0.88131-2.318-4.3455-3.9013-5.2685-2.4079-0.93787 1.5175-10.116 0.87295-14.242-1.0003-2.1914-0.99472-3.9844-1.5777-3.9844-1.2956 0 0.28216 0.59619 2.6873 1.3249 5.3448 0.72868 2.6575 1.5859 9.4724 1.905 15.144 1.2358 21.969 2.2745 33.179 3.2417 34.986 1.562 2.9187 7.801 4.639 22.591 6.2291 19.81 2.1298 19.565 2.1232 72.656 1.9522 48.036-0.15472 48.885-0.19005 57.938-2.41zm-84.66-57.05c0-2.5502 2.0948-3.9122 7.2116-4.689l4.5071-0.6842-7.0312-0.67947c-3.8672-0.37371-8.6084-1.4054-10.536-2.2927-3.6242-1.6681-4.573-3.0195-2.1201-3.0195 1.9549 0 1.7682-2.7444-0.23438-3.4466-0.90234-0.31639-2.3374-1.4402-3.189-2.4974-1.2141-1.5072-2.6736-1.9332-6.7616-1.9734-6.3469-0.0625-8.4908 1.6327-8.5348 6.7488l-0.0302 3.5124-8.9-0.17c-9.097-0.17543-9.2063 0.38066-0.4823 2.4534 2.5707 0.61078 6.7417 2.3828 9.2689 3.9378 4.1392 2.5468 5.582 2.8771 14.545 3.3288 5.4724 0.27584 10.126 0.66608 10.34 0.86722 0.97279 0.91072 1.9531 0.21077 1.9531-1.3945zm50.156-4.5184c3.6094-0.81331 7.6172-2.0368 8.9062-2.7188l2.3438-1.2401-2.3438-0.0483c-2.8332-0.0583-25.649 2.031-26.101 2.3903-0.17598 0.13978-0.0388 1.14 0.30484 2.2227 0.56082 1.767 1.1216 1.9125 5.4762 1.4207 2.6683-0.30131 7.8045-1.2133 11.414-2.0266zm48.281-8.553c0-2.1774-1.7941-3.9184-4.0378-3.9184-1.2362 0-1.6143 0.45221-1.2254 1.4656 0.30934 0.8061-0.0674 2.6836-0.8372 4.1722-1.9971 3.862-1.8297 3.9947 2.3504 1.8622 2.2536-1.1497 3.75-2.5789 3.75-3.5816zm-168.75-1.106c-1.0174-1.9011-3.75-2.6182-3.75-0.98408 0 0.90152 2.6634 2.7781 4.0174 2.8306 0.40486 0.0157 0.28455-0.81524-0.26736-1.8465zm194.06-4.7982c0-0.51563-0.42188-0.67677-0.9375-0.3581-0.51563 0.31867-0.9375 1.0013-0.9375 1.5169 0 0.51563 0.42187 0.67677 0.9375 0.3581 0.51562-0.31867 0.9375-1.0013 0.9375-1.5169zm-130.78-17.669v-3.2483l-5.1562-0.29438c-2.8359-0.1619-7.4766 0.04-10.312 0.44872-4.2699 0.61535-5.1562 1.0632-5.1562 2.6052 0 1.4986 1.0067 2.0772 5.1562 2.9638 2.8359 0.60591 7.4766 1.0278 10.312 0.9375l5.1562-0.16416v-3.2483zm73.064-11.26c5.4105-2.0571 2.2416-2.8357-11.541-2.8357-14.133 0-19.805 0.55348-19.805 1.9328 0 1.0765 4.3954 1.4948 17.517 1.6672 6.2828 0.0825 12.506-0.26139 13.828-0.76426zm-161.38-5.1794c4.8097-2.5 7.2158-4.2969 7.2185-5.3906 0.006-2.2683-0.80715-2.1116-8.8522 1.707-7.5729 3.5946-8.4885 4.3886-7.6326 6.619 0.64167 1.6721 0.0283 1.8664 9.2663-2.9354zm19.487 3.2812c0.47344 0 0.86082-0.38238 0.86082-0.84973 0-1.091-3.5862-0.17368-4.3872 1.1222-0.38229 0.61855-0.00043 0.75054 1.0288 0.35559 0.9002-0.34544 2.0241-0.62807 2.4976-0.62807zm180.16 0.31661c-0.64453-0.26007-1.6992-0.26007-2.3438 0-0.64453 0.26007-0.11718 0.47287 1.1719 0.47287s1.8164-0.2128 1.1719-0.47287zm-110.24-12.112 2.2434-2.4206 29.739 0.60662c16.357 0.33363 37.755 0.19752 47.552-0.3025 15.305-0.78112 18.795-1.2524 24.789-3.3474 11.226-3.9236 13.584-7.0596 17.688-23.522 4.0629-16.296 9.2272-41.805 10.439-51.562 0.57635-4.6406 2.7286-17.297 4.7827-28.125s5.2135-28.547 7.0208-39.375c4.0498-24.264 6.1022-33.726 9.1505-42.188 2.6453-7.3429 5.55-24.418 7.9743-46.875l1.6192-15 3.7368-0.48268c6.9259-0.89462-0.0175-1.8345-13.654-1.8483-6.9868-0.008-18.166-0.4296-24.844-0.93903-24.542-1.8724-254.98-1.7055-256.87 0.18603-1.0313 1.0313 8.8088 48.369 11.822 56.869 6.772 19.108 9.1702 30.843 14.969 73.246 2.1089 15.422 9.6815 55.133 13.498 70.781 1.2574 5.1562 2.7108 11.695 3.2296 14.531 2.805 15.331 8.5253 29.488 13.357 33.058 1.5092 1.1151 3.7718 1.7596 5.8594 1.6692 4.495-0.19472 5.5321-0.15884 13.245 0.4583 9.4365 0.75508 10.723 1.16 11.901 3.7461 1.3544 2.9725 3.8679 2.9613 5.8252-0.0259 2.042-3.1164 7.1655-3.2346 10.161-0.23437 1.5844 1.587 3.616 2.247 8.2031 2.665 12.795 1.166 14.146 1.0379 16.563-1.57zm152.71-82.652c1.8313-14.673 3.1965-27.369 3.0338-28.214-0.76755-3.9855-7.8571 37.471-9.6738 56.568-0.34337 3.6094-0.8121 8.1567-1.0416 10.105-0.22954 1.9484-0.10819 4.0428 0.26965 4.6542 1.0727 1.7356 3.7794-14.008 7.412-43.113zm-262.06 6.6426c-1.5877-9.1993-3.9141-23.898-5.1698-32.664-1.2557-8.7656-3.1437-18.993-4.1955-22.727-1.0518-3.7344-2.7774-14.386-3.8347-23.67-1.0573-9.2843-2.2761-18.674-2.7084-20.866-0.70368-3.5678-0.79693-3.6757-0.88887-1.0284-0.15244 4.389 2.4668 27.808 4.0732 36.418 0.76958 4.125 2.9081 17.836 4.7523 30.469s4.3528 27.188 5.5746 32.344c1.2218 5.1562 2.7598 11.87 3.4177 14.919 2.4131 11.183 1.785 3.063-1.0205-13.192z"/>
<path id="path3617" fill="#9f9f9f" d="m413.91 892.87c-23.918-1.3129-40.825-3.6036-47.652-6.4565-4.542-1.8977-8.8553-5.7613-10.894-9.7583-0.99176-1.944-2.2011-7.4611-2.7998-12.773-1.0513-9.3272-4.5584-35.507-9.0393-67.475-1.3009-9.2812-2.9842-21.938-3.7407-28.125-0.7565-6.1875-2.6247-20.32-4.1516-31.406s-4.2769-31.125-6.1111-44.531-4.5556-33.023-6.0477-43.594c-1.492-10.57-4.2441-30.609-6.1158-44.531s-4.8203-35.648-6.5525-48.281c-5.4916-40.05-5.729-42.72-4.1882-47.127 0.9344-2.6724 2.3763-4.475 4.6373-5.7976 3.2706-1.9131 3.7225-1.9186 138.75-1.6871 144.06 0.24692 169.01 0.7367 174.19 3.4199 3.624 1.876 4.6094 3.782 2.9741 5.7524-0.95381 1.1493-0.86181 1.7544 0.49464 3.2533 1.4261 1.5758 1.5754 2.8915 1.0357 9.123-0.34687 4.0049-1.0376 9.602-1.5349 12.438-0.89031 5.077-3.8766 27.451-9.3221 69.844-1.5234 11.859-3.3973 25.992-4.1644 31.406-0.767 5.4141-1.8446 13.641-2.3947 18.281-0.95198 8.0314-3.0928 24.095-9.3711 70.312-1.5409 11.344-3.455 26.32-4.2534 33.281-0.79844 6.9609-2.0525 16.453-2.7868 21.094-0.73432 4.6406-1.9914 13.922-2.7935 20.625-0.80208 6.7031-2.5029 19.57-3.7796 28.594-1.2767 9.0234-3.191 22.685-4.254 30.36-1.063 7.6743-2.5071 15.057-3.2092 16.406-1.7903 3.4403-4.902 6.079-10.428 8.843-13.415 6.7098-31.189 8.2514-98.839 8.5723-28.617 0.13576-54.562 0.10789-57.656-0.062zm127.31-10.039c13.221-3.4905 13.143-3.3588 14.785-25.017 2.1778-28.73 2.1946-29.894 0.45985-31.811-1.5354-1.6966-1.459-1.8745 1.7413-4.0491 1.841-1.251 3.1098-2.5121 2.8195-2.8024-0.29029-0.2903-4.5301 0.5324-9.4218 1.8282-12.204 3.2328-13.017 1.619-2.0272-4.0202 5.7064-2.928 6.9216-5.0658 4.4111-7.7605-2.8487-3.0577-9.2536-2.4866-7.3083 0.65173 2.9821 4.811-4.2553 10.125-24.96 18.327-4.6314 1.8347-22.412 6.543-30 7.9438-17.974 3.3183-35.822 3.3132-44.922-0.0127-2.6067-0.95277-5.3451-1.7323-6.0852-1.7323-0.74012 0-2.0117-0.58239-2.8257-1.2942-1.822-1.5932-11.317-2.7799-13.078-1.6344-1.3042 0.84835-7.8949-2.9195-10.412-5.9525-1.5308-1.8445-3.6628-1.8198-5.7473 0.0667-1.7963 1.6256-3.6485 1.075-3.6485-1.0847 0-0.74301-0.363-1.3509-0.80667-1.3509s-2.2366-0.96966-3.9844-2.1548c-1.7477-1.1851-3.9978-2.4689-5.0001-2.8528-1.7261-0.66113-1.7385-0.60527-0.23438 1.0568 0.87343 0.96513 1.5881 2.2489 1.5881 2.8528 0 1.758-7.52 1.2605-12.056-0.79753-6.1732-2.8012-7.0064-2.5155-4.846 1.6612 1.4772 2.856 2.1638 8.089 3.6594 27.891 1.0126 13.406 2.1371 25.129 2.4989 26.05 1.114 2.8365 5.6166 4.4121 16.799 5.8786 20.395 2.6747 31.168 3.0507 80.195 2.7985l49.219-0.25318 9.1876-2.4256zm-83.547-57.567c0.28884-2.4822 0.53071-2.5786 9.2029-3.6692 7.9878-1.0045 16.23-1.5814 19.453-1.3615 0.64454 0.044 1.1719 0.96509 1.1719 2.047 0 1.8564 0.32956 1.9309 5.8594 1.3249 12.406-1.3597 24.141-4.7944 24.141-7.066 0-1.2341-3.6779-1.1193-19.688 0.61441-18.371 1.9895-18.712 2.0015-32.365 1.141-14.707-0.92705-15.485-1.1478-15.406-4.3757 0.0718-2.964-1.4218-10.299-2.2701-11.147-0.95314-0.95313-11.086-0.87413-14.473 0.11285-3.7094 1.0809-5.1771 3.4567-5.2646 8.5222l-0.0648 3.75-4.5567 0.28997c-2.5062 0.15949-5.7915-0.14048-7.3007-0.66658-1.8748-0.65358-3.5495-0.64901-5.287 0.0144-2.4122 0.92102-2.4532 1.037-0.79757 2.2528 0.96 0.70501 4.0187 1.5659 6.7971 1.913 3.2738 0.40903 6.9487 1.779 10.442 3.8928 5.0823 3.0752 5.9798 3.2884 15.703 3.731 5.6719 0.25817 10.488 0.64026 10.703 0.84909 1.4026 1.3634 3.7364 0.0976 4.0002-2.1695zm16.24-0.26c-0.31867-0.51563-1.2122-0.9375-1.9856-0.9375-0.77344 0-1.1455 0.42187-0.82685 0.9375 0.31867 0.51562 1.2122 0.9375 1.9856 0.9375 0.77344 0 1.1455-0.42188 0.82685-0.9375zm61.59-10.5c-0.875-0.875-1.125-0.625-1.125 1.125s0.25 2 1.125 1.125 0.875-1.375 0-2.25zm28.741-0.68148c3.6398-1.8569 6.719-4.756 5.0514-4.756-0.51562 0-1.513 0.69341-2.2163 1.5409-0.70336 0.84749-2.9699 2.2943-5.0367 3.215-2.0668 0.92076-3.2137 1.7039-2.5486 1.7403 0.66507 0.0365 2.8027-0.74669 4.7502-1.7402zm-177.71-2.4123c-1.1227-2.3543-2.1778-3.2812-3.7348-3.2812-3.1714 0-2.7018 2.5159 0.87675 4.6978 4.2214 2.5739 4.6578 2.3576 2.8581-1.4165zm191.67-2.2438c2.1085-1.806 2.8808-4.7874 1.2401-4.7874-0.98852 0-6.6308 6.5917-6.6308 7.7466 0 0.901 2.4611-0.45004 5.3906-2.9592zm-40.244 0.52552c0.17538-0.90428-0.29515-1.5629-1.1165-1.5629-1.7416 0-2.7928 1.5283-1.9685 2.862 0.84801 1.3721 2.7199 0.58388 3.085-1.2991zm-121.71 0.49c0-1.1683-2.1179-3-3.4688-3-1.5582 0-1.5957 2.5042-0.0469 3.1291 1.8556 0.74877 3.5156 0.68781 3.5156-0.12911zm32.625-17.25c1.3889-1.3889 1.4888-7.9145 0.13394-8.7518-3.4389-2.1254-19.072-0.99722-21.63 1.5609-3.3879 3.3879-1.9953 4.8997 6.684 7.256 4.7515 1.29 13.496 1.2515 14.812-0.0651zm-33.094-4.5128c0-0.76637-0.94922-1.5282-2.1094-1.693-2.052-0.29143-2.9282 1.512-1.452 2.9882 1.0922 1.0922 3.5613 0.19421 3.5613-1.2952zm88.125-0.32881 4.6875-1.243-6.7414-0.70351c-7.4817-0.78076-10.079-0.0811-7.2839 1.9625 2.1324 1.5593 3.4055 1.5571 9.3378-0.016zm-125.23-11.463c1.7643-0.4837 3.3814-1.4003 3.5936-2.0368 0.81215-2.4364-2.8346-2.2252-8.0063 0.46378-2.9467 1.5321-8.0032 3.7471-11.237 4.9222-9.4776 3.4443-7.583 3.7991 2.8486 0.53344 5.2762-1.6518 11.037-3.3989 12.801-3.8826zm145 0.41042c2.9908-2.996 0.75791-3.6071-13.026-3.5648-15.879 0.0487-24.006 1.2889-21.945 3.3491 1.4813 1.4813 7.8527 2.0958 20.095 1.938 10.994-0.14165 13.6-0.44333 14.877-1.7224zm39.269 0.18559c0.88804-1.4369-3.8492-4.0267-6.074-3.3206-3.6695 1.1646-1.4672 3.0205 4.8722 4.106 0.35629 0.061 0.89708-0.29242 1.2018-0.7854zm-202.31-4.3705c4.5712-2.3911 8.2416-4.9094 8.1985-5.625-0.30828-5.1125 0.13278-5.0888-8.9834-0.48186-8.8897 4.4926-10.873 6.2818-9.8672 8.9025 0.83754 2.1826 1.4341 2.026 10.652-2.7957zm54.3-8.3269c1.9438-2.9667 5.7498-3.085 9.304-0.28928 2.25 1.7698 4.09 2.111 13.28 2.4628 8.8759 0.33974 10.948 0.15539 12.332-1.0971 1.4735-1.3335 5.9415-1.4927 39.112-1.3939 20.596 0.0614 41.935-0.32753 47.419-0.86419 14.331-1.4024 24.168-4.9657 30.108-10.906 2.0732-2.0732 5.877-14.655 9.0997-30.1 1.6139-7.7344 3.7306-17.859 4.7037-22.5 0.97315-4.6406 2.2505-12.234 2.8385-16.875 0.58801-4.6406 2.9197-18.141 5.1814-30 2.2618-11.859 4.9872-27.047 6.0565-33.75 2.4993-15.667 5.8576-31.201 9.4164-43.556 2.6721-9.2767 6.0637-30.06 8.65-53.006l1.1623-10.312 4.0436-0.29117c4.3892-0.31606 4.9586-2.011 1.0432-3.1052-1.2508-0.34954-8.6024-0.68716-16.337-0.75025-7.7344-0.0631-19.161-0.51137-25.393-0.99615-10.871-0.84571-216.93-1.3505-243.35-0.59613-7.0426 0.20112-13.294 0.66809-13.892 1.0377-0.59806 0.36962-0.80089 1.3676-0.45073 2.2178 0.35015 0.85019 2.6575 11.46 5.1275 23.577 5.3589 26.29 7.5453 35.003 10.821 43.125 1.3519 3.3516 3.0164 9.4688 3.699 13.594 0.68261 4.125 2.5179 15.094 4.0785 24.375 1.5606 9.2812 3.528 21.727 4.3721 27.656 1.8769 13.185 10.272 56.212 12.68 64.986 0.96477 3.5159 2.2482 9.844 2.8521 14.062 0.60389 4.2185 1.4701 8.1394 1.9249 8.7132 0.45482 0.5738 1.2771 3.5269 1.8274 6.5625 1.2463 6.8756 6.389 17.796 10.007 21.25 2.542 2.4265 3.4029 2.6376 12.539 3.0748 15.555 0.74438 16.912 0.96368 18.533 2.9966 1.3568 1.7014 3.1511 2.7682 4.9924 2.9681 0.37483 0.0407 1.3726-0.98067 2.2172-2.2697zm177.98-14.778c0.76468-1.1671 2.0214-6.9678 2.7928-12.891 0.77134-5.9228 2.0702-14.987 2.8863-20.144 5.339-33.732 11.536-94.674 9.0569-89.062-0.45565 1.0312-1.759 8.625-2.8963 16.875s-3.2711 20.062-4.7418 26.25c-1.4707 6.1875-2.9368 12.938-3.2581 15-1.0787 6.925-3.3901 28.029-4.2549 38.848-0.47139 5.8976-1.3293 13.838-1.9065 17.646-1.369 9.0313-0.50969 11.799 2.3215 7.4783zm-246.64-11.39c0.53325-2.9007 0.48011-4.7865-0.15268-5.4193-1.8351-1.8351-3.0089 0.29828-3.0089 5.4683 0 6.4869 1.9657 6.4564 3.1616-0.049zm-0.11964-16.022c-0.25-1.3-0.61-2.35-0.81-2.35s-0.36 1.05-0.36 2.34c0 1.2891 0.36338 2.3438 0.8075 2.3438s0.60588-1.0547 0.35945-2.3438zm-1.5737-11.953c-0.35686-4.2539-1.8843-14.695-3.3944-23.203-1.51-8.5078-3.8308-23.273-5.1573-32.812-1.3265-9.5391-3.4114-21.773-4.633-27.188-1.2217-5.4141-2.6853-14.062-3.2526-19.219-1.1657-10.597-4.9512-39-7.2188-54.166-0.83091-5.5569-1.9308-10.363-2.4442-10.68-0.59797-0.36957-0.71993 0.90298-0.33936 3.541 0.32673 2.2648 1.8452 16.985 3.3743 32.712 3.9793 40.926 11.311 94.777 14.104 103.59 0.49001 1.5469 1.9728 7.875 3.295 14.062 2.4491 11.46 5.1421 21.094 5.8969 21.094 0.23022 0 0.12661-3.4805-0.23024-7.7344zm264.48-89.941c-0.29927-0.74787-0.52142-0.52573-0.5664 0.56641-0.0407 0.98827 0.18087 1.542 0.49239 1.2305 0.31152-0.31153 0.34482-1.1201 0.074-1.7969zm-293.21-110.34c1.014-1.8946 0.48324-2.9358-1.4965-2.9358-0.70833 0-1.25 1.0156-1.25 2.3438 0 2.7642 1.4202 3.0703 2.7465 0.59201z"/>
<path id="path3615" fill="#6f6f6f" d="m419.06 892.49c-28.902-1.5232-47.535-4.0163-53.872-7.2078-3.7044-1.8659-7.8351-5.7338-9.4749-8.8721-0.71724-1.3727-1.7436-6.4352-2.2807-11.25-0.94232-8.4465-3.517-27.664-9.3996-70.16-1.5346-11.086-3.6524-26.695-4.7061-34.688-6.0519-45.899-7.7293-58.323-11.202-82.969-2.1068-14.953-5.0487-36.258-6.5376-47.344-4.8247-35.923-6.5985-48.924-8.9536-65.625-3.8057-26.987-6.0743-45.75-6.0743-50.239 0-5.8929 1.9828-9.1997 6.7609-11.276 3.8514-1.6734 8.0401-1.7336 99.645-1.4329 102.22 0.33554 203.8 1.5618 207.68 2.507 1.2997 0.31717 3.3983 1.3574 4.6634 2.3117 2.1964 1.6568 2.2269 1.816 0.67612 3.5296-1.5449 1.7071-1.5323 1.8776 0.25851 3.4983 2.3345 2.1127 2.49 8.3898 0.51119 20.632-1.4132 8.743-8.0164 58.097-10.411 77.812-0.75142 6.1875-2.4113 18.844-3.6887 28.125-3.07 22.36-11.23 84.01-14.57 110.17-1.0214 7.9922-2.8932 22.125-4.1596 31.406-1.2663 9.2812-3.3682 24.891-4.6708 34.688-4.7556 35.766-7.0412 52.567-7.5595 55.567-1.2368 7.1588-10.792 13.512-24.812 16.497-17.218 3.6662-100.67 6.2898-137.81 4.3325zm111.56-7.0708c1.8047-0.27035 7.2012-1.3841 11.992-2.4751 11.346-2.5836 12.396-3.8838 13.38-16.579 0.38454-4.9617 1.2234-15.688 1.8641-23.837 0.87618-11.143 0.89837-15.082 0.0895-15.891-1.7888-1.7888-1.2242-3.3878 1.7371-4.9191 2.7188-1.4059 3.8983-4.2188 1.769-4.2188-0.5739 0 0.97637-1.3711 3.445-3.0469 2.4687-1.6758 4.9272-3.7649 5.4634-4.6425 1.6677-2.7295-0.25596-3.0765-2.9529-0.53257-2.3422 2.2093-8.6436 5.4095-10.652 5.4095-0.45266 0-0.82301-1.1812-0.82301-2.625 0-3.7822-1.6058-4.875-7.1634-4.875-5.1053 0-7.0924 1.149-4.4979 2.6009 0.9769 0.54671 1.394 1.7911 1.1916 3.5546-0.25564 2.2269-1.4042 3.3481-6.4052 6.2528-10.736 6.2356-29.64 12.468-49.219 16.226-11.967 2.2972-35.552 2.8733-38.502 0.94049-1.2172-0.79753-2.933-1.45-3.8128-1.45-0.87989 0-2.2658-0.55437-3.0799-1.2319-2.0398-1.6978-10.729-3.7238-17.013-3.9669-5.5996-0.21662-9.7222-1.9028-12.363-5.0564-1.2078-1.4424-2.2728-1.808-4.0026-1.3739-2.786 0.69922-6.6134-0.73073-13.291-4.9656-2.6823-1.701-5.2753-3.0928-5.7623-3.0928-1.1002 0-6.7046-6.2965-6.7046-7.5326 0-1.186-4.4101-1.1746-5.1443 0.0132-1.1663 1.8871 1.6638 4.8497 6.8046 7.1232 5.3646 2.3725 8.6522 4.7156 8.6522 6.1665 0 1.6629-7.7183 0.6873-13.568-1.715-3.3578-1.379-6.394-2.2183-6.7471-1.8652-0.35308 0.35308 0.42559 1.7977 1.7304 3.2103 3.2551 3.524 3.442 4.2829 4.5137 18.329 3.1537 41.332 2.7328 38.957 7.3257 41.332 3.7211 1.9242 25.065 4.3752 45.652 5.2422 18.156 0.76466 90.136 0.38302 96.094-0.50948zm14.062-64.619c0-1.0596 7.6645-4.2378 10.22-4.2378 4.834 0 4.0223 1.5775-1.6274 3.1627-5.4367 1.5254-8.5925 1.9203-8.5925 1.0751zm-86.078 5.3716c0.27166-2.361 0.67172-2.6022 4.7498-2.8639 3.472-0.22279 4.4531 0.0261 4.4531 1.1294 0 1.8358 5.6056 2.9138 9.0903 1.7481l2.6284-0.87924-3.6278-1.2004c-2.6377-0.87276-3.2774-1.4224-2.3438-2.0138 2.3478-1.4873 7.9378-0.92066 10.19 1.0329 2.5752 2.2335 2.708 2.2382 14.062 0.50242 10.808-1.6523 18.116-3.7646 19.723-5.7014 2.502-3.0147-0.30491-3.2997-16.503-1.6758-15.314 1.5353-36.395 1.8558-45.65 0.69405-4.0757-0.5116-4.4579-0.77509-4.4229-3.049 0.047-3.0502-1.6998-14.068-2.4134-15.222-0.28516-0.46139 0.34719-2.7958 1.4052-5.1876 2.4094-5.4469 2.3987-6.035-0.18573-10.158l-2.1094-3.365-7.5 0.54345c-9.281 0.67251-12.353 1.8143-14.131 5.2512-0.97742 1.8901-2.1392 2.7125-3.9402 2.7892-1.9645 0.0836-2.1213 0.2155-0.67905 0.57127 2.9731 0.73337 11.331 5.9832 12.496 7.8495 0.89474 1.4327 0.66158 1.8896-1.4904 2.9211-3.2409 1.5533-5.1274 5.4788-5.2696 10.965-0.10411 4.0194-0.29037 4.3235-2.8255 4.6128-1.4927 0.17037-4.4458-0.34751-6.5623-1.1508-3.3066-1.255-4.3585-1.284-7.4724-0.20585l-3.6241 1.2548 3.3959 2.5902c2.6526 2.0233 4.0232 2.4647 6.2621 2.0169 2.9548-0.59096 8.3326 1.5507 12.951 5.1577 1.6726 1.3063 3.9161 1.7668 8.9062 1.8283 3.6687 0.0452 8.7798 0.41068 11.358 0.81224 8.3695 1.3036 8.7523 1.2362 9.0784-1.5975zm78.259-8.9062c0.40124-0.64453 0.61595-2.0519 0.47713-3.1275-0.13881-1.0756 0.40155-2.4983 1.2008-3.1617 1.9516-1.6197 1.8301-2.5838-0.48174-3.821-3.1104-1.6646-4.6276 0.38141-4.6276 6.2406 0 3.7645 0.34217 5.0415 1.3509 5.0415 0.74301 0 1.6792-0.52734 2.0804-1.1719zm43.404-9.562c1.2412-1.4956 0.73373-4.2661-0.78147-4.2661-1.4739 0-8.7343 9.2626-8.0845 10.314 0.59082 0.95597 6.2665-2.9156 8.866-6.0479zm-163.09 2.4112c0-0.96811-0.58008-2.2416-1.2891-2.83-0.70899-0.58841-1.2891-2.1646-1.2891-3.5027 0-2.9994-1.8709-4.2882-4.3213-2.9768-1.7932 0.95968-1.7816 1.036 0.41824 2.7588 2.1196 1.66 2.1589 1.8516 0.62179 3.0353-2.2032 1.6968-2.0657 2.909 0.46875 4.1313 3.3068 1.5948 5.3906 1.3567 5.3906-0.616zm156.58-10.89c0-0.77344-0.42188-1.4062-0.9375-1.4062-0.51563 0-0.9375 0.63281-0.9375 1.4062 0 0.77344 0.42187 1.4062 0.9375 1.4062 0.51562 0 0.9375-0.63281 0.9375-1.4062zm-156.52-9.4287c1.0199-1.2289 0.82401-1.8476-1.2378-3.9094s-2.6805-2.2576-3.9094-1.2378c-1.4782 1.2268-1.9818 4.8352-0.83496 5.9821 1.1469 1.1469 4.7553 0.64323 5.9821-0.83496zm103.43-1.1015c1.6238-1.0035-2.9958-2.0569-13.727-3.13-10.787-1.0787-26-0.44194-26 1.0882 0 0.46934 0.42188 0.85334 0.9375 0.85334s0.9375 0.6955 0.9375 1.5456c0 1.4062 1.666 1.485 18.473 0.87415 10.16-0.36928 18.881-0.92332 19.379-1.2312zm-63.419-1.7549c-0.31153-0.31152-1.1201-0.34482-1.7969-0.074-0.74787 0.29927-0.52573 0.52142 0.56641 0.5664 0.98827 0.0407 1.542-0.18087 1.2305-0.49239zm-97.238-3.6555c3.2937-1.2908 9.1745-3.2275 13.068-4.3038 8.9194-2.4654 11.862-4.1974 10.309-6.0682-1.6717-2.0143-4.3502-1.6391-9.6776 1.3557-2.6409 1.4846-8.2821 4.0692-12.536 5.7437-4.4552 1.7537-7.7344 3.5904-7.7344 4.332 0 1.6228-0.4646 1.6977 6.5705-1.0594zm212.8 0.003c0-0.77344-0.60791-1.4062-1.3509-1.4062-1.5662 0-2.6235 1.3381-1.7486 2.213 1.1205 1.1205 3.0995 0.60535 3.0995-0.80674zm-48.73-5.6432c2.44-2.2082 2.3481-3.8497-0.25444-4.5472-2.896-0.77611-17.343-0.62975-26.772 0.27122-8.0861 0.77267-10.821 1.9977-8.8539 3.9652 1.9322 1.9322 7.9759 2.5864 21.115 2.2853 10.82-0.24793 13.211-0.5677 14.766-1.9745zm-166.08-2.6464c2.9034-1.7233 6.636-3.6671 8.2947-4.3196 3.719-1.463 5.3611-3.3215 4.3539-4.9279-0.41823-0.66712-0.63267-1.9885-0.4765-2.9364 0.36854-2.237-0.42054-1.9944-10.694 3.2876-10.133 5.2099-11.427 6.473-9.9508 9.7136 1.3698 3.0065 2.1588 2.9304 8.4728-0.8173zm206.37 1.7511c0-0.7602-1.309-2.059-2.9088-2.8864-2.3691-1.2251-3.4011-1.3003-5.562-0.40521-2.8094 1.1637-2.8739 3.3139-0.12133 4.0429 3.8663 1.024 8.5921 0.61073 8.5921-0.75131zm-115.29-9.6334c2.1089-1.4926 5.7005-1.6488 39.818-1.7313 42.345-0.10233 52.697-0.66321 61.406-3.3271 7.9416-2.4291 13.125-4.6434 13.125-5.6068 0-0.42408 1.2656-1.4255 2.8125-2.2254 1.5469-0.79992 2.8235-2.1818 2.8369-3.071 0.0134-0.88911 1.0749-4.7806 2.3588-8.6478s2.9928-10.406 3.7975-14.531c0.80475-4.125 2.8743-14.461 4.599-22.969 1.7247-8.5078 3.6286-19.266 4.2309-23.906 0.60228-4.6406 2.9508-17.719 5.219-29.062 2.2682-11.344 5.1693-27.375 6.4469-35.625s4.0777-21.75 6.2225-30c4.7959-18.448 6.5783-28.196 9.7674-53.417 1.3677-10.817 2.6968-20.006 2.9536-20.422 0.25675-0.41542 1.9708-0.63579 3.809-0.48969 1.9467 0.15472 3.5051-0.19717 3.7323-0.84277 0.75573-2.1471-3.7586-3.2718-14.575-3.6312-6.0115-0.19972-21.899-0.8534-35.305-1.4526-17.373-0.77654-56.825-0.90459-137.34-0.44576-62.133 0.35406-115.08 0.72682-117.66 0.82836l-4.6875 0.18463 0.10492 3.2812c0.32198 10.07 1.316 19.838 2.1835 21.459 1.0002 1.8689 4.2107 29.413 7.5518 64.791 0.99826 10.57 2.4304 23.859 3.1825 29.531 0.75212 5.6719 1.6388 13.477 1.9705 17.344 0.33164 3.8672 1.677 13.992 2.9897 22.5 1.3127 8.5078 2.5912 17.578 2.841 20.156 0.24988 2.5781 1.0809 5.3925 1.8467 6.2541 2.0319 2.2862 7.5847 28.411 7.2392 34.058-0.15773 2.5781-0.57685 8.5288-0.93138 13.224-0.44081 5.8374-0.31917 8.7373 0.38475 9.1724 1.6446 1.0164 4.7466-1.4842 5.3717-4.3305 0.31568-1.4373 0.96151-2.3737 1.4352-2.081 1.2043 0.74431 1.0821-1.8898-0.60066-12.944-0.80403-5.2818-2.0425-14.033-2.7522-19.447-0.7097-5.4141-2.3951-15.961-3.7454-23.438-1.3503-7.4766-3.6798-22.325-5.1768-32.996s-3.5612-23.117-4.5871-27.656c-1.0259-4.5396-2.3075-12.051-2.8479-16.691-3.195-27.437-9.6332-71.019-13.274-89.858-0.91364-4.7269-0.85178-5.6904 0.44887-6.9911 0.95157-0.95156 1.826-1.1772 2.3683-0.61124 0.47284 0.49353 1.9857 6.5926 3.3619 13.554 4.7898 24.227 9.0264 42.71 11.712 51.094 1.4864 4.6406 2.9789 10.336 3.3167 12.656 0.33778 2.3203 1.4019 7.3828 2.3647 11.25 0.96279 3.8672 3.4675 18 5.566 31.406 4.006 25.592 9.519 54.805 14.065 74.531 1.4854 6.4453 2.9668 14.039 3.2919 16.875 0.32507 2.8359 1.1712 6.4219 1.8802 7.9688 0.70907 1.5469 1.7974 5.4586 2.4186 8.6928 0.68856 3.5852 2.6847 8.6096 5.1144 12.873 2.1917 3.846 3.9251 7.7389 3.8518 8.651-0.11268 1.4035 0.51507 1.608 4.0856 1.3313 7.228-0.5601 24.52 1.679 28.311 3.6658 4.1677 2.1846 5.7677 2.2746 7.3143 0.41107 1.393-1.6784 7.5932-1.8755 9.177-0.29174 0.62119 0.62119 5.3726 1.3861 10.734 1.728 5.2909 0.33741 10.053 0.67963 10.583 0.76049 0.52981 0.0808 2.0064-0.59127 3.2812-1.4936zm144.03-8.639c-0.30576-1.5288 0.0104-4.385 0.70271-6.347 0.69225-1.9621 1.5539-5.8792 1.9147-8.7047 0.36085-2.8255 1.6558-12.098 2.8777-20.606 7.8409-54.594 13.592-111.31 12.217-120.48-1.1083-7.3909-2.3016-3.5686-3.3156 10.621-0.52489 7.345-1.3533 15.135-1.8409 17.312-0.48758 2.1763-1.5602 9.7703-2.3836 16.876-1.3531 11.677-2.6693 17.775-7.4781 34.651-2.1273 7.4654-5.2154 29.384-5.6512 40.112-0.19955 4.9121-0.90237 11.662-1.5618 15-1.4654 7.4174-1.3461 21.137 0.19994 23 0.61611 0.74237 1.965 1.3498 2.9976 1.3498 1.5811 0 1.7896-0.43874 1.3215-2.7797zm-13.975-4.9547c-0.45965-1.3805-3.0385-2.0245-5.0365-1.2578-2.2199 0.85186-0.53708 2.4297 2.5914 2.4297 1.8513 0 2.6999-0.40669 2.4451-1.1719z"/>
<path id="path3613" fill="#4f4f4f" d="m410.62 891.58c-34.572-1.7914-48.303-5.3055-53.483-13.688-1.6768-2.7132-2.5924-7.3382-4.688-23.68-4.2103-32.834-8.3632-63.931-9.3838-70.265-0.52231-3.2418-1.9838-14-3.2477-23.906-4.2981-33.688-8.002-61.08-12.26-90.668-4.1904-29.12-6.6687-47.599-12.447-92.812-0.49423-3.8672-1.7445-12.938-2.7784-20.156-6.1237-42.755-6.2652-44.231-4.5799-47.765 0.99638-2.0894 2.8517-3.8862 5.107-4.9459 3.3416-1.57 10.176-1.6516 120.73-1.4417 141.18 0.2681 185.15 1.0534 189.61 3.3862 5.3149 2.7834 2.7255 5.3052-2.9938 2.9155-2.3472-0.98075-7.0645-1.3703-16.664-1.376-7.3642-0.005-18.03-0.41551-23.702-0.91355-11.244-0.98736-189.87-1.7069-237.88-0.95817-21.998 0.34306-29.867 0.75871-30.187 1.5947-0.23865 0.6219-0.0178 6.2688 0.49076 12.549 0.50858 6.2799 0.69743 11.645 0.41968 11.923-0.27775 0.27775 0.10488 1.1789 0.8503 2.0026 0.74542 0.82367 1.7801 4.2329 2.2994 7.5761 1.2961 8.3449 4.5298 38.167 5.7418 52.953 0.54948 6.7031 1.7969 18.938 2.7721 27.188 0.97517 8.25 2.0522 18.164 2.3934 22.031 0.34118 3.8672 2.0882 17.578 3.8824 30.469 1.7941 12.891 3.8437 27.981 4.5547 33.534 0.71095 5.5533 1.5201 10.465 1.7982 10.915 0.27803 0.44986 1.3099 7.7957 2.293 16.324 1.9223 16.675 2.3285 18.223 4.3438 16.551 0.9062-0.75207 1.7919-0.76493 3.1362-0.0455 1.0303 0.5514 2.2656 1.0026 2.745 1.0026 1.9402 0 2.0182-8.8192 0.16879-19.077-1.0366-5.7498-2.5081-15.095-3.27-20.767-0.76182-5.6719-2.2475-14.953-3.3015-20.625-1.054-5.6719-3.6046-21.914-5.668-36.094s-4.3338-28.102-5.0452-30.938c-0.7115-2.8359-1.7859-9.1641-2.3876-14.062-0.6017-4.8984-1.6954-13.336-2.4304-18.75-0.73502-5.4141-2.1683-16.172-3.1851-23.906-2.7689-21.062-7.39-52.025-7.8837-52.824-0.56759-0.91839 1.0517-3.5348 1.7534-2.8331 0.29616 0.29616 2.8669 11.675 5.7127 25.285 2.8458 13.611 6.4143 29.598 7.9299 35.528 8.2796 32.392 9.2479 37.167 14.586 71.922 1.9798 12.89 8.4438 45.701 12.15 61.672 1.7947 7.7344 3.2595 15.928 3.2552 18.207-0.005 2.2797 0.55802 4.811 1.2496 5.625 0.69159 0.81404 1.9764 4.8488 2.8551 8.9661 0.9344 4.3782 2.9662 9.9332 4.8942 13.381 3.4223 6.1196 4.0302 11.368 1.4163 12.227-0.97263 0.31976-1.1885-0.30524-0.86549-2.5059 0.50803-3.4614-0.73322-3.7747-4.1883-1.0569-1.311 1.0312-2.7478 1.875-3.1929 1.875-0.44508 0-4.0948 1.9233-8.1105 4.274-6.9123 4.0463-7.2859 4.4334-7.0116 7.2656 0.39585 4.0884 3.3035 4.3626 9.0127 0.84963 2.455-1.5106 6.4881-3.642 8.9626-4.7366s5.771-3.0604 7.3257-4.3686c1.8999-1.5986 3.9496-2.3775 6.2514-2.3754 1.8836 0.002 4.6903-0.0466 6.2372-0.10739 5.2656-0.20683 19.647 2.0762 21.747 3.4523 2.6871 1.7607 5.3677 1.747 6.8465-0.0348 1.3489-1.6253 5.8537-1.8516 8.5143-0.42766 1.0057 0.53822 6.7217 1.4036 12.702 1.923 9.9444 0.86365 11.033 0.80005 12.74-0.74422 1.7264-1.5621 4.5785-1.6943 38.096-1.7657 41.469-0.0883 54.54-0.75556 62.479-3.1892 3.0938-0.94838 6.7164-1.9633 8.0502-2.2553 1.3339-0.29205 4.0405-2.0544 6.0148-3.9164 3.0084-2.8373 4.0576-3.2965 6.481-2.8365 8.4916 1.612 9.7013 1.6725 10.413 0.52071 1.3134-2.1252-2.4043-3.8959-6.8186-3.2476-4.8743 0.71581-4.8681 0.76841-1.2881-10.899 1.483-4.833 3.2172-11.951 3.8539-15.818 0.6367-3.8672 2.1714-11.657 3.4105-17.311 1.2391-5.6536 3.1151-16.2 4.1689-23.438 1.0538-7.237 3.5685-21.174 5.5883-30.971 2.0198-9.7969 4.7514-24.773 6.0704-33.281 1.3189-8.5078 4.5009-23.863 7.0712-34.122 4.3107-17.207 8.8308-44.028 10.918-64.784l0.7541-7.5 5.3394-0.27962c4.8447-0.25373 5.485-0.0574 6.9115 2.1197 1.4848 2.2661 1.4344 3.4008-0.90751 20.436-2.6284 19.119-8.6144 64.538-9.5434 72.412-0.30419 2.5781-1.7912 13.547-3.3045 24.375s-3.1532 23.273-3.6443 27.656c-0.49108 4.3828-1.7548 13.875-2.8083 21.094-3.4941 23.942-9.9648 73.418-10.728 82.031-0.37823 4.2658-4.271 33.037-10.352 76.509-5.4354 38.858-5.2925 38.4-13.344 42.782-13.289 7.2329-33.214 9.171-98.713 9.602-26.555 0.17473-54.82-0.0211-62.812-0.43525zm100.31-5.1094c18.187-0.3452 23.34-0.75368 29.531-2.341 4.125-1.0576 8.2323-1.9278 9.1273-1.9339 0.89503-0.006 2.6895-1.6162 3.9878-3.578 2.1378-3.2304 2.4896-5.1982 3.7296-20.859 1.7185-21.705 2.0397-30.95 1.1401-32.817-0.52488-1.0891 0.51453-2.2521 4.0744-4.5588 2.8638-1.8557 4.5896-3.5904 4.3063-4.3287-0.26001-0.6776 0.20358-1.7902 1.0302-2.4724 1.1834-0.97667 1.5868-0.99124 1.8974-0.0685 0.70288 2.0884 3.1634 1.2521 7.8424-2.6654 5.0535-4.231 5.1416-4.4157 3.3041-6.9287-1.2033-1.6456-1.5409-1.4756-5.6947 2.8677-3.0743 3.2146-4.2404 4.0003-3.839 2.5866 0.92451-3.2559-1.0066-3.3917-4.5085-0.31697-2.9766 2.6135-8.7173 5.3836-9.4608 4.5652-0.17126-0.18852-0.59389-1.6627-0.93918-3.276-0.59443-2.7773-0.45251-2.9661 2.6701-3.5519 3.1321-0.58758 5.0301-2.0046 4.0276-3.0071-0.25372-0.25372-2.0889 0.22963-4.0782 1.0741-4.9407 2.0973-18.701 2.6201-21.455 0.81511-1.8067-1.1838-2.2035-1.1645-3.3034 0.16085-1.9076 2.2985-2.3926 12.181-0.63103 12.857 2.2383 0.8589 5.5439-1.9725 4.8511-4.1552-0.78735-2.4807 1.9049-5.4295 4.3689-4.7852 1.4481 0.37868 1.8075 1.1428 1.5874 3.3743-0.24284 2.4612-1.1794 3.3959-6.3784 6.3659-10.027 5.728-26.657 11.471-41.728 14.411-19.567 3.8165-43.086 4.7342-45.54 1.7769-0.59728-0.71969-1.9503-1.3085-3.0067-1.3085s-2.5868-0.56679-3.4008-1.2596c-0.81404-0.69275-4.6441-1.7977-8.5113-2.4554s-7.7049-1.5477-8.5282-1.9778c-0.88963-0.46472-1.9145-0.36451-2.526 0.24697-1.3605 1.3605-6.3298-0.65671-8.2019-3.3295-4.5481-6.4933 4.5631-6.6942 11.597-0.25567 1.8914 1.7314 3.7786 2.0866 14.062 2.6473 6.5328 0.35616 12.933 0.77804 14.222 0.9375 1.947 0.24083 2.394-0.14655 2.6404-2.2882 0.32789-2.8496 1.7493-3.3414 3.35-1.159 1.3654 1.8615 15.045 2.2602 18.255 0.5321 1.2179-0.65566 3.2649-0.99129 4.5489-0.74585 2.7541 0.52648 16.409-1.403 24.05-3.3985 6.1387-1.603 10.253-3.9743 9.7186-5.601-0.57493-1.7496-7.1974-1.8163-23.173-0.23339-15.488 1.5346-29.612 1.7674-38.655 0.63693-6.137-0.76721-7.1036-1.3655-5.4417-3.368 0.93243-1.1235 0.94255-1.7221 0.0473-2.8008-1.7193-2.0716-2.4618-16.045-0.94941-17.867 1.0469-1.2614 4.2771-1.455 22.867-1.3706 26.242 0.11924 48.735-0.49116 50.142-1.3607 3.3641-2.0791-1.4629-3.9604-12.557-4.8938-4.6406-0.39046-20.25-0.72849-34.688-0.75119l-26.25-0.0412-1.2901-4.0779c-1.2351-3.904-1.415-4.0512-4.2188-3.4516-1.6108 0.3445-5.5036 1.0089-8.6507 1.4765-7.7251 1.1478-8.2673 1.4261-10.046 5.1567-1.3777 2.8889-1.9472 3.24-5.255 3.24-4.0197 0-4.7243-0.6399-6.1943-5.625-1.4397-4.8826-3.5558-4.2078-4.4099 1.4062-0.39222 2.5781-0.50192 5.6086-0.24378 6.7344 0.59627 2.6004 3.8029 3.6467 6.5956 2.1521 2.971-1.59 8.0889-0.46317 10.747 2.3662 2.0956 2.2307 2.1313 2.5208 0.94961 7.72-0.67532 2.9712-1.783 6.3128-2.4616 7.4256-1.0351 1.6977-1.0146 2.2052 0.12751 3.1531 2.1176 1.7574 0.71875 2.7922-3.7744 2.7922-4.4819 0-5.9597-1.1836-4.1701-3.3399 0.91598-1.1037 0.85872-1.7103-0.2837-3.0058-0.78722-0.89267-1.729-3.0226-2.0928-4.7333-0.78023-3.6685-2.106-4.3532-6.7446-3.483l-3.4333 0.64408 2.654 2.1162c2.6479 2.1114 2.6238 4.3016-0.0475 4.3016-2.1588 0-1.561 1.8416 0.90176 2.7779 2.563 0.97446 3.785 2.4814 2.6039 3.2114-1.2307 0.76064-6.9538 0.80548-9.3097 0.0729-1.6135-0.5017-2.1094-0.28383-2.1094 0.9268 0 1.0669 0.6874 1.527 2.1094 1.4118 3.4909-0.28277 3.9784-0.0795 7.0793 2.9522 4.993 4.8816 1.0169 6.3507-6.4516 2.3837-12.366-6.5683-14.588-8.1336-16.127-11.361-1.5774-3.3079-3.5904-4.1084-6.1903-2.4619-0.87222 0.55239-1.0918 1.6473-0.66847 3.3338 0.48293 1.9241 1.8826 3.0628 5.9863 4.87 5.5652 2.4509 8.6372 4.6549 8.6372 6.1967 0 1.3091-8.2366-0.11381-12.165-2.1016-3.8715-1.9588-9.397-3.2968-9.397-2.2755 0 0.39108 1.4354 2.0258 3.1898 3.6328 3.6102 3.3068 3.5323 2.89 5.2629 28.149 1.9891 29.032 2.6803 31.508 9.2742 33.231 11.322 2.9582 55.221 5.54 84.929 4.9949 7.2188-0.13246 23.039-0.429 35.156-0.65899zm37.914-67.597c1.0009-0.75704 2.6884-1.363 3.75-1.3466 1.8987 0.0294 1.9005 0.0522 0.11038 1.4062-1.0009 0.75704-2.6884 1.363-3.75 1.3466-1.8987-0.0294-1.9005-0.0522-0.11038-1.4062zm-149.51-15.01c-1.0404-1.2536-1.0238-1.6485 0.10078-2.401 0.98163-0.65687 0.58465-0.82786-1.4665-0.63167-3.4605 0.33098-3.7284 2.5695-0.50015 4.179 2.7804 1.3862 3.5668 0.90315 1.8659-1.1463zm175.35-5.2222c0-2.0934-2.6384-2.3672-3.411-0.35396-0.29681 0.77344-0.27857 2.0866 0.0405 2.9181 0.46984 1.2244 0.84544 1.2917 1.9753 0.35396 0.76734-0.63683 1.3952-1.95 1.3952-2.9181zm-226.14-13.19c-0.57944-1.7383-2.5976-2.0266-2.5976-0.37109 0 0.8164 0.66797 1.4844 1.4844 1.4844 0.81641 0 1.3174-0.50097 1.1133-1.1133zm18.648-4.043c6.9446-2.3203 13.158-4.2188 13.808-4.2188 0.64997 0 2.1605-1.0418 3.3567-2.3151l2.1749-2.3151-2.5412-0.96618c-4.3617-1.6583-7.7866-1.1326-11.058 1.6976-1.6937 1.4651-6.2436 3.8632-10.111 5.3291-6.9335 2.6282-10.312 4.6646-10.312 6.215 0 1.3219 1.5621 0.95736 14.683-3.4266zm207.37 1.9544c-1.3324-2.9244-4.4563-3.7389-6.6669-1.7384-1.6523 1.4953-1.6366 1.5943 0.43418 2.7438 1.1816 0.65586 3.2994 1.2074 4.7064 1.2257 2.3674 0.0308 2.4811-0.13552 1.5263-2.2311zm-57.06-3.34c4.3986-0.63372 6.5501-1.4397 7.7344-2.8975 3.5049-4.3144 1.8271-4.8137-15.703-4.6727-18.619 0.14974-25.445 1.7513-21.991 5.1596 2.9027 2.864 18.244 4.0984 29.96 2.4106zm48.493-2.5144c0.1959-0.59748-1.1394-2.227-2.9673-3.6213-3.1961-2.4378-3.4855-2.4871-7.5496-1.2871-2.3244 0.68631-4.2261 1.5259-4.2261 1.8659 0 3.2238 13.753 6.062 14.743 3.0425zm28.017-19.07c0.0571-1.8047 0.77093-6.8672 1.5863-11.25 3.245-17.443 11.616-83.529 14.715-116.17 1.0484-11.043 1.8684-26.272 1.8222-33.843-0.0462-7.5709 0.2163-15.366 0.58344-17.323 0.42865-2.2849 0.3335-3.3518-0.2659-2.9813-0.51339 0.3173-1.2137 2.5931-1.5562 5.0574s-1.041 6.5899-1.5523 9.168c-0.87655 4.4202-1.5372 9.3917-3.6127 27.188-0.48109 4.125-1.5411 13.195-2.3555 20.156-2.5175 21.517-4.385 32.102-6.6131 37.484-1.1778 2.845-2.8305 9.6024-3.6726 15.016-0.84213 5.4141-1.9608 12.375-2.4859 15.469-0.5251 3.0938-1.3774 9.4219-1.8939 14.062-0.51655 4.6406-1.5263 12.023-2.2439 16.406-2.319 14.164-2.6542 19.338-1.4062 21.706 1.588 3.0136 2.7537 3.6668 6.0349 3.3818 2.5196-0.21881 2.8233-0.58595 2.9163-3.5255z"/>
<path id="path3611" fill="#2e2e2e" d="m420 891.49c-30.133-1.4175-48.359-3.882-55.446-7.4972-4.8645-2.4817-8.1885-7.2124-9.2607-13.18-0.49742-2.7685-2.1872-14.948-3.7552-27.065-1.5679-12.117-4.3188-32.578-6.113-45.469s-3.6732-27.656-4.1755-32.812c-0.50224-5.1562-1.1404-11.062-1.4182-13.125-0.40876-3.0353-0.32583-3.3435 0.4351-1.6174 0.73293 1.6627 1.4419 2.0067 3.2172 1.5612 1.4025-0.35201 3.1953 0.0302 4.6679 0.99502 1.315 0.86159 2.8312 1.2943 3.3696 0.96164 1.4606-0.90271 1.1819-10.756-0.50953-18.014-0.81854-3.5125-2.4899-13.136-3.7142-21.386s-3.2949-21.117-4.6014-28.594c-2.7319-15.633-3.4803-20.491-6.1382-39.844-1.0623-7.7344-2.5389-16.805-3.2815-20.156-1.1818-5.334-5.2986-34.44-8.0224-56.719-0.50432-4.125-1.5169-11.719-2.2501-16.875-1.1829-8.3186-2.6344-19.266-3.763-28.38-0.48661-3.9299 0.95311-3.1286 1.6814 0.93574 0.99012 5.5259 8.1595 38.469 10.563 48.538 1.2925 5.4141 3.9934 16.594 6.0022 24.844 2.0087 8.25 4.9522 23.438 6.541 33.75 2.951 19.154 11.855 65.621 15.001 78.281 0.96079 3.8672 2.0411 9.7734 2.4006 13.125 0.35956 3.3516 1.0635 6.6009 1.5644 7.2208 0.50086 0.61988 1.5309 4.2058 2.2889 7.9688 0.75804 3.763 2.4106 8.9931 3.6724 11.623 1.2618 2.6295 2.2942 5.2162 2.2942 5.7481 0 1.0178-5.9197 5.8772-7.1596 5.8772-0.3972 0-4.0259 2.0039-8.0639 4.4531-7.6556 4.6435-9.2314 6.8942-7.3233 10.46 1.4214 2.656 3.568 2.4691 8.6484-0.75276 2.3547-1.4933 6.3396-3.6224 8.8554-4.7313s6.1652-3.1148 8.1098-4.4575c2.8884-1.9944 3.9259-2.2635 5.6674-1.47 1.58 0.71991 2.7926 0.62504 4.6851-0.36658 1.9742-1.0344 3.3469-1.1175 6.0514-0.3664 1.9239 0.5343 5.6236 0.97382 8.2216 0.97669 2.8636 0.003 6.1719 0.74358 8.4014 1.8802 4.4393 2.2633 6.4009 2.3579 8.0361 0.38765 1.3396-1.6141 1.6178-1.599 16.808 0.91471 12.853 2.1269 14.062 2.4584 14.062 3.8539 0 1.2555-1.4269 1.6919-9.375 2.8672-6.7918 1.0043-9.9759 2.6954-10.73 5.6986-1.0301 4.1042-2.0099 4.7955-5.9008 4.163-3.303-0.53689-3.5768-0.84173-4.4599-4.9664-2.1011-9.8134-5.9737-7.9672-6.1982 2.955-0.11795 5.7379 0.15345 7.1586 1.5646 8.1905 2.019 1.4763 4.7531 1.629 5.5677 0.31091 0.91095-1.474 6.3879-1.0959 8.8219 0.60892 2.0579 1.4414 2.1712 1.9826 1.6693 7.9702-0.29619 3.5331-0.79887 6.845-1.117 7.3598-0.82682 1.3378-6.6162 1.1584-7.7777-0.24108-0.53731-0.64741-1.28-2.4404-1.6503-3.9844-1.0879-4.5355-1.6522-4.7751-10.917-4.6366-13.718 0.20502-13.102 0.06-12.763 3.0012 0.26445 2.2983 1.0597 2.8391 7.3279 4.9832 3.8672 1.3228 8.0479 2.9558 9.2905 3.6288 2.0563 1.1138 2.112 1.3061 0.62021 2.141-1.0778 0.6032-2.9556 0.58311-5.484-0.0587-4.1243-1.0468-5.3643-0.76629-5.3643 1.2137 0 1.4395 2.0251 2.3887 5.096 2.3887 1.1716 0 3.3519 1.1602 4.8452 2.5781l2.715 2.5781-2.6385 0.30248c-2.6218 0.30055-4.6039-0.53936-14.946-6.3332-5.7347-3.2126-7.259-5.0711-7.259-8.8507v-2.3485l-4.2188 1.4375c-6.9458 2.3667-5.0934 6.1696 5.3906 11.067 2.9648 1.3849 5.3906 2.9093 5.3906 3.3874 0 1.3021-5.7518 1.0363-8.4892-0.39223-2.6176-1.3661-11.069-4.3634-12.303-4.3634-1.7988 0-0.53229 2.5446 2.5664 5.1562 3.7647 3.173 3.4283 1.1562 6.4451 38.646 0.75609 9.3961 1.8301 17.935 2.3867 18.975 0.55657 1.04 2.1929 2.5016 3.6362 3.2479 7.4584 3.8569 57.871 6.5396 107.54 5.7227 31.019-0.51015 39.857-1.1165 46.718-3.2052 1.5983-0.48664 4.4706-1.1471 6.3829-1.4677 5.2125-0.87389 7.3913-4.5526 8.267-13.958 1.8696-20.08 3.0096-39.197 2.518-42.226-0.52372-3.2273-0.37164-3.449 4.0805-5.9495 3.575-2.0079 4.6247-3.1186 4.6254-4.8942 0.00074-1.7865 0.25096-2.0469 1.126-1.1719 1.8643 1.8643 3.4639 1.3139 8.3099-2.8594 3.0268-2.6066 4.6268-4.7239 4.6271-6.1232 0.00074-3.4488-2.5986-3.5922-5.9653-0.32897-3.371 3.2673-4.3467 3.6108-4.3467 1.5303 0-2.0299-0.66832-1.7828-4.8436 1.7911-4.3154 3.6938-8.1902 5.0138-9.35 3.1851-1.4136-2.2289-0.84785-3.1303 3.1387-5.0005 4.2037-1.9721 5.7732-4.208 2.9299-4.1739-0.94531 0.0113-3.5578 0.85507-5.8055 1.875-5.3431 2.4245-16.504 2.5999-19.046 0.29942-2.553-2.3104-6.3981-0.37378-6.3981 3.2224 0 1.4548-0.46741 3.1125-1.0387 3.6838-1.4968 1.4968 0.69827 7.7738 2.7185 7.7738 6.0481 0-14.358 8.476-28.867 11.99-16.838 4.0786-24.906 5.2145-38.246 5.3847-11.801 0.15057-13.667-0.0371-15.617-1.5708-1.2179-0.95798-2.9009-1.7418-3.7401-1.7418-0.83915 0-2.4601-0.574-3.6021-1.2756-1.142-0.70156-5.1336-1.7943-8.8702-2.4284-3.7366-0.63403-7.0754-1.6083-7.4194-2.165-0.41482-0.67119-0.021-0.77347 1.1688-0.30359 0.98692 0.38975 6.0132 0.87359 11.169 1.0752 5.1562 0.20162 11.391 0.62854 13.856 0.94872 2.9837 0.38764 4.9523 0.19089 5.8918-0.58889 0.86642-0.71906 4.9263-1.257 10.519-1.3939 22.347-0.54677 46.6-5.4114 48.96-9.8205 1.8981-3.5467-0.67942-3.8864-17.954-2.366-24.224 2.1319-49.554 1.8363-49.554-0.57828 0-0.46105 1.2588-1.09 2.7973-1.3977 3.2245-0.6449 2.877-2.2062-0.49099-2.2062-2.5085 0-2.7749-0.70118-3.6659-9.6474-0.94063-9.4444-1.474-9.2002 19.932-9.1247 29.847 0.10535 52.276-0.6343 54.446-1.7955 5.3137-2.8438-0.50669-5.2141-15.361-6.2556-6.1875-0.43384-21.978-0.79877-35.089-0.81096l-23.839-0.0221-1.2209-4.6875c-1.6645-6.3905-1.5721-7.6538 0.72811-9.954 1.9463-1.9463 2.5296-1.9796 29.766-1.6982 36.945 0.38166 61.575-0.63739 69.499-2.8755 3.3516-0.94661 7.1851-1.9582 8.519-2.2481 1.3339-0.28984 4.0485-2.0579 6.0324-3.929 3.3266-3.1374 3.9036-3.3491 7.4185-2.7225 2.0962 0.37373 5.4988 0.73524 7.5614 0.80336 3.4378 0.11355 3.7764 0.35801 4.0673 2.9364 0.58624 5.1959 2.9662 6.0656 10.23 3.7384 2.6724-0.85625 2.6804-0.34434 0.2445 15.787-1.0257 6.7924-2.6936 18.889-3.7065 26.881-4.0632 32.06-9.4479 68.597-10.361 70.303-2.4748 4.6243-11.487 9.2498-22.591 11.595-19.306 4.0772-92.457 6.3668-136.79 4.2814zm154.56-64.382c1.9561-7.7712 2.1499-10.547 0.73638-10.547-0.74164 0-1.6045 0.66731-1.9175 1.4829-0.6609 1.7223-0.77866 12.58-0.13643 12.58 0.23794 0 0.83082-1.582 1.3175-3.5156zm-212.18-8.3512c-0.32329-1.7233-0.99056-3.1332-1.4828-3.1332-1.2221 0-1.1155 3.4528 0.246 7.9688 1.1042 3.6626 1.1387 3.6864 1.4776 1.0238 0.19085-1.4994 0.0825-4.1361-0.24078-5.8594zm162.68 2.4588c0.99735-0.53377 1.8134-1.5884 1.8134-2.3438 0-2.0926-1.4833-1.642-3.195 0.97048-1.6776 2.5603-1.3832 2.853 1.3817 1.3733zm49.102-19.84c1.4003-3.3302 1.0115-5.4397-1.0026-5.4397-2.108 0-3.5544 4.0755-2.2868 6.4439 1.4176 2.6487 1.803 2.531 3.2894-1.0042zm-224.92-14.86c0.75622-1.2236-1.2224-3.7089-2.9527-3.7089-1.3177 0-1.7984 2.9305-0.66646 4.0625 0.94425 0.94426 2.9374 0.74954 3.6191-0.35356zm11.229-2.3833c3.6071-1.3334 10.106-3.4724 14.442-4.7533 7.1604-2.1154 14.148-5.9863 14.148-7.8374 0-0.40149-2.7858-1.2151-6.1907-1.808-5.3297-0.92813-6.5102-0.86873-8.4879 0.42713-1.2635 0.82786-2.5382 2.1331-2.8327 2.9006-0.54 1.4-11.68 6.93-13.97 6.93-1.9852 0-6.3864 4.2678-5.6425 5.4714 0.90473 1.4639 1.0167 1.4464 8.5365-1.3333zm216.99 1.7212c-0.0598-1.2472-4.1342-5.5509-5.8257-6.1535-1.04-0.38-1.63-1.56-1.63-3.29 0-2.7362-1.5728-4.6751-5.3969-6.6531-1.6645-0.86095-3.0638-0.79012-6.5625 0.33218-2.4458 0.78455-5.637 1.6602-7.0916 1.9459-1.4546 0.28569-2.4804 1.0125-2.2795 1.6151 0.7246 2.1738 8.42 5.3977 12.884 5.3977 5.2224 0 6.1623 0.67462 4.1059 2.947-1.4317 1.582-1.3857 1.747 0.70107 2.5196 1.2282 0.45471 2.8659 1.0649 3.6394 1.3561 2.1145 0.79595 7.5048 0.77736 7.4663-0.0258zm-63.272-5.0909c7.9468-0.9563 9.6746-1.4748 11.508-3.4533 4.5514-4.9111 0.63459-6.0354-18.717-5.3726-14.235 0.48757-21.361 1.8703-21.361 4.1448 0 1.7243 3.084 3.3687 8.2901 4.4204 7.4535 1.5057 9.6942 1.5345 20.279 0.26071zm-94.923 46.522c-2.7408-1.9197-2.8513-6.0406-0.16204-6.0406 1.8993 0 7.4534 2.4551 7.4534 3.2946 0 0.93195-3.2836 4.2054-4.2185 4.2054-0.54411 0-1.9269-0.65674-3.0729-1.4594zm120.43-12.392c-0.54977-2.7756 1.3113-5.5409 3.0189-4.4856 1.6692 1.0317 1.1776 5.0655-0.74267 6.0932-1.5012 0.80341-1.847 0.55914-2.2762-1.6076zm-119.99-0.86747c-2.635-0.68306-1.2307-2.6488 1.7324-2.425 3.7009 0.27961 5.3356 1.0306 4.6517 2.1371-0.593 0.95948-3.319 1.0824-6.3841 0.28789zm-16.258-8.7125c-2.7098-1.0933-3.4521-2.4995-1.6788-3.18 1.7657-0.67756 7.911 1.7506 7.911 3.1259 0 1.1688-3.3963 1.1983-6.2322 0.0541zm191.33-48.114c-0.26025-0.6782-0.0628-2.2602 0.43875-3.5156 0.8399-2.1023 0.91661-2.0049 0.97134 1.2331 0.0602 3.5581-0.54483 4.5374-1.4101 2.2826zm-14.992-6.3568c-0.40301-0.65211-2.1353-0.80233-4.7428-0.41131-3.7022 0.55518-4.1079 0.42859-4.1079-1.2817 0-1.0438 0.84238-4.0349 1.872-6.6469s2.7565-9.6941 3.8377-15.738c1.0812-6.0438 2.8033-14.786 3.827-19.426 1.7919-8.1232 3.4929-17.989 5.4956-31.875 0.52057-3.6094 2.6434-14.578 4.7173-24.375 2.074-9.7969 4.7886-24.562 6.0324-32.812 1.2439-8.25 4.1484-22.594 6.4545-31.875 4.5119-18.159 7.0166-32.404 9.9432-56.551 1.02-8.4156 2.0651-15.642 2.3226-16.058 0.60733-0.98267 9.0504-0.082 10.576 1.1281 1.6544 1.3124 1.4573 7.823-0.63133 20.856-0.99155 6.1875-2.4936 16.945-3.338 23.906-3.9957 32.942-11.888 90.158-12.37 89.677-0.17955-0.17955 0.35433-7.2466 1.1864-15.705 0.83207-8.458 1.6509-20.23 1.8197-26.159 0.49377-17.349 1.3692-30.653 2.7761-42.188 1.4234-11.67 2.7479-33.519 1.9858-32.757-0.25804 0.25806-1.3448 7.4175-2.4151 15.91-1.0703 8.4924-2.5541 18.816-3.2974 22.941-3.3196 18.422-5.0856 29.539-5.6589 35.625-0.34003 3.6094-1.4058 11.625-2.3685 17.812-0.96264 6.1875-2.1767 16.523-2.6979 22.969-1.1064 13.683-3.1144 24.98-5.1343 28.886-0.78657 1.5211-2.2967 7.9838-3.3558 14.362-1.0591 6.3778-2.3992 14.127-2.9779 17.221-0.57875 3.0938-1.133 6.8906-1.2318 8.4375-0.26062 4.084-1.2424 10.67-3.5286 23.672-1.9156 10.894-3.1376 13.455-4.9902 10.457zm39.885-230.77c0.008-0.90234-0.40753-1.6406-0.92315-1.6406-0.51563 0-0.93104 1.3711-0.92315 3.0469 0.0109 2.3121 0.23353 2.7078 0.92315 1.6406 0.49984-0.77344 0.91525-2.1445 0.92315-3.0469zm-281.06 221.95c0.0191-1.5469 0.22921-2.0662 0.46691-1.154 0.23769 0.91216 0.22206 2.1778-0.0348 2.8125-0.25681 0.63471-0.45129-0.11159-0.43218-1.6585zm-0.9375-5.625c0.0191-1.5469 0.22921-2.0662 0.46691-1.154 0.23769 0.91216 0.22206 2.1778-0.0348 2.8125-0.25681 0.63471-0.45129-0.11159-0.43218-1.6585zm-1.5507-9.1406c-0.33348-2.707-0.8133-6.1875-1.0662-7.7344-0.34697-2.1218-0.23009-2.4487 0.47597-1.3309 1.0233 1.62 2.5324 13.987 1.7068 13.987-0.28063 0-0.78309-2.2148-1.1166-4.9219zm-3.2456-26.562c0.045-1.0921 0.26713-1.3143 0.5664-0.56641 0.27081 0.67675 0.23751 1.4854-0.074 1.7969-0.31152 0.31152-0.5331-0.2422-0.4924-1.2305zm-3.26-20.64c-0.33365-0.86948-0.3957-1.7918-0.13789-2.0496 0.25781-0.25781 0.74174 0.24265 1.0754 1.1121 0.33365 0.86947 0.3957 1.7918 0.13789 2.0496-0.25781 0.25781-0.74174-0.24265-1.0754-1.1121zm-1.352-9.75c0-1.2891 0.2128-1.8164 0.47287-1.1719 0.26007 0.64454 0.26007 1.6992 0 2.3438-0.26007 0.64454-0.47287 0.11719-0.47287-1.1719zm279.44-5.625c0-1.8047 0.19294-2.543 0.42875-1.6406 0.2358 0.90235 0.2358 2.3789 0 3.2812-0.23581 0.90235-0.42875 0.16407-0.42875-1.6406zm-280.35-3.2812c0.0191-1.5469 0.22921-2.0662 0.46691-1.154 0.23769 0.91216 0.22206 2.1778-0.0348 2.8125-0.25681 0.63471-0.45129-0.11159-0.43218-1.6585zm-1.0462-6.6406c0.045-1.0921 0.26713-1.3143 0.5664-0.56641 0.27081 0.67675 0.23751 1.4854-0.074 1.7969-0.31153 0.31152-0.5331-0.2422-0.4924-1.2305zm-2.294-14.688c-0.81729-5.8008-1.9413-14.344-2.4978-18.984-0.55651-4.6406-1.8264-13.711-2.8219-20.156-2.1334-13.812-3.1734-29.292-1.8266-27.188 0.75877 1.1855 0.90229 1.1352 0.9144-0.32088 0.007-0.94992-0.8294-2.7998-1.8606-4.1108s-1.875-3.5553-1.875-4.9873-0.64639-5.9102-1.4364-9.9517c-0.79003-4.0414-1.8464-11.356-2.3474-16.254-0.50104-4.8984-1.3061-11.016-1.789-13.594-1.5415-8.23-1.2108-14.996 0.85408-17.474l1.8438-2.2132 0.2471 4.6875c0.1359 2.5781 0.25541 9.9571 0.26557 16.398 0.013 8.2815 0.33871 11.713 1.1122 11.719 0.60156 0.005 1.3273 0.24218 1.6128 0.52766 0.7855 0.78549 3.1287 20.938 5.717 49.168 1.2764 13.922 2.9671 30.375 3.757 36.562 1.7801 13.943 2.7952 26.719 2.1229 26.719-0.27842 0-1.1749-4.7461-1.9922-10.547zm296.28-132.07c-0.94945-0.55193-6.6448-1.1634-12.656-1.3588-6.0115-0.19543-21.688-0.84316-34.836-1.4394-16.803-0.76195-57.612-0.91394-137.34-0.51153-62.391 0.3149-114.66 0.68876-116.16 0.8308-3.8236 0.3629-4.1172-1.7504-0.37555-2.7032 3.4416-0.87638 149.87-0.52728 240.75 0.57398 50.903 0.61683 59.064 0.90983 62.177 2.2322 1.9707 0.83723 3.3169 1.9529 2.9915 2.4794-0.75007 1.2136-2.3478 1.1774-4.5509-0.10337z"/>
<path id="path3609" fill="#050505" d="m412.5 890.49c-27.468-1.4035-43.125-4.0914-49.72-8.5354-5.5664-3.7512-6.4063-6.3579-9.3459-29.006-1.4935-11.507-3.3523-25.562-4.1306-31.234-1.2397-9.0343-1.2455-10.442-0.047-11.353 1.7939-1.3648 1.7721-3.5335-0.0286-2.8426-1.5631 0.59981-1.7734-0.0694-3.2565-10.359-1.2457-8.6423-1.23-9.0264 0.34333-8.4226 0.72332 0.27757 2.0611-0.0408 2.9728-0.7075 0.91175-0.66669 2.4316-1.0098 3.3774-0.76246 0.9458 0.24733 2.323-0.051 3.0604-0.66304 0.73742-0.612 3.5828-1.1891 6.3231-1.2825 3.6423-0.12412 4.9824-0.53432 4.9824-1.5252 0-0.8809 2.7896-2.2255 7.9688-3.841 9.6118-2.9982 15.938-6.215 15.938-8.1047 0-0.76616-1.2656-1.8708-2.8125-2.4546-3.9608-1.495-3.5646-4.4215 0.46875-3.4621 0.51563 0.12266 4.692 0.61346 9.2807 1.0907 5.8691 0.61035 9.0342 1.4112 10.673 2.7005 3.0529 2.4014 5.2765 2.3179 6.99-0.26276 1.3468-2.0284 1.5685-2.0559 6.9112-0.85823 3.0359 0.68057 8.1617 1.7694 11.391 2.4196 3.229 0.65021 6.0981 1.4094 6.3758 1.6872 0.27772 0.27773-2.1085 0.96532-5.3028 1.528-6.716 1.183-9.016 2.887-9.8423 7.2916-0.54978 2.9308-0.84554 3.1525-4.2048 3.1525h-3.6134l-0.61639-4.6466c-0.73032-5.5054-2.6916-7.7046-5.8117-6.5167-2.0505 0.78064-2.1329 1.1982-1.875 9.4954 0.2624 8.4415 0.34062 8.7128 2.8592 9.9174 2.1037 1.0062 3.201 1.0175 5.8491 0.0599 4.6406-1.678 8.335-0.25466 8.7504 3.3714 0.4985 4.3509-0.78913 10.88-2.2567 11.444-3.158 1.2118-5.5437-0.5167-6.9635-5.0453l-1.4062-4.4854h-12.37-12.37l-3.099 2.9617c-1.7045 1.629-4.6811 3.6113-6.6147 4.4053-1.9336 0.79396-3.5156 1.8671-3.5156 2.3848 0 3.1045 2.6497 5.8578 8.3265 8.6524 4.9759 2.4495 5.7789 3.1251 4.0547 3.4113-1.1825 0.19625-5.2665-0.94056-9.0754-2.5262-3.809-1.5857-7.5875-2.8831-8.3968-2.8831-2.6336 0-1.559 3.4979 1.9359 6.3016l3.4074 2.7335 1.2627 14.613c0.69447 8.037 1.6676 19.962 2.1625 26.5 0.96588 12.76 1.9155 15.383 6.4096 17.7 7.7341 3.9882 60.53 6.5287 111.32 5.3565 30.04-0.69331 35.692-1.0557 42.188-2.7045 4.125-1.0472 8.6058-2.145 9.9573-2.4397 4.3058-0.93871 6.056-7.0563 7.4022-25.873 0.64556-9.0234 1.3007-20.203 1.4559-24.844 0.28078-8.3964 0.29729-8.4475 3.3896-10.486 1.7091-1.1264 3.8457-2.7085 4.7481-3.5156 3.2607-2.9167 3.5894-1.8403 2.9412 9.6298-0.40576 7.1797-0.27946 11.719 0.35775 12.857 0.84315 1.5066 1.192 1.0226 2.4237-3.3629 1.9898-7.0847 3.686-19.396 3.0316-22.003-0.42614-1.6979 0.18634-2.748 2.8482-4.8835 3.0215-2.4239 3.3194-3.0466 2.7339-5.7126-0.8187-3.7275-2.7714-3.8533-6.4276-0.41408l-2.7408 2.5781 0.78094-2.3438c2.6012-7.8066-0.69462-12.429-4.3928-6.1609-1.333 2.2593-2.6605 3.3484-4.0813 3.3484-1.1581 0-4.5969 0.83338-7.6418 1.852-5.245 1.7546-17.255 2.6376-17.255 1.2687 0-0.34611 0.68849-1.3901 1.53-2.3199 1.4302-1.5804 1.3775-1.7486-0.80916-2.58-1.2865-0.48913-4.1368-0.64822-6.334-0.35352-3.7916 0.50856-3.8855 0.59431-1.846 1.6858l2.1488 1.15-2.0323 1.0877c-1.2957 0.69346-2.0323 1.9834-2.0323 3.559 0 1.3592-0.72054 3.2675-1.6012 4.2406-1.2938 1.4296-1.3834 2.0738-0.46651 3.3551 2.127 2.9726 3.1057 6.079 2.2004 6.9843-1.2454 1.2454-12.142 5.0877-23.101 8.1461-16.155 4.5082-25.361 5.9098-41.006 6.2426l-14.756 0.31396-1.3787-2.6662c-0.7583-1.4664-1.1299-2.915-0.82572-3.2192 0.30415-0.30415 2.3908-0.30111 4.637 0.007 2.7456 0.37631 4.5761 0.15139 5.5855-0.68631 0.95497-0.79257 4.4572-1.3035 9.6224-1.4037 17.057-0.33104 41.875-4.7425 47.73-8.4842 2.5424-1.6246 2.8416-5.5832 0.46875-6.2-0.90234-0.23457-10.289 0.29465-20.859 1.176-10.57 0.8814-21.539 1.4799-24.375 1.33-2.8359-0.14991-8.4258-0.30646-12.422-0.34789-4.1685-0.043-7.2656-0.47473-7.2656-1.0126 0-0.51563 1.002-0.9375 2.2266-0.9375 3.4618 0 8.0859-1.0925 8.0859-1.9103 0-0.40616-2.6367-1.0917-5.8594-1.5234l-5.8594-0.78498-0.70804-6.0938c-0.38943-3.3516-0.4745-7.0922-0.18906-8.3125l0.51897-2.2188 17.533 0.23506c9.643 0.12928 25.807 0.0541 35.92-0.1671 15.384-0.33648 18.791-0.66676 20.859-2.0223 3.0945-2.0276 3.0948-2.8264 0.003-5.2589-1.7211-1.3536-3.8375-1.943-6.9763-1.943-5.1702 0-6.9383-1.4581-2.7496-2.2675 1.5514-0.29976 4.027-0.77646 5.5014-1.0593 1.4744-0.28287 3.9002-1.7908 5.3906-3.3509 2.5449-2.6639 2.6079-2.9115 1.0343-4.0677-2.6295-1.932-12.209-2.507-25.981-1.5595-16.623 1.1437-20.566 3.0215-16.283 7.7541 1.4324 1.5828 1.3687 1.7519-0.99853 2.6519-3.5128 1.3356-33.042 1.271-33.873-0.0741-0.35195-0.56945-0.8519-3.6766-1.111-6.9047l-0.47114-5.8694 3.6338-0.68739c1.9986-0.37806 14.603-0.58621 28.009-0.46254 33.305 0.30723 61.629-0.76829 67.311-2.5559 2.474-0.7784 5.4599-1.1739 6.6352-0.87893 1.6508 0.41432 3.3539-0.54826 7.4852-4.2304 4.7191-4.206 5.703-4.7 8.3648-4.1995 1.6591 0.312 4.6351 0.8402 6.6132 1.1738 3.9546 0.66687 5.2276 2.3963 3.3918 4.6083-1.4688 1.7698-0.59769 2.6483 4.1241 4.1585 3.2835 1.0502 3.873 0.96282 6.4732-0.9596l2.8608-2.115-0.56567 5.0572c-1.0751 9.6114-13.512 100.52-14.299 104.51-1.6325 8.2946-16.168 14.335-39.332 16.346-31.118 2.7015-92.605 3.5288-127.97 1.7219zm-47.882-59.166c-0.0383-4.2539-0.35463-9.5881-0.70312-11.854-0.68476-4.4518-3.0784-6.9358-4.9143-5.1-1.8594 1.8594 2.5566 24.688 4.7756 24.688 0.52206 0 0.88164-3.3036 0.84183-7.7344zm161.55-9.8199c1.9162-1.7341 2.193-4.9457 0.42636-4.9457-1.5486 0-8.3933 6.9532-7.6129 7.7336 0.77137 0.77137 5.116-0.91403 7.1866-2.7879zm54.142-34.777c0-0.42265-1.0547-1.6855-2.3438-2.8063s-2.3438-2.4341-2.3438-2.9184c0-0.48429-0.84375-1.1483-1.875-1.4756-1.278-0.40562-1.875-1.4185-1.875-3.181 0-4.9662-11.383-12.115-13.594-8.5378-0.31867 0.51563-2.1365 0.95153-4.0397 0.96869-3.839 0.0346-8.1722 2.9564-7.3936 4.9854 0.73905 1.926 7.8026 5.2839 12.457 5.9218 4.0354 0.55312 5.3123 1.6092 2.961 2.4489-1.8097 0.64634-0.26101 1.73 5.1378 3.5949 5.0852 1.7566 12.909 2.3623 12.909 0.99935zm-24.84-4.8632c0.74464-1.2049-1.8887-2.2452-3.8135-1.5066-1.8785 0.72086-0.84399 2.4507 1.4657 2.4507 0.97039 0 2.0269-0.42486 2.3478-0.94412zm37.03-9.8c0-1.1999-2.6521-3.3142-4.1571-3.3142-0.95735 0-0.55454 2.4133 0.59462 3.5625 1.5516 1.5516 3.5625 1.4115 3.5625-0.24827zm-148.59 58.56c-1.5713-0.6752-1.3814-0.81639 1.1719-0.8716 1.6758-0.0363 3.0469 0.35597 3.0469 0.8716 0 1.113-1.6287 1.113-4.2188 0zm-4.3945-1.5779c0.67675-0.27081 1.4854-0.23751 1.7969 0.074 0.31152 0.31152-0.2422 0.5331-1.2305 0.4924-1.0921-0.045-1.3143-0.26713-0.56641-0.5664zm-20.27-2.35c-2.7405-2.7405-0.0548-5.4984 3.5012-3.5953 1.5913 0.85162 1.7753 1.3945 0.97777 2.8847-1.1168 2.0867-2.8309 2.3587-4.4789 0.71063zm-13.312-5.6019c-1.8047-0.51304-3.9141-1.4642-4.6875-2.1137-0.77344-0.6495-3.8093-2.53-6.7464-4.1788-5.1828-2.9096-7.4525-5.9692-5.7161-7.7056 0.81886-0.81886 5.0002-0.21355 12.462 1.8042 8.813 2.3829 11.104 4.9508 2.7407 3.0716-4.7684-1.0714-7.0054 0.0108-5.5693 2.6941 0.89356 1.6696 3.9968 3.1664 8.688 4.1906 1.418 0.30954 2.5781 1.1876 2.5781 1.9512 0 0.76361-0.10547 1.3504-0.23438 1.3038-0.1289-0.0465-1.7109-0.50432-3.5156-1.0174zm15.252-7.9852c0.91215-0.23769 2.1778-0.22206 2.8125 0.0348 0.63471 0.25681-0.1116 0.45129-1.6585 0.43218-1.5469-0.0191-2.0662-0.22922-1.154-0.46691zm136.62-2.47c0-1.3064 11.189-7.5615 12.027-6.7236 0.26444 0.26444-0.54039 1.5739-1.7885 2.9099-3.9874 4.2682-10.238 6.5966-10.238 3.8137zm-153.28-6.25c-1.2363-0.53126-1.396-0.82327-0.46875-0.85725 0.77344-0.0283 2.0391 0.35741 2.8125 0.85725 1.7137 1.1075 0.23352 1.1075-2.3438 0zm-56.223-22.11c-1.0164-0.75297-2.3489-1.1769-2.9609-0.94203-1.3827 0.5306-1.9431-1.6817-2.7694-10.933-0.44143-4.9421-0.32801-7.2656 0.35466-7.2656 1.6035 0 2.2019-3.2743 1.119-6.1226-1.3333-3.5069 0.0879-4.8989 2.9531-2.8922 1.1894 0.83311 3.1234 1.5148 4.2978 1.5148 1.6661 0 2.1352-0.52747 2.1352-2.4012 0-2.3146 0.15217-2.3784 4.2188-1.7686l4.2188 0.63265v-2.8728c0-1.58-0.44046-4.9266-0.9788-7.4368-0.69086-3.2213-0.6806-5.3483 0.0349-7.23 1.3567-3.5685 2.3318-2.2134 3.6978 5.1392 0.62268 3.3516 2.1816 8.4141 3.4643 11.25l2.3321 5.1562-2.8837 2.5781c-1.586 1.418-3.5574 2.5781-4.3808 2.5781-1.3446 0-10.446 6.0906-14.645 9.8005-3.81 3.3661-0.36488 9.7738 4.5867 8.531 1.4041-0.35242 3.7248-1.6268 5.157-2.8319 2.791-2.3485 10.836-5.7788 11.649-4.9666 0.75731 0.75732-7.2672 6.3577-9.908 6.9148-2.8848 0.60862-5.5068 1.7846-7.9688 3.5738-1.6406 1.1923-2.1061 1.1915-3.7231-0.007zm223.9-35.13c0.34221-1.711 1.2078-3.7714 1.9237-4.5787 0.71581-0.80727 2.1757-7.1631 3.2442-14.124s2.994-17.398 4.2788-23.193c1.2848-5.7953 2.6045-12.756 2.9327-15.469 1.0906-9.014 3.2156-20.66 7.3998-40.554 2.2778-10.83 4.8349-24.753 5.6825-30.941 1.6364-11.946 2.6444-16.862 7.0763-34.508 3.2265-12.847 6.6718-33.599 8.9016-53.617 0.86151-7.7344 1.7149-14.59 1.8965-15.234 0.68849-2.4444 9.9136-0.82717 10.969 1.923 0.28777 0.74991 0.13862 4.4736-0.33146 8.2749-1.2878 10.414-1.7495 12.032-3.267 11.45-1.8091-0.69423-3.2153 3.2933-3.2974 9.3505-0.0576 4.2513-1.5683 10.647-1.7432 7.3803-0.18518-3.4581 1.9924-29.091 2.6431-31.113 0.98107-3.049 0.36529-4.6875-1.7617-4.6875-1.9288 0-1.704-1.2713-4.7242 26.719-1.0571 9.7969-3.3436 26.672-5.0812 37.5-3.1082 19.37-4.4313 28.342-8.0187 54.375-3.028 21.973-3.7482 28.072-3.7482 31.736 0 1.9324-0.62137 4.7151-1.3808 6.1838-0.75945 1.4686-1.8282 4.6665-2.375 7.1063-1.1205 4.9997-5.6226 32.22-6.0429 36.537-0.58494 6.0062-2.4708 17.018-3.4065 19.891-0.86982 2.6708-1.1878 2.8874-2.7796 1.8933-2.3968-1.4968-4.2474 0.3543-5.8346 5.8362-1.4673 5.0681-4.1084 6.6278-3.1555 1.8636zm-219.2-10.2c-1.431-2.3154-3.325-10.682-4.6839-20.689-0.80513-5.9297-1.8732-12.891-2.3734-15.469-2.2953-11.83-6.6688-39.151-8.9292-55.781-1.3667-10.055-3.0746-21.023-3.7954-24.375-0.72083-3.3516-1.9714-11.367-2.779-17.812-1.2765-10.187-3.5987-27.637-7.133-53.601-1.9294-14.174-0.26809-10.149 4.1553 10.069 5.2658 24.068 8.6133 38.385 10.519 44.991 0.75206 2.6071 3.2515 16.107 5.5544 30 2.3028 13.893 5.4928 31.588 7.0888 39.322 1.596 7.7344 3.2774 16.262 3.7366 18.951 0.45914 2.6888 1.9414 9.4388 3.2939 15 3.2575 13.394 3.6758 19.825 1.4503 22.299-0.92767 1.0312-2.0831 3.1142-2.5677 4.6289-0.93989 2.9378-2.5509 4.0616-3.5365 2.4668zm6.5754-12.043c-0.78242-0.78242-2.3958 0.87049-2.3666 2.4245 0.0262 1.3919 0.1966 1.3649 1.3966-0.22127 0.75171-0.99361 1.1882-1.9851 0.97006-2.2032zm254.54-120.39c-0.0363-1.9032 0.35597-3.721 0.8716-4.0397 1.1312-0.69915 1.1312 2.9924 0 5.625-0.64935 1.5111-0.8185 1.2035-0.8716-1.5853zm1.2708-12.946c0.17391-3.3516 0.61297-7.2146 0.9757-8.5846 0.36272-1.3699 0.24094-3.2729-0.27061-4.2287-0.51157-0.95586-0.70564-2.9122-0.43129-4.3474 0.49487-2.5887 0.50984-2.5937 1.8856-0.62958 1.1916 1.7012 1.2252 3.3234 0.239 11.526-1.3502 11.23-2.8607 15.175-2.3984 6.2646zm-306.67-70.78c-1.1555-2.8278-0.82509-11.566 0.48694-12.878 0.91342-0.91341 1.1449-0.57102 1.1112 1.6434-0.0234 1.5385 0.21511 4.342 0.53007 6.2301s0.13734 4.2084-0.39471 5.1562c-0.92616 1.65-0.99998 1.6436-1.7335-0.1516zm309.08-14.11-4.2188-1.2084 3.3364-0.0755c1.835-0.0415 4.1554 0.54395 5.1562 1.301 2.138 1.6171 1.4218 1.6142-4.2739-0.0172zm-30-1.4022c-7.7257-0.46462-6.9179-0.55068 6.0938-0.64919 8.25-0.0624 15.844 0.24908 16.875 0.69229 2.0541 0.88283-7.8827 0.86418-22.969-0.0431zm-268.36-1.3269c1.0174-0.60449 11.95-1.025 28.826-1.1087 19.026-0.0944 24.795 0.0932 19.219 0.62472-13.071 1.2459-49.953 1.6174-48.045 0.484zm128.9-0.23907c1.418-0.21481 3.7383-0.21481 5.1562 0 1.418 0.2148 0.25782 0.39055-2.5781 0.39055s-3.9961-0.17575-2.5781-0.39055zm8.9062 0.0506c0.64454-0.26007 1.6992-0.26007 2.3438 0 0.64454 0.26007 0.11719 0.47287-1.1719 0.47287s-1.8164-0.2128-1.1719-0.47287zm8.9062-0.0719c2.9648-0.18604 7.8164-0.18604 10.781 0 2.9648 0.18605 0.53907 0.33827-5.3906 0.33827s-8.3555-0.15222-5.3906-0.33827z"/>
</g>
</svg>
