<?xml version="1.0" encoding="UTF-8" standalone="no"?>
<!-- Created with Inkscape (http://www.inkscape.org/) -->
<svg id="svg3523" xmlns:rdf="http://www.w3.org/1999/02/22-rdf-syntax-ns#" xmlns="http://www.w3.org/2000/svg" height="937.5" viewBox="0 0 937.5 937.5" width="937.5" version="1.1" xmlns:cc="http://creativecommons.org/ns#" xmlns:dc="http://purl.org/dc/elements/1.1/">
<metadata id="metadata3529">
<rdf:RDF>
<cc:Work rdf:about="">
<dc:format>image/svg+xml</dc:format>
<dc:type rdf:resource="http://purl.org/dc/dcmitype/StillImage"/>
<dc:title/>
</cc:Work>
</rdf:RDF>
</metadata>
<g id="g3533">
<path id="path3549" fill="#fefefe" d="m0 468.75v-468.75h468.75 468.75v468.75 468.75h-468.75-468.75v-468.75z"/>
<path id="path3547" fill="#d0cfd0" d="m417.64 928.21c-12.9-0.35175-23.921-0.92812-24.492-1.2808-0.57069-0.35269-5.2037-1.083-10.296-1.6228-5.0919-0.53986-11.156-1.3766-13.477-1.8594-2.3203-0.4828-6.9609-1.2992-10.312-1.8142-23.509-3.6124-50.234-10.611-62.137-16.273-16.42-7.8094-21.974-18.661-16.682-32.589 2.8656-7.5416 6.1145-11.205 9.9378-11.205 1.766 0 4.5922-0.84218 6.2804-1.8715s4.1642-1.8731 5.5021-1.875c1.3379-0.002 4.9239-0.83689 7.9688-1.8555s6.4047-1.8623 7.4663-1.875 2.7491-0.64245 3.75-1.3995c1.0009-0.75703 2.8283-1.3898 4.0609-1.4062s3.9748-0.82169 6.0938-1.7895c6.9527-3.1757 17.92-5.5903 25.884-5.6988 5.6373-0.0768 6.8429-0.56849 7.8107-3.1857 0.40424-1.0932 1.1878-1.5287 2.1121-1.174 2.5033 0.96061 9.4585-3.9582 18.968-13.415 19.528-19.419 28.624-35.944 32.036-58.205 1.3227-8.6282 1.1127-30.118-0.37578-38.46-1.4897-8.3487-6.2499-22.65-10.061-30.225-3.9223-7.7971-12.237-19.781-18.171-26.191-5.5448-5.989-6.6075-9.5287-3.1866-10.614 1.0698-0.33955 6.3433-0.31758 11.719 0.0489 11.443 0.77995 13.302-0.59677 2.9767-2.2042-11.664-1.8157-25.777-5.5338-37.734-9.9408-4.6406-1.7104-10.758-3.6417-13.594-4.2918-2.8359-0.65014-8.1743-2.6027-11.863-4.339-3.6888-1.7364-7.1042-3.157-7.5898-3.157-1.383 0-21.692-10.659-27.422-14.391-8.3255-5.424-15.168-10.316-17.245-12.327-1.0643-1.0312-4.066-3.5625-6.6703-5.625-8.0356-6.3637-30.056-30.067-32.899-35.414-0.76092-1.4309-3.7568-6.2805-6.6574-10.777-13.062-20.247-24.344-51.008-28.169-76.803-1.2176-8.2116-1.5946-16.03-1.4602-30.288 0.18633-19.776 1.0601-28.711 4.0798-41.719 0.95762-4.125 2.0024-8.9766 2.3218-10.781 0.31934-1.8047 1.1444-5.1797 1.8334-7.5 4.5034-15.166 8.2372-27.305 9.5158-30.938 0.81666-2.3203 1.8264-5.4844 2.2438-7.0312 0.65633-2.4322 18.02-53.898 35.184-104.28 5.5199-16.204 12.75-37.018 14.578-41.968 3.941-10.67 7.406-22.922 7.406-26.189 0-9.3624 4.6522-10.781 38.906-11.861 89.006-2.8072 230.31-2.7554 232.71-0.35873 0.70606 0.70606-28.85 0.46392-32.132 0.52253-2.5523 0.0456-29.742 0.43116-60.422 0.85687-69.447 0.96366-135.54 2.7228-138.12 3.6763-5.2105 1.9275 60.872 2.4313 201.4 1.5353 96.906-0.61785 87.9-0.39146 79.219-1.9913-3.8672-0.71265-15.891-1.5403-26.719-1.8393-17.728-0.48946-43.742-1.4609-42.046-3.157 0.94467-0.94467 69.444-0.30353 82.564 0.73943 6.8162 0.54183 13.862 1.5989 15.657 2.3491 2.8492 1.1905 3.4573 2.058 4.7811 6.8215 1.8015 6.4823 3.9492 12.924 7.9152 23.739 1.6072 4.3828 4.9611 13.875 7.4531 21.094 2.492 7.2188 5.8192 16.5 7.3937 20.625s3.8887 10.453 5.1427 14.062c1.2539 3.6094 4.2842 12.047 6.7339 18.75 2.4497 6.7031 5.7046 15.773 7.233 20.156 1.5284 4.3828 3.9539 11.133 5.39 15 3.077 8.286 5.1733 14.318 11.566 33.281 2.6075 7.7344 5.7063 16.383 6.8864 19.219 5.1187 12.302 12.51 40.236 14.511 54.844 0.49451 3.6094 1.3097 9.386 1.8116 12.837 3.4549 23.755-1.5598 65.016-10.745 88.413-6.0664 15.452-10.341 25.197-12.639 28.814-1.3976 2.1994-4.1756 6.741-6.1733 10.093-9.0032 15.105-27.718 35.786-44.737 49.439-8.3366 6.6875-13.815 10.558-15.035 10.624-0.64007 0.0342-3.0622 1.4769-5.3825 3.2058-4.694 3.4978-26.552 14.555-33.302 16.847-2.389 0.81109-5.5555 2.1014-7.0366 2.8673-1.4812 0.76594-3.3816 1.3926-4.2231 1.3926-0.84152 0-4.347 1.2364-7.79 2.7475s-9.4199 3.6203-13.282 4.687c-16.6 4.585-20.364 5.5444-24.127 6.1503-7.4924 1.2066-5.1799 2.3527 4.7468 2.3527 14.776 0 14.873 0.44243 3.4981 15.938-11.959 16.292-19.682 35.112-22.698 55.312-2.1781 14.592-1.1445 38.278 2.1221 48.627 5.3476 16.942 7.9702 22.461 15.428 32.467 6.2695 8.4111 17.375 19.116 23.382 22.54 2.5781 1.4692 6.9484 2.9804 9.7117 3.3582 3.0612 0.41854 5.6847 1.3959 6.7148 2.5016 1.3249 1.4221 3.58 1.9624 10.425 2.498 4.8042 0.37582 9.8593 1.2648 11.234 1.9755 1.3743 0.7107 4.1252 1.6882 6.1129 2.1723 1.9878 0.48406 6.1454 1.8279 9.2391 2.9864 3.0938 1.1585 7.5234 2.4146 9.8438 2.7914 2.3203 0.37682 6.5391 1.405 9.375 2.2848 2.8359 0.87981 7.0302 1.6655 9.3206 1.7459 3.7286 0.13096 4.485 0.56569 7.2281 4.1543 3.7678 4.9291 5.0079 9.177 4.988 17.086-0.0248 9.8441-4.3116 17.607-12.679 22.959-17.498 11.193-36.227 16.249-87.139 23.522-16.217 2.3166-18.886 2.4219-68.438 2.7003-28.359 0.1593-62.117 0.002-75.017-0.3499zm71.43-45.467c-0.95526-2.0242-5.7062-4.302-8.9729-4.302-2.2991 0 5.1226 6.3407 7.5498 6.4502 2.311 0.10422 2.4133-0.0502 1.4231-2.1482zm-36.511-3.9309c-0.31153-0.31152-1.1201-0.34482-1.7969-0.074-0.74787 0.29927-0.52573 0.52142 0.56641 0.5664 0.98827 0.0407 1.542-0.18087 1.2305-0.49239zm19.004-0.37109c1.046-0.67598 0.50567-0.91247-2.1094-0.92315-1.9336-0.008-3.5156 0.40752-3.5156 0.92315 0 1.1941 3.7773 1.1941 5.625 0zm5.3711-0.56641c-0.31153-0.31152-1.1201-0.34482-1.7969-0.074-0.74787 0.29927-0.52573 0.52142 0.56641 0.5664 0.98827 0.0407 1.542-0.18087 1.2305-0.49239zm6.5228-31.915c-0.85994-0.85993-15.822-2.0795-17.517-1.4278-2.4037 0.92405 2.642 1.839 10.701 1.9405 4.082 0.0514 7.1491-0.17931 6.8157-0.51268zm-20.555-0.97551c-0.89634-0.23464-2.5838-0.24316-3.75-0.0189-1.1662 0.22424-0.43281 0.41623 1.6297 0.42663s3.0166-0.17307 2.1203-0.40773zm13.817-18.061 2.8125-0.67061-3.2812-0.59185c-1.8047-0.32552-11.93-0.75985-22.5-0.96519s-19.957-0.68714-20.859-1.0707c-0.94394-0.40122-1.6406-0.29261-1.6406 0.25575 0 2.5909 36.984 5.0657 45.469 3.0426zm-4.6875-18.422c-15.984-0.676-29.695-0.94428-30.469-0.59619-2.4332 1.0951 10.866 1.7655 35.625 1.7959l23.906 0.0293-29.062-1.2291zm19.688-41.798c6.0374-1.5093 7.0394-2.9528 6.9759-10.049-0.10874-12.151-6.6011-19.51-18.518-20.992-14.986-1.8632-20.142-1.8178-25.603 0.22547-7.2218 2.702-10.85 7.3241-11.953 15.226-0.45452 3.2562-0.62253 7.2725-0.37334 8.9252 0.39455 2.6167 1.0152 3.1855 4.806 4.4037 4.0699 1.3079 11.927 2.8946 18.415 3.7186 4.4179 0.56107 22.103-0.42108 26.25-1.4578zm-62.34-87.38c0-0.20377-2.2148-1.5279-4.9219-2.9424-2.707-1.4146-5.4731-3.3572-6.1469-4.317-0.76437-1.0888-2.3508-1.7397-4.2188-1.7307-2.9469 0.0142-6.1739 1.3456-5.3103 2.191 0.49398 0.4836 18.793 7.0269 19.895 7.114 0.38671 0.0306 0.70312-0.11113 0.70312-0.3149zm92.08-3.7273c3.7542-1.2226 8.2006-2.5225 9.8809-2.8888 3.9586-0.8629 2.9928-2.4018-1.4698-2.342-2.1236 0.0285-6.1763 1.4591-10.492 3.7036-8.1287 4.228-7.5401 4.6601 2.0804 1.5272zm-79.9-11.84c0-0.51563-0.86865-0.9375-1.9303-0.9375-1.0617 0-1.6696 0.42187-1.3509 0.9375 0.31867 0.51562 1.1873 0.9375 1.9303 0.9375 0.74301 0 1.3509-0.42188 1.3509-0.9375zm58.359-0.62089c-0.64453-0.26007-1.6992-0.26007-2.3438 0-0.64453 0.26007-0.11718 0.47287 1.1719 0.47287s1.8164-0.2128 1.1719-0.47287zm-13.21-37.28c8.2117-1.5935 14.215-3.9762 13.389-5.3138-1.0854-1.7563-4.4757-2.4746-19.55-4.1423-12.676-1.4023-16.337-1.4831-24.375-0.53773-10.732 1.2622-12.74 1.7248-12.74 2.9354 0 1.1525 6.2519 4.2497 10.312 5.1088 1.8047 0.3818 4.3359 1.2602 5.625 1.9519 3.1669 1.6994 18.577 1.6982 27.339-0.002zm68.555-7.0516c4.0749-1.0422 8.5044-1.6013 10.334-1.3044 1.8062 0.29312 4.1655 0.004 5.4126-0.66353 1.2159-0.65072 5.8089-1.299 10.207-1.4406 4.3978-0.1416 9.8944-0.61489 12.215-1.0518 2.4358-0.45862 5.8796-0.42566 8.1486 0.078 6.3682 1.4135 13.877-1.7627 35.538-15.032 14.48-8.8705 30.469-24.327 39.751-38.426 7.9064-12.01 16.872-28.59 16.879-31.213 0.002-0.80625 0.78497-2.7474 1.7401-4.3136 0.95512-1.5662 2.6872-6.2069 3.849-10.312 1.1618-4.1056 2.6991-9.0554 3.4162-10.999 0.71706-1.944 1.3038-5.2413 1.3038-7.3273s0.44436-4.6229 0.98746-5.6378c1.5371-2.8721 3.647-21.154 4.6417-40.219 1.1469-21.983-0.17698-42.669-3.5101-54.844-1.2704-4.6406-2.4301-9.4922-2.5771-10.781-0.39089-3.429-3.036-12.596-4.8026-16.645-1.489-3.4121-8.8664-23.948-14.059-39.136-1.4104-4.125-4.137-11.508-6.0591-16.406-1.9221-4.8984-3.8024-9.75-4.1785-10.781-1.0714-2.938-11.591-32.923-14.472-41.25-1.427-4.125-3.2506-8.9766-4.0523-10.781-0.80172-1.8047-3.4218-8.3438-5.8223-14.531-12.348-31.829-16.984-41.483-21.669-45.131-2.0054-1.5614-4.4111-3.1169-5.3462-3.4568-0.93503-0.33984-1.4555-1.0136-1.1566-1.4972 0.89513-1.4483-0.79897-1.9345-10.443-2.9967-11.118-1.2246-111.32-2.9147-162.01-2.7328-55.425 0.19889-113.03 2.1473-129.19 4.3697-3.0246 0.41598-4.3554 1.0011-4.0553 1.783 0.27675 0.7212-1.9764 2.2341-5.9238 3.9776-5.5346 2.4446-6.8476 3.5313-10.007 8.2829-4.4582 6.7044-6.3306 10.722-9.7856 20.995-3.963 11.784-6.1471 17.855-7.866 21.865-0.84485 1.9711-1.9098 5.3461-2.3665 7.5-0.45673 2.154-2.7172 9.4006-5.0233 16.104-2.3061 6.7031-4.4985 14.077-4.8721 16.386-0.37358 2.309-1.2173 5.0512-1.8749 6.0938-0.65763 1.0425-1.4882 3.2968-1.8457 5.0095s-1.8755 5.8167-3.3733 9.12-2.7233 6.7652-2.7233 7.693c0 0.92783-0.64309 2.6051-1.4291 3.7273-0.786 1.1222-2.6355 5.7512-4.1101 10.287-1.4746 4.5355-3.8462 10.778-5.2702 13.871-1.4241 3.0938-3.961 9.4219-5.6376 14.062-3.9684 10.984-7.8785 20.293-9.2105 21.927-0.58369 0.71618-1.7555 3.8802-2.6041 7.0312-0.84856 3.151-2.195 7.6275-2.992 9.9478-0.79708 2.3203-2.0799 7.1719-2.8508 10.781-0.77089 3.6094-2.0897 9.5049-2.9307 13.101-2.3801 10.178-2.8922 33.295-1.0512 47.45 0.84418 6.4909 2.1451 13.874 2.8909 16.406 0.74582 2.5326 1.8074 7.4603 2.359 10.951 0.55166 3.4903 1.7893 8.1309 2.7503 10.312 0.96098 2.1816 2.6576 6.7024 3.7703 10.046 1.1127 3.3437 2.6374 6.4233 3.3882 6.8435 0.75079 0.42016 1.3651 1.8096 1.3651 3.0876 0 2.758 9.5442 21.412 12.674 24.771 1.2011 1.2891 3.165 4.0984 4.3643 6.2431 5.2536 9.3948 22.141 28.559 32.087 36.413 5.7884 4.5708 20.268 13.505 23.422 14.452 4.5802 1.3755 16.172 6.3109 25.583 10.892 9.69 4.7173 10.619 4.925 10.619 2.3747 0-2.6452 2.9658-3.1765 10.591-1.8974 4.3929 0.73694 8.063 2.0247 10.503 3.6851 4.404 2.9975 9.5611 4.2382 11.371 2.7359 0.75908-0.62998 2.6605-0.80024 4.7877-0.42874 10.485 1.8312 10.957 1.7908 13.887-1.1869 4.3022-4.373 11.929-6.3756 30.423-7.9886 23.364-2.0376 68.21-0.34895 93.939 3.5373 10.911 1.648 21.656 4.7179 23.254 6.6436 1.4007 1.6878 0.2128 1.7458 8.701-0.42512zm-16.67-449.11c2.5741-1.1061 19.808-0.42337 21.519 0.68277 0.97316 0.6289-11.497 0.21014-16.363 0.17448-4.7885-0.0351-6.4332-0.30853-5.1562-0.85725z"/>
<path id="path3545" fill="#b0aeb0" d="m439.22 927.24c-25.781-0.28474-47.395-0.85444-48.03-1.266-0.63549-0.41156-5.9089-1.3567-11.719-2.1004-38.621-4.9434-70.642-12.728-86.032-20.915-14.597-7.7655-18.312-21.993-9.4074-36.034 2.5378-4.0018 3.1412-4.4208 6.3656-4.4208 1.9591 0 4.578-0.71158 5.8196-1.5813 1.2417-0.86971 3.9723-1.8764 6.068-2.237 7.3718-1.2687 18.831-3.7899 20.685-4.5512 1.0312-0.42334 5.0391-1.7056 8.9062-2.8494 3.8672-1.1438 8.2544-2.4625 9.7493-2.9304 1.4949-0.46791 3.3934-0.83792 4.2188-0.82224 1.289 0.0245 1.2693 0.16329-0.1399 0.98408-3.8259 2.2284 0.10387 3.8767 4.1191 1.7278 1.4228-0.76149 2.6286-0.65748 4.9059 0.42317 2.5894 1.2288 3.5371 1.2548 6.6554 0.18277 3.9186-1.3472 6.1165-3.6278 6.1165-6.3469 0-0.96329 1.6968-2.8222 3.9014-4.2739 5.4934-3.6176 23.784-21.928 29.724-29.757 6.587-8.6811 12.695-21.417 15.769-32.879 2.2707-8.4679 2.5024-10.916 2.5666-27.121 0.0732-18.477-0.30361-21.333-4.6443-35.188-4.7578-15.186-13.634-30.807-23.44-41.249-5.3862-5.7358-7.0079-9.1084-4.9924-10.383 0.69971-0.44236 7.9548-0.5793 16.122-0.30431 15.918 0.53594 18.832-0.47348 6.9433-2.4057-17.251-2.8038-28.657-5.682-46.169-11.65-5.1562-1.7572-12.328-4.1131-15.938-5.2355-6.5513-2.0372-9.8193-3.4148-24.844-10.472-12.72-5.975-34.688-20.174-34.688-22.42 0-0.46682 1.8984-0.84876 4.2188-0.84876 2.3203 0 4.2188-0.21094 4.2188-0.46875 0-0.99665-3.8133-4.2188-4.9928-4.2188-0.68355 0-2.2336-1.0547-3.4447-2.3438-1.211-1.2891-2.9472-2.3438-3.8581-2.3438-0.91094 0-1.917-0.42188-2.2357-0.9375-0.82678-1.3378-3.2843-1.1614-3.265 0.23437 0.008 0.64454 1.0769 2.1782 2.3732 3.408 1.2964 1.2299 2.146 2.4472 1.888 2.7051-0.66034 0.66036-5.215-2.4459-5.215-3.5566 0-0.50374-0.35843-0.91589-0.79653-0.91589-1.4035 0-18.219-17.226-24.319-24.913-21.308-26.85-35.066-59.564-40.579-96.493-1.9823-13.277-2.0383-15.057-1.0038-31.875 1.3525-21.988 3.4678-36.056 8.0352-53.438 1.6322-6.2118 7.924-28.316 9.073-31.875 5.561-17.226 40.826-121.26 51.167-150.94 6.6747-19.159 8.7361-26.258 8.7361-30.084 0-4.9708 2.0313-7.3441 7.5-8.7629 5.6262-1.4597 37.974-2.5051 38.748-1.2522 0.34635 0.56041-1.422 1.1758-4.3767 1.523-2.7268 0.32048-6.408 1.1068-8.1803 1.7474l-3.2225 1.1647 4.6875 0.64061c2.5781 0.35234 10.383 0.72998 17.344 0.83919 6.9609 0.10922 15.609 0.48138 19.219 0.82701 5.7047 0.54628 6.1336 0.70872 3.2812 1.2427-1.8047 0.33783-9.3924 0.86987-16.862 1.1823-7.4692 0.31244-18.2 1.1774-23.847 1.9221-5.6465 0.74473-10.61 1.3541-11.029 1.3541-0.4195 0-0.76273 0.86527-0.76273 1.9228 0 1.2689-1.0362 2.3795-3.0469 3.2657-4.0428 1.7817-5.3954 3.0007-8.3115 7.4903-3.3214 5.1135-7.3117 14.534-12.102 28.571-2.1994 6.4453-4.9926 13.986-6.207 16.757-1.2144 2.7712-2.208 5.7956-2.208 6.7209s-0.60724 2.8767-1.3494 4.3365c-1.312 2.5806-8.0686 23.187-11.322 34.529-0.8873 3.0938-2.1295 6.4688-2.7603 7.5-0.6309 1.0312-1.4586 3.1406-1.8394 4.6875-0.38082 1.5469-1.9725 6.1875-3.537 10.312-1.5645 4.125-4.128 10.875-5.6966 15s-4.0428 9.9516-5.4983 12.948c-1.4554 2.9964-3.2378 7.426-3.9607 9.8438-1.2407 4.149-5.1567 13.719-9.1301 22.311-0.97987 2.119-1.7816 4.45-1.7816 5.1801 0 0.73009-1.2524 3.8479-2.7831 6.9286-1.5307 3.0806-2.7963 6.3448-2.8125 7.2536-0.0162 0.90887-0.90804 4.7058-1.9819 8.4375-3.0124 10.468-3.8633 17.555-4.3038 35.848-0.29682 12.324-0.007 19.626 1.077 27.074 1.9786 13.604 6.5146 33.801 8.8689 39.488 0.42685 1.0312 1.917 4.9312 3.3115 8.6664 1.3945 3.7353 2.921 7.0297 3.3922 7.321 0.47123 0.29124 0.85679 1.1395 0.85679 1.885 0 2.9263 10.316 21.955 14.671 27.062 1.728 2.0264 3.1418 4.0427 3.1418 4.4807 0 0.43798 1.582 2.8729 3.5156 5.4109s4.691 6.199 6.1275 8.1355c9.505 12.813 30.253 30.416 41.473 35.186 18.227 7.75 24.389 10.428 30.605 13.3 10.061 4.6492 12.029 5.0632 12.029 2.5308 0-1.1033 0.63742-2.2506 1.4165-2.5496 2.3572-0.90453 13.869 1.5882 16.763 3.6298 1.4909 1.0517 5.2878 2.6965 8.4375 3.655 5.3166 1.618 5.8094 1.6315 6.8802 0.18874 0.99004-1.334 1.6694-1.3995 4.7963-0.46264 6.2901 1.8846 9.797 1.4137 12.798-1.7184 4.4655-4.661 10.543-6.2716 30.092-7.9746 15.289-1.3319 21.456-1.4018 44.91-0.50901 14.953 0.56918 29.93 1.4414 33.281 1.9383 3.3516 0.4969 9.5666 1.3157 13.811 1.8196 10.516 1.2483 21.355 4.5196 24.113 7.2775 2.0961 2.0961 2.435 2.1583 4.8984 0.90019 3.7179-1.8989 11.54-3.4037 14.587-2.8064 1.411 0.27658 4.2672-0.17803 6.3471-1.0102 2.2079-0.88342 6.6024-1.5301 10.56-1.554 3.7278-0.0225 8.6763-0.41067 10.997-0.86269 2.7154-0.52901 5.5997-0.45555 8.0942 0.20614 6.0924 1.6161 14.234-1.7006 34.318-13.981 4.5062-2.7552 8.6134-5.0095 9.1271-5.0095 0.51368 0 5.8459-4.7461 11.849-10.547 13.67-13.209 19.326-20.394 29.024-36.873 16.336-27.757 23.758-59.368 25.295-107.74 0.77218-24.296-0.3949-33.548-7.9235-62.812-0.5306-2.0625-2.2942-7.3359-3.9191-11.719-3.2017-8.6361-9.4716-26.138-14.442-40.312-1.7175-4.8984-5.1032-13.969-7.5238-20.156-2.4206-6.1875-5.1548-13.57-6.0761-16.406-2.41-7.4186-12.05-34.404-14.066-39.375-0.94099-2.3203-3.0447-7.5938-4.6749-11.719-1.6302-4.125-3.5672-8.8294-4.3045-10.454-0.73722-1.6248-1.3404-3.3421-1.3404-3.8162 0-1.1173-6.27-15.624-10.648-24.636-3.8126-7.8481-10.164-15.35-13.727-16.214-6.5804-1.5957-23.587-3.4572-36.059-3.9467-7.7151-0.30284-14.254-0.78087-14.531-1.0623-0.27712-0.28141 6.879-0.41487 15.902-0.29657 17.104 0.22424 31.875-0.7067 31.875-2.0089 0-1.082-6.3613-2.7045-10.781-2.7498-2.0625-0.0212-4.8047-0.65066-6.0938-1.3989-2.1331-1.2382-1.2904-1.3512 9.375-1.2579 12.463 0.10908 24.95 1.8993 26.845 3.8484 0.6309 0.64911 2.6159 5.6099 4.411 11.024 1.7952 5.4141 5.6606 16.594 8.5898 24.844s5.8931 16.688 6.5865 18.75c0.69333 2.0625 2.581 7.3359 4.1948 11.719 1.6138 4.3828 4.0221 11.133 5.3517 15 1.3296 3.8672 3.6784 10.195 5.2195 14.062 2.4087 6.0443 6.1369 16.51 16.699 46.875 1.1658 3.3516 3.487 9.6797 5.1582 14.062 1.6712 4.3828 4.5985 12.82 6.505 18.75 1.9065 5.9297 4.4238 13.102 5.594 15.938 3.0057 7.2844 8.4691 25.189 11.341 37.168 7.9278 33.064 8.0097 67.964 0.23378 99.707-9.0428 36.915-26.751 66.948-56.573 95.946-6.6831 6.4985-23.662 19.667-27.371 21.227-1.1321 0.47641-4.0852 2.2877-6.5625 4.025-5.1327 3.5997-25.525 13.961-30.914 15.708-1.9743 0.63989-5.2772 1.9033-7.3397 2.8076-2.0625 0.90433-5.6484 2.2785-7.9688 3.0537-2.3203 0.7752-7.1719 2.4677-10.781 3.761-10.773 3.8605-19.196 6.2596-28.125 8.0111-5.9715 1.1714-8.4375 2.0513-8.4375 3.0106 0 1.0665 2.0986 1.4555 9.8438 1.8243 9.0402 0.43049 9.8663 0.62615 10.12 2.397 0.15172 1.0606-0.98582 3.5918-2.5279 5.625-1.542 2.0332-3.6001 4.7514-4.5734 6.0405-3.8592 5.1108-10.371 16.818-13.558 24.375-8.2257 19.505-9.6337 27.174-9.552 52.031 0.0607 18.436 0.22768 20.282 2.6274 29.03 3.1069 11.326 8.3094 22.691 14.106 30.813 5.4547 7.6441 20.253 22.717 23.176 23.607 5.2611 1.6015 12.058 9.5373 12.058 14.079 0 0.75756 0.47622 1.3774 1.0583 1.3774 0.72784 0 0.86412-1.4636 0.43646-4.6875-0.51187-3.8586-0.36743-4.6875 0.81672-4.6875 0.7912 0 2.2823 0.84375 3.3135 1.875 1.3561 1.3561 3.125 1.875 6.3915 1.875 2.4841 0 7.652 0.85372 11.484 1.8972 3.8323 1.0434 9.2363 2.2957 12.009 2.7827 2.7726 0.48706 6.0107 1.521 7.1959 2.2975 1.1852 0.77656 5.0339 1.7974 8.5527 2.2685 3.5188 0.47109 8.7182 1.5763 11.554 2.4559 2.8359 0.87967 7.0358 1.6652 9.333 1.7457 3.8132 0.13354 4.4135 0.49795 6.8965 4.1868 2.7997 4.1592 5.3022 11.831 5.3218 16.315 0.0201 4.5925-3.8895 13.167-8.014 17.577-4.9152 5.2547-15.758 11.152-27.499 14.956-20.682 6.7008-59.042 13.398-86.351 15.077-15.006 0.9222-20.898 0.92536-99.844 0.0534zm40.78-2.85c-13.664-0.31225-25.477-0.24454-26.25 0.15046-0.77344 0.39502 10.406 0.65049 24.844 0.56774l26.25-0.15047-24.84-0.57zm10.523-38.972c0.28769-0.28769 0.0716-1.719-0.48007-3.1807-0.87905-2.3289-1.8493-2.8569-7.8437-4.2686-5.4885-1.2925-9.4875-1.5089-20.233-1.0949-13.857 0.53397-16.975 1.0718-16.39 2.8269 0.52551 1.5765 7.3811 2.7141 9.7868 1.624 1.1644-0.52764 4.7354-0.69552 8.1039-0.38097 3.5419 0.33075 7.2543 0.13283 9.0139-0.48057 3.578-1.2473 8.5686 0.43122 10.506 3.5336 1.1443 1.8324 6.1761 2.7813 7.5362 1.4212zm-49.71-7.17c-0.875-0.875-1.375-0.875-2.25 0s-0.625 1.125 1.125 1.125 2-0.25 1.125-1.125zm-14.419-30.611c1.1962-0.33663-1.9679-0.65781-7.0312-0.71372-5.9942-0.0662-8.0613 0.13688-5.9248 0.5821 4.1498 0.86476 10.135 0.92556 12.956 0.13162zm61.81-0.74601c2.707-0.32515 4.9219-0.90356 4.9219-1.2853 0-0.8519-21.96-2.413-29.062-2.066-6.9772 0.3409-11.571 1.1376-10.831 1.8782 1.3921 1.3921 26.752 2.4604 34.971 1.4732zm-43.125-0.97627c-0.90234-0.2358-2.3789-0.2358-3.2812 0-0.90234 0.23581-0.16406 0.42875 1.6406 0.42875s2.543-0.19294 1.6406-0.42875zm43.269-18.09c13.483-0.50952 23.281-1.2674 23.859-1.8454 0.68285-0.68285-0.42915-0.99665-3.6597-1.0327-28.83-0.32215-62.341-1.5895-72.418-2.7389-4.0166-0.4581-9.1582-0.58406-11.426-0.27989-3.7507 0.50308-3.9164 0.63-1.8347 1.4054 4.7099 1.7544 14.735 3.734 22.445 4.4322 11.334 1.0263 17.232 1.0344 43.035 0.0593zm33.586-3.3928c-0.31152-0.31152-1.1201-0.34482-1.7969-0.074-0.74787 0.29927-0.52573 0.52142 0.56641 0.5664 0.98827 0.0407 1.542-0.18087 1.2305-0.49239zm-13.82-15.19c1.8037-0.76811-1.0046-1.0195-12.188-1.0909-22.156-0.14143-65.886-1.6957-67.734-2.4074-0.90234-0.34748-1.6406-0.20809-1.6406 0.30977 0 1.3317 10.849 3.2259 22.969 4.0102 14.792 0.95725 55.766 0.38263 58.594-0.82173zm-33.75-38.091c0-0.90344 1.4704-1.5386 4.4531-1.9235 21.55-2.781 22.468-3.4716 21.823-16.415-0.18486-3.7112-2.4479-11.055-3.9728-12.893-6.4226-7.7388-25.929-11.697-40.498-8.2178-10.081 2.4075-16.54 11.391-15.996 22.25 0.48515 9.6935 1.3381 10.479 14.613 13.461 8.6997 1.9542 10.951 3.1033 6.4531 3.2944l-3.2812 0.13942 2.8125 0.71566c1.5469 0.39361 5.2383 0.76557 8.2031 0.82658 4.116 0.0847 5.3906-0.208 5.3906-1.2379zm-39.792-89.504c-0.29004-0.46929-3.3735-2.4076-6.8522-4.3073-3.4787-1.8998-7.1959-4.5264-8.2604-5.8371-1.8446-2.2709-2.2327-2.3512-8.2545-1.7063-4.1392 0.44328-6.194 1.0517-5.9567 1.7637 0.19928 0.59784 6.8669 3.2859 14.817 5.9735 16.589 5.608 15.184 5.2097 14.507 4.1135zm76.505-1.8991c5.1015-1.8498 18.858-6.0292 23.521-7.1459 3.4126-0.81731 3.2662-1.9172-0.35156-2.6408-4.9449-0.98897-8.7377-0.65802-11.054 0.96456-1.2175 0.85278-5.952 3.37-10.521 5.5938-7.6915 3.7435-9.6122 5.0432-7.4534 5.0432 0.46974 0 3.1064-0.8167 5.8594-1.8149zm-26.795-12.74c1.0725-0.66903 5.8275-1.5198 10.567-1.8905 4.7393-0.37074 9.979-0.99766 11.644-1.3931l3.0269-0.71906-3.2812-0.1888c-23.423-1.3478-68.817-1.3462-71.227 0.003-2.0979 1.1741 1.7362 2.4017 9.9806 3.1958 5.8948 0.56774 6.8471 0.43935 7.7337-1.0426 0.96335-1.6103 1.0791-1.6016 2.4536 0.18492 0.90957 1.1822 3.421 2.2439 6.7976 2.8734 6.5793 1.2267 19.661 0.62697 22.305-1.0225zm-61.94-3.26c0.31867-0.51563-0.31414-0.9375-1.4062-0.9375s-1.7249 0.42187-1.4062 0.9375c0.31867 0.51562 0.95149 0.9375 1.4062 0.9375 0.45476 0 1.0876-0.42188 1.4062-0.9375zm62.812-15.938c1.3872-0.59612 0.53364-0.85307-3.2812-0.98773-2.8359-0.10011-8.5312-0.32373-12.656-0.49693-4.125-0.17322-9.1875-0.0373-11.25 0.30197l-3.75 0.61689 3.2812 0.62824c4.8171 0.92229 25.473 0.87566 27.656-0.0624zm-25.619-16.024c1.3842-0.7408 2.1976-0.7408 2.9384 0 0.62631 0.62631 5.232 1.0128 11.852 0.99454 9.7257-0.0268 10.643-0.16996 9.0083-1.4062-0.99-0.76-3-1.38-4.45-1.38-1.4483 0-2.6333-0.42188-2.6333-0.9375 0-0.51563 0.94938-0.9375 2.1097-0.9375 3.2888 0 14.26-2.4643 18.956-4.258 10.52-4.0176 2.161-7.0656-24.067-8.7759-15.446-1.0073-32.624 0.89017-32.624 3.6036 0 0.80567 8.7028 4.8155 14.297 6.5872 3.82 1.2099 4.6275 3.3014 1.6406 4.2493-2.6846 0.85207-2.3061 2.4394 0.76476 3.2072 0.1628 0.0407 1.1573-0.38694 2.21-0.95033zm190.16-33.26c0-0.25781-0.84375-0.0172-1.875 0.53472-1.0312 0.55191-1.875 1.2144-1.875 1.4722 0 0.25781 0.84375 0.0172 1.875-0.53472 1.0312-0.55191 1.875-1.2144 1.875-1.4722zm5.1594-3.2203c0.74083-1.1987-0.12315-1.185-2.4085 0.0381-0.99735 0.53376-1.8134 1.3924-1.8134 1.908 0 1.0767 3.2914-0.4404 4.2219-1.946zm-380.63-2.81c-0.31867-0.51563-0.97639-0.9375-1.4616-0.9375-0.4852 0-0.88217 0.42187-0.88217 0.9375 0 0.51562 0.65771 0.9375 1.4616 0.9375 0.80387 0 1.2008-0.42188 0.88217-0.9375zm389.64-5.4312c-0.88809-0.29604-4.8002 3.0071-4.8002 4.053 0 0.27324 1.29-0.45692 2.8666-1.6226s2.4468-2.2594 1.9336-2.4304zm-317.45-415.52c3.5435-0.76979 50.909-1.3142 50.078-0.57559-0.21485 0.19091-12.414 0.58182-27.109 0.86868-16.017 0.31264-25.217 0.19525-22.969-0.29309zm239.31-0.66464c1.685-0.20865 4.2163-0.20435 5.625 0.01 1.4087 0.21392 0.0301 0.38463-3.0637 0.37937-3.0938-0.006-4.2464-0.18028-2.5613-0.38893z"/>
<path id="path3543" fill="#908e90" d="m506.28 927.3c-1.7566-1.2054-0.703-1.5943 6.5362-2.4129 15.374-1.7384 10.818-2.0617-37.969-2.6941-28.875-0.37429-55.031-0.8588-58.125-1.0767l-5.625-0.39617 3.75 1.2877c2.0625 0.70825 6.3351 1.3201 9.4946 1.3598 3.6991 0.0464 6.1317 0.53846 6.8316 1.3819 0.91647 1.1043-0.7522 1.4159-10.632 1.9858-6.4456 0.37177-13.317 0.37526-15.269 0.008-1.9525-0.3675-8.8234-1.244-15.269-1.9478-15.839-1.7295-31.538-3.935-36.094-5.0706-2.0625-0.51414-6.2812-1.4057-9.375-1.9813-11.477-2.1352-35.383-8.3491-41.719-10.844-10.951-4.312-17.988-9.2725-20.833-14.686-5.5725-10.6 0.62209-29.711 9.6305-29.711 1.6197 0 4.0646-0.5961 5.4332-1.3247 3.4843-1.8548 15.474-4.158 22.176-4.2597 3.0938-0.047 6.2578-0.14177 7.0312-0.21069 4.3553-0.38815 7.5 0.27278 7.5 1.5763 0 1.065 1.1528 1.4062 4.7507 1.4062 4.1937 0 4.6862-0.2031 4.2008-1.7324-0.50076-1.5778 0.26136-1.7857 8.5375-2.3294 10.868-0.71389 15.652-3.1785 16.666-8.5863 0.6167-3.2873 6.0034-8.9144 8.5335-8.9144 0.7555 0 1.3736-0.38292 1.3736-0.85094 0-0.46801 4.2604-5.2141 9.4675-10.547 19.544-20.016 26.985-33.279 31.475-56.102 5.5226-28.072-0.4871-58.131-16.597-83.015-3.5872-5.5408-8.6637-12.339-11.281-15.106-7.706-8.148-7.461-8.2855 14.764-8.2855 17.949 0 23.95-0.64171 17.034-1.8214-1.7285-0.2948-8.627-1.3722-15.33-2.3942-6.7031-1.022-17.461-3.3089-23.906-5.0818-13.535-3.7233-42.355-13.393-49.219-16.515-19.589-8.9077-39.751-20.667-41.709-24.326-0.75687-1.4142-0.37522-1.7424 2.5984-2.2339 1.9171-0.31692 5.0676-0.58087 7.0012-0.58654 5.3729-0.0158 4.3657-2.2013-2.3438-5.0856-3.2226-1.3854-6.4922-2.9006-7.2656-3.3671-11.872-7.1613-18.249-11.944-21.555-16.167-2.0193-2.579-4.1344-3.3062-5.0951-1.7518-0.28089 0.4545 0.55881 2.4024 1.866 4.3287s2.122 3.757 1.8107 4.0684c-0.31133 0.31133-0.86265 0.0861-1.2251-0.50036-0.36251-0.58654-2.2291-2.3142-4.1481-3.8391-6.5281-5.1879-20.209-23.41-28.486-37.941-7.499-13.165-15.927-35.305-20.111-52.834-4.6861-19.63-5.9761-42.659-2.8898-51.589 1.0859-3.1421 1.4002-5.5452 0.90137-6.8935-0.9868-2.6676 0.31827-10.516 1.8326-11.02 0.87432-0.29144 1.1627 1.9692 1.1627 9.1142 0 5.6234 0.77603 13.596 1.9012 19.531 3.4499 18.199 6.8013 33.39 8.5209 38.623 2.7291 8.3051 6.2578 17.64 7.713 20.404 0.7426 1.4105 2.1315 4.463 3.0864 6.7834 3.0519 7.4157 8.8201 17.3 15.11 25.892 1.932 2.6393 5.8792 8.1236 8.7716 12.188 6.1704 8.6694 22.893 25.114 32.241 31.706 3.6848 2.5982 11.701 6.7493 18.281 9.4664 6.4453 2.6615 16.359 6.9438 22.031 9.516 5.6719 2.5723 11.473 4.9645 12.891 5.3161 2.2994 0.57008 2.5781 0.38384 2.5781-1.7224 0-2.0404 0.41435-2.3609 3.0469-2.3564 4.0421 0.007 9.7849 1.5457 13.828 3.7052 1.8047 0.96388 6.0045 2.6664 9.3329 3.7833 5.7228 1.9204 6.1166 1.9419 7.2472 0.39587 1.0401-1.4225 1.6688-1.4931 4.8384-0.5435 5.754 1.7239 8.1172 1.3415 11.529-1.8657 6.875-6.4624 14.783-8.0493 44.396-8.9095 34.73-1.0088 79.441 2.4714 94.152 7.3284 3.3146 1.0944 6.9726 3.0107 8.129 4.2584l2.1024 2.2686 3.9089-1.9942c2.6558-1.3549 6.1134-2.0929 10.786-2.3022 3.7822-0.16942 7.4355-0.65555 8.1184-1.0803s5.4604-1.083 10.617-1.4628c5.1562-0.37981 10.787-0.97427 12.513-1.321 1.7821-0.35799 4.6633-0.12719 6.667 0.53406 3.1038 1.0243 4.2496 0.91088 9.5178-0.9424 7.5836-2.6678 13.039-5.4011 24.538-12.295 5.0455-3.0249 9.7072-5.4998 10.359-5.4998 0.65214 0 1.7862-0.52734 2.5202-1.1719 0.73397-0.64454 0.50289-0.17941-0.51352 1.0336s-5.3335 4.5488-9.5935 7.4128-7.5575 5.3954-7.3278 5.6251c1.2128 1.2128 19.933-9.7864 26.029-15.293 1.9674-1.7775 3.9298-3.2318 4.3608-3.2318 1.1434 0 14.211-12.913 14.211-14.043 0-1.4292-2.7951-1.1559-3.365 0.32911-0.27148 0.70746-2.2621 2.5604-4.4237 4.1175-2.1616 1.5572-5.0554 3.826-6.4307 5.0418-5.4851 4.8489-7.5402 6.4293-8.3603 6.4293-1.5615 0-0.91371-0.86795 5.4703-7.3289 9.1643-9.2748 16.756-18.414 22.092-26.597 21.156-32.441 28.54-59.037 31.663-114.05 0.89928-15.843 0.89319-21.989-0.0292-29.531-2.8178-23.04-7.4476-39.515-21.645-77.024-0.9758-2.5781-3.8714-10.594-6.4345-17.812-2.5632-7.2188-6.5345-18.188-8.825-24.375-2.2906-6.1875-6.8026-18.633-10.027-27.656-3.2242-9.0234-8.158-22.102-10.964-29.062-2.8062-6.9609-5.9668-15.188-7.0236-18.281-2.3446-6.8639-10.056-23.218-14.691-31.158-3.8104-6.5268-4.2818-6.7807-16.94-9.1232-4.3466-0.80437-8.0736-1.6331-8.2821-1.8416-0.20851-0.2085 2.0822-0.64801 5.0905-0.97667 3.0082-0.32867 6.9461-0.93542 8.7508-1.3483l3.2812-0.75076-2.8125-1.2018c-1.5469-0.661-4.9219-1.7685-7.5-2.4612-4.4997-1.2089-4.2181-1.2477 7.0312-0.96705 11.882 0.2964 18.363 1.84 19.111 4.5516 0.84054 3.0467 7.4134 22.28 12.269 35.902 2.941 8.25 5.7025 16.266 6.1367 17.812 1.1893 4.2366 6.0576 17.554 7.1971 19.688 0.55071 1.0312 1.2946 3.2413 1.6531 4.9111 0.35849 1.6699 1.0412 3.2768 1.5172 3.571 0.47595 0.29416 0.86537 1.3954 0.86537 2.4472s0.6042 3.2418 1.3427 4.8666c2.7346 6.0168 18.5 49.263 20.216 55.454 0.4287 1.5469 1.6979 5.1328 2.8205 7.9688 1.1226 2.8359 2.6127 6.8438 3.3113 8.9062 0.69861 2.0625 3.4188 9.8672 6.0449 17.344 13.444 38.275 17.575 54.003 20.156 76.73 2.2471 19.787 1.7098 35.658-1.9251 56.864-6.2547 36.489-23.923 72.173-48.217 97.379-3.3516 3.4776-6.2315 6.7117-6.3999 7.187-0.77487 2.1874-30.652 26.215-32.597 26.215-0.36266 0-3.8656 2.0452-7.7843 4.5448-7.8265 4.9924-23.909 12.958-32.543 16.119-3.0355 1.1112-8.2612 3.0552-11.613 4.3201-16.286 6.1464-32.949 11.041-45 13.219-2.7384 0.49493-4.2188 1.2455-4.2188 2.1391 0 1.0912 1.7496 1.4252 8.4375 1.6108 4.6406 0.1288 9.3867 0.45325 10.547 0.72098 3.0244 0.69797 2.66 3.4635-1.1067 8.3982-13.653 17.887-22.324 38.065-25.879 60.226-2.229 13.894-2.322 23.607-0.36098 37.712 2.5667 18.462 8.0796 32.527 17.891 45.643 5.823 7.7847 19.573 21.909 21.329 21.909 0.66317 0 2.9131 1.2368 4.9998 2.7484 4.0798 2.9554 6.7262 8.7761 6.9729 15.336 0.11784 3.1345 1.7019 4.1385 1.7019 1.0787 0-0.74301 0.94922-1.4134 2.1094-1.4897 3.5976-0.23673 4.8094-0.40686 8.3642-1.1742 4.2654-0.92079 9.2139 0.0762 9.2139 1.8563 0 1.7181 2.262 1.7184 3.6878 0.00047 0.83395-1.0048 3.1284-1.2684 9.3572-1.0748 4.5388 0.14108 8.7322 0.5531 9.3188 0.9156 0.58654 0.3625 3.2829 0.68294 5.992 0.71207 2.709 0.0292 8.3566 1.0704 12.55 2.314 4.1935 1.2435 8.9148 2.1626 10.492 2.0425 1.6504-0.12575 3.6137 0.45721 4.6264 1.3737 3.2951 2.982 6.1037 10.081 6.5707 16.609 0.38878 5.4338 0.0963 7.0696-2.1648 12.108-3.0356 6.7642-7.1217 10.627-16.398 15.502-17.506 9.199-45.289 15.477-93.251 21.073-12.858 1.5001-40.072 2.2296-41.692 1.1176zm-15.842-41.426c1.493-0.799 1.6485-1.2744 0.76521-2.3388-0.60977-0.73474-0.90025-2.1329-0.64551-3.107 0.38523-1.4731-0.1878-1.8576-3.405-2.2846-2.1275-0.28239-6.3994-0.95361-9.4932-1.4916-3.8907-0.67657-9.8163-0.68026-19.219-0.012-7.4766 0.53139-15.353 0.92809-17.503 0.88154-4.3447-0.0941-5.9918 1.2571-3.293 2.7015 5.0599 2.708 31.632 3.4114 35.586 0.94205 2.5085-1.5666 7.5439 0.46695 8.7026 3.5145 0.92685 2.4378 5.0886 3.0224 8.504 1.1945zm-57.778-7.4346c-0.31867-0.51563-1.6341-0.9375-2.9232-0.9375-1.3238 0-2.0916 0.40799-1.7644 0.9375 0.31867 0.51562 1.6341 0.9375 2.9232 0.9375 1.3238 0 2.0916-0.40799 1.7644-0.9375zm108.96-5.2539c-0.31153-0.31152-1.1201-0.34482-1.7969-0.074-0.74787 0.29927-0.52573 0.52142 0.56641 0.5664 0.98827 0.0407 1.542-0.18087 1.2305-0.49239zm-65.84-5.0048c2.9834-0.61708 1.7741-0.7977-5.9147-0.88347-6.2304-0.0695-9.4588 0.22533-9.0853 0.82969 0.68947 1.1156 9.7102 1.1479 15 0.0538zm-48.848-19.561c6.8038-1.2092 3.9787-2.4365-6.0288-2.6191-6.5782-0.12004-11.078-0.68219-13.474-1.6832-4.6851-1.9576-5.5208-1.8985-4.3406 0.30679 1.7483 3.2668 15.231 5.5262 23.843 3.9956zm66.66-1.9115 5.625-0.65189-4.6875-1.0776c-2.5781-0.59269-6.375-1.0622-8.4375-1.0434s-6.7031-0.22337-10.312-0.5382c-9.3658-0.81691-15.207-0.68803-20.96 0.46244-15.517 3.1035 16.363 5.4458 38.772 2.8487zm-45.938-0.1091c1.6508-0.6788 1.6895-0.84694 0.32362-1.4064-2.3196-0.9501-7.6243-0.20194-8.0639 1.1373-0.4413 1.3443 4.6915 1.5228 7.7403 0.26911zm78.995 0.25863c-0.89634-0.23464-2.5838-0.24316-3.75-0.0189-1.1662 0.22424-0.43281 0.41623 1.6297 0.42663s3.0166-0.17307 2.1203-0.40772zm-54.616-13.425c0.84111-1.361-1.9296-2.1766-4.8792-1.4363-1.982 0.49743-2.2343 0.81952-1.1698 1.493 1.8165 1.1492 5.324 1.1164 6.049-0.0567zm-9.8478-1.0542c0-0.44781-2.3203-0.81419-5.1562-0.81419s-5.1562 0.41988-5.1562 0.93306c0 0.52038 2.2805 0.88049 5.1562 0.81419 2.8359-0.0653 5.1562-0.48526 5.1562-0.93306zm52.5-5.4836c16.579-2.7931 12.47-3.4285-23.203-3.5878-17.918-0.0801-35.109-0.36206-38.203-0.62675-3.0938-0.26469-13.153-1.1464-22.355-1.9593-9.2015-0.81296-16.978-1.23-17.281-0.92678-1.1046 1.1046 1.355 2.3165 8.6987 4.2862 16.099 4.3182 18.899 4.5372 53.438 4.1802 18.047-0.18652 35.555-0.80113 38.906-1.3658zm-3.75-17.554 2.3438-1.0117-2.3438-0.50998c-1.2891-0.28049-18.375-0.7532-37.969-1.0505-19.594-0.29729-38.75-0.81279-42.569-1.1456-12.934-1.127-5.0283 2.2183 10.225 4.3269 8.5468 1.1815 67.344 0.67211 70.312-0.60915zm-33.281-36.785c2.0625-0.42661 3.1978-0.82417 2.5228-0.88347-3.3309-0.29263 0.60503-1.8756 7.2238-2.9052 10.14-1.5774 12.55-3.1876 13.969-9.3317 2.3256-10.075 1.0536-16.557-4.3529-22.184-5.072-5.2785-17.555-9.6754-27.615-9.7266-4.7094-0.024-16.764 2.3682-19.712 3.9116-3.3511 1.7547-8.7871 7.8273-9.4858 10.597-2.0951 8.3036-1.2999 18.316 1.6906 21.286 1.0056 0.99862 6.407 3.0194 13.599 5.0876 0.998 0.28699 1.0342 0.66045 0.16556 1.7071-0.91766 1.1057-0.5676 1.4297 2.0038 1.8547 8.4694 1.3996 15.119 1.5949 19.991 0.58717zm-37.95-88.6c0-0.4155-7.9556-5.0863-14.509-8.5182-2.075-1.0867-4.1946-2.943-4.7102-4.125-0.88591-2.031-1.3374-2.1267-8.2044-1.7393-12.722 0.71775-11.474 2.0086 8.3499 8.6374 8.219 2.7483 15.767 5.2063 16.774 5.4622 1.0067 0.25591 1.9359 0.51423 2.0648 0.57404 0.12891 0.0598 0.23438-0.0712 0.23438-0.2912zm79.489-6.2445c8.6168-2.6232 16.722-5.2028 18.011-5.7324l2.3438-0.96296-2.1006-0.79661c-1.1553-0.43813-4.2426-1.0808-6.8606-1.428-3.9577-0.52501-5.1966-0.30862-7.3507 1.284-1.4249 1.0535-6.4265 3.8418-11.115 6.1963-7.3805 3.7067-11.07 6.2092-9.1552 6.2092 0.30819 0 7.6104-2.1463 16.227-4.7695zm-24.925-9.365c1.723-0.007 2.3795-0.41036 2.0532-1.2607-0.5469-1.4252 2.1895-2.0726 12.289-2.9078 14.759-1.2205 12.099-1.8635-10.781-2.606-35.074-1.1382-40.548-1.1877-53.175-0.48158-12.793 0.71546-16.175 1.6836-11.833 3.3872 1.4651 0.57476 4.7731 1.3279 7.3512 1.6737 2.5781 0.34578 5.1111 0.96288 5.6288 1.3713 1.7534 1.3834 7.4453 1.6477 26.715 1.2406 10.57-0.22332 20.359-0.41083 21.752-0.41668zm-3.468-20.311c1.3213-0.73942 0.95292-1.0113-2.0043-1.4793-2.9068-0.46007-27.454-0.86418-41.076-0.67623-4.3033 0.0593-1.4228 2.1738 3.9418 2.8935 6.6122 0.88707 37.268 0.30907 39.139-0.73793zm-5.7684-14.822c3.0064-0.75454 3.243-2.0534 0.44895-2.4646-3.9811-0.5858-2.7997-2.4564 2.2216-3.5176 7.7052-1.6284 14.927-4.8783 14.601-6.5704-0.46767-2.4284-4.3701-3.5481-18.246-5.2354-15.637-1.9015-32.735-1.5172-40.437 0.90889-6.2034 1.9539-5.6145 2.9686 3.8045 6.5563 3.7456 1.4267 7.3702 2.8673 8.0545 3.2013 2.2007 1.0741 1.3275 2.4592-2.1123 3.3508-4.4224 1.1462-4.3284 3.1562 0.16493 3.5281 7.9623 0.65899 29.189 0.82249 31.499 0.24262zm-269-217.6c0.35988-1.474 0.88834-3.8453 1.1744-5.2696 0.89675-4.4656 2.1788-3.8212 2.1788 1.095 0 3.8512-0.36529 4.9053-2.0038 5.7822-1.8784 1.0053-1.9628 0.90474-1.3494-1.6076zm3.9078-17.072c-0.50456-0.8164 0.95659-7.1061 4.1703-17.951 0.99313-3.3516 2.2968-8.2031 2.897-10.781 0.60024-2.5781 1.8472-6.7969 2.7711-9.375 0.92385-2.5781 7.6048-22.617 14.847-44.531 13.57-41.064 16.418-49.522 33.282-98.841 7.0866-20.724 9.9154-30.257 9.9154-33.412 0-6.0131 1.9784-8.198 8.9276-9.859 7.4423-1.779 29.014-2.8875 29.85-1.534 0.3912 0.63298-1.3806 1.4162-4.7812 2.1134-2.9715 0.60928-6.0355 1.3255-6.809 1.5917-2.7148 0.9343 4.1044 2.0777 16.2 2.7162 12.531 0.66152 14.504 1.6734 4.8941 2.51-10.877 0.94696-24.391 2.7574-26.463 3.5453-1.152 0.43798-1.8876 1.3372-1.6348 1.9982 0.27304 0.7138-1.2116 2.0873-3.656 3.3822-3.6261 1.9209-4.6379 3.2393-8.5049 11.081-2.4141 4.8955-6.0203 13.618-8.0138 19.382-1.9936 5.7647-4.9605 13.645-6.5932 17.513-1.6327 3.8672-3.1711 8.0859-3.4187 9.375-0.24756 1.2891-0.84861 3.1875-1.3356 4.2188-1.4796 3.133-10.28 28.838-11.073 32.344-0.4083 1.8047-1.8607 5.9053-3.2276 9.1124s-2.4853 6.2992-2.4853 6.8714c0 1.8292-11.897 32.216-13.779 35.192-0.68044 1.0763-2.459 5.506-3.9523 9.8438-3.5324 10.261-11.876 31.061-14.697 36.638-1.2172 2.4066-2.4932 6.2035-2.8357 8.4375-0.57737 3.7667-2.7133 9.2181-3.6118 9.2181-0.21415 0-0.61145-0.35935-0.88289-0.79856z"/>
<path id="path3541" fill="#706d70" d="m512.81 926.24c2.3203-0.3829 6.3281-0.98658 8.9062-1.3415 2.5781-0.35493 5.6367-0.83708 6.7969-1.0714 7.4988-1.5147-4.0428-2.1063-51.094-2.6189-29.262-0.3188-57.844-0.83306-63.516-1.1428-7.1313-0.38945-10.023-0.26228-9.375 0.41224 1.0876 1.1315 10.53 2.9388 18.984 3.6336 10.289 0.84553 6.2894 2.1386-6.5625 2.1218-12.376-0.0162-23.906-0.91314-37.266-2.8991-14.446-2.1473-29.666-4.6438-33.75-5.5357-54.075-11.81-66.895-19.239-65.397-37.899 0.74982-9.3412 5.2954-16.463 10.508-16.463 1.6001 0 3.8251-0.64148 4.9445-1.4255 1.9248-1.3482 6.5731-2.5848 14.591-3.8817 2.9072-0.47024 3.9741-0.17892 5.8709 1.603 2.1921 2.0594 2.5685 2.1135 6.9262 0.99668 3.2342-0.82891 5.1442-0.89418 6.4059-0.21893 0.98875 0.52917 4.2888 1.1555 7.3334 1.3918 3.0446 0.23631 8.4888 0.8644 12.098 1.3958 7.2857 1.0726 10.781-0.0983 10.781-3.6111 0-1.0075 1.1602-2.5796 2.5781-3.4936 3.1784-2.0488 5.7867-5.0122 5.8282-6.6218 0.0577-2.2352 3.7701-8.5626 5.5979-9.5408 1.2423-0.66486 2.6062-0.66646 4.3457-0.005 3.1193 1.1859 3.9378 0.56515 1.918-1.4547-0.83483-0.83525-1.5179-1.7514-1.5179-2.0363s2.6367-3.1338 5.8594-6.3309c5.2942-5.2522 8.7244-9.0529 17.445-19.329 7.2877-8.5877 14.05-24.572 17.067-40.344 1.7094-8.9349 1.9618-12.867 1.5867-24.719-0.4475-14.14-0.97441-17.338-5.0504-30.66-4.5872-14.993-13.505-30.681-23.831-41.922-4.8558-5.2865-5.7763-8.0556-2.9734-8.9452 0.91639-0.29085 9.026-0.15764 18.021 0.29601 8.9954 0.45365 16.891 0.61909 17.547 0.36765 2.0187-0.77467 17.473 1.7841 19.915 3.2972 1.9332 1.1982 6.4544 1.4071 28.037 1.2956 14.153-0.0731 26.539-0.38915 27.525-0.7022 1.7266-0.54801 1.7299-0.6173 0.088-1.8619-1.6253-1.2321-1.6266-1.2941-0.0278-1.3225 3.1987-0.0568 19.896-1.9454 22.229-2.514l2.3438-0.57151-2.3438-0.61811c-1.2891-0.33996-8.4609-0.53462-15.938-0.43258-16.796 0.22925-25.015-0.41768-26.699-2.1016-1.7119-1.7119-10.706-1.6752-22.589 0.092-14.343 2.133-37.256 2.2319-49.618 0.21414-12.719-2.076-28.589-6.1621-42.188-10.862-5.6719-1.9603-13.266-4.5212-16.875-5.6908-15.829-5.1295-46.508-20.884-51.953-26.68-1.1826-1.2588-1.8701-2.7418-1.5278-3.2956 0.3756-0.60773 4.4098-1.0182 10.176-1.0355l9.554-0.0286-7.9688-4.0614c-4.3828-2.2338-8.9358-4.3644-10.118-4.7347-2.2199-0.69551-11.103-6.4376-17.352-11.217-1.96-1.499-6.7057-5.9284-10.546-9.8431-4.3783-4.4632-6.9827-6.5265-6.9833-5.5325-0.00048 0.87192 0.42101 1.846 0.93664 2.1647 1.0798 0.66732 1.2926 7.0385 0.23437 7.0169-1.3063-0.0267-2.6192-1.3703-8.5457-8.7457-15.424-19.195-28.919-45.05-34.817-66.709-0.42128-1.5469-1.6244-5.9766-2.6737-9.8438-3.0662-11.301-5.5831-30.72-4.7461-36.617 0.39822-2.8058 0.75482-5.8397 0.79246-6.742 0.0377-0.90234 0.66734-1.6406 1.3993-1.6406 1.6413 0 3.3317 5.2636 6.6236 20.625 1.3812 6.4453 3.2834 13.828 4.2272 16.406 0.94376 2.5781 2.5885 7.302 3.655 10.498 2.3336 6.9922 6.8314 17.301 11.168 25.596 1.7521 3.3516 4.0367 7.7812 5.0768 9.8438 1.0401 2.0625 3.4231 5.6318 5.2954 7.9319 1.8724 2.3 3.8262 4.8718 4.3418 5.7151 7.1931 11.764 23.234 29.029 35.625 38.344 9.2548 6.9575 12.454 8.7966 19.606 11.271 2.6231 0.90752 11.519 4.7106 19.769 8.4512s16.63 7.0216 18.622 7.291c3.4375 0.46479 3.5689 0.38999 2.5756-1.4661-0.75729-1.415-0.76256-2.1315-0.019-2.591 1.3707-0.84713 12.198 1.4178 13.977 2.9238 1.4688 1.2433 6.1217 3.0966 12.9 5.1384 3.1554 0.95048 4.4414 0.96366 6.1247 0.0628 1.5986-0.85554 3.2446-0.89068 6.591-0.14071 4.9218 1.103 6.3868 0.63844 9.929-3.1486 3.9676-4.2418 10.786-6.0198 29.354-7.6549 14.822-1.3052 21.05-1.3637 46.194-0.43401 15.984 0.59101 29.62 1.2585 30.301 1.4832 0.68124 0.22476 6.3077 1.0362 12.503 1.8032 17.427 2.1575 26.624 5.4146 28.182 9.9802 0.34871 1.0218 1.3933 0.82785 5.0391-0.93583 2.7863-1.3479 7.0011-2.4025 10.693-2.6756 3.3516-0.24789 7.9015-1.0397 10.111-1.7595 2.2094-0.71983 6.85-1.3272 10.312-1.3496 3.4624-0.0225 8.1536-0.39963 10.425-0.83816 2.8027-0.54115 5.2125-0.42169 7.5 0.37178 2.9658 1.0288 4.1499 0.90429 9.8628-1.0368 7.1479-2.4287 9.4188-2.7428 8.4456-1.168-0.76109 1.2315 0.76484 0.80144 11.055-3.1154 3.9836-1.5163 8.6243-3.6851 10.312-4.8196 1.6882-1.1344 5.126-3.2594 7.6394-4.7221 2.5135-1.4627 6.0994-4.0109 7.9688-5.6626 1.8693-1.6518 4.9808-3.9579 6.9144-5.1247s3.5156-2.4673 3.5156-2.8899c0-0.42264 1.4082-1.5993 3.1292-2.6147 2.0563-1.2133 4.6278-4.4444 7.5-9.4239 2.4039-4.1677 4.3708-7.8135 4.3708-8.1018 0-0.28828-2.8477 2.2707-6.3281 5.6866-6.551 6.4295-10.301 9.3712-11.024 8.6482-0.49411-0.49411 1.8656-3.8281 8.9312-12.618 13.321-16.573 24.957-39.149 29.994-58.193 8.9106-33.691 12.036-83.494 6.9018-109.96-2.1556-11.112-6.3588-26.304-10.289-37.19-1.83-5.0689-4.0914-11.326-5.0254-13.904-0.93392-2.5781-3.0552-8.4844-4.7138-13.125-1.6587-4.6406-3.5728-9.9141-4.2535-11.719-2.2057-5.8474-14.122-38.692-16.837-46.406-7.0816-20.123-10.06-28.118-14.494-38.906-2.6492-6.4453-6.2823-16.123-8.0736-21.506s-3.8333-10.445-4.5379-11.25c-0.70455-0.80454-3.4714-5.8925-6.1486-11.307-2.6772-5.4141-5.4195-10.412-6.094-11.107-0.6745-0.6949-4.1163-1.8692-7.6484-2.6096-8.1329-1.7048-9.1774-2.7476-3.591-3.5854 2.425-0.36365 4.988-0.88332 5.6955-1.1548 1.8291-0.70189 1.5942-2.1618-0.35423-2.2012-0.90235-0.0183-2.6655-0.60095-3.9181-1.2948l-2.2775-1.2616 2.915-0.64025c3.449-0.75751 13.873 1.0335 16.874 2.8994 1.2357 0.76816 2.1094 2.2416 2.1094 3.5574 0 1.2354 0.57982 3.4405 1.2885 4.9003 0.70866 1.4598 2.2138 5.3963 3.3448 8.7478 1.131 3.3516 4.1924 12 6.8032 19.219 2.6108 7.2188 5.2947 15.106 5.9643 17.528 0.66953 2.4218 2.075 6.3422 3.1233 8.712s2.18 5.8728 2.5149 7.7843c0.33491 1.9115 1.1277 4.3192 1.7618 5.3504s2.5318 5.8828 4.2171 10.781c1.6853 4.8984 4.7733 12.914 6.8622 17.812 2.0889 4.8984 4.1101 10.172 4.4916 11.719 0.67017 2.7176 2.5503 8.0912 10.496 30 15.99 44.086 24.286 68.692 27.501 81.562 7.9468 31.813 8.0273 69.568 0.2139 100.31-2.5938 10.206-7.0838 23.656-9.3189 27.916-0.48072 0.91605-1.7312 3.8402-2.7788 6.498-4.8515 12.308-19.52 33.791-32.188 47.142-3.9104 4.1209-7.1098 7.8052-7.1098 8.1874 0 1.1635-20.313 18.135-27.004 22.562-16.489 10.909-33.686 20.226-44.451 24.081-2.7235 0.97538-7.9049 2.8854-11.514 4.2446-15.422 5.8072-32.382 11.051-41.139 12.72-9.6953 1.8474-13.629 3.857-10.893 5.5654 0.77344 0.48296 5.709 0.78411 10.968 0.66921 6.3622-0.139 9.9326 0.16183 10.67 0.89908 1.2313 1.2304 1.3183 1.0668-7.9043 14.864-10.435 15.612-15.933 28.494-19.99 46.84-1.2904 5.8355-1.6568 11.765-1.6509 26.719 0.008 17.854 0.1877 19.909 2.5437 28.939 2.6752 10.253 9.0445 24.818 13.463 30.786 5.0279 6.7907 15.539 18.568 18.433 20.654 1.6005 1.1535 3.2672 2.7356 3.7038 3.5156 0.43653 0.78005 1.5462 1.4183 2.4659 1.4183 2.5041 0 8.2274 5.6531 9.3957 9.2805 0.56452 1.7527 1.0264 5.4441 1.0264 8.2031 0 4.024 0.30411 5.0164 1.5373 5.0164 0.8455 0 2.0471-0.69727 2.6703-1.5495 1.3312-1.8205 3.6772-0.80544 2.8885 1.2498-0.41506 1.0816 0.0338 1.2728 2.0455 0.8711 1.4175-0.28303 7.1751-0.75705 12.795-1.0534 5.6196-0.29633 10.934-0.92219 11.81-1.3908 1.0298-0.55114 1.9738-0.47024 2.6732 0.22909 0.8165 0.81649 1.3565 0.80576 2.2061-0.0439 1.533-1.533 4.1869-1.418 4.8111 0.20848 0.55783 1.4537 3.1187 1.088 7.1634-1.0229 3.2986-1.7215 5.0526-1.5807 13.619 1.0932 4.125 1.2875 8.5731 2.1168 9.8846 1.8429 4.29-0.89607 9.504 7.297 10.761 16.91 0.79546 6.0824-2.1647 14.277-7.0862 19.616-9.8709 10.709-37.578 19.876-76.841 25.423-5.4141 0.7649-12.164 1.8011-15 2.3028-6.2494 1.1054-35.262 2.8307-45 2.6761-6.4101-0.10179-6.6586-0.17316-2.8125-0.80783zm-47.578-31.549c-0.64453-0.26007-1.6992-0.26007-2.3438 0-0.64453 0.26007-0.11718 0.47287 1.1719 0.47287s1.8164-0.2128 1.1719-0.47287zm-21.797-1.1477c0-0.81763-5.7412-2.0803-6.4642-1.4217-0.44953 0.4095 3.6543 2.1103 5.2924 2.1934 0.64454 0.0327 1.1719-0.31457 1.1719-0.77166zm48.028-10.3c-0.13946-1.7391 0.24618-3.7642 0.85697-4.5002 0.93224-1.1233 0.52141-1.3158-2.5589-1.1994-2.0182 0.0763-6.2007-0.37158-9.2945-0.99528-3.8689-0.77997-10.162-0.93821-20.156-0.50687-7.9922 0.34493-18.634 0.73324-23.649 0.86291-5.0146 0.12967-9.4321 0.55039-9.8166 0.93491-1.1207 1.1207 1.776 2.4423 5.3872 2.4579 1.8305 0.008 3.7554 0.44159 4.2776 0.96377 0.52218 0.52219 5.7745 1.3818 11.672 1.9104 5.8973 0.52851 11.264 1.1484 11.927 1.3774 1.5316 0.52959 10.309-1.2034 13.118-2.59 3.1678-1.5636 7.3111 0.15096 7.009 2.9005-0.22048 2.0062 0.0412 2.0911 5.625 1.8251l5.8562-0.27903-0.25357-3.1621zm11.972-3.4004c0-0.77344-0.63281-1.4062-1.4062-1.4062-1.464 0-1.86 1.1088-0.78125 2.1875 1.0787 1.0787 2.1875 0.68272 2.1875-0.78125zm40.705-7.0488c1.5708-1.5708-3.6128-1.0588-5.604 0.5536-1.7195 1.3923-1.6406 1.443 1.4321 0.91992 1.7886-0.30448 3.6659-0.96756 4.1719-1.4735zm-64.266-4.3046c3.9091-0.80394 1.3315-1.5519-6.6466-1.9287-8.7653-0.41393-16.366 0.37472-15.14 1.5709 1.6214 1.5817 14.784 1.7978 21.786 0.35774zm-47.739-20.968 3.3174-1.702-12.649-0.33183c-10.774-0.28264-13.267-0.64057-16.817-2.4142-4.833-2.4149-5.7076-2.081-3.7523 1.4324 2.9996 5.3899 21.613 7.2672 29.901 3.0156zm61.457 0.0624 8.4375-0.65469-3.4855-1.5898c-1.917-0.87438-5.7139-1.6012-8.4375-1.6152s-8.8911-0.40643-13.705-0.87214c-5.3977-0.52213-12.047-0.50077-17.344 0.0557-4.7246 0.49633-10.889 1.1266-13.698 1.4007-2.8095 0.27404-5.4462 0.70719-5.8594 0.96253-2.4805 1.5331 0.86096 2.036 13.899 2.0919 8.0578 0.0346 14.878 0.29039 15.156 0.56853 0.66643 0.66644 14.432 0.47538 25.037-0.3475zm16.875-0.0843c-0.31867-0.51563-1.6092-0.9375-2.8678-0.9375s-2.2884 0.42187-2.2884 0.9375c0 0.51562 1.2905 0.9375 2.8678 0.9375 1.6732 0 2.6265-0.39054 2.2884-0.9375zm19.313-0.0105c1.8563-0.51564 4.1365-1.7789 5.0672-2.8073 1.9819-2.19 1.3498-2.3634-2.1607-0.593-1.3924 0.70219-4.9365 1.5133-7.8758 1.8025-2.9394 0.28916-6.1034 0.96743-7.0312 1.5073-2.284 1.3289 7.2828 1.4011 12.001 0.0906zm-50.403-13.796c2.0805-1.2404-1.8058-2.3018-9.0677-2.4766-4.4205-0.10642-8.2734-0.42965-8.562-0.7183-0.72259-0.72259 17.08-1.7445 30.819-1.7692 15.868-0.0284 30.065-2.0026 32.786-4.5592 1.1609-1.0906 2.6109-1.9829 3.2222-1.9829 0.61129 0 1.1114-0.42991 1.1114-0.95536s-0.94922-0.75751-2.1094-0.51569c-12.263 2.5561-69.256 2.2701-93.984-0.47168-9.7691-1.0831-20.835-2.679-23.203-3.3463-1.0268-0.28933-1.6406 0.052-1.6406 0.91249 0 4.1451 21.223 9.788 43.125 11.466 9.8879 0.75775 9.9329 0.92466 0.4966 1.8428l-6.5346 0.63579 3.7222 1.2959c2.1758 0.75751 5.4748 1.0914 7.9409 0.80372 2.3203-0.2707 5.4844-0.0752 7.0312 0.43456 2.6278 0.86585 13.1 0.4452 14.847-0.59638zm23.3-22.75c4.9897-0.4855 10.474-1.4578 12.188-2.1606 2.7379-1.1231-1.4271-1.3562-34.385-1.9238-20.625-0.35522-42-1.1065-47.5-1.6695-5.4997-0.56303-10.562-0.8338-11.25-0.60172-2.1302 0.7188 3.9371 3.218 10.937 4.5051 12.879 2.3681 53.622 3.445 70.01 1.8505zm-17.256-38.102c1.6833-0.45101 1.9046-0.84093 1.0571-1.8622-0.81095-0.97712-0.79382-1.2917 0.0703-1.2917 2.0762 0 10.953-2.8393 12.532-4.0083 2.1265-1.5746 4.3676-10.783 4.3676-17.946 0-5.4821-0.27477-6.2706-3.6716-10.537-2.8633-3.5961-5.0822-5.2056-10.078-7.3101-5.6958-2.3993-7.7898-2.7455-18.877-3.1211-11.131-0.37704-13.141-0.19596-18.71 1.6852-6.0979 2.0598-10.079 5.001-12.244 9.0469-1.7586 3.2859-2.4152 14.547-1.1546 19.802 1.2969 5.4062 2.8732 7.1544 8.0746 8.9551 2.5345 0.87747 3.6847 1.8282 3.6878 3.0483 0.004 1.356 1.1071 2.0297 4.692 2.8641 4.9639 1.1554 26.655 1.6393 30.254 0.67496zm-14.317-81.869c1.7228-0.70839 1.7416-0.82541 0.23228-1.4415-0.9035-0.36876-2.7799-0.38506-4.1698-0.0362-1.982 0.49744-2.2343 0.81953-1.1698 1.493 1.6118 1.0197 2.5974 1.0167 5.1074-0.0153zm6.0938-1.9097c1.1433-0.73883 1.0221-0.91148-0.64779-0.92315-1.1297-0.008-2.3148 0.40752-2.6335 0.92315-0.73769 1.1936 1.4343 1.1936 3.2812 0zm-32.812-3.2185c0-0.36558-8.1512-4.9774-15.469-8.7521-5.2675-2.7171-8.0935-5.102-7.5926-6.4073 0.7241-1.887-3.2606-2.5947-10.458-1.8573-13.127 1.3448-11.568 2.642 13.164 10.957 19.113 6.4262 20.355 6.7958 20.355 6.0594zm63.462-4.1798c7.6662-2.517 18.664-5.8835 28.178-8.6253 4.5978-1.325 5.0839-2.4501 1.4062-3.2548-1.418-0.31027-3.7912-0.94764-5.2739-1.4164-3.3539-1.0603-9.6841-0.12766-10.316 1.5199-0.25939 0.67597-5.0329 3.5622-10.608 6.4138-16.464 8.4216-17.448 9.9794-3.3865 5.3627zm-20.99-32.52c5.6237-0.37146 9.7674-1.0259 9.3211-1.4722-2.0887-2.0887-47.187-3.6293-53.636-1.8322-2.2508 0.62724-2.2116 0.69998 1.4062 2.6073 3.3982 1.7916 4.9845 1.9362 18.253 1.664 7.9922-0.16397 19.087-0.59905 24.656-0.96686zm6.4232-17.027c0.93657-0.93729 0.61736-1.1744-1.5946-1.1847-3.5946-0.0166-6.9844-0.94123-6.9844-1.9051 0-0.41893 2.2148-1.2356 4.9219-1.8148 6.3864-1.3665 13.359-4.7942 13.359-6.5672 0-2.488-4.9338-3.8612-21.16-5.8893-14.228-1.7783-17.026-1.8708-26.098-0.86199-11.155 1.2404-17.429 2.9883-17.429 4.8555 0 0.66514 3.5859 2.6094 7.9688 4.3206 4.3828 1.7112 8.3906 3.3072 8.9062 3.5468 1.9762 0.91817-2.0716 2.4254-6.5625 2.4436l-4.6875 0.019 2.8125 2.3587 2.8125 2.3587 21.282-0.25396c15.487-0.1848 21.601-0.57305 22.453-1.4258zm128.3-20.28c0-0.56339 12.432-7.9071 14.531-8.5839 3.2745-1.0556-2.1925 3.0679-8.1764 6.167-5.2616 2.7251-6.3549 3.1409-6.3549 2.4169zm-393.2-242.19c0.36474-2.4323 1.436-6.1237 2.3806-8.2031s1.7267-4.5038 1.738-5.3873c0.0113-0.88359 4.0218-13.751 8.9123-28.594 4.89-14.85 11.18-33.95 13.98-42.46 2.7982-8.5078 10.01-29.812 16.025-47.344 15.833-46.142 17.352-50.973 17.368-55.225 0.0191-5.119 0.7505-6.0288 6.1635-7.6677 5.2205-1.5807 29.833-2.9195 27.572-1.4999-0.77344 0.48572-3.8254 1.175-6.7821 1.5318-2.9567 0.35676-5.5814 0.98118-5.8325 1.3876-0.49892 0.80727 10.631 2.8712 15.608 2.8942 4.4807 0.0207 6.4512 1.4944 2.9911 2.2369-3.127 0.6711-16.021 2.3646-18.33 2.4073-0.86027 0.0159-3.3205 1.7164-5.4671 3.779-2.1466 2.0625-4.2328 3.75-4.636 3.75-0.40314 0-1.9046 2.6367-3.3365 5.8594-1.432 3.2227-3.3712 7.5469-4.3095 9.6094-2.99 6.5726-14.048 36.056-19.163 51.094-2.7186 7.9922-5.8695 16.852-7.002 19.688-1.1325 2.8359-2.6085 7.0547-3.28 9.375-0.67146 2.3203-2.5663 7.8047-4.2107 12.188-1.6444 4.3828-3.7879 10.289-4.7633 13.125-0.9754 2.8359-2.3576 6.2109-3.0714 7.5-0.71389 1.2891-1.8328 4.0312-2.4865 6.0938-0.6537 2.0625-1.9139 4.8047-2.8004 6.0938-0.88654 1.2891-2.782 5.9297-4.2122 10.312-1.4302 4.3828-3.1736 9.0234-3.8742 10.312-1.1804 2.1718-4.7204 11.352-7.1395 18.516-1.5356 4.5469-2.8013 3.6939-2.0411-1.3754z"/>
<path id="path3539" fill="#4f4d50" d="m403.98 925.85c-0.21948-0.21947-6.9343-1.0667-14.922-1.8827-7.9876-0.81598-16.421-1.8873-18.742-2.3806-2.3203-0.49336-6.9609-1.3184-10.312-1.8334-9.661-1.4845-27.625-5.1478-32.295-6.5855-1.5739-0.48463-6.4476-1.7906-10.83-2.9023-31.89-8.09-42.67-21.23-33.03-40.27 2.3115-4.5687 3.0331-5.2458 6.333-5.9424 2.0484-0.43236 4.9899-1.345 6.5368-2.0281 1.5469-0.68309 4.0781-1.4839 5.625-1.7795 1.5469-0.29563 4.3779-0.91683 6.2911-1.3804 2.9756-0.72105 3.917-0.51952 6.5103 1.3937 3.3383 2.4629 6.0476 2.7921 9.6123 1.168 1.7629-0.80323 2.9997-0.7978 4.9786 0.0218 1.4481 0.59983 5.1586 1.2735 8.2454 1.4971 3.0868 0.22357 8.3184 0.82429 11.626 1.3349 7.3536 1.1354 8.2014 0.75877 15.315-6.8025 3.609-3.8363 5.3923-6.5103 5.3956-8.0907 0.003-1.2984 0.77535-3.6263 1.717-5.1732 1.5573-2.5584 2.163-2.8125 6.7025-2.8125 5.486 0 7.0059-1.4196 3.3186-3.0996-3.1223-1.4226-2.9952-3.3494 0.36174-5.4802 2.4323-1.5439 12.85-13.04 21.492-23.716 9.699-11.983 17.966-39.397 17.966-59.579 0-20.351-7.4977-45.2-18.605-61.66-2.6578-3.9387-4.8324-7.4586-4.8324-7.822 0-0.36338-2.3203-3.0933-5.1562-6.0665-5.8137-6.095-6.5677-8.875-2.5663-9.4623 3.2833-0.48188 42.808 1.659 46.803 2.5352 1.6428 0.36026 3.2198 1.2619 3.5045 2.0037 0.43564 1.1353 4.71 1.3197 27.013 1.1659 14.573-0.10055 31.92-0.51327 38.549-0.91717 11.434-0.69659 14.692-0.50284 14.644 0.87068-0.031 0.88507-27.784 15.134-29.477 15.134-0.7919 0-1.4398 0.42187-1.4398 0.9375 0 1.4285 0.77636 1.2567 15.183-3.3611 16.327-5.2335 23.022-7.2948 30.004-9.2385 6.2199-1.7316 7.52-3.0433 3.8361-3.8701-1.4391-0.32298-4.093-0.9658-5.8977-1.4285-1.8047-0.46272-8.1328-0.87329-14.062-0.91242-11.407-0.0753-16.464-0.95551-12.137-2.1128 1.2615-0.3374 4.192-0.64353 6.5123-0.68029 5.8405-0.0925 11.293-1.1819 11.525-2.3025 0.12204-0.59057-7.2652-1.111-19.963-1.4062-15.27-0.35513-20.101-0.74882-19.927-1.6241 0.12589-0.63547-0.88496-1.435-2.2463-1.7766-3.2124-0.80626-24.067 0.28376-28.92 1.5116-2.0625 0.5218-10.289 1.2068-18.281 1.5221-23.52 0.92812-40.193-2.0729-74.062-13.331-25.314-8.4145-43.257-16.411-57.188-25.486-7.9418-5.1738-10.016-7.1839-8.427-8.166 1.3896-0.85881 12.59-0.88226 17.568-0.0367 7.0766 1.2021 4.5122-1.2256-7.0312-6.6562-14.657-6.8956-17.992-8.6672-21.328-11.33-1.5469-1.2347-4.2528-3.3785-6.0131-4.764-4.2277-3.3274-8.7033-7.7922-15.535-15.497-3.0857-3.4803-5.7558-5.8917-5.9335-5.3586-0.17771 0.53314 0.76494 3.346 2.0948 6.2508 4.7188 10.307 2.8436 10.445-5.4658 0.40103-19.57-23.655-33.536-54.195-39.886-87.221-1.7024-8.8544-2.8828-20-2.3096-21.806 1.3536-4.2648 5.793 3.8888 8.8009 16.164 0.94989 3.8764 3.0323 10.15 4.6276 13.942 1.5953 3.7917 2.9005 7.4506 2.9005 8.1308 0 1.1381 8.1093 19.327 10.358 23.233 0.53669 0.93215 2.2839 4.3072 3.8828 7.5 1.5988 3.1929 4.4277 7.6924 6.2863 9.9989s4.2231 5.354 5.2544 6.7722c1.0312 1.4182 3.9529 5.4373 6.4926 8.9313 11.953 16.445 33.585 34.612 47.097 39.554 7.6672 2.8041 12.555 4.8548 21.044 8.8291 11.651 5.4545 16.522 7.3176 20.516 7.8469 4.1529 0.55033 4.1972 0.52813 2.5847-1.2948-0.90234-1.0201-1.6406-2.138-1.6406-2.4841 0-1.7145 11.137 0.39157 14.062 2.6593 1.464 1.1348 3.4725 1.8956 12.304 4.6604 3.7815 1.1838 5.7512 1.3832 6.9633 0.70488 0.92958-0.52022 4.1417-0.72355 7.1381-0.45185 5.3397 0.48418 5.5303 0.41809 9.5924-3.3262 6.8009-6.2689 13.771-7.5349 45.734-8.3071 26.79-0.64721 52.747 0.59971 72.807 3.4975 19.291 2.7866 23.827 4.4452 26.969 9.8599 1.006 1.7338 1.2218 1.706 6.5649-0.84691 3.8424-1.8358 7.2369-2.702 11.147-2.8445 3.0924-0.11265 6.2474-0.59198 7.011-1.0652 1.3959-0.86495 17.869-2.5538 24.862-2.5489 2.0625 0.002 5.057 0.29465 6.6545 0.65153 1.8154 0.40557 4.552 0.0895 7.2984-0.84289 5.1564-1.7507 5.5658-1.798 4.7971-0.55426-1.0665 1.7256 2.1398 0.96544 11.789-2.795 10.399-4.0524 23.24-11.28 29.93-16.845 2.3203-1.9303 5.5151-4.1794 7.0995-4.9979 1.5844-0.81853 3.429-2.1489 4.0992-2.9563 0.67011-0.80744 1.6852-1.4681 2.2558-1.4681 3.6962 0-25.834 25.98-35.954 31.631-1.8047 1.0078-5.6016 3.3188-8.4375 5.1356-6.4681 4.1436-25.189 13.522-31.406 15.733-2.5781 0.91695-8.9062 3.2226-14.062 5.1236-15.697 5.7871-28.574 9.669-38.849 11.711-8.8833 1.7658-13.182 3.6605-13.182 5.8102 0 0.43571 5.168 0.79866 11.484 0.80655 6.3164 0.007 12.093 0.39957 12.837 0.87037 1.6104 1.0189 0.82448 2.8812-3.979 9.4278-16.821 22.925-25.499 49.247-25.499 77.344 0 30.946 7.6508 52.315 25.978 72.557 2.9853 3.2972 5.4278 6.3505 5.4278 6.7851 0 0.43458 1.6875 1.8554 3.75 3.1574 4.296 2.712 4.7609 4.7359 1.4356 6.2509-1.2729 0.57997-2.0918 1.4147-1.8197 1.8549 0.89498 1.4481 3.6609 0.83576 4.854-1.0746 1.5555-2.4907 3.2426-2.364 6.6456 0.49943 3.427 2.8836 5.1001 7.5922 5.1969 14.626l0.0726 5.2813 4.2293 0.93363c2.6629 0.58784 6.8335 0.6249 11.261 0.10007 3.8672-0.45846 9.5625-0.85825 12.656-0.88841 17.701-0.17255 20.593-0.48914 24.116-2.6394l3.4912-2.131 7.4816 2.4219c4.1149 1.3321 8.732 2.4219 10.26 2.4219 4.4594 0 5.6872 0.8873 8.2704 5.9764 1.6278 3.207 2.5889 6.8862 2.89 11.063 0.39957 5.5439 0.12514 6.9549-2.4037 12.359-3.1785 6.7923-6.6175 9.8199-17.296 15.227-14.563 7.3739-39.075 13.329-72.904 17.712-5.9297 0.76824-13.945 1.8251-17.812 2.3485-8.7859 1.1892-28.825 1.1501-22.778-0.0445 2.1674-0.42814 4.894-1.2886 6.059-1.9121l2.1183-1.1337-2.309-0.86031c-1.2699-0.47318-12.223-0.73461-24.34-0.58097-39.539 0.50135-52.609 0.33386-77.486-0.99293-13.484-0.71918-25.297-1.0055-26.25-0.63616-1.6693 0.64679-1.6661 0.7206 0.0868 2.0107 1.0009 0.73661 2.7731 1.3393 3.9382 1.3393s4.3034 0.46858 6.9738 1.0413c3.3839 0.72572 4.4634 1.2896 3.5618 1.8606-1.2934 0.81919-13.283 1.2027-14.036 0.449zm74.049-30.129c2.8716-0.99728-0.33048-1.5873-11.103-2.0459-11.225-0.47788-14.377 0.34197-8.2504 2.1457 2.9728 0.87517 16.75 0.80413 19.353-0.0998zm-31.78-2.32c0-0.73568-1.4918-1.1453-8.6719-2.3812-4.8389-0.83293-4.5411 0.98045 0.43337 2.6386 3.9332 1.3111 8.2385 1.1766 8.2385-0.25738zm6.3086 0.40589c-0.31153-0.31152-1.1201-0.34482-1.7969-0.074-0.74787 0.29927-0.52573 0.52142 0.56641 0.5664 0.98827 0.0407 1.542-0.18087 1.2305-0.49239zm39.859-7.5448c0.42047-0.25986 0.49344-1.9172 0.16217-3.6831-0.56755-3.0253-0.43205-3.2447 2.3475-3.8006 4.6354-0.92708 2.4774-1.6906-5.3761-1.902-3.9644-0.10673-9.7392-0.60203-12.833-1.1007-3.634-0.5857-11.598-0.58104-22.5 0.0131-9.2812 0.50587-19.371 0.99197-22.422 1.0802-5.5489 0.16051-7.8003 1.626-4.5703 2.9749 9.5702 3.9967 43.436 6.4296 46.524 3.3422 1.2426-1.2426 3.4631-1.2628 5.3129-0.0485 1.25 0.82058 1.25 1.0273 0 1.8606-1.25 0.83333-1.25 1.0461 0 1.9151 1.3325 0.92633 11.614 0.42489 13.356-0.65135zm11.642-5.5455c0.78718-2.0514-0.7267-3.2606-3.2544-2.5996-2.0192 0.52804-2.0476 0.64903-0.54166 2.313 1.9379 2.1414 3.0521 2.2255 3.7961 0.28658zm40.25-7.0031c1.8431-0.70073 2.2725-1.2573 1.5373-1.9925-1.256-1.256-6.7116-0.34237-9.2004 1.5407-1.6846 1.2746-1.5758 1.3665 1.6511 1.3943 1.9 0.0164 4.6054-0.40774 6.012-0.94253zm-62.209-4.8596c4.0004-0.62946 7.2734-1.41 7.2734-1.7346 0-0.83474-30.188-1.0949-33.403-0.28786l-2.6575 0.66699 3.2647 1.1786c4.2543 1.5359 16.352 1.6197 25.523 0.1768zm-51.634-19.93c2.4724-0.82829 8.7855-1.0172 22.5-0.6732 10.485 0.26298 21.806 0.45275 25.157 0.42171 7.3523-0.0681 22.4-0.0286 38.906 0.10215 10.619 0.0841 12.67-0.15372 15.938-1.8478 2.3173-1.2015 3.8644-2.7172 4.0496-3.9674 0.37342-2.5218-0.15923-2.5296-3.5112-0.0514-5.0442 3.7293-26.963 5.0556-33.801 2.0454-1.8291-0.80516-6.2239-1.5016-9.8619-1.5629-3.6094-0.0607-7.1053-0.46137-7.7688-0.89022-0.66345-0.42884-2.7918-0.51184-4.7296-0.18446-1.9378 0.32739-4.5906 0.18948-5.895-0.30648-1.5068-0.57289-5.2521-0.58014-10.27-0.0199-11.992 1.3389-12.94 1.3644-13.134 0.35301-0.0987-0.51562 0.82785-1.4586 2.0591-2.0956 1.6077-0.83171 1.7934-1.162 0.65897-1.1719-3.0214-0.0264-6.3686 1.7615-5.8462 3.1228 0.71771 1.8703-3.4758 2.5152-17.418 2.6786-18.75 0.21979-25.312-1.7186-25.312-7.477 0-3.1455-1.4445-1.6622-2.1688 2.2271-0.87149 4.6799 3.1756 8.765 10.184 10.279 6.0286 1.3025 14.701 0.88236 20.265-0.98172zm-14.62-8.9624c-4.2834-2.1372-4.2857-2.1377-4.2857-0.86993 0 1.1421 3.431 2.6542 6.0938 2.6855 1.2378 0.0145 0.62337-0.60244-1.808-1.8156zm23.84 0.03c0-0.51563-0.42188-0.9375-0.9375-0.9375-0.51563 0-0.9375 0.42187-0.9375 0.9375 0 0.51562 0.42187 0.9375 0.9375 0.9375 0.51562 0 0.9375-0.42188 0.9375-0.9375zm38.855-3.8322c-0.30259-0.4896 0.75224-1.4378 2.3441-2.1071 3.5536-1.4942 2.7797-2.4982-1.9254-2.4982-1.9461 0-3.7992-0.42188-4.1178-0.9375-0.62368-1.0091 0.3637-1.0793 19.688-1.3985 21.025-0.34731 32.489-2.9725 37.066-8.4877 1.3934-1.679 1.3298-1.6811-9.879-0.33538-12.798 1.5366-30.222 1.77-57.656 0.77241-25.519-0.92794-34.128-1.7085-47.601-4.3155-4.2667-0.82562-7.9967-1.2622-8.2887-0.97011-0.29207 0.29207-0.26613 1.3657 0.0577 2.3858 0.75236 2.3705 9.7561 6.054 19.739 8.0752 4.125 0.83521 8.9766 1.828 10.781 2.2062 2.2964 0.48121 3.2058 1.1447 3.0298 2.2106-0.28917 1.7514 2.1353 2.2965 15.268 3.433 4.6497 0.40237 9.0166 1.0793 9.7042 1.5043 1.4558 0.89975 10.565 2.242 11.623 1.7125 0.39512-0.19786 0.47084-0.76033 0.16826-1.2499zm35.91-26.536c2.707-0.86841 4.9219-1.9256 4.9219-2.3493 0-0.42372-18.668-1.0079-41.484-1.2981-22.816-0.29026-45.21-1.0182-49.763-1.6175-4.5534-0.59938-8.4923-0.87633-8.7532-0.61544-0.89953 0.89952 4.2943 3.5934 9.599 4.9786 8.8226 2.3039 21.928 2.9925 51.964 2.7303 23.743-0.20724 29.429-0.51742 33.516-1.8285zm-25.029-37.158c1.033-0.55284 1.6438-1.3844 1.3573-1.8479-0.28646-0.46351 1.6526-1.6025 4.3091-2.5311 2.9141-1.0186 5.1214-2.4321 5.5648-3.5634 2.2111-5.6414 4.6563-14.546 4.6517-16.941-0.0172-9.0804-5.0538-15.619-15.166-19.691-6.4798-2.6087-7.5055-2.7434-20.9-2.7434-17.109 0-21.839 1.2724-27.481 7.3937-3.2442 3.5196-3.775 4.7488-4.3437 10.059-0.67938 6.344 0.46683 16.208 2.2762 19.589 0.58507 1.0932 2.9261 2.786 5.2023 3.7616 2.9723 1.2741 3.9836 2.1777 3.5888 3.2066-0.73695 1.9205 2.9374 3.2492 11.826 4.2762 8.6282 0.99703 26.556 0.40041 29.115-0.9689zm-54.23-70.47c-0.875-0.875-1.375-0.875-2.25 0s-0.625 1.125 1.125 1.125 2-0.25 1.125-1.125zm42.938-11.974c3.3516-0.62325 7.0928-1.3265 8.3138-1.5627 3.4185-0.66145 1.7516-1.4046-4.0737-1.8162-3.8005-0.26855-5.9326 0.0545-7.6087 1.1527-1.8546 1.2152-3.8482 1.4216-9.793 1.0141-4.3578-0.29869-7.2461-0.15833-6.9398 0.33726 0.28855 0.46689 1.449 0.85535 2.5787 0.86324 1.1297 0.007 2.6868 0.44308 3.4603 0.96707 1.5134 1.0253 4.504 0.82209 14.062-0.9554zm-30-3.2449c0-0.22351-5.168-2.9949-11.484-6.1586-6.3164-3.1638-12.328-6.382-13.359-7.1516-1.7841-1.3315-1.7941-1.4593-0.20682-2.6367 1.4982-1.1114 1.5143-1.2964 0.15769-1.817-2.513-0.96435-16.99-0.64964-19.812 0.43069l-2.6392 1.0103 2.1582 1.7576c1.187 0.96667 11.101 4.7229 22.031 8.3472 18.136 6.0136 23.154 7.3613 23.154 6.2182zm-12.66-36.17c0.31867-0.51563-0.0783-0.9375-0.88217-0.9375s-1.4616 0.42187-1.4616 0.9375c0 0.51562 0.39697 0.9375 0.88217 0.9375 0.48519 0 1.1429-0.42188 1.4616-0.9375zm47.344-0.53291c7.9922-0.30402 15.276-0.76074 16.185-1.0149 3.0494-0.85194 0.79988-1.927-6.5493-3.1299-7.5592-1.2373-53.331-1.6279-54.493-0.465-0.33471 0.33472 0.17129 1.1788 1.1245 1.8758 0.95316 0.69696 1.4718 1.6898 1.1526 2.2064-1.1928 1.9299 4.0194 1.9945 42.58 0.52769zm6.6906-16.511c4.5702-0.60847 8.3094-1.3995 8.3094-1.7578 0-0.74534-4.7806-1.8234-8.0859-1.8234-3.5772 0-2.567-1.5615 1.7578-2.7168 5.1381-1.3726 12.229-4.9353 12.666-6.364 0.72076-2.3534-4.6725-4.2718-16.868-6-15.344-2.1745-31.195-2.2925-40.838-0.30401-12.108 2.4968-12.229 4.2694-0.60078 8.7926 11.453 4.455 11.283 5.1054-1.2347 4.7293-4.5452-0.13657-6.5335 1.0295-3.75 2.1993 0.81102 0.3408 0.59449 0.87007-0.70312 1.7187-1.6735 1.0945-1.22 1.2845 4.2188 1.7676 11.339 1.0073 36.771 0.87126 45.128-0.24138zm176.66-54.32c0.43423-0.70973 3.1593-4.2436 6.0558-7.8529 8.9799-11.19 15.116-21.022 22.551-36.136 9.9104-20.144 15.275-46.663 17.82-88.083 2.2402-36.461-0.92686-52.954-20.253-105.47-4.9977-13.58-18.107-50.043-26.459-73.594-2.8342-7.9922-7.0364-19.172-9.3382-24.844-2.3017-5.6719-4.7836-11.789-5.5152-13.594-1.34-3.33-6.02-20.81-6.02-22.52 0-0.50918 0.5651-0.92578 1.2558-0.92578 1.385 0 3.4317 3.8354 3.4317 6.4305 0 0.91014 0.85479 3.424 1.8995 5.5864 1.0448 2.1624 2.135 5.3002 2.4228 6.973 0.58907 3.4236 1.4794 6.1737 4.6269 14.291 1.1996 3.0938 2.4355 7.1935 2.7464 9.1105 0.31099 1.917 1.118 4.0381 1.7934 4.7134 0.67535 0.67535 1.738 2.9038 2.3615 4.952 1.368 4.4943 4.1538 11.437 7.1371 17.787 3.218 6.8492 5.2417 11.812 6.1163 15 0.73586 2.6822 4.1473 12.222 11.734 32.812 23.284 63.196 28.816 81.881 31.785 107.35 3.7307 32.012-0.71309 66.053-12.421 95.15-1.0374 2.5781-2.9192 7.2188-4.1819 10.312-4.5933 11.254-19.832 34.547-26.987 41.25l-3.0019 2.8125 2.1126-4.1978c1.1619-2.3088 3.1714-5.7978 4.4656-7.7534 4.0404-6.1055 1.4605-5.0464-6.2167 2.5521-7.2543 7.1799-11.613 10.64-9.9223 7.877zm-430.77-229.18c0.045-1.0921 0.26713-1.3143 0.5664-0.56641 0.27081 0.67675 0.23751 1.4854-0.074 1.7969-0.31153 0.31152-0.5331-0.2422-0.4924-1.2305zm7.8131-22.891c0.34475-2.3203 2.271-9.2812 4.2806-15.469 2.0096-6.1875 5.7632-17.789 8.3414-25.781 4.5803-14.199 22.904-68.694 29.576-87.962 1.9096-5.5145 3.3523-11.492 3.3523-13.89 0-5.6013 1.201-7.5518 5.4017-8.7723 5.3769-1.5622 18.319-2.7418 19.911-1.8148 1.0785 0.62807 0.85996 0.83334-0.9375 0.88069-1.2891 0.0339-3.3659 0.628-4.6152 1.3201-2.1054 1.1664-2.1397 1.297-0.46875 1.7861 0.9915 0.29022 4.334 0.78141 7.4277 1.0915 14.124 1.4158 14.902 2.6636 2.3921 3.8358-9.8225 0.92045-11.224 1.4567-16.022 6.1307-4.4698 4.3542-8.2593 12.231-17.313 35.987-2.3581 6.1875-4.6402 12.094-5.0712 13.125-0.43107 1.0312-1.3118 3.1406-1.9572 4.6875-0.64539 1.5469-3.1908 8.7188-5.6566 15.938-2.4657 7.2188-6.2373 17.977-8.3813 23.906-2.144 5.9297-4.684 13.102-5.6443 15.938-0.96037 2.8359-3.3007 8.7422-5.2008 13.125s-4.41 10.217-5.5776 12.965c-3.0322 7.1361-4.6411 8.3825-3.8373 2.9726zm397.4-123.96c-0.41715-0.62822-2.8893-5.1634-5.4936-10.078-5.0374-9.5063-5.1788-9.6187-14.718-11.692-4.0418-0.87867-3.0301-2.2752 2.1456-2.9618 5.2863-0.70125 5.736-2.2154 1.074-3.6162-5.0001-1.5024-3.394-2.6738 2.9661-2.1632 8.3322 0.66883 11.315 2.2626 11.696 6.2502 0.16717 1.7473 0.91939 3.7923 1.6716 4.5446 0.77678 0.77678 1.3494 3.0467 1.3255 5.2541-0.0496 4.572 0.47088 9.4302 1.3956 13.027 0.68631 2.6695-0.63398 3.5883-2.0632 1.4359z"/>
<path id="path3537" fill="#2f2d30" d="m534.04 925.58-2.6833-0.40866 2.0592-1.4423c5.4384-3.8092-5.1968-4.7889-40.286-3.7111-19.031 0.58454-32.114 0.49007-45.469-0.32836-10.312-0.63196-24.857-1.2065-32.322-1.2768-11.875-0.11181-13.61 0.0638-13.876 1.4044-0.35049 1.7665 4.0223 3.6158 8.6035 3.6384 1.5988 0.007 3.5398 0.46242 4.3132 1.01 1.583 1.1208-17.851 0.41213-27.656-1.0085-3.0938-0.44823-10.055-1.4478-15.469-2.2212-8.9869-1.2838-13.698-2.1331-31.875-5.7465-3.3516-0.66624-9.4688-2.1306-13.594-3.2541-4.125-1.1235-9.1875-2.4444-11.25-2.9355-9.439-2.2471-22.881-8.3331-27.546-12.471-7.0826-6.2837-7.5629-20.488-1.0041-29.699 1.3969-1.9618 2.7396-2.7506 4.6822-2.7506 1.498 0 4.5278-0.80894 6.733-1.7976 2.2052-0.9887 6.4076-2.3151 9.3387-2.9475 5.1783-1.1173 5.4126-1.0796 8.275 1.3289 3.243 2.7288 4.8317 2.9809 9.1966 1.4593 2.1466-0.74831 3.8087-0.7276 6.2492 0.0778 1.8287 0.60351 5.5327 1.2261 8.2311 1.3835s7.9119 0.60099 11.586 0.98576c5.9164 0.61968 7.0942 0.46429 10.312-1.3605 1.9983-1.133 4.688-3.4985 5.977-5.2566 1.2891-1.7581 2.8711-3.2081 3.5156-3.2223 0.73093-0.0161 1.1719-1.3893 1.1719-3.6494 0-2.2912 0.74307-4.5682 2.0209-6.1927 1.7168-2.1826 2.5125-2.4894 5.2881-2.039 5.8478 0.94895 9.4183-3.1155 4.4098-5.0197-3.2346-1.2298-2.932-3.2336 0.8405-5.565 1.7513-1.0824 3.9172-3.0866 4.813-4.4538 0.89581-1.3672 3.9981-5.1033 6.8939-8.3025 8.5114-9.4031 10.943-12.765 14.93-20.636 13.38-26.423 15.151-58.788 4.8188-88.074-3.6655-10.389-6.3943-15.852-12.272-24.567-2.5054-3.715-4.5552-7.0518-4.5552-7.4152 0-0.36338-2.3541-3.1287-5.2313-6.1452s-5.049-6.0077-4.8262-6.6473c0.29014-0.83264 2.9065-1.1098 9.2157-0.97622 18.39 0.38932 32.717 1.4241 32.717 2.3631 0 0.62768-3.0509 0.72585-8.9085 0.28669-9.8986-0.74212-17.251-0.0508-19.847 1.8661-1.2966 0.95752-1.4504 1.5318-0.6324 2.3621 1.5129 1.5356 44.248 15.637 49.73 16.409 2.4759 0.34888 7.6115 1.4485 11.412 2.4436 5.2726 1.3804 7.606 1.5883 9.8438 0.87722 1.6132-0.51262 6.7059-1.6239 11.317-2.4695 4.6112-0.84562 14.525-3.5492 22.031-6.008 14.516-4.7549 24.128-7.6854 30.991-9.4481 4.1879-1.0756 6.5625-2.4007 6.5625-3.662 0-1.2705-11.837-3.1914-22.969-3.7276-10.087-0.48582-10.743-0.61761-6.345-1.275 7.7002-1.151 34.078-2.5645 36.502-1.9561 2.216 0.55618 3.0288 3.4643 1.2717 4.5502-1.0248 0.63339-5.3346 7.0623-11.322 16.889-4.7859 7.855-11.294 23.231-13.341 31.515-3.645 14.758-3.9542 17.535-3.9542 35.516 0 16.861 0.19824 19.046 2.5516 28.125 4.2991 16.585 8.8271 26.004 17.791 37.008 3.2491 3.9884 7.2938 8.9719 8.9883 11.075 1.6945 2.1027 4.3312 4.5834 5.8594 5.5127 3.5983 2.1883 3.5836 4.4156-0.034 5.1391-3.6236 0.72472-3.6042 2.6812 0.0392 3.9513 2.4229 0.84463 3.0886 0.71743 4.4271-0.84578 3.6188-4.2265 8.7781-0.76551 10.534 7.0667 0.57805 2.5779 0.91984 6.3439 0.75953 8.3688l-0.29148 3.6817 4.6393 1.1905c3.4794 0.89286 6.5091 0.95607 12.118 0.25279 4.1132-0.51574 9.8302-0.93313 12.704-0.92751 16.273 0.0318 20.615-0.4367 23.446-2.5291 3.417-2.5263 3.7164-2.5297 11.312-0.12602 3.3516 1.0607 8.1898 2.2176 10.752 2.571 4.5412 0.62639 4.7278 0.77917 7.4482 6.0998 5.2994 10.365 3.1151 22.908-5.2714 30.272-11.02 9.6754-43.133 19.627-76.709 23.77-3.8838 0.47932-7.6807 1.0862-8.4375 1.3486-0.75676 0.26242-6.4384 0.93171-12.626 1.4873-6.1875 0.55558-12.305 1.147-13.594 1.3142-1.2891 0.16726-3.5512 0.12021-5.0271-0.10457zm-54.692-29.383c2.4746-0.48419 5.7441-0.88035 7.2656-0.88035s2.7664-0.46701 2.7664-1.0378-0.52734-0.83813-1.1719-0.59408c-2.7726 1.0498-40.527-1.3404-49.697-3.1463-12.115-2.3859-12.788-2.4546-12.884-1.3156-0.0434 0.51562 1.3104 1.1798 3.0085 1.4761 1.6981 0.29621 4.8637 1.4564 7.0345 2.5781 3.092 1.5978 5.6305 2.0487 11.719 2.0818 4.2744 0.0232 9.0374 0.58404 10.584 1.2462 3.0492 1.3052 13.653 1.1027 21.374-0.4081zm13.368-9.7295c1.5056-1.1162 1.6291-1.662 0.71513-3.1609-0.82022-1.3452-0.83229-2.0842-0.0469-2.8696 1.5328-1.5328 3.5853-1.2951 6.733 0.77978 3.0224 1.9923 5.1998 1.2204 5.1998-1.8432 0-1.7439-3.2078-2.3203-19.688-3.5374-15.208-1.1232-58.44-0.35571-60.749 1.0785-3.812 2.3686 8.2052 6.524 22.311 7.7148 4.8984 0.41354 12.914 0.77248 17.812 0.79765 5.276 0.0271 9.6705 0.51181 10.781 1.1891 2.6851 1.6374 14.663 1.5321 16.93-0.14878zm-16.637-3.0413c0.67675-0.27081 1.4854-0.23751 1.7969 0.074 0.31152 0.31152-0.2422 0.5331-1.2305 0.4924-1.0921-0.045-1.3143-0.26713-0.56641-0.5664zm68.175-9.1555c4.331-1.8096 4.1178-3.3291-0.46705-3.3291-3.7432 0-10.344 2.5038-10.344 3.9236 0 1.2636 7.3289 0.86051 10.811-0.59454zm-63.311-4.8192c3.8672-0.33897 8.0859-1.0326 9.375-1.5414 2.1549-0.85053 2.1988-0.97884 0.54528-1.5926-2.8806-1.0692-38.934-0.4877-40.067 0.64622-0.69599 0.69599 0.50336 1.2854 4.0314 1.9811 9.996 1.9713 9.5122 1.9619 26.116 0.50657zm-55.781-18.865c5.934-1.191 14.645-1.5459 41.719-1.6997 19.23-0.10921 36.278 0.20511 38.921 0.71757 3.0837 0.59802 8.3293 0.58333 15.24-0.0427 12.586-1.1401 16.46-2.8566 16.914-7.4942 0.35387-3.6154-0.12991-3.7003-3.7463-0.65726-1.5321 1.2892-3.7024 2.5175-4.8228 2.7296-13.895 2.6298-17.919 2.6679-14.458 0.13703 2.1457-1.569 2.0755-2.3981-0.20287-2.3981-1.0131 0-2.2936 0.84375-2.8455 1.875-1.9265 3.5996-14.062 2.0015-14.062-1.8518 0-2.2155-1.4306-2.5334-2.214-0.49195-0.40145 1.0462-2.0674 1.4062-6.5066 1.4062-3.2818 0-6.2867-0.31641-6.6775-0.70313-0.39084-0.38672-3.0979-0.7789-6.0156-0.87152-2.9178-0.0926-6.1488-0.23883-7.18-0.32491-1.0312-0.0861-5.8196 0.33417-10.641 0.9339-7.9419 0.98791-11.858 0.80746-8.4778-0.39071 6.4858-2.2992 6.8453-2.515 5.5372-3.3235-2.7879-1.723-12.2 1.1883-12.2 3.7737 0 2.0744-2.9253 2.5218-17.948 2.7448-15.305 0.22715-22.365-1.9774-22.365-6.9839 0-4.8159-3.371-3.6227-4.2364 1.4996-1.04 6.1557 3.4725 10.645 12.205 12.143 5.4751 0.93902 5.8625 0.919 14.062-0.72689zm-5.17-8.68c0-0.50238-1.2275-1.5482-2.7278-2.324-1.5003-0.77583-2.8714-1.79-3.0469-2.2538-0.42844-1.1322-4.5378 0.45829-4.5378 1.7563 0 1.2457 5.3292 3.6483 8.2031 3.6983 1.1602 0.0202 2.1094-0.37435 2.1094-0.87674zm20.02-0.57041c1.6644-0.63871 0.98663-3.2037-0.8466-3.2037-1.5705 0-2.5951 1.5746-1.83 2.8125 0.67674 1.095 0.79678 1.1125 2.6766 0.39116zm40.453-4.5044c0.007-2.6931 3.7295-3.6202 13.832-3.4452 10.036 0.17381 12.53-0.46673 9.0558-2.3261-2.0405-1.0921-1.7884-1.2246 3.389-1.7813 11.609-1.2484 16.463-2.3693 20.496-4.7328 4.5611-2.673 6.7874-4.8801 5.859-5.8085-0.32966-0.32966-7.0229 0.16858-14.874 1.1072-26.683 3.19-85.925 0.58038-104.78-4.6154-5.6786-1.5652-7.1303-0.97437-6.2476 2.5428 0.80308 3.1997 8.9308 6.6372 21.697 9.1764 5.6719 1.1281 10.511 2.2305 10.754 2.4497 1.0826 0.97699-2.4316 1.9302-5.9517 1.6144-3.5232-0.31607-3.6162-0.27175-1.0524 0.50132 3.7725 1.1376 15.079 2.7964 24.844 3.6451 4.3828 0.38092 8.6016 1.0893 9.375 1.5742 1.5415 0.96641 8.7455 2.1916 11.719 1.993 1.1665-0.0779 1.8769-0.79389 1.88-1.8947zm2.3388-6.1993c-1.0056-0.64989 0.0116-0.91288 3.571-0.92315 3.0826-0.008 4.7566 0.34251 4.3978 0.92315-0.7381 1.1943-6.1208 1.1943-7.9688 0zm35.156 0.9375c0.31867-0.51563-0.0534-0.9375-0.82685-0.9375-0.77343 0-1.667 0.42187-1.9856 0.9375-0.31867 0.51562 0.0534 0.9375 0.82685 0.9375 0.77343 0 1.667-0.42188 1.9856-0.9375zm-4.7412-21.098c5.2918-1.398 8.0253-2.7936 8.0201-4.0945-0.00094-0.32359-18.247-0.67624-40.547-0.78369-30.587-0.14736-43.06-0.55031-50.786-1.6406-12.064-1.7024-12.727-1.7298-12.727-0.52358 0 1.7253 8.8849 5.425 15.938 6.6364 17.205 2.9553 69.451 3.2201 80.103 0.40599zm-29.01-7.97c-0.32242-0.52168-5.0249-0.97358-10.602-1.0188-5.5125-0.0447-15.507-0.39962-22.21-0.78862-11.545-0.67-18.161-0.0107-12.643 1.2599 6.0521 1.3938 46.278 1.8783 45.456 0.54753zm4.7411-29.174c2.4752-0.62326 4.1651-1.5877 4.1651-2.3771 0-0.73055 1.8564-2.124 4.1253-3.0966 3.8208-1.6378 4.2014-2.1232 5.1564-6.576 0.56709-2.6442 1.6638-6.0313 2.4372-7.5268 3.3402-6.4593 0.60303-18.696-5.2308-23.384-4.6134-3.7075-7.1116-4.6341-16.801-6.2318-12.005-1.9796-22.976-1.549-34.089 1.338-3.8737 1.0064-8.4401 4.7724-10.416 8.5908-1.9813 3.8277-2.6035 13.033-1.3633 20.168 1.3309 7.6571 2.7275 10.147 6.5884 11.746 1.7149 0.71031 2.627 1.6581 2.333 2.4243-1.2419 3.2362 10.286 5.755 26.923 5.8822 6.6037 0.0505 13.881-0.38011 16.172-0.95694zm-51.376-70.904c0.27017-0.823-0.89451-1.1719-3.9122-1.1719-4.0723 0-5.6766 1.1364-3.125 2.2134 2.0364 0.85956 6.6366 0.17871 7.0372-1.0415zm36.322-5.8594c0.37161-0.60127-2.8028-0.9375-8.8509-0.9375-5.6619 0-9.4303 0.37463-9.4303 0.9375 0 0.5588 3.5753 0.9375 8.8509 0.9375 4.8893 0 9.1103-0.41962 9.4303-0.9375zm20.625-0.9375c1.3118-0.56372 0.0447-0.82119-4.2188-0.85725-4.2612-0.036-5.6708 0.22177-4.6875 0.85725 1.7052 1.102 6.3418 1.102 8.9062 0zm-42.416-8.458c-0.38991-0.32706-4.0839-1.9655-8.2089-3.6411s-8.9776-3.9629-10.784-5.083c-1.806-1.1201-4.8646-2.8413-6.7969-3.8248-3.5385-1.8011-4.5088-3.253-2.3414-3.5034 0.64454-0.0745 16.57-0.22807 35.391-0.34128 18.82-0.11321 39.975-0.50626 47.01-0.87344 7.0352-0.36718 13.011-0.31201 13.28 0.12261 0.65966 1.0674-24.928 14.034-30.541 15.477-3.4733 0.89277-5.1291 0.90037-7.4242 0.034-2.5364-0.95738-3.3764-0.8539-5.9426 0.73211-2.542 1.5711-4.4788 1.8209-12.961 1.6717-5.4846-0.0964-10.291-0.44294-10.681-0.77zm-32.1-26.96c-12.218-1.37-24.711-3.559-33.281-5.8312-15.226-4.0372-42.419-13.48-55.781-19.37-11.405-5.0275-30.641-15.982-32.95-18.765-1.484-1.7881 0.37342-3.0951 4.3566-3.0656 3.8144 0.0283 21.023 2.3978 23.797 3.2767 1.6543 0.52408 2.1274 0.3856 1.8212-0.53306-0.22753-0.68259-2.7098-2.147-5.5161-3.2542-12.296-4.8514-32.032-14.698-35.779-17.852-1.5115-1.2719-3.1093-2.3125-3.5506-2.3125-0.44131 0-1.0558-0.79837-1.3655-1.7742-0.30971-0.9758-1.8101-2.2907-3.3343-2.922-2.6975-1.1174-4.1555-2.5673-13.261-13.188-6.5444-7.6334-7.8321-9.3967-10.046-13.756-2.0656-4.0685-3.8598-5.2056-3.8598-2.4463 0 0.84593 2.1341 5.9406 4.7425 11.321 2.6084 5.3808 4.6107 10.468 4.4497 11.304-0.34648 1.7991-11.213-11.528-18.389-22.554-10.308-15.837-19.851-39.166-25.089-61.333-2.7615-11.687-4.1249-25.324-2.427-24.275 0.59833 0.36979 1.0879 1.1416 1.0879 1.7151 0 0.57349 0.56866 1.7088 1.2637 2.5228 0.69504 0.81404 1.8093 3.5894 2.4761 6.1676 0.66683 2.5781 2.2519 6.7969 3.5224 9.375s3.2723 7.6952 4.4484 11.371c2.6217 8.194 19.71 42.887 22.961 46.617 1.2978 1.4888 3.8362 4.2942 5.6409 6.2343s4.7016 5.4751 6.4376 7.8556c4.1754 5.7255 19.187 21.089 24.5 25.075 9.1985 6.9002 14.778 10.235 20.156 12.047 3.0938 1.0424 6.4688 2.2821 7.5 2.7548 27.898 12.788 32.521 14.519 41.25 15.441l5.625 0.59386-4.9219-2.3109c-5.5606-2.6108-6.6786-4.8578-1.9459-3.9113 1.6368 0.32735 5.1173 1.5937 7.7344 2.814 2.6171 1.2204 6.2349 2.6779 8.0396 3.2389 1.8047 0.56102 5.1859 1.6083 7.5138 2.3273 2.6414 0.81584 5.0243 1.0144 6.3388 0.52811 1.1692-0.43249 4.2308-0.37622 6.8817 0.1265 5.4364 1.031 5.5467 0.9882 9.9119-3.8435 6.1486-6.8058 19.418-8.8454 56.073-8.6185 36.989 0.22893 65.319 2.6356 78.876 6.7006 7.3402 2.2009 9.25 3.7224 8.3261 6.6333-0.53302 1.6794-0.20778 1.92 2.5954 1.92 1.7626 0 5.0958-1.0054 7.4069-2.2343 2.3112-1.2288 6.4873-2.5351 9.2802-2.9027 2.793-0.36763 6.9766-1.2307 9.2969-1.9179 5.3023-1.5704 25.152-2.6818 26.595-1.4891 1.2952 1.0707 9.6509 1.6735 10.562 0.76201 0.36051-0.36052 1.9157-0.6555 3.456-0.6555 6.7639 0 31.723-12.035 42.356-20.423 10.544-8.3184 12.01-7.0504 2.1094 1.8254-8.7259 7.823-16.834 13.957-26.89 20.343-9.5792 6.0832-29.593 16.561-36.157 18.929-2.5781 0.93016-8.2734 3.0299-12.656 4.6662-16.022 5.9813-32.556 11.015-41.25 12.559-5.0169 0.89064-9.996 2.3625-11.402 3.3704-2.0066 1.4387-4.1188 1.7882-10.781 1.784-13.233-0.008-30.013-1.0739-28.023-1.7793 3.5705-1.2657-2.3238-1.8734-18.298-1.8866-11.01-0.009-16.745 0.38067-19.688 1.3379-3.7815 1.2303-26.381 2.3814-32.745 1.6678zm56.25-9.1919c5.4141-0.31999 13.514-0.64391 18-0.7198 9.1149-0.15421 12.403-1.6381 7.1645-3.2338-1.7232-0.52497-4.3988-1.2517-5.9457-1.6149-2.5028-0.58766-2.6061-0.73994-0.9375-1.383 3.5061-1.3513-2.36-2.0485-12.286-1.4602-5.1021 0.30239-17.925 0.89423-28.495 1.3152s-19.324 0.83676-19.453 0.92397c-0.89977 0.60875 0.11295 2.0249 1.875 2.622 2.0055 0.67957 1.9709 0.74644-0.70313 1.3585-1.5469 0.35407-4.3945 0.69367-6.3281 0.75468-1.9336 0.061-3.5156 0.52089-3.5156 1.022 0 1.5198 28.047 1.75 50.625 0.4155zm32.109-7.6297c-1.6758-0.20795-4.418-0.20795-6.0938 0-1.6758 0.20797-0.30468 0.37812 3.0469 0.37812s4.7227-0.17015 3.0469-0.37812zm-20.926-9.2256c5.3775-0.32053 10.862-1.0205 12.188-1.5555l2.4102-0.97271-2.8125-0.71793c-1.5469-0.39486-4.0777-1.0071-5.6241-1.3605l-2.8116-0.64252 2.3428-1.2971c1.2886-0.71342 3.8194-1.787 5.6241-2.3858 3.7608-1.2478 6.5625-3.4289 6.5625-5.1089 0-5.8504-45.866-9.8718-62.344-5.4662-5.3526 1.4312-6.5625 2.1003-6.5625 3.6296 0 1.4878 1.6874 2.5332 8.1717 5.0623 4.4944 1.753 7.9553 3.5374 7.6908 3.9654-0.26452 0.42801-2.9425 0.52091-5.951 0.20645-6.7205-0.70242-16.911 0.39869-14.983 1.619 0.72713 0.4603 2.4573 0.84338 3.8448 0.85128 3.4929 0.0199 4.2162 1.7095 1.0312 2.4089-6.5167 1.431-4.2618 1.8585 12.384 2.3478 17.934 0.52715 20.97 0.48153 38.84-0.58363zm-60.187-5.6626c-0.31153-0.31152-1.1201-0.34482-1.7969-0.074-0.74787 0.29927-0.52573 0.52142 0.56641 0.5664 0.98827 0.0407 1.542-0.18087 1.2305-0.49239zm245.3-56.154c0.97059-1.5461 2.4923-3.6549 3.3816-4.6861 4.3184-5.0079 11.783-17.332 18.456-30.469 10.875-21.411 16.603-49.617 19.031-93.706 1.5611-28.349-2.3721-52.373-13.602-83.083-3.3759-9.2318-10.078-27.783-15.893-43.992-1.6648-4.6406-4.3877-12.023-6.0508-16.406-4.1383-10.906-5.6854-15.882-5.6569-18.196 0.0163-1.3246 0.77643-0.49569 2.3438 2.5558 1.2758 2.4839 2.3196 5.1799 2.3196 5.9911 0 0.81118 0.82278 3.2086 1.8284 5.3276 1.5804 3.33 3.9018 9.4504 9.9954 26.353 0.74357 2.0625 1.7189 4.5938 2.1673 5.625 2.6838 6.1715 4.7596 11.761 4.7646 12.83 0.003 0.67785 0.61281 2.3962 1.3548 3.8185 0.74193 1.4223 2.622 6.5988 4.178 11.503 1.556 4.9046 3.4661 10.28 4.2447 11.945 4.9761 10.643 12.318 36.055 15.23 52.715 2.1018 12.025 2.3706 51.145 0.43478 63.281-5.0238 31.496-17.264 61.294-34.562 84.141-4.9089 6.4833-8.9036 9.6364-5.3448 4.2188 0.93143-1.418 3.0706-5.0114 4.7538-7.9854s3.7118-6.3374 4.5081-7.4742c1.5914-2.272 1.8445-3.5247 0.71236-3.5247-0.40445 0-1.5134 1.3171-2.4643 2.9268-2.0828 3.5259-11.761 14.324-15.332 17.105l-2.5626 1.9964 1.7647-2.8111zm-418.37-273.52c0.41209-2.1914 1.2021-6.4565 1.7555-9.4779 0.55345-3.0214 1.5696-6.6074 2.2581-7.9688 0.68849-1.3614 1.5428-4.0817 1.8985-6.0451 0.35569-1.9634 1.4668-4.272 2.469-5.1302 1.0023-0.85819 1.8223-2.5968 1.8223-3.8636 0-2.2697 0.96546-5.8395 3.3212-12.28 0.66008-1.8047 2.1308-6.4453 3.2684-10.312 3.2299-10.981 10.293-32.698 12.653-38.906 4.1346-10.876 5.3086-15.056 5.9209-21.083 0.56095-5.5208 0.86936-6.2031 3.3385-7.385 1.4963-0.71621 5.5041-1.5066 8.9062-1.7564 5.6971-0.41834 6.0378-0.34091 4.3122 0.98023-1.0304 0.78896-1.6414 1.6666-1.3577 1.9503 0.28371 0.28371 4.6096 1.0189 9.6132 1.6338s8.8745 1.3409 8.6022 1.6132c-0.27238 0.27238-4.3008 1.0158-8.9522 1.652-7.3704 1.0081-8.925 1.5574-12.1 4.2757-3.9141 3.351-8.468 11.744-13.647 25.15-6.0943 15.777-9.1147 22.988-10.392 24.812-0.71481 1.0205-1.2996 2.732-1.2996 3.8032s-0.37002 2.3484-0.82226 2.8383c-0.45224 0.48985-1.5575 3.2109-2.4561 6.0469-0.89861 2.8359-2.1641 6.4219-2.8121 7.9688-0.64807 1.5469-2.3341 6.6094-3.7467 11.25-2.788 9.1588-4.4915 13.846-7.1781 19.749-0.95407 2.0964-1.7347 4.5092-1.7347 5.3618 0 1.3459-3.5494 9.1079-4.1648 9.1079-0.12401 0 0.1117-1.793 0.52378-3.9844zm382.4-104.02c-1.0407-1.7013-2.5812-4.8865-3.4233-7.0783-1.3171-3.428-2.0702-4.1313-5.3879-5.0322-9.6475-2.6197-9.7584-2.8238-2.2162-4.0772 4.2393-0.70455 4.5231-2.1569 0.70313-3.5988-2.842-1.0727-3.7993-2.5379-1.6406-2.5109 3.0696 0.0383 12.277 2.742 12.928 3.7964 0.40407 0.65382 0.38242 2.1152-0.0481 3.2476-0.53013 1.3944-0.36369 2.4787 0.51567 3.3595 1.5133 1.5158 2.6328 13.645 1.3335 14.448-0.4798 0.29653-1.7238-0.85284-2.7645-2.5541z"/>
<path id="path3535" fill="#030203" d="m535.31 924.56c0-0.4125 0.52734-1.2846 1.1719-1.9381 1.909-1.9355-1.7427-3.8526-7.6792-4.0314-2.8663-0.0864-23.774-0.19183-46.461-0.23438-22.688-0.0426-49.706-0.45493-60.042-0.91641-14.041-0.62691-19.315-0.55931-20.859 0.26736-2.9143 1.5597-2.5693 3.3688 0.97952 5.1362 3.0107 1.4994 2.9633 1.5107-3.9844 0.944-3.8672-0.31542-9.5625-0.91955-12.656-1.3425-3.0938-0.42297-10.374-1.4156-16.178-2.206-10.951-1.491-23.614-3.7484-29.29-5.2215-1.8047-0.46832-5.1797-1.3193-7.5-1.891-24.074-5.9318-29.282-7.5581-37.435-11.69-9.9008-5.0171-13.19-9.8536-13.19-19.396 0-8.8748 4.3204-16.73 9.2014-16.73 1.2716 0 4.0457-0.79629 6.1647-1.7695 2.119-0.97326 6.0869-2.2828 8.8176-2.9102 4.7806-1.0983 5.1038-1.0444 8.7049 1.4512 3.4556 2.3947 4.0638 2.5177 7.998 1.6174 3.2473-0.74309 5.2851-0.66529 8.5847 0.32775 2.3796 0.71616 5.8276 1.2571 7.6621 1.202s6.5255 0.20653 10.424 0.58133c6.2085 0.5968 7.606 0.42965 11.25-1.3455 11.508-5.606 13.067-7.2002 12.341-12.616-0.612-4.5628 1.2073-6.2255 6.812-6.2255 4.6606 0 6.1021-1.2623 6.1021-5.3438 0-2.4374-0.38605-3.0938-1.8197-3.0938-3.219 0-2.9276-1.5786 0.76358-4.1366 1.9792-1.3716 4.0444-3.4277 4.5893-4.5692 0.54491-1.1415 3.7698-5.1994 7.1663-9.0176s6.1755-7.2986 6.1755-7.7344c0-0.43572 0.54307-0.79221 1.2068-0.79221 0.69105 0 1.3017 1.3022 1.4287 3.0469 0.12203 1.6758 0.46284 3.822 0.75736 4.7695 0.57262 1.8421 10.831 7.1542 13.951 7.2243 2.5124 0.0564 10.52 2.1985 11.361 3.039 0.36873 0.36873-0.64062 0.67042-2.243 0.67042-2.6585 0-4.7703 1.3788-3.7201 2.4289 0.23606 0.23605 3.322 0.69932 6.8575 1.0295 5.2484 0.49011 6.0514 0.76849 4.3747 1.5167-2.8279 1.2618-2.327 6.0513 0.80918 7.7382 1.972 1.0607 1.2687 1.1891-5.7203 1.0439-7.3223-0.15211-8.2536-0.39335-11.48-2.9737l-3.5114-2.8082 2.986-1.0054c5.523-1.8596 3.9727-3.9184-2.5258-3.3543-3.1563 0.27402-9.8438 4.2584-9.8438 5.8649 0 0.86743 1.5028 2.136 3.5156 2.9678l3.5156 1.4527-3.2812-0.50224c-4.9996-0.76527-7.5-2.7056-7.5-5.8201 0-3.1331-1.8293-4.1561-5.1644-2.8881-1.7781 0.67603-2.3711 1.6209-2.4842 3.9581-0.35276 7.291 0.57328 8.7131 8.0584 12.375 5.8002 2.8378 10.616 3.0179 21.621 0.80869 6.2143-1.2475 13.607-1.4737 43.125-1.3194 58.048 0.30328 58.5 0.29361 63.468-1.3565 7.0582-2.3444 8.5068-4.6446 6.4055-10.171-1.0127-2.6636-3.3481-2.4479-4.2496 0.39255-0.90026 2.8365-4.6473 4.5805-11.307 5.2628-7.7304 0.792-7.7484-0.96838-0.0199-1.934 2.8067-0.35068 5.5424-1.167 6.0794-1.8141 1.3238-1.595-1.2759-5.2675-3.7287-5.2675-1.466 0-1.7267 0.45021-1.2835 2.2162 0.65469 2.6085-1.2027 3.3757-8.2219 3.396-3.4526 0.01-4.6398 0.42323-5.4236 1.8878-0.72943 1.363-1.9545 1.8715-4.4861 1.8622-5.5768-0.0205-7.8333-0.9071-7.2208-2.837 0.7712-2.4298-0.46145-2.9741-11.965-5.283-6.0827-1.2209-1.6796-2.1797 10.01-2.1797 11.342 0 24.368-1.1167 28.99-2.4851 2.7048-0.80076 0.57317-2.0522-4.0787-2.3945l-4.2188-0.31047 3.75-1.1583c2.0625-0.63706 5.7539-2.4232 8.2031-3.9692 3.7075-2.3402 4.4531-3.2845 4.4531-5.6395 0-3.0591-0.28361-3.0903-7.9688-0.87704-5.3046 1.5277-32.766 2.9529-45 2.3354-6.7031-0.33833-15.141-0.62302-18.75-0.63264-25.295-0.0674-53.903-4.8028-55.283-9.1508-0.34002-1.0713 1.3892-5.8527 4.4855-12.402 14.254-30.153 14.555-63.568 0.85682-95.034-1.7958-4.125-5.532-10.995-8.3028-15.267-2.7707-4.2717-5.0377-8.1276-5.0377-8.5687 0-0.44114-2.3666-3.2068-5.2592-6.146-6.661-6.7683-6.089-7.5257 4.9541-6.5597 7.469 0.65333 7.9546 0.80817 4.9926 1.5918-4.1702 1.1032-6.4043 3.1388-4.9934 4.5497 2.5984 2.5984 44.343 15.935 58.521 18.696l10.872 2.1174 11.159-2.0669c6.1377-1.1368 16.644-3.8861 23.347-6.1095 12.028-3.9895 28.202-8.8738 35.75-10.796 6.3383-1.6138 7.9914-5.6607 2.3122-5.6607-1.4345 0-4.6791-0.62825-7.2103-1.3961s-5.6568-1.467-6.9459-1.5538c-3.4442-0.23168 9.7455-1.4855 17.054-1.6212 3.4772-0.0645 6.5424 0.31974 6.8777 0.86228 0.33269 0.53829-0.16976 2.0777-1.1165 3.421-20.067 28.469-29.202 56.465-28.181 86.363 1.0075 29.496 8.5036 49.789 25.243 68.337 2.4249 2.6869 5.0418 6.109 5.8152 7.6046 0.77341 1.4956 2.6917 3.2518 4.2629 3.9026 3.7447 1.5511 3.6117 2.6042-0.42454 3.3614-2.8583 0.53622-3.2812 0.96762-3.2812 3.3469 0 2.0189 0.58568 2.954 2.2454 3.5851 1.235 0.46954 2.4157 1.3645 2.6238 1.9888 0.23814 0.7144 1.6235 0.0419 3.7377-1.8144 1.8476-1.6222 4.242-2.9495 5.3209-2.9495 3.2198 0 5.1934 5.0037 5.2324 13.266l0.0339 7.172 3.7623 0.69141c4.5196 0.83059 7.8058 0.83848 22.512 0.0541 6.1875-0.33003 14.414-0.70399 18.281-0.83102 5.7432-0.18867 7.5878-0.64526 10.069-2.4926l3.038-2.2616 8.3967 2.5135c4.6182 1.3824 9.4678 2.5135 10.777 2.5135 4.5918 0 9.7836 11.706 8.7174 19.655-0.66375 4.9486-4.2362 11.851-7.7146 14.905-7.3238 6.4304-25.389 13.733-44.065 17.812-5.1562 1.1263-11.273 2.4641-13.594 2.9729-2.3203 0.50874-8.6484 1.5358-14.062 2.2824-5.4141 0.74657-12.797 1.7645-16.406 2.2621-21.86 3.0136-26.719 3.4087-26.719 2.1731zm-36.638-19.7c7.9328-0.47663 10.819-0.98456 11.142-1.9607 0.3579-1.0812-0.46914-1.185-4.6124-0.57885-2.7767 0.40624-17.974 0.64713-33.772 0.53531-18.734-0.13259-28.93 0.12931-29.315 0.75306-0.35467 0.57387 1.1972 1.1917 3.8802 1.5449 2.4592 0.32367 5.1041 0.7081 5.8775 0.8543 2.0668 0.39068 34.386-0.40208 46.8-1.148zm-59.92-1c0-0.45441-1.8743-1.2982-4.1651-1.875-4.6619-1.1739-10.569-1.4082-9.5394-0.37834 2.211 2.211 13.705 4.1008 13.705 2.2533zm79.688-1.9863c1.0958-0.70817 0.83713-0.91195-1.1719-0.92315-1.418-0.008-2.5781 0.40752-2.5781 0.92315 0 1.1854 1.9158 1.1854 3.75 0zm-40.312-4.3778c19.111-1.7798 32.812-4.3202 32.812-6.0835 0-0.67927-1.9344-0.82719-5.8594-0.44807-24.137 2.3315-54.827 1.4971-69.609-1.8924-8.711-1.9974-12.188-2.1007-12.188-0.36225 0 0.85402 2.4632 2.2094 6.5625 3.6109 3.6094 1.234 6.8902 2.8163 7.2907 3.5162 0.54893 0.95927 3.017 1.2243 10.026 1.0766 6.554-0.13809 9.6555 0.16021 10.51 1.0108 1.2081 1.2029 3.442 1.1561 20.455-0.42832zm-46.341-1.352c1.5037-2.433-5.9595-3.8005-7.9106-1.4496-0.57428 0.69197-0.76656 1.5357-0.42729 1.875 1.028 1.0279 7.6484 0.69014 8.3379-0.42544zm-14.828-1.0671c-0.45157-1.3639-7.9176-3.1788-8.9264-2.1699-1.1741 1.1741 2.805 3.3418 6.1342 3.3418 2.1261 0 3.0516-0.38843 2.7922-1.1719zm77.68-8.3741c1.2325-1.2325 1.272-1.7777 0.24795-3.4176-1.89-3.0263-0.12742-3.6249 3.881-1.318 2.0012 1.1517 4.0715 2.0941 4.6006 2.0941 1.3952 0 4.1278-5.6949 3.185-6.6377-1.2094-1.2094-27.311-3.1614-41.081-3.0722-17.16 0.11113-38.813 1.0298-42.441 1.8007-3.6586 0.77732-4.7368 2.0766-2.3837 2.8726 0.93502 0.3163 3.3875 1.3172 5.45 2.2242 2.0625 0.90698 4.5938 1.9465 5.625 2.31 1.9138 0.67463 15.504 1.9601 33.465 3.1653 5.515 0.37007 10.367 1.0198 10.781 1.4438 1.3581 1.3885 17.048 0.15729 18.671-1.4651zm20.98-10.14c0-0.51563-0.42188-0.9375-0.9375-0.9375-0.51563 0-0.9375 0.42187-0.9375 0.9375 0 0.51562 0.42187 0.9375 0.9375 0.9375 0.51562 0 0.9375-0.42188 0.9375-0.9375zm31.512-2.464c5.574-2.7616 5.1753-4.107-1.1997-4.0476-6.641 0.0619-13.755 2.5772-14.227 5.0305-0.30936 1.6064 0.17335 1.712 5.7737 1.2624 3.3612-0.2698 7.7052-1.2802 9.6532-2.2453zm-62.394-4.2064c9.0809-1.1646 11.317-2.0196 9.647-3.6893-1.0948-1.0948-44.718-1.378-46.459-0.3016-1.8989 1.1736 0.17525 2.7439 4.9578 3.7535 6.736 1.422 21.745 1.5338 31.855 0.23742zm26.902-31.064c-0.59377-1.803-4.4578-2.0626-4.4578-0.29957 0 0.9572 0.8464 1.4714 2.4219 1.4714 1.5183 0 2.2779-0.4372 2.036-1.1719zm-2.7036-27.03c7.6968-0.97292 15.121-3.8201 15.121-5.7989 0-1.0729-4.3569-1.2596-25.547-1.0946-21.076 0.16413-23.496 0.0616-13.828-0.58601 6.4453-0.43172 14.039-1.1447 16.875-1.5843 4.8413-0.75054 4.4404-0.83867-6.5625-1.4428-16.733-0.91874-54.33-2.1045-57.656-1.8184-8.9165 0.76686-5.181 3.0885 6.5438 4.0668 7.7313 0.64515 7.4516 0.6767-3.2625 0.3681-6.4453-0.18566-14.807-1.0409-18.582-1.9006-3.7746-0.85967-7.0734-1.3526-7.3306-1.0954-0.2572 0.25719 0.0745 1.3357 0.73706 2.3966 1.7224 2.7579 10.42 6.338 18.613 7.6607 14.785 2.3873 58.703 2.8734 74.879 0.82862zm-16.413-38.325c1.9925-0.61626 3.8085-1.8312 4.0356-2.6998 0.22714-0.86862 1.5735-2.2453 2.9919-3.0594 2.0046-1.1505 2.8396-2.6452 3.7498-6.7121 0.64398-2.8776 1.7807-5.7382 2.5261-6.3568 1.608-1.3345 1.8922-13.567 0.43339-18.653-1.0037-3.4998-5.6687-8.8708-9.3907-10.812-8.4118-4.387-32.106-5.6777-45.163-2.4602-7.9136 1.9501-10.723 3.6419-14.024 8.4457-2.7269 3.9678-3.4298 13.561-1.7316 23.629 0.94166 5.5828 1.6866 7.3548 4.0738 9.6904 1.6067 1.572 3.3473 3.6627 3.8678 4.646 1.1261 2.127 6.1199 3.9768 13.973 5.1762 7.4749 1.1415 30.025 0.59861 34.658-0.8344zm-53.877-69.33c0.71966-0.45569 1.0493-1.5039 0.73254-2.3294-0.76811-2.0017-12.822-2.2253-12.822-0.23787 0 2.6688 8.9334 4.5658 12.09 2.5673zm69.661-2.056c1.556-0.83277 1.683-1.201 0.64149-1.8606-2.6156-1.6565-7.3283-0.21049-6.0508 1.8566 0.82071 1.3279 2.9327 1.3295 5.4093 0.004zm-4.6414-5.6194c7.0898-0.62579 12.891-1.4873 12.891-1.9144 0-0.78787-98.463-0.15218-99.256 0.6408-1.1729 1.1729 1.7812 1.8917 10.033 2.4414 13.292 0.88534 61.412 0.14914 76.333-1.1678zm-19.531 145.28c-0.50804-0.82259 7.9332-2.8674 9.0325-2.188 2.0284 1.2536 0.60691 2.1523-3.8879 2.4579-2.6275 0.17867-4.9426 0.0572-5.1446-0.26991zm-12.58-1.75c0-0.51563 0.81885-0.9375 1.8197-0.9375s2.0804 0.42187 2.3991 0.9375c0.32861 0.53171-0.45902 0.9375-1.8197 0.9375-1.3195 0-2.3991-0.42188-2.3991-0.9375zm-27.527-4.2188c-0.38517-1.0038 0.0899-1.4062 1.6599-1.4062 1.2097 0 2.7247 0.63281 3.3666 1.4062 0.99353 1.1971 0.74668 1.4062-1.6599 1.4062-1.648 0-3.052-0.58645-3.3666-1.4062zm19.392-148.26c-1.1226-0.2444-3.1436-1.89-4.4912-3.6568-2.5079-3.288-5.889-5.6602-6.7872-4.7619-0.27645 0.27645 0.89202 1.8927 2.5966 3.5916l3.0992 3.0889-2.4509 0.29033c-4.9354 0.58466-32.26-12.323-29.623-13.994 2.8348-1.7966 37.419-0.473 37.074 1.4189-0.12177 0.66788 1.9719 1.0347 5.9051 1.0347 5.063 0 6.0526-0.2538 5.8505-1.5004-0.21456-1.3233 2.3139-1.5796 21.422-2.1717 11.916-0.36921 21.819-0.5178 22.006-0.33023 0.18758 0.18759-3.833 2.5514-8.9345 5.2529-7.1624 3.7928-9.8376 4.7708-11.742 4.2927-2.0008-0.50218-2.5645-0.24584-2.9836 1.357-0.33498 1.281-1.7163 2.3093-3.927 2.9233-4.3751 1.2152-5.4284 1.1968-9.1839-0.16123-2.7823-1.0061-3.3267-0.90061-5.3988 1.0461-2.3146 2.1745-8.0682 3.2296-12.431 2.2797zm-42.959-28.199c-19.503-1.6834-32.436-4.6189-56.783-12.888-18.267-6.204-24.537-8.7011-39.31-15.655-10.646-5.0109-25.245-14.056-25.282-15.665-0.039-1.6675 11.53-0.79914 24.26 1.821 10.23 2.1056 11.688 2.2076 10.79 0.75464-0.56281-0.91065-19.68-10.391-26.642-13.213-1.2891-0.52235-1.8451-1.136-1.2357-1.3636 1.2002-0.44825 10.66 3.189 21.861 8.4053 3.8672 1.801 9.0462 4.1462 11.509 5.2115 6.4916 2.8081 22.534 6.4868 30.679 7.0349 11.817 0.79526 26.539 2.4574 30 3.387 1.8047 0.48475 7.5 1.3386 12.656 1.8975 14.233 1.5427 20.935 2.5652 17.812 2.7177-3.8592 0.18836-5.947 1.5678-4.5251 2.9897 0.80212 0.80212 10.434 0.94233 37.023 0.53893 19.767-0.29989 36.361-0.58399 36.877-0.63133 0.51562-0.0473 7.1602 0.046 14.766 0.20741 9.1675 0.19455 13.828-0.0364 13.828-0.68504 0-0.62299-3.7724-0.96512-10.383-0.94167-9.3079 0.033-10.525-0.15645-11.753-1.8298-0.98645-1.3441-2.8694-2.012-6.7263-2.386l-5.3564-0.51939 5.1562-2.3843c2.8359-1.3114 5.7754-3.1336 6.532-4.0495 2.2637-2.7399-2.1184-5.7032-10.457-7.0717-14.027-2.302-14.669-2.7728-3.1058-2.2774 11.936 0.51132 36.231 3.5251 41.719 5.1751 6.5908 1.9817 8.4375 2.9802 8.4375 4.5623 0 1.4912-1.0188 1.9729-9.2974 4.3963-0.7879 0.23065-0.97867 0.71631-0.46875 1.1933 1.1057 1.0343 30.593-0.56666 35.547-1.93 6.2958-1.7325 6.7226-2.142 2.5781-2.4742-2.1914-0.17567-3.9844-0.63368-3.9844-1.0178 0-1.5018 9.3466-3.9924 14.199-3.7836 2.7606 0.11875 7.3842-0.1066 10.275-0.50076 4.3851-0.59799 5.3505-0.46871 5.83 0.78069 0.44028 1.1474 1.9251 1.4974 6.3521 1.4974 9.2092 0 27.62-7.0054 44.332-16.868 3.5515-2.096 6.6506-3.6174 6.8871-3.381 0.47772 0.47773-20.212 15.919-25.185 18.796-1.7377 1.0054-6.3236 3.6776-10.191 5.9383-20.481 11.973-57.503 25.903-80.059 30.123-5.6182 1.0512-10.925 2.5538-11.793 3.339-1.2687 1.1481-4.1333 1.4042-14.629 1.3075-12.346-0.11371-12.764-0.17698-7.7306-1.1719 6.1185-1.2094 6.9656-1.7574 5.1041-3.3023-1.008-0.83656-3.2688-0.86962-9.1387-0.13359-4.2896 0.53787-16.606 0.97795-27.37 0.97795-15.018 0-20.258 0.31333-22.525 1.3471-2.7462 1.2523-23.321 2.3932-31.079 1.7235zm15.469-3.5394c0-0.77344-0.63281-1.4062-1.4062-1.4062-0.77344 0-1.4062 0.63281-1.4062 1.4062 0 0.77344 0.63281 1.4062 1.4062 1.4062 0.77344 0 1.4062-0.63281 1.4062-1.4062zm45.469-3.7325c1.5469-0.25425 10.792-0.50767 20.546-0.56317 9.7532-0.0555 18.332-0.33054 19.063-0.61122 2.6636-1.0221-1.0555-2.0954-7.3117-2.11-7.9859-0.0186-10.388-1.9193-4.1537-3.2869 4.68-1.0267 5.5793-2.4641 2.1466-3.4309-3.8242-1.077-41.033-0.88275-43.103 0.22508-1.1643 0.62313-7.36 0.97548-15.883 0.90328-15.012-0.12716-21.988 0.97252-21.085 3.324 0.65292 1.7015-0.11297 1.957-8.211 2.7388-4.8727 0.47046-6.1674 0.88392-5.3453 1.7072 1.7331 1.7357 53.956 2.6458 63.338 1.1039zm39.85-22.46c0-0.98951-1.7992-1.4052-2.3343-0.53937-0.32387 0.52403 0.0688 0.95279 0.87272 0.95279 0.80387 0 1.4616-0.18604 1.4616-0.41342zm59.53-7.09c0.31867-0.51563 0.15753-0.9375-0.3581-0.9375-0.51562 0-1.1982 0.42187-1.5169 0.9375-0.31867 0.51562-0.15753 0.9375 0.3581 0.9375 0.51562 0 1.1982-0.42188 1.5169-0.9375zm-169.22 3.1462c-2.3203-0.61618-5.0873-1.1543-6.1489-1.1958s-2.7491-0.67426-3.75-1.4062c-1.7837-1.3043-1.7753-1.3781 0.42422-3.7194 4.2623-4.537 14.954-6.7172 37.143-7.5736l13.113-0.50613-8.2 2.1556c-4.51 1.1856-8.7021 2.6576-9.3157 3.2712-1.78 1.78 2.209 5.2412 8.2268 7.1381 6.6733 2.1036 5.9795 2.8976-1.2833 1.4687-4.8126-0.94681-5.9204-0.89037-7.8931 0.40218-2.7262 1.7862-15.534 1.7663-22.316-0.0348zm-118.83-28.49c-1.1602-0.46633-2.1094-1.2833-2.1094-1.8156 0-1.5298 1.4348-1.133 3.2812 0.90729 1.8829 2.0806 1.8357 2.1172-1.1719 0.90829zm-16.92-13.079c-2.9426-2.4534-9.5645-10.549-9.5645-11.693 0-0.51125 2.9531 2.001 6.5625 5.5827s6.5625 6.8399 6.5625 7.2405c0 1.1856-1.2643 0.78425-3.5605-1.1302zm-21.911-11.081c-17.502-21.649-29.208-46.504-35.934-76.298-1.2899-5.7141-2.3452-10.779-2.3452-11.256 0-3.3682 7.3227 9.4528 9.9699 17.456 1.5813 4.7806 4.7004 11.677 15.085 33.351 3.0881 6.4453 6.3848 14.25 7.326 17.344 0.9412 3.0938 3.7895 9.7628 6.3296 14.82 2.5401 5.0573 4.4538 9.3596 4.2527 9.5607-0.20107 0.20107-2.309-2.0383-4.6842-4.9763zm425.79-8.62c0.66697-1.2891 2.3592-4.0312 3.7604-6.0938 2.8765-4.2339 7.2959-12.087 11.871-21.094 10.035-19.758 15.583-44.957 18.06-82.031 0.55121-8.25 1.2149-17.557 1.4748-20.682 0.48159-5.791-0.63619-20.368-2.4038-31.349-0.8468-5.2603-5.644-26.035-7.0995-30.745-0.42519-1.3758-0.36203-1.397 0.45257-0.15161 2.0084 3.0704 9.7215 27.168 11.84 36.99 2.6864 12.456 5.1674 33.287 5.1674 43.386 0 25.614-8.0852 64.188-16.902 80.639-1.0162 1.896-1.8476 3.8383-1.8476 4.3162 0 2.1085-16.741 29.137-17.547 28.33-0.2453-0.24529 0.79907-2.2686 2.3208-4.4962 2.7315-3.9986 10.777-19.362 11.83-22.588 0.4589-1.407 0.25743-1.5099-1.3117-0.67014-1.0196 0.5457-1.8539 1.3802-1.8539 1.8546 0 1.3678-14.564 22.777-16.907 24.853l-2.116 1.875 1.2127-2.3438zm-421.45-1c-0.33987-0.54993-0.41689-1.2009-0.17114-1.4467 0.24574-0.24574 0.69662 0.2042 1.002 0.99988 0.63392 1.652 0.0937 1.9426-0.83081 0.44681zm21.42-343.38c0.30417-0.79268 1.0232-3.2606 1.5979-5.4842 1.2338-4.7744 4.7402-13.977 5.8089-15.246 1.5221-1.8072 0.68989 5.0945-1.1248 9.3281-1.0312 2.4058-1.875 5.1638-1.875 6.1289 0 0.96506-1.116 2.8706-2.48 4.2346s-2.2311 1.8314-1.9269 1.0388zm356.56-28.045c-0.96238-1.4191-1.8529-3.9503-1.9788-5.625-0.21943-2.9168-0.48087-3.1073-6.219-4.5305l-5.9899-1.4857 3.9795-0.70527c4.5894-0.81336 5.6016-1.8749 3.8356-4.0226-1.1257-1.369-0.92933-1.4592 1.9393-0.89087 4.5275 0.89708 5.9158 2.2432 4.685 4.5429-0.7433 1.3888-0.60785 2.6548 0.54364 5.0814 0.84345 1.7774 1.4032 4.8031 1.244 6.7238l-0.28956 3.492-1.7498-2.5802zm-344.57-1.7573c-1.4395-1.3411-1.9512-2.6228-1.5878-3.9769 0.29491-1.0989 0.54196-3.3234 0.549-4.9432 0.0112-2.5588 0.50712-3.1429 3.7818-4.4531 5.0426-2.0177 8.2482-1.9778 8.08 0.10035-0.14975 1.8498 3.0423 2.7969 10.003 2.9682 6.2115 0.15282 4.7752 1.5814-2.3373 2.3248-4.8593 0.5079-6.4197 1.1346-9.1697 3.6829-7.1269 6.6042-6.9367 6.5165-9.3191 4.297z"/>
</g>
</svg>
