<?xml version="1.0" encoding="UTF-8" standalone="no"?>
<!-- Created with Inkscape (http://www.inkscape.org/) -->
<svg id="svg3346" xmlns:rdf="http://www.w3.org/1999/02/22-rdf-syntax-ns#" xmlns="http://www.w3.org/2000/svg" height="938.48" viewBox="0 0 938.4776 938.4776" width="938.48" version="1.1" xmlns:cc="http://creativecommons.org/ns#" xmlns:dc="http://purl.org/dc/elements/1.1/">
<metadata id="metadata3352">
<rdf:RDF>
<cc:Work rdf:about="">
<dc:format>image/svg+xml</dc:format>
<dc:type rdf:resource="http://purl.org/dc/dcmitype/StillImage"/>
<dc:title/>
</cc:Work>
</rdf:RDF>
</metadata>
<g id="g3370">
<path id="path3378" fill="#fefefe" d="m0 469.24v-469.24h469.24 469.24v469.24 469.24h-469.24-469.24v-469.24z"/>
<path id="path3376" fill="#a0a0a0" d="m448.59 927.08c-27.433-1.0569-71.797-7.5002-91.971-13.357-28.947-8.4046-45.137-21.903-41.367-34.489 1.7029-5.6837 11.328-14.65 21.189-19.74 17.696-9.1325 45.379-15.815 73.201-17.671 8.2586-0.55082 18.816-1.3606 23.462-1.7994 8.779-0.82931 14.546-0.45441 14.546 0.94557 0 1.2316-3.0284 1.6203-17.033 2.186-32.874 1.328-71.234 9.497-91.619 19.511-8.306 4.0802-17.105 11.556-17.105 14.532 0 4.9472 8.1415 12.159 21.188 18.77 15.109 7.655 28.41 11.044 58.582 14.925 27.371 3.5211 98.097 4.2522 123.88 1.2804 22.73-2.62 42.625-5.8044 48.855-7.8198 3.8413-1.2426 8.4623-2.5587 10.269-2.9246 3.7553-0.76062 14.83-6.5611 22.739-11.91 5.34-3.6113 10.113-9.2915 10.101-12.022-0.004-0.78347-1.654-3.3468-3.668-5.6964-8.4168-9.8187-38.22-20.457-69.527-24.818-5.4197-0.75492-12.747-1.8494-16.282-2.4321-3.5354-0.58276-13.038-1.3304-21.116-1.6615-8.9774-0.36792-14.615-0.96681-14.5-1.5404 0.32496-1.6212 5.6347-2.1396 13.659-1.3336 4.256 0.42749 14.917 1.2419 23.692 1.8098 14.194 0.91856 20.106 1.7676 39.885 5.728 18.366 3.6774 38.672 13.157 47.576 22.21 6.9694 7.0863 8.2156 11.395 5.4162 18.725-8.0983 21.205-67.577 37.547-141.68 38.927-8.7748 0.16337-23.345 0.0123-32.377-0.33571zm3.071-59.781c-2.9886-0.87244-5.8879-3.5995-5.8772-5.5281 0.005-0.90834 1.0939-3.9742 2.4198-6.8132 1.3258-2.8389 3.4544-9.5959 4.7302-15.016 2.3049-9.7916 2.3214-10.196 2.6057-63.816 0.15741-29.679-0.0104-86.692-0.373-126.69-0.69565-76.755-0.94116-81.363-5.6431-105.9-2.563-13.375-7.9068-31.622-12.181-41.594-6.8803-16.052-16.977-26.981-39.43-42.679-43.992-30.757-62.301-52.598-78.635-93.805-8.1203-20.485-12.266-45.361-13.044-78.276-0.28622-12.103-0.053-26.724 0.54633-34.254 3.6047-45.291 5.4872-59.951 13.678-106.52 4.7826-27.192 6.6918-37.272 10.399-54.901 1.845-8.7748 3.9723-19.121 4.7273-22.993 0.75505-3.8712 2.197-10.417 3.2044-14.546 1.0074-4.1293 3.3284-13.991 5.158-21.916 1.8295-7.9244 3.7281-15.159 4.219-16.076 3.1452-5.8768 33.912-9.7377 90.251-11.326 37.178-1.0479 98.081-0.022128 118.56 1.9967 15.249 1.5036 35.248 4.6303 38.652 6.043 4.1501 1.7225 5.496 4.2846 7.6332 14.531 1.0228 4.9035 2.9526 13.772 4.2885 19.708 1.3359 5.9359 3.0786 13.96 3.8728 17.831 5.2041 25.367 6.4258 31.596 8.0065 40.824 0.97267 5.6778 2.391 13.491 3.1519 17.362 1.9136 9.7357 5.8948 34.138 7.5025 45.985 0.73547 5.4197 2.2091 15.978 3.2748 23.462 6.9433 48.763 7.6459 99.43 1.9131 137.96-3.0869 20.745-16.163 53.603-28.594 71.849-13.288 19.505-35.315 40.036-62.722 58.461-29.98 20.155-38.719 33.822-49.299 77.093-5.6436 23.083-6.6188 35.219-7.6166 94.786-0.49717 29.679-1.3916 76.979-1.9876 105.11-1.3213 62.363-0.77124 91.704 1.9405 103.52 1.0431 4.5445 3.0368 10.803 4.4304 13.909 3.2697 7.2859 2.536 10.063-3.1836 12.049-3.0931 1.0743-4.2039 1.1266-5.0908 0.2398-0.88684-0.88684-0.68498-1.553 0.92511-3.0531 2.7317-2.545 2.6092-4.602-0.9276-15.573l-2.9871-9.2656 0.22216-100.42c0.30514-137.92 1.4129-171.42 6.596-199.43 0.42979-2.3227 1.295-7.1794 1.9226-10.792 1.3077-7.5278 3.4767-17.297 4.3396-19.546 0.43111-1.1235-0.68766-2.3246-4.1977-4.5065-2.632-1.6361-4.7855-3.5109-4.7855-4.1662 0-0.65529 3.5288-3.115 7.8417-5.466 7.5184-4.0983 10.788-6.6532 9.7909-7.6505-0.82221-0.82222-18.933 9.0316-22.029 11.985-3.1119 2.9694-5.9273 3.0438-5.9273 0.15668 0-0.86177 1.7098-3.4217 3.7994-5.6888 2.0897-2.267 4.6029-5.9963 5.5849-8.2872 1.3551-3.1612 2.4187-4.2993 4.4122-4.7213 1.4447-0.30579 4.0136-1.1637 5.7087-1.9064 1.695-0.74271 5.6014-1.3504 8.6809-1.3504s5.599-0.33339 5.599-0.74085c0-0.40747-1.1614-0.72421-2.5808-0.70386-2.1234 0.0304-2.5842-0.37353-2.5996-2.2795-0.0145-1.7897-0.69578-2.5106-2.9958-3.1702-5.1663-1.4817-4.7423-4.8971 0.78171-6.2968 1.9503-0.49418-1.4577-0.59402-8.8517-0.25932-11.482 0.51975-12.045 0.45951-12.516-1.3392-1.1102-4.2454-18.685-4.1698-20.555 0.0884-0.8078 1.8399-1.6016 2.0319-8.3999 2.0319-7.3049 0-7.4996 0.0586-7.2048 2.1673 0.23588 1.6869-0.33612 2.4085-2.5808 3.2558-1.7692 0.66782-2.8839 1.7509-2.8839 2.8023 0 1.4503-0.50497 1.619-3.2847 1.0975-1.8066-0.33892-3.2847-0.349-3.2847-0.0224 0 0.32659 1.118 2.2832 2.4844 4.348 2.2642 3.4214 2.6243 3.6276 4.0624 2.3261 4.0563-3.6709 12.368-0.13209 17.362 7.3924 1.8568 2.7975 4.4162 5.7678 5.6876 6.6008 1.5995 1.048 2.3115 2.3751 2.3115 4.3084 0 3.7504-2.5347 3.707-6.1592-0.10573-2.4443-2.5712-16.795-13.055-17.871-13.055-0.23018 0 0.21635 1.2277 0.9923 2.7282s3.3513 3.9288 5.7231 5.3962c2.3717 1.4674 5.443 3.6212 6.825 4.7861l2.5127 2.118-2.7455 2.2717-2.7455 2.2717 2.0135 8.2797c2.5262 10.388 6.2511 35.179 7.8714 52.388 0.95904 10.186 1.2128 41.4 1.1291 138.89-0.11486 133.83-0.0782 132.68-4.6977 146.27-2.8161 8.2796-2.8025 10.446 0.0812 12.953 3.5353 3.0739 1.6301 4.4336-3.9356 2.8089zm-16.68-401.82c0.73846-1.1949-1.4358-1.1949-3.2847 0-1.1445 0.7396-1.0232 0.91243 0.64847 0.92411 1.1309 0.008 2.3172-0.40795 2.6362-0.92411zm61.47-12.606c4.9036-0.75634 12.632-2.4568 17.174-3.7788 16.179-4.7093 41.778-17.844 56.496-28.988 10.537-7.9784 28.917-26.724 36.028-36.744 11.863-16.717 20.532-39.061 24.212-62.409 2.4293-15.413 2.4252-77.764-0.007-103.7-3.1872-33.987-13.022-97.943-21.287-138.43-1.6334-8.0005-3.7704-18.558-4.7489-23.462-3.0576-15.323-7.6553-30.128-9.7729-31.47-1.5495-0.9822-3.713-0.96518-11.753 0.09245-5.4197 0.71292-13.233 1.7361-17.362 2.2738-7.0941 0.92368-20.871 1.6425-71.28 3.7193-13.34 0.54958-28.703 0.55727-40.355 0.02019-10.348-0.47698-29.161-1.3357-41.807-1.9083-12.646-0.57258-30.383-2.0013-39.416-3.175-14.005-1.8198-16.727-1.9476-18.488-0.86788-3.2234 1.9768-6.5478 13.242-13.811 46.801-10.527 48.638-20.376 109.49-24.606 152.03-2.4364 24.501-2.4822 88.708-0.0729 102.29 3.8643 21.79 10.53 39.877 19.656 53.336 12.563 18.527 29.255 35.335 46.59 46.912 9.7448 6.508 33.629 18.927 41.539 21.598 22.376 7.5573 48.464 9.6461 73.072 5.8506zm32.38-428.47c34.627-1.8258 60.363-4.9551 61.956-7.5335 1.0453-1.6914-18-4.3746-39.433-5.5556-10.323-0.56886-25.538-1.4459-33.81-1.9491-19.429-1.1817-69.056-1.1815-87.723 0.0004055-8.0005 0.50656-22.644 1.3709-32.542 1.9207-9.8975 0.54983-20.667 1.4129-23.931 1.9179-10.455 1.6172-15.79 2.8657-15.79 3.695 0 1.2018 12.202 3.5619 23.931 4.6286 23.289 2.1181 34.195 2.9498 41.762 3.1851 20.8 0.64666 91.368 0.43975 105.58-0.30956z"/>
<path id="path3374" fill="#5e5e5e" d="m439.21 925.38c-6.9682-0.40748-16.048-1.2036-20.177-1.769-4.1293-0.56549-12.787-1.7188-19.239-2.563-33.645-4.4019-57.069-11.301-71.697-21.119-8.4899-5.6978-11.827-10.597-11.827-17.363 0-3.3881 0.47231-5.2487 1.5603-6.1469 1.2172-1.0048 1.6472-1.0299 1.9554-0.11414 2.647 7.8646 8.4417 13.311 21.271 19.991 20.711 10.784 48.663 16.155 92.523 17.778 13.162 0.48705 25.365 1.0929 27.118 1.3464 6.6132 0.9562 60.69-1.4003 75.176-3.2759 24.366-3.1549 32.153-4.4673 37.539-6.3265 2.8389-0.97997 7.4844-2.3172 10.323-2.9716 5.7087-1.316 19.755-8.6411 26.86-14.008 3.0288-2.2877 5.3737-5.1094 6.9255-8.3336 1.2904-2.6812 2.767-4.7413 3.2813-4.5782 1.5198 0.48218 2.2865 7.3581 1.2631 11.328-1.3889 5.3875-9.0046 12.366-18.668 17.105-19.333 9.4814-46.894 16.008-82.745 19.595-16.772 1.678-63.223 2.4912-81.442 1.4258zm10.089-60.179c-2.2231-1.2948-2.0818-5.2638 0.38561-10.833 3.9967-9.0205 5.5303-17.25 6.537-35.078 1.187-21.021 0.25947-222.6-1.1184-243.07-2.13-31.633-12.473-70.774-22.966-86.913-5.4301-8.3515-18.442-20.585-30.977-29.125-29.507-20.101-50.801-40.242-63.816-60.361-4.6161-7.1358-12.726-23.663-17.463-35.588-13.974-35.177-16.296-96.195-6.3431-166.69 5.1091-36.187 9.4169-60.98 17.448-100.42 8.1918-40.228 7.0356-34.896 14.551-67.101 1.6261-6.9682 3.3799-13.222 3.8973-13.897 1.6417-2.1418 7.0286-3.8454 15.447-4.885 4.4914-0.55465 10.278-1.3994 12.859-1.8771 2.5808-0.47777 9.9713-1.1116 16.423-1.4084 6.452-0.29686 16.098-0.98838 21.435-1.5367 10.491-1.0778 25.13-0.20684 19.04 1.1328-1.7406 0.38287-7.653 0.9488-13.139 1.2576-5.4857 0.30882-17.998 1.022-27.805 1.5849-18.156 1.042-36.529 3.6967-38.377 5.545-1.3729 1.3729 0.13798 2.2417 6.5902 3.7896 7.5084 1.8012 7.4891 3.1667-0.0333 2.3612-8.8446-0.94718-10.073 0.04676-13.56 10.974-1.5251 4.7795-3.8818 13.758-5.2371 19.952s-3.2772 14.851-4.2709 19.239c-7.6241 33.662-18.378 97.96-22.523 134.67-5.4489 48.249-5.7976 97.611-0.86995 123.15 6.1468 31.852 18.507 53.869 44.178 78.691 12.487 12.075 23.875 19.973 43.213 29.972 19.142 9.8973 32.582 14.135 52.137 16.44 10.284 1.2123 12.548 2.2142 7.2472 3.2085-1.9891 0.37317-3.8782 1.5236-4.7921 2.9183-1.4729 2.248-1.7956 2.3023-13.663 2.3023-6.6951 0-12.981 0.44267-13.996 0.98557-3.2386 1.7332-0.88605 2.9566 5.0396 2.6207 5.877-0.33321 8.4973 1.226 4.2502 2.5291-1.1898 0.36506-2.7439 1.1299-3.4537 1.6996-0.70974 0.56975-2.5046 0.90855-3.9885 0.75288-1.6307-0.17104-2.6981 0.16272-2.6981 0.84369 0 0.61968 2.6269 5.2587 5.8376 10.309 4.9266 7.7494 6.7572 9.7826 11.731 13.03 3.2414 2.1161 5.8934 4.251 5.8934 4.7444 0 0.49335-0.84463 1.349-1.877 1.9015-2.3392 1.2519-2.3438 3.0395-0.0336 13.093 3.9859 17.347 7.0628 41.012 8.5473 65.739 1.2482 20.792 0.33402 247.5-1.0319 255.9-0.47702 2.9309-1.984 8.6821-3.3489 12.78-1.8566 5.5749-2.3395 8.4881-1.9175 11.567 0.59508 4.3416-0.12643 5.0021-3.3885 3.1021zm37.42-3.4441c0.38019-3.4163-0.20545-6.6504-2.5067-13.843l-3.0028-9.3848 0.15897-94.279c0.17905-106.19 1.1945-160.94 3.308-178.35 2.7073-22.3 5.2933-38.33 8.1738-50.668l1.86-7.9668-2.6456-2.1236c-1.4551-1.168-3.3846-2.3624-4.2879-2.6543-3.1992-1.0338-1.5515-2.9816 5.9276-7.007 7.0216-3.7792 11.2-7.6136 11.2-10.278 0-1.3325 0.84532-1.6816-11.762 4.8577-5.6607 2.9362-11.721 6.6593-13.468 8.2736-2.0259 1.8724-3.5016 2.6094-4.0755 2.0354-1.1676-1.1676 0.57449-4.4804 3.054-5.8074 1.0229-0.54743 3.1271-3.5058 4.676-6.5743 2.1698-4.2982 3.4075-5.7061 5.3919-6.1328 1.4166-0.30464 4.1427-1.2134 6.058-2.0194 2.3436-0.98626 4.7323-1.2656 7.3048-0.85428 4.1701 0.66683 7.5132-0.5518 7.5132-2.7387 0-0.9018-0.96854-1.3747-2.8154-1.3747-2.1834 0-2.8154-0.41851-2.8154-1.8644 0-1.2508-1.1032-2.3253-3.3522-3.265-5.5062-2.3006-3.1554-3.6665 5.1082-2.9679l7.1198 0.60184-2.1222-2.1178c-2.0102-2.006-2.8514-2.1178-15.934-2.1178-13.415 0-13.82-0.058-14.099-2.0159-0.32022-2.2464-2.5571-3.1136-8.0808-3.1329-4.5451-0.0159-3.8772-0.96912 1.0092-1.4404 33.92-3.2712 44.354-6.0071 67.852-17.792 19.182-9.6199 28.021-15.74 44.019-30.476 21.505-19.809 33.999-39.93 41.694-67.145 12.044-42.593 8.5381-120.4-10.211-226.64-3.4481-19.539-7.7193-41.77-9.317-48.496-0.7572-3.1873-2.1865-9.9443-3.1763-15.016-2.6511-13.583-7.2651-27.276-9.6148-28.533-1.2205-0.65317-4.4096-0.81637-8.6405-0.44218-7.291 0.64484-6.9683-0.27942 0.80176-2.2964 9.3376-2.4238 8.1475-4.0506-4.7578-6.5035-5.14-0.977-18.2-2.257-29.04-2.848-23.03-1.2544-42.88-2.728-43.38-3.2194-1.13-1.1331 14.1-1.534 24.52-0.6456 6.7588 0.57578 17.779 1.4393 24.489 1.9189 15.479 1.1064 30.788 3.3386 35.8 5.2199 4.5581 1.7111 5.1746 2.917 7.9034 15.457 3.1636 14.538 7.2496 33.725 8.8937 41.762 0.8447 4.1293 2.5456 12.364 3.7797 18.3 1.2341 5.9359 2.878 14.593 3.6531 19.239 0.77509 4.6455 2.8955 16.893 4.7121 27.216s4.1389 24.893 5.1607 32.377c1.0218 7.4844 2.7077 19.414 3.7464 26.511 3.1032 21.201 5.6383 57.397 5.6458 80.61 0.0119 37.101-3.9761 64.412-12.725 87.144-16.193 42.072-35.966 65.508-82.597 97.896-25.814 17.93-34.74 29.276-42.979 54.636-7.3642 22.666-10.981 43.158-13.66 77.395-1.2 15.338-3.3811 213.08-2.5445 230.69 0.63768 13.426 2.8215 23.979 6.7311 32.526 2.7996 6.1206 2.8212 6.5587 0.44008 8.9398-3.312 3.3121-4.6688 2.4597-4.1078-2.5808zm-28.84-363.1c-1.2364-1.3338-5.2042-4.4447-8.8173-6.9132-11.253-7.6879-13.15-10.505-7.4356-11.036 3.599-0.33496 8.2187 2.6011 11.054 7.0252 1.2524 1.9543 3.8013 5.0087 5.6641 6.7875s3.387 3.7598 3.387 4.4024c0 2.2502-1.6239 2.1383-3.8521-0.26541zm-25.24-470.59c-25.052-0.76096-46.848-2.3721-50.145-3.7065-1.8918-0.76575-1.8934-0.78642-0.0634-0.82486 1.0323-0.02169 10.957 0.59663 22.054 1.3741 33.179 2.3243 85.904 2.7609 119.66 0.99071 16.001-0.8392 32.26-1.7579 36.131-2.0416 4.6042-0.33741 6.5517-0.20837 5.6309 0.37311-2.4193 1.5277-22.73 2.98-54.901 3.9256-33.97 0.99846-42.853 0.98821-78.363-0.0904zm-59.828-5.2578c0.90328-0.23605 2.3814-0.23605 3.2847 0 0.90328 0.23605 0.16423 0.42919-1.6423 0.42919-1.8066 0-2.5456-0.19313-1.6423-0.42919zm199.9 0c0.90328-0.23605 2.3814-0.23605 3.2847 0 0.90328 0.23605 0.16423 0.42919-1.6423 0.42919-1.8066 0-2.5456-0.19313-1.6423-0.42919zm-124.12-16.348c0-0.46769 10.819-0.83598 24.557-0.83598 13.506 0 24.363 0.19396 24.126 0.43102-0.83957 0.83958-48.683 1.2375-48.683 0.40495z"/>
<path id="path3372" fill="#101010" d="m440.15 924.43c-23.05-1.3428-57.854-6.3412-76.478-10.983-22.433-5.5915-40.638-15.232-45.116-23.892-1.5104-2.9209-1.8229-10.739-0.46285-11.58 0.48625-0.30052 1.5568 0.83592 2.3789 2.5254 0.82214 1.6895 2.2191 3.9168 3.1044 4.9496 6.1623 7.1892 26.195 17.387 42.338 21.554 13.906 3.5892 47.323 7.9535 61.732 8.0624 5.5862 0.0422 15.706 0.47105 22.488 0.95293 15.196 1.0797 66.207-0.44372 82.925-2.4765 22.208-2.7004 35.845-5.0905 45.361-7.9503 20.063-6.029 37.18-16.863 41.258-26.113 1.0289-2.3341 1.109-2.1963 1.392 2.3954 0.21527 3.4929-0.23455 5.9203-1.5891 8.5755-5.8792 11.524-35.827 23.294-75.526 29.682-24.342 3.917-74.614 5.9984-103.81 4.2978zm9.5568-60.3c-1.5734-1.5734-1.3104-5.3743 0.62271-8.9999l1.6546-3.1032-0.22574 6.2492c-0.25003 6.9218-0.44041 7.465-2.0515 5.8539zm38.293-3.7852c-0.008-2.1937-0.23939-5.0443-0.5163-6.3347-0.29684-1.3832 0.4976-0.49408 1.9356 2.1664 2.5033 4.6314 2.4765 8.1569-0.062 8.1569-0.95408 0-1.3482-1.1582-1.3573-3.9885zm-33.584-15.25c-0.005-1.0323 0.53446-3.9885 1.1978-6.5693 0.9501-3.6963 1.2145-4.0947 1.2455-1.877 0.0217 1.5485-0.51738 4.5047-1.1978 6.5693-0.68045 2.0646-1.2409 2.9093-1.2455 1.877zm29.069-3.4897c-0.60659-2.409-1.0605-5.5656-1.0087-7.0145 0.0553-1.5455 0.64211-0.12786 1.4197 3.4297 1.5478 7.0812 1.2104 10.024-0.41103 3.5848zm-26.205-16.218c0.0104-2.0646 0.2026-2.7988 0.42708-1.6314 0.22447 1.1674 0.21595 2.8566-0.019 3.7539-0.23489 0.89727-0.41856-0.0579-0.40814-2.1225zm24.492-31.439c0-4.3874 0.16166-6.1822 0.35925-3.9885 0.19758 2.1937 0.19758 5.7834 0 7.9771-0.19759 2.1937-0.35925 0.39885-0.35925-3.9885zm0.81413-105.58c-0.13242-44.99 1.2192-107.36 2.5526-117.78 4.1659-32.562 7.5783-53.748 9.4498-58.67 1.6886-4.4414 1.1254-5.8929-3.2904-8.4808-2.3227-1.3612-4.2232-2.6096-4.2232-2.7742 0-0.16461 2.8506-1.8712 6.3347-3.7924s7.3251-4.3859 8.5355-5.477c1.9831-1.7876 4.8378-6.2535 4.8378-7.5681 0-1.372-4.1654-0.22453-8.5328 2.3506-2.6738 1.5766-7.4434 4.1551-10.599 5.7301-3.1557 1.575-6.899 3.9538-8.3185 5.2862-1.4194 1.3324-2.5808 1.9948-2.5808 1.4721 0-0.52276 1.1034-1.9743 2.452-3.2256s3.7323-4.529 5.2972-7.2836c1.5649-2.7547 3.3121-5.1233 3.8828-5.2637 0.57064-0.14038 2.7268-0.82897 4.7914-1.5302 2.0646-0.70122 6.4293-1.2913 9.6992-1.3112 4.8105-0.0294 6.2039-0.39 7.3003-1.8895 1.934-2.6449 1.2269-4.6574-1.7572-5.0019-1.415-0.16333-2.5728-0.84507-2.5728-1.515 0-0.66991-1.5837-1.8678-3.5193-2.6619l-3.5193-1.4439 3.2847-0.0854c1.8066-0.047 4.4943 0.54545 5.9728 1.3165 4.1424 2.1604 6.2274 1.8266 6.2274-0.99703 0-1.955-0.81405-2.7591-4.3987-4.3447-3.8783-1.7155-5.7007-1.8922-15.402-1.4926l-11.003 0.45317-0.46658-2.4408c-0.54546-2.8534 0.60977-3.819 4.5928-3.8389 5.7634-0.0287 20.8-3.1094 30.262-6.2002 17.451-5.7003 41.627-18.753 56.478-30.492 13.308-10.519 30.132-28.872 38.251-41.726 8.5381-13.518 16.618-36.015 19.365-53.921 1.9916-12.98 3.373-33.094 3.3514-48.801-0.0216-15.695-2.1452-51.838-4.2088-71.635-0.85183-8.1714-1.3287-15.077-1.0597-15.346 0.26898-0.26897 0.69077 0.92664 0.93732 2.6569 0.24656 1.7303 0.90707 6.3133 1.4678 10.185 2.9066 20.067 4.9267 56.065 4.5025 80.24-0.83084 47.357-5.9327 70.503-22.859 103.7-8.3622 16.402-15.603 26.305-29.109 39.812-11.916 11.917-25.113 22.682-42.078 34.323-26.406 18.12-36.527 31.063-44.401 56.783-11.757 38.403-13.949 60.396-15.063 151.09-0.71086 57.917-0.75457 59.009-0.86473 21.585zm-24.854-20.563c-0.37869-10.277-0.69025-32.238-0.69235-48.801-0.004-30.318-0.99176-51.616-2.877-62.023-6.3416-35.008-13.614-57.448-22.707-70.068-6.6027-9.1638-16.784-18.471-31.191-28.514-24.539-17.106-37.439-28.161-49.632-42.532-22.217-26.186-36.343-60.744-40.528-99.144-2.8323-25.991-1.7338-73.274 2.4416-105.1 2.967-22.617 11.002-72.809 11.781-73.592 0.75966-0.76353 0.36035 2.7619-1.9754 17.44-9.652 60.655-13.152 107.98-10.861 146.88 1.4291 24.263 4.0097 37.649 10.551 54.732 5.1712 13.504 11.93 24.668 23.56 38.916 7.1125 8.7134 24.346 23.988 35.376 31.355 8.4893 5.6699 28.959 16.545 38.992 20.716 6.3402 2.6358 24.029 6.9643 31.205 7.6358 4.5213 0.4231 6.804 1.0346 6.804 1.8228 0 0.65233-0.63347 1.4291-1.4077 1.7262-0.77424 0.2971-1.4077 1.1869-1.4077 1.9774 0 1.2184-1.8967 1.4372-12.461 1.4372-9.9071 0-12.9 0.30793-14.606 1.5026-2.0756 1.4538-2.0905 1.5633-0.45617 3.3691 1.3581 1.5007 2.4094 1.7513 5.3643 1.2788 3.2518-0.51998 3.5356-0.41952 2.4636 0.87216-0.86874 1.0468-2.1014 1.2929-4.3564 0.86986-5.309-0.99597-4.9243 1.3931 1.9643 12.199 6.1526 9.6513 9.152 12.767 15.378 15.974l3.1449 1.62-1.9718 2.0989c-2.3198 2.4693-2.4637 5.1122-0.6222 11.427 0.74229 2.5454 1.7751 7.5843 2.2951 11.197 0.52002 3.6131 1.6267 10.581 2.4594 15.485 3.6316 21.388 4.4015 35.31 4.878 88.217 0.50312 55.866 0.19666 69.029-0.90872 39.031zm-0.38579-170.71c-0.94075-1.1906-4.8901-4.3079-8.7764-6.9273-8.5925-5.7916-10.243-7.5195-8.0049-8.3784 2.5802-0.99011 8.823 2.4619 11.075 6.1239 1.1396 1.8532 3.7201 5.1644 5.7344 7.3581s3.217 3.9885 2.6725 3.9885c-0.54444 0-1.7596-0.97412-2.7003-2.1647zm170.22-321.7c-1.5537-11.265-2.0045-17.517-1.2048-16.712 0.60368 0.60827 3.556 26.098 3.1603 27.285-0.19341 0.58024-1.0734-4.1777-1.9555-10.573zm-2.3832-19.605c0-1.2904 0.21301-1.8183 0.47336-1.1731 0.26034 0.64521 0.26034 1.701 0 2.3462-0.26035 0.6452-0.47336 0.11731-0.47336-1.1731zm-1.951-8.9937c0.0451-1.0933 0.26741-1.3156 0.56699-0.567 0.2711 0.67746 0.23776 1.4869-0.0741 1.7988-0.31184 0.31185-0.53365-0.24244-0.4929-1.2318zm-0.93848-6.5693c0.045-1.0933 0.26741-1.3156 0.56699-0.567 0.2711 0.67746 0.23777 1.4869-0.074 1.7988-0.31185 0.31185-0.53366-0.24245-0.49291-1.2318zm-0.86439-6.0219c0-1.2904 0.21301-1.8183 0.47336-1.1731 0.26034 0.6452 0.26034 1.701 0 2.3462-0.26035 0.64521-0.47336 0.11731-0.47336-1.1731zm-295.63-3.75c0-1.2904 0.21302-1.8183 0.47336-1.1731 0.26035 0.6452 0.26035 1.701 0 2.3462-0.26034 0.64521-0.47336 0.11731-0.47336-1.1731zm294.72-2.3462c0.0191-1.5485 0.22946-2.0684 0.4674-1.1552 0.23794 0.91312 0.2223 2.1801-0.0348 2.8154-0.25708 0.63537-0.45175-0.11171-0.43263-1.6602zm-293.78-3.2847c0-1.2904 0.21302-1.8183 0.47336-1.1731 0.26034 0.64521 0.26034 1.701 0 2.3462s-0.47336 0.11731-0.47336-1.1731zm0.97326-6.1001c0.0191-1.5485 0.22946-2.0684 0.4674-1.1552 0.23794 0.91311 0.2223 2.18-0.0348 2.8154-0.25708 0.63538-0.45175-0.11171-0.43263-1.6602zm17.705-82.586c-0.0292-0.51616 0.95586-5.1082 2.189-10.205 2.1073-8.7095 4.3596-12.85 5.1119-9.3979 0.17545 0.80508 1.6536 2.0444 3.2847 2.754 2.8602 1.2443 2.8802 1.2915 0.56424 1.3269-3.774 0.05773-5.3746 1.8666-8.3369 9.4215-1.5179 3.8712-2.7837 6.6163-2.8129 6.1001zm255.77-2.4465c-0.23102-0.71908-0.89848-2.8647-1.4832-4.7681-1.6526-5.3793-4.3716-8.2645-7.8284-8.3071l-2.9819-0.03673 3.0501-1.3257c1.6775-0.72912 3.05-1.9795 3.05-2.7787 0-1.8362 1.3034-1.8672 2.7977-0.06672 1.2896 1.5538 5.0382 17.368 4.2935 18.113-0.26268 0.2627-0.66663-0.11071-0.89767-0.82979z"/>
</g>
</svg>
