<?xml version="1.0" encoding="UTF-8" standalone="no"?>
<!-- Created with Inkscape (http://www.inkscape.org/) -->
<svg id="svg3423" xmlns:rdf="http://www.w3.org/1999/02/22-rdf-syntax-ns#" xmlns="http://www.w3.org/2000/svg" height="937.5" viewBox="0 0 937.5 937.5" width="937.5" version="1.1" xmlns:cc="http://creativecommons.org/ns#" xmlns:dc="http://purl.org/dc/elements/1.1/">
<metadata id="metadata3429">
<rdf:RDF>
<cc:Work rdf:about="">
<dc:format>image/svg+xml</dc:format>
<dc:type rdf:resource="http://purl.org/dc/dcmitype/StillImage"/>
<dc:title/>
</cc:Work>
</rdf:RDF>
</metadata>
<path id="path3441" d="m0 468.75v-468.75h468.75 468.75v468.75 468.75h-468.75-468.75v-468.75z" fill="#fefefe"/>
<path id="path3439" d="m448.59 911.62c-18.338-0.7999-57.962-6.3338-73.896-10.32-27.53-6.89-42.81-17.33-42.81-29.23 0-6.6081 8.7909-15.367 22.031-21.95 16.811-8.3587 50.299-14.422 83.177-15.06 15.985-0.31004 36.675 0.39184-1.6146 2.29-30.266 1.5003-64.344 8.5369-82.023 17.062-6.8284 3.2929-15.012 10.553-15.002 13.309 0.0152 4.4682 8.5921 12.018 17.039 14.998 4.7303 1.7064-3.4642-0.76331 19.049 7.2814l2.8125 1.229c75.51 14.895-18.467 2.7277 40.781 6.6324 15.497 0.94773 23.597 1.5926 30.114 0.34536 5.938-1.6299 3.3043-2.2081 27.419-1.918 14.52 0.51145 2.9451 3.4602 16.463 2.1594 9.8517-0.0645 16.953-0.12687 28.661-0.71597 16.128-1.2167 38.062-5.7427 47.344-9.2208l2.3438-0.94227c8.0366-3.6317 4.7275-2.0315 10.404-4.7436 6.9071-1.1209 18.19-10.417 18.19-14.988 0-0.86895-1.5587-3.3052-3.4638-5.4139-10.822-11.978-52.649-22.557-93.567-25.092-38.08-2.3592-16.967-2.5956 0.46875-2.1952 47.313 1.0864 86.169 11.956 98.499 27.555 3.1702 4.0106 3.6887 5.3202 3.6887 9.3164 0 2.5574-0.59682 5.7891-1.3263 7.1814-7.3774 14.082-42.658 26.059-90.208 30.624-14.23 1.3661-51.057 2.398-64.559 1.809zm-0.54968-44.999c-1.2319-1.4843 0.81461-4.828 4.0572-6.6288 1.498-0.83195 1.68-1.1857 0.62214-1.2092-2.0227-0.0449-4.5984-3.0338-4.5984-5.336 0-1.0307 1.0164-4.3754 2.2588-7.4328 1.2423-3.0574 3.0353-8.9309 3.9844-13.052 1.6277-7.0681 1.7139-13.426 1.5197-112.02-0.12619-64.078-0.60225-110.05-1.2301-118.79-2.0081-27.948-10.62-61.223-19.481-75.276-4.5096-7.1515-16.078-18.411-25.021-24.353-35.59-23.646-55.173-44.409-68.433-72.556-6.199-13.159-9.1585-21.378-12.092-33.585-4.1012-17.065-4.7907-25.421-4.7429-57.475 0.0633-42.469 2.7033-65.458 15.826-137.81 0.74812-4.125 2.8941-14.883 4.7689-23.906 1.8748-9.0234 4.19-20.203 5.145-24.844 0.95496-4.6406 2.6306-12.234 3.7237-16.875 1.0931-4.6406 2.8305-12.023 3.8609-16.406 2.475-10.527 3.0896-11.843 6.3091-13.508 10.801-5.5852 85.496-9.2885 145.19-7.1984 33.376 1.1686 44.953 2.0717 60.449 4.7155 13.312 2.2712 14.104 2.9844 16.72 15.053 7.2093 33.252 12.688 59.785 14.519 70.312 7.1214 40.945 9.3366 54.895 12.714 80.066 0.47764 3.56 1.7156 16.109 2.751 27.888 4.3304 49.26 1.1881 88.358-9.4202 117.21-4.199 11.421-13.385 29.219-19.476 37.735-10.909 15.253-31.899 34.401-53.969 49.234-16.84 11.318-27.323 22.564-33.105 35.514-5.8592 13.123-11.566 35.571-14.356 56.472-2.376 17.798-3.5568 68.492-3.9401 169.16-0.28156 73.943-0.30295 73.6 5.3576 85.964 2.6702 5.8324 2.2028 9.4565-1.3656 10.589-1.8717 0.59406-1.8353 0.72884 0.8838 3.2688 6.0338 5.6364 3.9469 6.3319-18.96 6.3195-14.884-0.008-19.692-0.29906-20.472-1.2388zm31.96-8.37c0-0.78963 0.63281-1.6785 1.4062-1.9753 2.1275-0.81641 1.7226-6.3382-1.0905-14.87l-2.4728-7.5 0.19449-89.008c0.2983-136.51 1.4309-158.6 10.086-196.64 0.78516-3.4514 1.1838-6.6696 0.88591-7.1516-0.29791-0.48202-2.0499-1.5921-3.8932-2.4668-4.5512-2.1597-3.926-4.1004 2.4301-7.5438 6.6322-3.593 9.8309-5.9041 9.1348-6.6002-0.8551-0.85509-15.26 6.7014-18.948 9.9401-5.3595 4.7057-7.5237 0.98947-2.465-4.2328 1.5222-1.5714 3.7659-4.7459 4.9861-7.0544 1.8384-3.4783 3.0104-4.4813 6.8418-5.8556 2.5428-0.9121 6.8132-1.6601 9.4898-1.6621s5.1269-0.42503 5.4451-0.93987c0.33368-0.53991-0.336-0.8375-1.5823-0.70313-1.5946 0.17193-2.2376-0.30081-2.4539-1.8041-0.18312-1.2725-1.3278-2.3978-3.0499-2.9981-1.8428-0.64242-2.7568-1.5988-2.7568-2.8848 0-1.0581 0.42188-1.9238 0.9375-1.9238s0.9375-0.42686 0.9375-0.94858c0-0.57212-1.5812-0.74328-3.9844-0.43127-11.02 1.4307-10.658 1.4572-13.281-0.97312-2.1823-2.0225-3.3906-2.3345-9.0394-2.3345-5.7866 0-6.7497 0.26374-8.5583 2.3438-1.7961 2.0657-2.7859 2.3438-8.3435 2.3438-5.8252 0-6.2686 0.14159-5.8197 1.8583 0.36025 1.3776-0.15366 2.1015-1.9868 2.7984-1.36 0.51708-2.7264 1.6011-3.0363 2.4088-0.41893 1.0917-1.2851 1.3102-3.3745 0.85132-3.0459-0.66899-3.0317-0.52874 0.45502 4.5068 1.589 2.2948 1.9421 2.4243 3.1945 1.1719 0.77444-0.77444 2.2385-1.4081 3.2535-1.4081 2.7502 0 9.0638 3.4868 10.218 5.6428 0.55532 1.0376 2.8898 4.0035 5.1876 6.5907 4.5806 5.1576 4.8121 5.7606 2.8393 7.3979-1.0777 0.89441-2.1079 0.41592-5.2856-2.4549-4.1448-3.7446-14.234-10.694-14.761-10.167-0.88838 0.88837 2.6879 4.4922 7.5003 7.558 5.9132 3.7672 6.5435 5.1004 3.3983 7.1887l-2.0488 1.3603 2.0134 8.8321c2.3824 10.451 5.4659 30.224 6.8596 43.988 1.5443 15.251 1.9648 81.034 1.0577 165.47l-0.82584 76.875-2.4917 7.5c-3.0472 9.172-3.1023 11.147-0.40625 14.565 2.0908 2.6509 2.2024 2.675 12.656 2.7264 8.8686 0.0436 10.547-0.17658 10.547-1.3838zm16.406-365.59c16.542-3.4189 39.057-13.187 54.765-23.759 16.343-11 35.014-30.467 44.034-45.911 7.5815-12.981 13.176-30.357 15.754-48.933 2.178-15.69 2.1533-58.662-0.0486-84.375-2.809-32.804-10.347-82.579-19.025-125.62-1.8191-9.0234-3.9298-19.57-4.6904-23.438-2.0682-10.516-6.885-25.372-8.417-25.96-0.74127-0.28445-8.3419 0.38693-16.89 1.492-23.938 3.0944-45.975 4.1085-89.388 4.1135-42.804 0.005-65.891-1.0664-89.309-4.1444-8.1278-1.0683-15.424-1.6944-16.214-1.3912-2.993 1.1485-7.0492 15.273-14.007 48.776-10.304 49.613-18.891 105.33-21.235 137.77-1.3706 18.974-1.3801 59.913-0.0167 72.313 2.6901 24.467 10.588 44.576 24.813 63.178 13.899 18.176 32.467 32.864 56.414 44.626 21.197 10.411 36.939 13.789 61.429 13.179 8.3997-0.20904 17.696-1.0157 22.031-1.9117zm28.59-377.35c30.632-1.6602 50.625-4.2802 50.625-6.634 0-0.4743-0.42169-0.86236-0.93709-0.86236-0.51539 0-4.6287-0.61526-9.1406-1.3672-9.5931-1.5988-30.061-2.9411-65.505-4.296-44.98-1.7193-125.85 2.3494-130.05 6.5426-1.9816 1.9816 20.182 5.0509 47.192 6.5353 20.172 1.1086 87.919 1.1599 107.81 0.0817z" fill="#a2a2a2"/>
<path id="path3437" d="m445.31 910.31c-15.146-0.9368-46.454-4.9278-59.514-7.5865-33.251-6.7695-52.986-17.915-52.986-29.925 0-3.1314 1.4316-6.5474 2.7439-6.5474 0.44158 0 1.077 1.0922 1.4121 2.4272 1.0915 4.3489 8.9647 11.099 17.894 15.341 20.746 9.8565 43.922 14.501 78.165 15.664 16.992 0.57734 18.267 0.50454 19.448-1.1109 1.1397-1.5586 2.7002-1.7203 15.865-1.6433 12.514 0.0732 14.86 0.31994 16.414 1.7264 1.6477 1.4911 3.4621 1.5847 19.857 1.0244 17.039-0.58238 24.273-1.3629 44.294-4.7789 13.514-2.3059 33.887-9.8145 42.26-15.576 4.417-3.039 9.7708-9.5526 9.7708-11.887 0-0.73905 0.52734-1.1699 1.1719-0.95753 2.1758 0.71704 1.881 9.2222-0.46098 13.301-5.8117 10.121-30.238 20.038-63.523 25.791-24.106 4.1662-66.808 6.3459-92.812 4.7375zm30.471-21.484c-317.19 32.45-158.59 16.225 0 0zm-113.34-7.702c-241.63 37.585-120.82 18.792 0 0zm93.18-15.02c0-0.43939-1.0298-0.79889-2.2884-0.79889-2.99 0-4.0639-1.8371-1.9694-3.3686 2.3533-1.7208 32.402-1.728 34.754-0.008 2.0587 1.5053 1.0601 3.377-1.8017 3.377-1.1727 0-2.4485 0.3164-2.8351 0.70312-0.9828 0.98316-25.86 1.0753-25.86 0.0959zm-4.9219-9.3115c-2.1818-1.2708-2.0728-4.7775 0.29279-9.4144 1.0634-2.0844 2.8563-7.6574 3.9844-12.385l2.051-8.5947-0.14415-105.61c-0.17463-127.94-0.46298-133.03-9.3655-165.19-7.6942-27.8-15.401-39.126-36.524-53.676-31.206-21.495-50.289-39.884-61.903-59.654-10.273-17.487-18.375-40.766-21.479-61.718-2.3305-15.729-2.7843-50.385-0.9744-74.404 3.163-41.976 13.931-105.5 28.854-170.21 1.6052-6.9609 3.599-15.71 4.4306-19.442 1.9814-8.892 3.4592-10.267 12.773-11.88 22.298-3.8619 67.166-6.863 65.638-4.3903-0.53704 0.86894-4.8624 1.2292-35.21 2.9326-16.868 0.94676-31.983 2.9832-34.726 4.6786-1.8825 1.1635-0.40132 2.2679 4.9845 3.7166 6.6477 1.7881 6.4326 2.9796-0.4166 2.3077-4.281-0.41997-6.3704-0.23342-7.495 0.6692-5.8518 4.6965-23.805 93.009-31.701 155.94-5.6373 44.928-6.032 93.58-0.9489 116.96 6.1484 28.279 17.199 47.108 40.303 68.671 11.089 10.35 23.024 18.227 40.422 26.678 14.513 7.0505 25.826 10.55 39.485 12.213 7.8614 0.95723 14.424 2.6303 10.841 2.7636-2.7945 0.10403-6.1977 2.1034-6.6728 3.9202-0.42427 1.6224-1.2034 1.7139-10.158 1.1929-9.7018-0.56453-14.854 0.3077-14.854 2.5146 0 0.69232 1.8141 0.94074 5.3042 0.72633 3.0867-0.18962 5.4419 0.0768 5.6335 0.63726 0.39673 1.1604-4.8556 3.51-8.1253 3.6349-2.9723 0.11353-2.8124 0.8021 2.008 8.6458 5.2738 8.5815 6.0682 9.464 11.905 13.227l5.007 3.2275-2.1114 2.2475-2.1114 2.2475 1.9995 9.1536c2.424 11.097 5.448 30.952 6.7487 44.31 1.6636 17.085 2.0066 63.315 1.1373 153.28l-0.84241 87.188-2.934 9.1585c-2.1847 6.8195-2.7176 9.7279-2.0864 11.388 1.2253 3.2229 0.0527 4.1351-3.017 2.3472zm33.116-2.0343c0.66282-2.3062 0.43883-4.4144-0.92139-8.6719-0.98841-3.0938-2.3115-7.5234-2.9403-9.8438-1.3752-5.075-1.351-156.61 0.0326-204.84 1.0111-35.249 3.3747-56.858 8.9723-82.031 1.8837-8.4711 1.819-8.7662-2.4442-11.162-4.5566-2.5609-4.1126-3.4841 3.5257-7.3307 4.8368-2.4358 9.6437-6.8054 9.6437-8.7664 0-0.47607-0.13905-0.86557-0.30901-0.86557-1.3047 0-20.364 10.687-21.709 12.172-1.7739 1.9602-4.2324 2.5466-4.2324 1.0096 0-0.48427 1.6097-2.7404 3.5772-5.0136 1.9674-2.2732 4.1302-5.4683 4.8062-7.1002 0.81042-1.9565 2.0667-3.1448 3.6885-3.4888 1.3527-0.28694 3.4285-0.91438 4.6129-1.3943 1.1844-0.47994 4.3696-0.87262 7.0781-0.87262 4.521 0 7.1746-1.1096 7.1746-3 0-0.4125-1.0547-0.75-2.3438-0.75-1.4926 0-2.3438-0.52806-2.3438-1.4541 0-0.79974-1.4936-2.0781-3.319-2.8409-5.1084-2.1344-3.1356-3.5536 4.012-2.8862 5.249 0.49017 5.9033 0.38269 4.9155-0.80747-2.041-2.4592-8.0845-3.3992-17.44-2.7125-8.4599 0.621-8.9246 0.55834-9.4021-1.2674-0.52581-2.0107-2.6419-2.914-7.3602-3.1416-3.013-0.1454 1.499-0.8701 16.406-2.6351 12.736-1.508 24.583-4.8953 37.425-10.701 20.384-9.2154 32.812-17.57 48.039-32.292 22.752-21.999 33.804-43.612 38.931-76.136 2.3393-14.839 2.3199-64.08-0.0349-88.594-4.0238-41.889-11.597-88.862-23.578-146.25-2.7449-13.147-6.562-25.163-8.5064-26.776-0.95672-0.794-3.2676-0.94143-7.6808-0.49005-7.4604 0.76305-6.9988-0.38955 1.0782-2.6924 12.884-3.6734-2.7725-6.6704-46.766-8.9517-9.7969-0.50803-18.34-0.92587-18.984-0.92852-0.64453-0.003-1.1719-0.48693-1.1719-1.0762 0-1.9825 36.321 0.0562 60.799 3.4128 12.941 1.7746 15.672 3.0205 16.967 7.7422 2.397 8.7363 9.5034 41.508 13.162 60.698 5.5463 29.09 6.5921 34.8 8.5001 46.406 12.632 76.839 15.179 128.04 8.3254 167.34-3.8855 22.283-15.732 50.233-28.412 67.031-11.163 14.789-31.103 32.72-52.046 46.802-26.403 17.753-33.82 29.322-43.623 68.042-6.3057 24.905-7.2752 45.822-8.5602 184.69-0.68855 74.409-0.51277 78.549 3.8544 90.77 3.5225 9.8576 3.7981 11.958 1.7637 13.446-3.0377 2.2212-4.1365 1.598-3.1618-1.7934zm-26.37-321.86c-1.2412-1.3212-3.7406-3.2903-5.554-4.3757-4.6569-2.7872-11.266-8.1869-11.266-9.2044 0-1.6787 4.5003-1.9751 7.38-0.48592 1.5919 0.82322 4.5262 3.7057 6.5207 6.4055s4.3234 5.4873 5.1753 6.1943c1.6131 1.3387 2.1198 3.8685 0.77492 3.8685-0.42574 0-1.7896-1.081-3.0309-2.4023zm-1.83-413.85c-2.3203-0.36074 5.2734-0.66288 16.875-0.67143 13.399-0.01 19.384 0.25078 16.406 0.71456-5.7084 0.88912-27.466 0.86092-33.281-0.0431zm-33.281-0.62957c-12.156-0.48594-30.469-2.4104-30.469-3.2021 0-0.80821 6.6862-0.45995 20.625 1.0743 4.3828 0.48241 11.977 0.92034 16.875 0.97319 4.8984 0.0529 9.9609 0.43386 11.25 0.84669 2.3749 0.76057-4.1914 0.87116-18.281 0.30793zm80.4 0.1c0.39162-0.40604 6.9307-1.0662 14.531-1.4671 7.6006-0.40089 18.845-1.1715 24.988-1.7125 10.049-0.88492 12.905-0.80335 11.721 0.33468-1.4448 1.3888-52.575 4.2275-51.241 2.8449zm-119.77-4.15c-0.31867-0.51562 0.26435-0.9375 1.2956-0.9375s2.1357 0.42188 2.4544 0.9375c0.31867 0.51563-0.26435 0.9375-1.2956 0.9375s-2.1357-0.42187-2.4544-0.9375zm177.19 0c0.31867-0.51562 1.2122-0.9375 1.9856-0.9375 0.77344 0 1.1455 0.42188 0.82685 0.9375-0.31867 0.51563-1.2122 0.9375-1.9856 0.9375-0.77344 0-1.1455-0.42187-0.82685-0.9375zm-99.09-14.768c6.346-0.16243 16.471-0.16193 22.5 0.000938 6.029 0.16304 0.83686 0.29594-11.538 0.29533-12.375-0.000619-17.308-0.13402-10.962-0.29645z" fill="#606060"/>
<path id="path3435" d="m446.25 909.36c-23.021-1.3006-57.247-6.2852-73.889-10.761-16.564-4.4547-31.305-11.978-35.778-18.261-2.3183-3.2558-3.6516-10.662-2.0928-11.625 0.52605-0.32512 2.0096 1.206 3.2968 3.4024 6.0621 10.344 29.621 20.7 56.901 25.011 16.266 2.5708 31.089 3.8013 45.834 3.8051 10.831 0.003 12.716-0.21975 13.742-1.6224 1.0512-1.4376 2.7431-1.5906 14.635-1.3235 10.36 0.23276 13.618 0.6058 14.196 1.6256 0.58672 1.0358 3.4401 1.3214 13.125 1.3138 24.302-0.019 54.839-4.0449 70.032-9.2327 18.382-6.2768 28.857-12.422 33.357-19.569l2.7365-4.3458 0.2857 3.8695c0.84778 11.482-13.383 20.762-44.024 28.706-27.773 7.2008-75.956 11.063-112.36 9.007zm9.2443-44.677c-0.56999-0.6868-1.723-1.2755-2.5622-1.3082-1.1314-0.0441-1.0293-0.26059 0.39487-0.83749 2.5329-1.0261 28.265-1.0416 30.796-0.0186 1.5016 0.60696 1.5961 0.81075 0.39712 0.85602-0.86552 0.0327-2.1311 0.59352-2.8125 1.2463-1.8029 1.7273-24.786 1.7815-26.213 0.0619zm-5.461-10.858c0.0183-1.1602 0.58076-3.0966 1.25-4.3031 1.1393-2.054 1.2168-1.9196 1.2168 2.1094 0 2.9609-0.38988 4.3031-1.25 4.3031-0.6875 0-1.235-0.94922-1.2168-2.1094zm35.087-0.54026c0.32009-1.4573 0.15311-3.7776-0.37105-5.1562-1.2737-3.3502-0.46407-3.1912 1.3202 0.25933 1.9007 3.6755 1.8748 7.5466-0.0504 7.5466-1.1373 0-1.3458-0.61453-0.89878-2.6496zm-29.31-16.56c0-1.0312 0.33777-2.9297 0.7506-4.2188 0.59435-1.8559 0.7506-1.9534 0.7506-0.46875 0 1.0312-0.33777 2.9297-0.7506 4.2188-0.59435 1.8559-0.7506 1.9534-0.7506 0.46875zm24.709-2.8646c-0.35296-1.8814-0.45425-3.6083-0.22508-3.8374 0.22917-0.22917 0.70545 1.1227 1.0584 3.0041 0.35296 1.8814 0.45425 3.6083 0.22508 3.8374-0.22917 0.22917-0.70545-1.1227-1.0584-3.0041zm-1.2-38.86c0-2.3203 0.18283-3.2695 0.40628-2.1094 0.22346 1.1602 0.22346 3.0586 0 4.2188-0.22345 1.1602-0.40628 0.21094-0.40628-2.1094zm0.95158-98.438c-0.37794-76.399 2.1446-114.92 9.6211-146.91 1.9445-8.321 1.7929-9.2303-1.9217-11.526-1.8047-1.1154-3.2715-2.3099-3.2596-2.6546 0.0119-0.34466 2.9821-2.2919 6.6003-4.3272 3.9083-2.1985 7.3244-4.9071 8.4158-6.6732 2.2679-3.6695 2.2827-4.1576 0.12621-4.1576-1.8374 0-20.027 9.447-23.133 12.015-1.0312 0.85241-0.76126 0.29082 0.59998-1.248s3.3457-4.5359 4.4099-6.6602c1.6184-3.2304 2.6994-4.1124 6.6074-5.3906 2.5699-0.84056 6.6248-1.5283 9.0111-1.5283 5.5227 0 7.9653-1.3038 7.9653-4.2517 0-1.8398-0.47767-2.3108-2.3438-2.3108-1.2891 0-2.3438-0.4084-2.3438-0.90756s-1.1602-1.537-2.5781-2.3062l-2.5781-1.3986 2.3438-0.0318c1.2891-0.0174 3.5816 0.61377 5.0946 1.4027 3.2759 1.7083 5.2179 1.19 5.2179-1.3926 0-3.7666-4.9614-5.2274-17.109-5.0377-11.02 0.19-11.02 0.19-11.02-2.04 0-1.9482 0.55217-2.2946 4.4531-2.7936 19.248-2.4622 29.118-5.4316 46.641-14.031 7.7344-3.7958 17.438-9.2601 21.562-12.143 15.544-10.863 31.441-26.797 41.452-41.548 7.8167-11.519 15.085-31.306 18.309-49.84 1.8387-10.572 2.0581-15.156 2.0695-43.233 0.009-23.27-0.42706-35.981-1.685-49.067-0.9338-9.7137-1.5048-17.854-1.2688-18.09 1.3607-1.3607 4.3984 34.987 5.0248 60.126 0.78341 31.438-2.1683 58.053-8.6351 77.864-3.0597 9.3732-13.059 31.133-17.423 37.917-11.764 18.285-32.029 37.445-58.468 55.279-25.438 17.159-34.352 31.146-43.04 67.534-5.7241 23.975-7.2514 49.944-8.3253 141.56-0.14402 12.287-0.29873 7.5282-0.39626-12.188zm-21.858-14.766c-0.0144-2.9648-0.27333-12.879-0.57535-22.031-0.39366-11.93-0.25354-16.641 0.49499-16.641 0.7375 0 1.0441 6.4693 1.0441 22.031 0 12.117-0.21094 22.031-0.46875 22.031s-0.48055-2.4258-0.49498-5.3906zm-0.29-44.91c-0.34375-0.34375-0.625-6.0161-0.625-12.605 0-25.118-3.4475-50.391-9.769-71.614-8.1885-27.491-15.28-36.968-41.171-55.02-15.217-10.61-19.611-14.036-29.503-23.002-26.346-23.88-42.596-55.522-48.671-94.771-2.2153-14.314-2.1923-64.006 0.0396-85.489 2.4524-23.605 8.1358-61 8.1358-53.531 0 0.63599-1.2442 10.515-2.7649 21.953s-3.294 27.336-3.9406 35.328c-1.5775 19.497-1.6003 67.337-0.0372 78.281 2.9601 20.726 10.312 41.008 19.644 54.196 16.918 23.907 33.767 38.1 61.912 52.149 14.304 7.1406 24.99 10.701 37.957 12.647 4.5319 0.68016 8.4767 1.4735 8.7661 1.7629 0.28945 0.28945-0.33872 1.4548-1.3959 2.5896-1.7523 1.8809-2.8764 2.0728-12.717 2.1714-8.5626 0.0857-11.107 0.4197-12.302 1.6148-1.3834 1.3838-1.3677 1.6453 0.19292 3.2059 1.209 1.209 1.3635 1.8111 0.53571 2.087-2.0686 0.68953-1.2624 2.9071 4.0924 11.256 5.4256 8.4592 8.349 11.526 12.791 13.418 2.4118 1.0272 3.6405 3.683 1.7038 3.683-1.9191 0-1.9785 4.1822-0.17661 12.43 2.3142 10.592 5.4142 31.5 6.6363 44.758 1.102 11.955 2.3567 43.125 1.736 43.125-0.24548 0-0.72759-0.28125-1.0713-0.625zm-0.24012-104.47c-0.98512-1.091-4.8497-4.0994-8.588-6.6853s-6.7969-5.2818-6.7969-5.9908c0-3.284 7.7198 0.42366 10.695 5.1365 1.3042 2.066 3.5244 4.8256 4.9337 6.1324s2.334 2.6043 2.0549 2.8834c-0.27911 0.27911-1.3135-0.38518-2.2986-1.4762zm-23.35-24.29c0.31867-0.51562 1.4232-0.9375 2.4544-0.9375s1.6143 0.42188 1.2956 0.9375c-0.31867 0.51562-1.4232 0.9375-2.4544 0.9375s-1.6143-0.42188-1.2956-0.9375zm175.97-245.15c0.0191-1.5469 0.22921-2.0662 0.46691-1.154 0.23769 0.91215 0.22206 2.1778-0.0348 2.8125-0.25681 0.63471-0.45129-0.1116-0.43218-1.6585zm-0.9375-7.5c0.0191-1.5469 0.22921-2.0662 0.46691-1.154 0.23769 0.91215 0.22206 2.1778-0.0348 2.8125-0.25681 0.63471-0.45129-0.1116-0.43218-1.6585zm-0.97225-7.0312c0-1.2891 0.2128-1.8164 0.47287-1.1719 0.26007 0.64454 0.26007 1.6992 0 2.3438-0.26007 0.64454-0.47287 0.11719-0.47287-1.1719zm-0.86802-6.5625c0-1.8047 0.19294-2.543 0.42875-1.6406 0.2358 0.90235 0.2358 2.3789 0 3.2812-0.23581 0.90235-0.42875 0.16407-0.42875-1.6406zm-270.97-5.1562c0.0191-1.5469 0.22921-2.0662 0.46691-1.154 0.23769 0.91215 0.22206 2.1778-0.0348 2.8125-0.25681 0.63471-0.45129-0.1116-0.43218-1.6585zm0.90275-6.0938c0-1.2891 0.2128-1.8164 0.47287-1.1719 0.26007 0.64454 0.26007 1.6992 0 2.3438-0.26007 0.64454-0.47287 0.11719-0.47287-1.1719zm1.01-5.63c0-1.8047 0.19294-2.543 0.42875-1.6406 0.2358 0.90235 0.2358 2.3789 0 3.2812-0.23581 0.90235-0.42875 0.16407-0.42875-1.6406zm0.79402-5.2344c0.045-1.0921 0.26713-1.3143 0.5664-0.56641 0.27081 0.67675 0.23751 1.4854-0.074 1.7969-0.31153 0.31152-0.5331-0.2422-0.4924-1.2305zm245.18-97.053c-0.23078-0.71833-0.91931-2.9277-1.5301-4.9097-0.81064-2.6307-1.9057-3.9407-4.0556-4.8518-2.4319-1.0306-2.6592-1.3595-1.3045-1.8872 0.90235-0.35153 1.6406-1.2268 1.6406-1.9451 0-1.8717 2.4932-1.6144 3.243 0.33468 1.0194 2.6498 3.2188 13.772 2.8052 14.186-0.20851 0.20852-0.56793-0.2086-0.79873-0.92693zm-224.13-3.19c0.85307-5.8081 2.2677-10.644 3.3005-11.282 0.51601-0.31892 1.7349 0.40155 2.7087 1.601 1.7 2.0941 1.7028 2.2063 0.0697 2.8183-1.9818 0.74278-2.7021 1.7366-4.9642 6.8488l-1.6654 3.7637 0.55078-3.75z" fill="#101010"/>
</svg>
